<svg xmlns="http://www.w3.org/2000/svg" width="29.0786" height="32" viewBox="0 0 29.0786 32">
  <title>brain</title>
  <g fill="#ffffff">
    <path d="M29.0311,14.0673a7.6118,7.6118,0,0,0-.9572-2.7922c.1692-2.7729-.3806-4.8609-1.6347-6.2079a4.6163,4.6163,0,0,0-2.7-1.4309,3.3271,3.3271,0,0,0-3.3022-2.1437c-.03-.0277-.0585-.0465-.088-.0732-.0048-.0038-.007-.01-.0119-.0131l-.0094-.0045A4.5153,4.5153,0,0,0,16.1.1212a4.5786,4.5786,0,0,0-1.5606.7371A4.574,4.574,0,0,0,12.9786.1212,4.5464,4.5464,0,0,0,8.6413,1.4926,3.3258,3.3258,0,0,0,5.339,3.6363a4.6141,4.6141,0,0,0-2.7,1.4309C1.3848,6.4142.8354,8.5022,1.0045,11.2751a7.6164,7.6164,0,0,0-.9572,2.7922A5.5232,5.5232,0,0,0,2.508,19.4352a5.3577,5.3577,0,0,0,2.5652,5.7635A3.6289,3.6289,0,0,0,5.42,27.6769a2.9891,2.9891,0,0,0,2.0277,1.3422C7.9188,29.7466,9.5439,32,11.572,32l.0387,0a3.6932,3.6932,0,0,0,2.9284-1.9129A3.6946,3.6946,0,0,0,17.4674,32c2.0429.03,3.689-2.2485,4.1635-2.9806a2.9885,2.9885,0,0,0,2.0277-1.3422,3.629,3.629,0,0,0,.3465-2.4782,5.3576,5.3576,0,0,0,2.5655-5.7635A5.5217,5.5217,0,0,0,29.0311,14.0673ZM11.5963,30.8907c-1.4368.0231-2.8914-1.9051-3.3278-2.65a.556.556,0,0,0-.3878-.2672A2.0465,2.0465,0,0,1,6.3722,27.11a2.83,2.83,0,0,1-.13-2.042.5547.5547,0,0,0-.3078-.6852c-3.1413-1.3463-2.3085-4.9077-2.2717-5.0576a.5547.5547,0,0,0-.2305-.5961C-.7056,15.97,1.9183,11.8938,2.0314,11.7227a.5558.5558,0,0,0,.0919-.3473c-.1809-2.5291.26-4.3911,1.3116-5.5347A3.4007,3.4007,0,0,1,5.7168,4.7124a.5547.5547,0,0,0,.5149-.3486C6.8525,2.8123,7.85,2.5907,8.3688,2.5907a1.4891,1.4891,0,0,1,.3234.0321.5541.5541,0,0,0,.5267-.1459,3.6376,3.6376,0,0,1,3.4485-1.2893,3.4439,3.4439,0,0,1,1.3064.6348v27.066C13.2336,30.2,12.4345,30.8778,11.5963,30.8907Zm14.0654-12.174a.5349.5349,0,0,0-.066.032,2.7943,2.7943,0,0,1-2.4279.73c-1.259-.3626-1.8933-2.0208-1.8993-2.0378a.5546.5546,0,0,0-1.04.3856,4.6776,4.6776,0,0,0,2.6258,2.7164,2.9166,2.9166,0,0,0,.819.1168,3.7967,3.7967,0,0,0,1.8555-.5444,4.0268,4.0268,0,0,1-2.3858,4.2666.5545.5545,0,0,0-.3078.6853,2.8459,2.8459,0,0,1-.127,2.0374,2.0429,2.0429,0,0,1-1.5114.8686.5554.5554,0,0,0-.3878.2672c-.4337.74-1.8679,2.65-3.303,2.65h-.0247c-.8456-.0131-1.652-.7014-2.3982-2.0375V1.8387a3.4549,3.4549,0,0,1,1.2858-.6412,3.2851,3.2851,0,0,1,2.8777.7456L18.23,3.3083a.5546.5546,0,1,0,.89.6621L20.127,2.6177a.5686.5686,0,0,0,.2537.0064,2.064,2.064,0,0,1,2.2169,1.2268,4.5193,4.5193,0,0,0-2.9222,3.9356.5529.5529,0,0,0,.5508.5527H20.23a.5565.5565,0,0,0,.5547-.549,3.53,3.53,0,0,1,2.6467-3.0738,3.4469,3.4469,0,0,1,2.2118,1.1245c1.051,1.1436,1.4922,3.0057,1.3116,5.5347a.5563.5563,0,0,0,.0918.3472,6.4155,6.4155,0,0,1,.8832,2.4825A4.5176,4.5176,0,0,1,25.6617,18.7167Z"/>
    <path d="M24.8907,13.7853c-.1122.04-2.7572.9651-4.1619-.9047A9.08,9.08,0,0,1,19.4336,10.41c-.27-.7148-.5267-1.3946-1.2312-1.61a13.1146,13.1146,0,0,0,.382-3.01.547.547,0,0,0-.5628-.5467.5549.5549,0,0,0-.5467.5628c0,.0346.0307,3.4932-1.6988,5.6867a.5547.5547,0,1,0,.871.687,8.1,8.1,0,0,0,1.2353-2.3125c.1584.0634.2627.2695.513.9333a10.19,10.19,0,0,0,1.4464,2.7455,4.1035,4.1035,0,0,0,3.427,1.61,6.3624,6.3624,0,0,0,2.0014-.3285.5546.5546,0,0,0-.38-1.0423Z"/>
    <path d="M19.7119,22.7819a2.5975,2.5975,0,0,0-.9525.1857,5.5918,5.5918,0,0,0-1.7651-3.6514.5546.5546,0,0,0-.7843.7843,4.0886,4.0886,0,0,1,1.4084,3.6237l0,.0092a7.226,7.226,0,0,0-1.5426,2.538.5547.5547,0,0,0,1.0524.3512c.2555-.76,1.2179-2.7313,2.5841-2.7313a.5547.5547,0,1,0,0-1.1094Z"/>
    <path d="M12.8637,19.4137a2.2166,2.2166,0,0,0-1.6642-2.14V14.4214a.5546.5546,0,0,0-.5545-.5547h-1.11V9.35a2.219,2.219,0,1,0-1.1093,0v4.5165H7.2374a2.2188,2.2188,0,1,0,0,1.1093H10.09v2.2978a2.208,2.208,0,0,0,0,4.28v1.822a2.2187,2.2187,0,1,0,1.1093,0V21.5537A2.2166,2.2166,0,0,0,12.8637,19.4137ZM7.8714,7.21A1.1095,1.1095,0,1,1,8.9809,8.32,1.1107,1.1107,0,0,1,7.8714,7.21ZM5.0973,15.5308a1.1095,1.1095,0,1,1,1.11-1.1094A1.1106,1.1106,0,0,1,5.0973,15.5308Zm4.4381,3.8829a1.11,1.11,0,1,1,1.11,1.11A1.1106,1.1106,0,0,1,9.5354,19.4137Zm2.219,6.102a1.11,1.11,0,1,1-1.11-1.11A1.1108,1.1108,0,0,1,11.7544,25.5157Z"/>
  </g>
</svg>
