<svg version="1.1" xmlns="http://www.w3.org/2000/svg" xmlns:xlink="http://www.w3.org/1999/xlink" x="0px" y="0px"
	 viewBox="0 0 106.2 142.6" style="enable-background:new 0 0 106.2 142.6;" xml:space="preserve">
<path fill="#ffffff" d="M104.5,70.5c-1.1-3.5-2.8-6.6-4.8-9.7c-3.3-5-7-8.4-11.2-12.5l-0.6-0.5c5.6-4.9,9.2-12.1,9.2-20.2c0-14.8-12-26.7-26.7-26.7
	c-5.1,0-9.8,1.4-13.9,3.9c-0.1,0.1-0.2,0.1-0.3,0.2c-0.1,0.1-0.2,0.2-0.4,0.3c-3.4,2.2-6.2,5.1-8.3,8.6c-3.5-1.7-7.4-2.7-11.6-2.7
	c-14.8,0-26.7,12-26.7,26.7c0,5.5,1.7,10.6,4.6,14.9l0.1,0.1c-2.6,2.8-5.1,5.2-7.3,8.5c-2,3-3.7,6.2-4.8,9.7
	c-2.4,7.5-1.9,16.5-1.6,24.3c0.1,1.9,0.1,3.8,0.1,5.7c0.1,3.6,0.1,7.1,0.1,10.7c0,3.6,0.1,7.1,0.1,10.6c0,1.6,0,14.4,0,20.2H8
	c0-5.6,0-18.6,0-20.2c-0.1-3.6-0.1-7.1-0.1-10.6c0-3.6-0.1-7.1-0.1-10.7c0-2,0-4-0.1-5.9c-0.2-4.3-0.4-8.7-0.2-13
	c0.1-3,0.5-5.9,1.4-8.8c0.9-2.9,2.3-5.4,3.9-7.9c1.7-2.6,4-4.9,6.3-7.1c3.4,2.7,7.4,4.7,11.8,5.6c-2.5,3.5-4,7.8-4,12.4
	c0,6.5,3,12.3,7.6,16.2c-1.6,1.8-3.2,3.7-4.7,6c-0.5,0.8-1,1.6-1.5,2.4c-1.8,3.3-3.2,6.5-4,10.1c-0.8,3.2-0.9,5.9-0.8,9.5l0.3,21.9
	h7.4c0-7.1-0.4-15-0.2-22.1c0.1-4.8,0.7-10.1,3.9-15.9c1.2-2.1,2.4-3.8,4-5.7c0.7-0.8,1.5-1.6,2.2-2.4c2.2,0.8,4.6,1.2,7.1,1.2
	c2.9,0,5.7-0.5,8.2-1.6c2.1,2.1,4,4.3,5.8,7c0,0.1,0.1,0.1,0.1,0.2c3.8,6.3,4.5,12,4.6,17.2c0.2,7-0.2,14.9-0.2,22.1h7.4l0.3-21.9
	c0-0.9,0-1.8,0-2.6c0-3.1-0.2-5.5-1.1-8.5c0-0.3-0.1-0.5-0.2-0.8c-0.8-2.6-2-5-3.3-7.3c-0.1-0.1-0.1-0.2-0.2-0.3
	c-0.5-0.8-0.9-1.5-1.4-2.2c-1.8-2.7-3.7-4.9-5.7-7c4.1-3.9,6.7-9.4,6.7-15.5c0-9.2-5.8-17.1-14-20c1.4-1.5,2.6-3.1,3.7-4.9
	c3.5,1.7,7.4,2.7,11.6,2.7c4,0,7.7-0.9,11.1-2.4c0.6,0.6,1.2,1.1,1.8,1.7c3.8,3.7,7.2,6.8,10.2,11.3c1.6,2.5,3,5.1,3.9,7.9
	s1.3,5.8,1.4,8.8c0.2,4.3,0,8.7-0.2,13c-0.1,1.9-0.1,3.9-0.1,5.9c-0.1,3.6-0.1,7.1-0.1,10.7c0,3.6-0.1,7.1-0.1,10.6
	c0,1.9,0,17.5-0.1,19.4l-0.1,1.5h7.4l0.1-1.2c0.1-1.9,0.1-17.6,0.1-19.6c0.1-3.6,0.1-7.1,0.1-10.6c0-3.6,0.1-7.1,0.1-10.7
	c0-1.9,0-3.8,0.1-5.7C106.4,87,106.9,78.1,104.5,70.5z M61.9,76.4c0,7.7-6.3,14-14,14c-7.7,0-14-6.3-14-14s6.3-14,14-14
	C55.7,62.4,61.9,68.7,61.9,76.4z M42.8,55.9c-0.7,0.2-1.5,0.4-2.2,0.7c-1.5,0.4-3,0.6-4.6,0.6c-10.6,0-19.2-8.6-19.2-19.2
	c0-10.7,8.6-19.3,19.2-19.3s19.2,8.6,19.2,19.2C55.2,46.1,50,53.1,42.8,55.9z M81.1,43.4c-3.1,2.1-6.7,3.3-10.7,3.3
	c-0.7,0-1.5,0-2.2-0.1c-2.3-0.2-4.4-0.9-6.5-2.1c0.6-2.2,0.9-4.4,0.9-6.8c0-7.8-3.4-14.9-8.8-19.8c1.5-2.7,3.6-4.9,6.2-6.6
	c0.1,0,0.1-0.1,0.2-0.1c2.9-1.8,6.4-2.9,10.2-2.9c10.6,0,19.2,8.6,19.2,19.2C89.6,34.1,86.2,40,81.1,43.4z"/>
</svg>
