<svg xmlns="http://www.w3.org/2000/svg" width="32" height="32" viewBox="0 0 32 32">
  <title>cancel</title>
  <g>
    <path d="M16,0A16,16,0,1,0,32,16,16.0183,16.0183,0,0,0,16,0Zm0,30.6086A14.6087,14.6087,0,1,1,30.6086,16,14.6247,14.6247,0,0,1,16,30.6086Z"/>
    <path d="M16.9829,16.0007l5.769-5.769a.6956.6956,0,0,0-.9837-.9837l-5.769,5.769L10.23,9.248a.6956.6956,0,0,0-.9837.9837l5.769,5.769L9.2465,21.77a.6956.6956,0,0,0,.9837.9837l5.769-5.769,5.769,5.769a.6956.6956,0,0,0,.9837-.9837Z"/>
  </g>
</svg>
