<svg xmlns="http://www.w3.org/2000/svg" width="25.0667" height="32" viewBox="0 0 25.0667 32">
  <title>checklist</title>
  <g>
    <path d="M17.2875,0H0V32H25.0667V7.7792ZM17.6,1.8208l5.6459,5.6459H17.6ZM1.0667,30.9333V1.0667H16.5333V8.5333H24v22.4Z"/>
    <path d="M19.2,11.2H10.667a.5334.5334,0,0,0,0,1.0667H19.2a.5334.5334,0,0,0,0-1.0667Z"/>
    <path d="M8.7329,9.7168,6.4391,11.552,5.71,10.8229a.5333.5333,0,1,0-.7541.7542l1.0666,1.0666a.5328.5328,0,0,0,.71.0395L9.3991,10.55a.5334.5334,0,0,0-.6662-.8331Z"/>
    <path d="M19.2,17.0667H10.667a.5333.5333,0,1,0,0,1.0666H19.2a.5333.5333,0,1,0,0-1.0666Z"/>
    <path d="M8.7329,15.5835,6.4391,17.4187,5.71,16.69a.5332.5332,0,0,0-.7541.7541L6.0225,18.51a.5328.5328,0,0,0,.71.04l2.6667-2.1334a.5333.5333,0,0,0-.6662-.833Z"/>
    <path d="M19.2,22.9333H10.667a.5334.5334,0,0,0,0,1.0667H19.2a.5334.5334,0,0,0,0-1.0667Z"/>
    <path d="M8.7329,21.45,6.4391,23.2853l-.7291-.729a.5332.5332,0,0,0-.7541.7541l1.0666,1.0667a.5329.5329,0,0,0,.71.0394l2.6667-2.1333a.5334.5334,0,0,0-.6662-.8331Z"/>
  </g>
</svg>
