<svg xmlns="http://www.w3.org/2000/svg" width="30.6667" height="32" viewBox="0 0 30.6667 32">
  <title>download</title>
  <g>
    <path d="M30,22.6667a.667.667,0,0,0-.6667.6667V30a.6678.6678,0,0,1-.6667.6667H2A.6678.6678,0,0,1,1.3334,30V23.3333a.6667.6667,0,1,0-1.3334,0V30a2.0024,2.0024,0,0,0,2,2H28.6667a2.0024,2.0024,0,0,0,2-2V23.3333A.6668.6668,0,0,0,30,22.6667Z"/>
    <path d="M23.8026,17.5293a.6672.6672,0,0,0-.9427,0L16,24.3892V.6667a.6667.6667,0,0,0-1.3334,0V24.392L7.804,17.5293a.6666.6666,0,0,0-.9427.9427l8,8a.6394.6394,0,0,0,.0832.0549.6482.6482,0,0,0,.1336.0882.6671.6671,0,0,0,.2552.0516h0l.0032-.0007a.666.666,0,0,0,.4711-.1992l7.9949-7.9948A.6672.6672,0,0,0,23.8026,17.5293Z"/>
  </g>
</svg>
