<svg width="14" height="16" viewBox="0 0 14 16" fill="none" xmlns="http://www.w3.org/2000/svg">
<path d="M6.08371 11.2266C5.972 11.3383 5.972 11.5189 6.08371 11.6306C6.13943 11.6863 6.21257 11.7143 6.28571 11.7143C6.35886 11.7143 6.432 11.6863 6.48771 11.6306L9.916 8.20229C9.94257 8.176 9.96343 8.14429 9.978 8.10914C10.0069 8.03943 10.0069 7.96086 9.978 7.89086C9.96343 7.85572 9.94229 7.824 9.916 7.79743L6.48771 4.36943C6.376 4.25772 6.19543 4.25772 6.08371 4.36943C5.972 4.48114 5.972 4.66172 6.08371 4.77343L9.02457 7.71429H0.285714C0.127714 7.71429 0 7.842 0 8C0 8.158 0.127714 8.28572 0.285714 8.28572H9.02457L6.08371 11.2266Z" fill="#E06364"/>
<path d="M13.4284 0H2.857C2.699 0 2.57129 0.127714 2.57129 0.285714V6.28571C2.57129 6.44371 2.699 6.57143 2.857 6.57143C3.015 6.57143 3.14272 6.44371 3.14272 6.28571V0.571429H13.1427V15.4286H3.14272V9.71429C3.14272 9.55629 3.015 9.42857 2.857 9.42857C2.699 9.42857 2.57129 9.55629 2.57129 9.71429V15.7143C2.57129 15.8723 2.699 16 2.857 16H13.4284C13.5864 16 13.7141 15.8723 13.7141 15.7143V0.285714C13.7141 0.127714 13.5864 0 13.4284 0Z" fill="#E06364"/>
</svg>
