<svg xmlns="http://www.w3.org/2000/svg" width="32" height="32" viewBox="0 0 32 32">
  <title>gear</title>
  <g>
    <path d="M30.3526,12.4444H27.3588a1.1494,1.1494,0,0,1-.813-1.962l2.1167-2.1162a1.6487,1.6487,0,0,0,0-2.3306L25.9644,3.3375a1.6871,1.6871,0,0,0-2.3306,0L21.5176,5.4536a1.1491,1.1491,0,0,1-1.962-.8124V1.6474A1.6492,1.6492,0,0,0,17.9082,0H14.0918a1.6492,1.6492,0,0,0-1.6474,1.6474V4.6412a1.1491,1.1491,0,0,1-1.962.8124L8.3662,3.3375a1.6871,1.6871,0,0,0-2.3306,0L3.3375,6.0356a1.6487,1.6487,0,0,0,0,2.3306l2.1167,2.1162a1.1494,1.1494,0,0,1-.813,1.962H1.6474A1.6492,1.6492,0,0,0,0,14.0918v3.8158a1.6494,1.6494,0,0,0,1.6474,1.648H4.6412a1.1494,1.1494,0,0,1,.813,1.962L3.3375,23.6338a1.6487,1.6487,0,0,0,0,2.3306l2.6981,2.6981a1.6859,1.6859,0,0,0,2.3306,0l2.1162-2.1167a1.1494,1.1494,0,0,1,1.962.813v2.9938A1.6492,1.6492,0,0,0,14.0918,32h3.8158a1.6491,1.6491,0,0,0,1.6473-1.6474V27.3588a1.15,1.15,0,0,1,1.9622-.813l2.1161,2.1167a1.687,1.687,0,0,0,2.3306,0l2.6982-2.6981a1.6489,1.6489,0,0,0,0-2.3306l-2.1168-2.1162a1.1494,1.1494,0,0,1,.8136-1.962h2.9938A1.6492,1.6492,0,0,0,32,17.9082V14.0918A1.6492,1.6492,0,0,0,30.3526,12.4444Zm.4622,5.4638a.4629.4629,0,0,1-.4622.4622H27.3588a2.3349,2.3349,0,0,0-1.651,3.9858l2.1168,2.1161a.4625.4625,0,0,1,0,.6542l-2.6981,2.6981a.4624.4624,0,0,1-.6542,0l-2.1161-2.1168a2.3349,2.3349,0,0,0-3.9858,1.651v2.9938a.4629.4629,0,0,1-.4622.4622H14.0918a.4629.4629,0,0,1-.4622-.4622V27.3588a2.2983,2.2983,0,0,0-1.4412-2.157,2.3621,2.3621,0,0,0-.9084-.1843,2.3021,2.3021,0,0,0-1.6362.69L7.5277,27.824a.4624.4624,0,0,1-.6542,0L4.1754,25.126a.4626.4626,0,0,1,0-.6543l2.1168-2.1161A2.3344,2.3344,0,0,0,4.6412,18.37H1.6474a.4629.4629,0,0,1-.4622-.4622V14.0918a.4629.4629,0,0,1,.4622-.4622H4.6412a2.3349,2.3349,0,0,0,1.651-3.9858L4.1754,7.5277a.4625.4625,0,0,1,0-.6542L6.8735,4.1754a.4625.4625,0,0,1,.6542,0L9.6438,6.2916a2.3349,2.3349,0,0,0,3.9858-1.65V1.6474a.4629.4629,0,0,1,.4622-.4622h3.8158a.463.463,0,0,1,.4628.4622V4.6412a2.3349,2.3349,0,0,0,3.9858,1.651L24.4723,4.176a.4625.4625,0,0,1,.6542,0l2.6981,2.6981a.4625.4625,0,0,1,0,.6542L25.7078,9.6444a2.3348,2.3348,0,0,0,1.651,3.9858h2.9938a.462.462,0,0,1,.4622.4616Z"/>
    <path d="M16,10.6667A5.3333,5.3333,0,1,0,21.3333,16,5.3389,5.3389,0,0,0,16,10.6667Zm0,9.4815A4.1482,4.1482,0,1,1,20.1482,16,4.1536,4.1536,0,0,1,16,20.1482Z"/>
  </g>
</svg>
