<svg xmlns="http://www.w3.org/2000/svg" width="25.0667" height="32" viewBox="0 0 25.0667 32">
  <title>page</title>
  <g>
    <path d="M19.2,11.7333H5.8667a.5334.5334,0,1,0,0,1.0667H19.2a.5334.5334,0,0,0,0-1.0667Z"/>
    <path d="M5.8667,8.5334H11.2a.5334.5334,0,0,0,0-1.0667H5.8667a.5334.5334,0,1,0,0,1.0667Z"/>
    <path d="M19.2,16H5.8667a.5334.5334,0,1,0,0,1.0667H19.2A.5334.5334,0,0,0,19.2,16Z"/>
    <path d="M19.2,20.2667H5.8667a.5333.5333,0,1,0,0,1.0666H19.2a.5333.5333,0,0,0,0-1.0666Z"/>
    <path d="M19.2,24.5333H5.8667a.5334.5334,0,1,0,0,1.0667H19.2a.5334.5334,0,0,0,0-1.0667Z"/>
    <path d="M17.2875,0H0V32H25.0667V7.7792ZM17.6,1.8208l5.6459,5.6459H17.6ZM1.0667,30.9333V1.0667H16.5333V8.5333H24v22.4Z"/>
  </g>
</svg>
