<svg xmlns="http://www.w3.org/2000/svg" width="31.9991" height="32" viewBox="0 0 31.9991 32">
  <title>pencil-1</title>
  <path d="M30.475,1.5238a5.22,5.22,0,0,0-7.3723,0L2.2165,22.41c-.01.01-.0156.022-.0243.0324-.0122.014-.0226.029-.0336.044a.5609.5609,0,0,0-.0724.1385c-.0052.015-.0128.0283-.0168.0434l-.007.0174L.0151,31.2864a.5757.5757,0,0,0-.0128.117L0,31.4254a.5786.5786,0,0,0,.0376.1923c.0053.0145.0111.0272.0174.0412a.5785.5785,0,0,0,.1135.1713.5832.5832,0,0,0,.19.1263A.5744.5744,0,0,0,.578,32a.5836.5836,0,0,0,.1338-.0156l8.6007-2.0475a.4123.4123,0,0,0,.0447-.0173.5706.5706,0,0,0,.1737-.0939c.0139-.011.0284-.0191.0417-.0313l.015-.0115L30.4744,8.8961A5.2188,5.2188,0,0,0,30.475,1.5238Zm-.819.819a4.058,4.058,0,0,1,.3765,5.2919L24.3641,1.9663A4.0579,4.0579,0,0,1,29.656,2.3428Zm-2.8668,8.6007L21.0553,5.21l.8189-.819,5.7339,5.7338ZM2.8733,29.1255a.5787.5787,0,0,0-.819,0l-.4384.4385,1.4792-6.2134,2.5611-.2844-.33,2.9665a.5622.5622,0,0,0,.0058.0638.5693.5693,0,0,0-.0058.0636.5457.5457,0,0,0,.0162.0533.59.59,0,0,0,.0289.0956.5681.5681,0,0,0,.0551.1048.5437.5437,0,0,0,.0579.0736.5845.5845,0,0,0,.0909.0776.5992.5992,0,0,0,.08.0486.5921.5921,0,0,0,.12.0382.5637.5637,0,0,0,.0626.02.5719.5719,0,0,0,.0631.0035h.0023a.582.582,0,0,0,.0632-.0035l2.9665-.3295-.2844,2.5611L2.4349,30.3829l.4384-.4384A.58.58,0,0,0,2.8733,29.1255Zm7.2686-3.1733L23.1027,12.9909a.5791.5791,0,0,0-.819-.819L9.3229,25.1333,6.5586,25.44l.3069-2.7644L19.8274,9.7151a.5791.5791,0,0,0-.8189-.819L6.0466,21.8569l-1.8435.205L20.2363,6.0286,25.97,11.7624,9.9369,27.7957ZM28.427,9.3056,22.6932,3.5718l.8195-.82,5.7338,5.7339Z"/>
</svg>
