<svg xmlns="http://www.w3.org/2000/svg" width="32" height="32" viewBox="0 0 32 32">
  <title>pencil-2</title>
  <g>
    <path d="M31.8771,6.8288A3.2642,3.2642,0,0,0,32,6.2059c0-.0527-.0273-.0988-.03-.1511a3.33,3.33,0,0,0-.22-1.1171,3.3388,3.3388,0,0,0-.5348-.8069,3.1353,3.1353,0,0,0-.1914-.2886L28.1278.9449a3.4112,3.4112,0,0,0-4.7133,0L2.8639,21.5161l-.0023.001-.0042.01a.6485.6485,0,0,0-.1649.2807L.0258,31.15A.6659.6659,0,0,0,.6671,32a.6748.6748,0,0,0,.1841-.0253l9.3332-2.6691a.6671.6671,0,0,0,.2879-.17L31.0239,8.5653a3.3339,3.3339,0,0,0,.7281-1.1027A3.2908,3.2908,0,0,0,31.8771,6.8288Zm-7.52-4.9377a2.0465,2.0465,0,0,1,2.828,0l2.896,2.8974a2.0037,2.0037,0,0,1,0,2.8292L10,27.718,4.2772,21.99ZM3.6637,23.2635l5.0653,5.07-7.0925,2.028Z"/>
    <path d="M27.804,5.1114a.6669.6669,0,1,0-.9427-.9436L8.195,22.8516a.6669.6669,0,0,0,.9427.9436Z"/>
  </g>
</svg>
