<svg xmlns="http://www.w3.org/2000/svg" width="32" height="32" viewBox="0 0 32 32">
  <title>print</title>
  <g>
    <path d="M27.3333,10.6667h-2v-10A.667.667,0,0,0,24.6671,0H7.3338a.6669.6669,0,0,0-.6667.6667v10h-2A4.6717,4.6717,0,0,0,0,15.3333v8a2.0025,2.0025,0,0,0,2,2H6.6671v6A.6668.6668,0,0,0,7.3338,32H24.6671a.6669.6669,0,0,0,.6667-.6666v-6H30a2.0025,2.0025,0,0,0,2-2v-8A4.6718,4.6718,0,0,0,27.3333,10.6667ZM8.0005,1.3333h16v9.3334h-16Zm0,29.3334V20h16v4.6633L24,24.6667l.0007.0034v5.9966Zm22.6661-7.3334A.667.667,0,0,1,30,24h-4.666V19.3334a.6669.6669,0,0,0-.6667-.6667H7.3338a.6669.6669,0,0,0-.6667.6667V24H2a.667.667,0,0,1-.6667-.6667v-8A3.338,3.338,0,0,1,4.6666,12H27.3333a3.338,3.338,0,0,1,3.3333,3.3333Z"/>
    <path d="M22,26.6667H10A.6668.6668,0,0,0,10,28H22a.6668.6668,0,0,0,0-1.3335Z"/>
    <path d="M22,22.6667H10A.6668.6668,0,0,0,10,24H22a.6668.6668,0,0,0,0-1.3335Z"/>
  </g>
</svg>
