<svg width="16" height="15" viewBox="0 0 16 15" fill="none" xmlns="http://www.w3.org/2000/svg">
<path d="M0.52918 7.14833C0.70132 7.14833 0.840464 7.00918 0.840464 6.83704C0.840464 4.94911 2.37665 3.41292 4.26459 3.41292H11.7354V6.20327L16 3.10163L11.7354 0V2.79035H4.26459C2.0333 2.79035 0.217896 4.60576 0.217896 6.83704C0.217896 7.00918 0.357039 7.14833 0.52918 7.14833ZM12.358 1.22272L14.9416 3.10163L12.358 4.98054V1.22272Z" fill="#3464E0"/>
<path d="M15.4708 7.45947C15.2987 7.45947 15.1595 7.59862 15.1595 7.77076C15.1595 9.65869 13.6233 11.1949 11.7354 11.1949H4.26459V8.40453L0 11.5062L4.26459 14.6078V11.8174H11.7354C13.9667 11.8174 15.7821 10.002 15.7821 7.77076C15.7821 7.59862 15.643 7.45947 15.4708 7.45947ZM3.64202 13.3851L1.05837 11.5062L3.64202 9.62725V13.3851Z" fill="#3464E0"/>
</svg>
