<svg width="33" height="33" viewBox="0 0 33 33" fill="none" xmlns="http://www.w3.org/2000/svg">
<path d="M32.2137 31.9452L22.9559 22.3173C25.3173 19.9492 26.7802 16.6844 26.7802 13.0839C26.7802 5.86905 20.9111 0 13.6963 0C6.48147 0 0.612427 5.86905 0.612427 13.0839C0.612427 20.2987 6.48147 26.1677 13.6963 26.1677C16.8632 26.1677 19.7697 25.0357 22.0351 23.1572L31.3153 32.8087C31.4374 32.9365 31.6006 33 31.7645 33C31.9202 33 32.0754 32.9421 32.1963 32.8262C32.4442 32.5875 32.4517 32.1932 32.2137 31.9452ZM13.6963 24.9216C7.16869 24.9216 1.85851 19.6115 1.85851 13.0839C1.85851 6.55626 7.16869 1.24608 13.6963 1.24608C20.2239 1.24608 25.5341 6.55626 25.5341 13.0839C25.5341 19.6115 20.2233 24.9216 13.6963 24.9216Z" fill="#C3CAD6"/>
</svg>
