<svg width="56" height="32" viewBox="0 0 56 32" fill="none" xmlns="http://www.w3.org/2000/svg">
<path fill-rule="evenodd" clip-rule="evenodd" d="M27.4135 31.4208H30.71C30.71 31.4208 31.7058 31.3115 32.2141 30.7634C32.6821 30.2603 32.6671 29.3155 32.6671 29.3155C32.6671 29.3155 32.6027 24.8922 34.6556 24.2408C36.6793 23.5992 39.278 28.5159 42.0324 30.4063C44.1153 31.837 45.698 31.5233 45.698 31.5233L53.0629 31.4208C53.0629 31.4208 56.9157 31.1834 55.0888 28.1542C54.9391 27.9064 54.025 25.9134 49.6129 21.8181C44.995 17.5318 45.6134 18.2251 51.1762 10.8108C54.564 6.2955 55.9184 3.53882 55.4954 2.35814C55.0918 1.23361 52.6002 1.53084 52.6002 1.53084L44.3077 1.5825C44.3077 1.5825 43.693 1.49865 43.2371 1.77117C42.7916 2.03845 42.5049 2.66136 42.5049 2.66136C42.5049 2.66136 41.1924 6.1555 39.442 9.12704C35.7494 15.3973 34.273 15.7282 33.6696 15.3389C32.2658 14.4315 32.6162 11.6936 32.6162 9.74846C32.6162 3.67209 33.5378 1.13853 30.8216 0.482676C29.9201 0.264807 29.2568 0.121059 26.9516 0.0978492C23.9928 0.0671529 21.4884 0.106832 20.0704 0.801616C19.127 1.26356 18.3993 2.29301 18.8425 2.35215C19.3906 2.42552 20.6319 2.68682 21.29 3.583C22.1398 4.73898 22.1098 7.33543 22.1098 7.33543C22.1098 7.33543 22.598 14.4884 20.9696 15.3771C19.8518 15.9865 18.3184 14.7422 15.0265 9.05367C13.3397 6.13977 12.0661 2.91891 12.0661 2.91891C12.0661 2.91891 11.8206 2.31696 11.3826 1.99503C10.851 1.60496 10.1083 1.48068 10.1083 1.48068L2.22836 1.53234C2.22836 1.53234 1.04543 1.56528 0.611188 2.07963C0.224864 2.53708 0.580492 3.48342 0.580492 3.48342C0.580492 3.48342 6.74969 17.9167 13.735 25.1902C20.14 31.8588 27.4135 31.4208 27.4135 31.4208Z" fill="white"/>
</svg>
