<svg width="24" height="24" viewBox="0 0 24 24" fill="none" xmlns="http://www.w3.org/2000/svg">
<path d="M23.1787 6.49486L17.0644 0.141469C16.9773 0.0510937 16.8572 0 16.7318 0H7.61884C6.59898 0 5.76924 0.829406 5.76924 1.84884V8.3077H2.0761C1.31306 8.3077 0.692299 8.92828 0.692299 9.69112V16.6166C0.692299 17.3794 1.31306 18 2.0761 18H5.76924V22.1544C5.76924 23.172 6.59898 24 7.61884 24H21.4581C22.478 24 23.3077 23.1725 23.3077 22.1554V6.81492C23.3077 6.69558 23.2615 6.58088 23.1787 6.49486ZM16.8462 1.24598L21.8655 6.46153H16.8462V1.24598ZM2.0761 17.0769C1.82203 17.0769 1.61541 16.8705 1.61541 16.6166V9.69112C1.61541 9.4373 1.82208 9.23077 2.0761 9.23077H14.5393C14.7933 9.23077 15 9.4373 15 9.69112V16.6166C15 16.8705 14.7933 17.0769 14.5393 17.0769H2.0761ZM22.3846 22.1554C22.3846 22.6635 21.969 23.0769 21.4581 23.0769H7.61884C7.10794 23.0769 6.6923 22.6631 6.6923 22.1544V18H14.5392C15.3023 18 15.9231 17.3794 15.9231 16.6166V9.69112C15.9231 8.92828 15.3023 8.3077 14.5392 8.3077H6.6923V1.84884C6.6923 1.33833 7.10794 0.923062 7.61884 0.923062H15.9231V6.92306C15.9231 7.17797 16.1297 7.38459 16.3846 7.38459H22.3846V22.1554Z" fill="#C3CAD6"/>
<path d="M13.3427 13.4447C13.2373 13.2743 13.0912 13.14 12.9046 13.0417C12.718 12.9435 12.4301 12.8484 12.0406 12.7564C11.6512 12.6645 11.406 12.5761 11.3051 12.4914C11.2257 12.4247 11.186 12.3444 11.186 12.2507C11.186 12.1479 11.2283 12.0658 11.3132 12.0046C11.4448 11.909 11.6269 11.8613 11.8594 11.8613C12.0847 11.8613 12.2538 11.9059 12.3665 11.9951C12.4792 12.0843 12.5526 12.2308 12.5869 12.4346L13.3873 12.3994C13.3747 12.0352 13.2427 11.744 12.9912 11.526C12.7396 11.3078 12.3652 11.1987 11.8676 11.1987C11.5629 11.1987 11.3028 11.2446 11.0874 11.3366C10.872 11.4286 10.707 11.5624 10.5925 11.7382C10.478 11.914 10.4207 12.1029 10.4207 12.3048C10.4207 12.6184 10.5424 12.8844 10.7859 13.1026C10.959 13.2576 11.26 13.3883 11.6891 13.4947C12.0226 13.5776 12.2363 13.6353 12.33 13.6677C12.4671 13.7164 12.563 13.7737 12.618 13.8394C12.673 13.9053 12.7005 13.985 12.7005 14.0789C12.7005 14.2248 12.6351 14.3524 12.5044 14.4615C12.3737 14.5705 12.1795 14.6251 11.9216 14.6251C11.6782 14.6251 11.4849 14.5638 11.3416 14.4411C11.1983 14.3186 11.1032 14.1266 11.0563 13.8651L10.2774 13.9408C10.3297 14.3844 10.4902 14.722 10.7588 14.9537C11.0274 15.1852 11.4123 15.3011 11.9136 15.3011C12.2579 15.3011 12.5455 15.2529 12.7763 15.1564C13.0071 15.0601 13.1854 14.9126 13.3117 14.7142C13.4379 14.516 13.501 14.3032 13.501 14.076C13.5009 13.8255 13.4482 13.615 13.3427 13.4447Z" fill="#C3CAD6"/>
<path d="M7.91918 14.5628V11.2987H7.11861V15.2308H9.90959V14.5628H7.91918Z" fill="#C3CAD6"/>
<path d="M5.33109 13.1917L6.56433 11.2662H5.63677L4.85794 12.54L4.0628 11.2662H3.12717L4.35483 13.1619L3 15.2307H3.96L4.84167 13.8596L5.72053 15.2307H6.68597L5.33109 13.1917Z" fill="#C3CAD6"/>
</svg>
