<?xml version="1.0" standalone="no"?>
<!DOCTYPE svg PUBLIC "-//W3C//DTD SVG 1.1//EN" "http://www.w3.org/Graphics/SVG/1.1/DTD/svg11.dtd" >
<svg xmlns="http://www.w3.org/2000/svg" xmlns:xlink="http://www.w3.org/1999/xlink" version="1.1">
<metadata>
Created by FontForge 20190801 at Thu Jul  1 21:20:06 2010
 By Jimmy Wärting
Copyright (c) 2009 by DA. All rights reserved.
</metadata>
<defs>
<font id="Russia-Bold" horiz-adv-x="584" >
  <font-face 
    font-family="Russia"
    font-weight="700"
    font-stretch="normal"
    units-per-em="1000"
    panose-1="2 11 8 3 4 0 0 2 0 4"
    ascent="760"
    descent="-240"
    x-height="523"
    cap-height="676"
    bbox="-25 -236 1233 916"
    underline-thickness="20"
    underline-position="-133"
    unicode-range="U+0020-FB04"
  />
<missing-glyph horiz-adv-x="500" 
d="M17 0v764h418v-764h-418zM83 63h286v638h-286v-638z" />
    <glyph glyph-name="f_f" unicode="ff" horiz-adv-x="704" 
d="M576 0h-142v428h-208v-428h-142v428h-68v95h68v57q0 78 54.5 121.5t127.5 43.5q49 0 106 -18l-28 -115q-39 12 -69 12q-49 0 -49 -44v-57h208v57q0 78 54.5 121.5t127.5 43.5q49 0 106 -18l-28 -115q-39 12 -69 12q-49 0 -49 -44v-57h112l-22 -95h-90v-428z" />
    <glyph glyph-name="fi" unicode="fi" horiz-adv-x="627" 
d="M490 592q-33 0 -57 23t-24 56t24 55.5t57 22.5t57 -22.5t24 -55.5q0 -32 -24 -55.5t-57 -23.5zM84 0v428h-68v95h68v57q0 78 54.5 121.5t127.5 43.5q49 0 106 -18l-28 -115q-39 12 -69 12q-49 0 -49 -44v-57h112l-22 -95h-90v-428h-142zM419 0v523h143v-523h-143z" />
    <glyph glyph-name="fl" unicode="fl" horiz-adv-x="627" 
d="M419 0v725l143 20v-745h-143zM84 0v428h-68v95h68v57q0 78 54.5 121.5t127.5 43.5q49 0 106 -18l-28 -115q-39 12 -69 12q-49 0 -49 -44v-57h112l-22 -95h-90v-428h-142z" />
    <glyph glyph-name="f_f_i" unicode="ffi" horiz-adv-x="977" 
d="M576 0h-142v428h-208v-428h-142v428h-68v95h68v57q0 78 54.5 121.5t127.5 43.5q49 0 106 -18l-28 -115q-39 12 -69 12q-49 0 -49 -44v-57h208v57q0 78 54.5 121.5t127.5 43.5q49 0 106 -18l-28 -115q-39 12 -69 12q-49 0 -49 -44v-57h112l-22 -95h-90v-428zM921 660
q0 -32 -24 -55.5t-57 -23.5t-57 23t-24 56t24 55.5t57 22.5t57 -22.5t24 -55.5zM912 0h-143v523h143v-523z" />
    <glyph glyph-name="f_f_l" unicode="ffl" horiz-adv-x="977" 
d="M912 0h-143v725l143 20v-745zM576 0h-142v428h-208v-428h-142v428h-68v95h68v57q0 78 54.5 121.5t127.5 43.5q49 0 106 -18l-28 -115q-39 12 -69 12q-49 0 -49 -44v-57h208v57q0 78 54.5 121.5t127.5 43.5q49 0 106 -18l-28 -115q-39 12 -69 12q-49 0 -49 -44v-57h112
l-22 -95h-90v-428z" />
    <glyph glyph-name="f_y" unicode="fy" horiz-adv-x="854" 
d="M412 188l-35 240h-151v-428h-142v428h-68v95h68v57q0 78 54.5 121.5t127.5 43.5q49 0 106 -18l-28 -115q-39 12 -69 12q-49 0 -49 -44v-57h280l47 -325q12 -77 59 -77h24l50 402h143l-99 -734h-140l29 211h-12q-167 0 -195 188z" />
    <glyph glyph-name="t_y" unicode="ty" horiz-adv-x="841" 
d="M399 188l-35 240h-125v-428h-143v428h-64l-21 95h85v141l143 19v-160h254l47 -325q12 -77 59 -77h24l50 402h143l-99 -734h-140l29 211h-12q-167 0 -195 188z" />
    <glyph glyph-name="t_t" unicode="tt" horiz-adv-x="682" 
d="M581 0h-143v428h-199v-428h-143v428h-64l-21 95h85v141l143 19v-160h199v141l143 19v-160h84v-95h-84v-428z" />
    <glyph glyph-name="f_t" unicode="ft" horiz-adv-x="693" 
d="M592 0h-143v428h-223v-428h-142v428h-68v95h68v57q0 78 54.5 121.5t127.5 43.5q49 0 106 -18l-28 -115q-39 12 -69 12q-49 0 -49 -44v-57h223v141l143 19v-160h84v-95h-84v-428z" />
    <glyph glyph-name=".notdef" horiz-adv-x="500" 
d="M17 0v764h418v-764h-418zM83 63h286v638h-286v-638z" />
    <glyph glyph-name=".null" horiz-adv-x="0" 
 />
    <glyph glyph-name="nonmarkingreturn" horiz-adv-x="333" 
 />
    <glyph glyph-name="space" unicode=" " horiz-adv-x="220" 
 />
    <glyph glyph-name="exclam" unicode="!" horiz-adv-x="275" 
d="M204 215h-133l-7 451l147 20zM137 -8q-33 0 -58 24.5t-25 59.5t25 58.5t58 23.5q34 0 59 -23.5t25 -58.5q0 -34 -24.5 -59t-59.5 -25z" />
    <glyph glyph-name="quotedbl" unicode="&#x22;" horiz-adv-x="424" 
d="M351 474h-99l-10 258h118zM173 474h-98l-11 258h118z" />
    <glyph glyph-name="numbersign" unicode="#" horiz-adv-x="589" 
d="M429 0h-124l18 181h-94l-18 -181h-124l18 181h-70v123h83l10 102h-70v123h83l18 180h124l-18 -180h94l18 180h124l-18 -180h70v-123h-83l-10 -102h69v-123h-82zM336 304l10 102h-94l-10 -102h94z" />
    <glyph glyph-name="dollar" unicode="$" horiz-adv-x="518" 
d="M307 -124h-101v112q-88 6 -182 41l28 122q106 -39 193 -39q38 0 60.5 21t22.5 55q0 33 -29.5 55t-71.5 37t-84 35t-71.5 61.5t-29.5 102.5q0 72 46.5 120.5t122.5 63.5v117h101v-114q62 -6 150 -39l-38 -117q-88 34 -148 34q-48 0 -67 -16t-19 -47q0 -23 16 -39.5
t41 -27.5t55.5 -21.5t61 -26t55.5 -36.5t41 -57t16 -84q0 -79 -47 -129t-122 -66v-118z" />
    <glyph glyph-name="percent" unicode="%" horiz-adv-x="900" 
d="M372 524v-67q0 -74 -45 -118.5t-116 -44.5q-70 0 -115.5 44.5t-45.5 118.5v67q0 74 45.5 119.5t115.5 45.5q71 0 116 -45.5t45 -119.5zM344 0h-106l317 676h104zM271 459v63q0 73 -60 73q-57 0 -57 -73v-63q0 -74 57 -74q60 0 60 74zM850 218v-66q0 -74 -45.5 -119.5
t-116.5 -45.5t-116 45.5t-45 119.5v66q0 75 45 120t116 45t116.5 -45t45.5 -120zM747 154v62q0 37 -16 56t-43 19q-26 0 -42 -19t-16 -56v-62q0 -73 58 -73q27 0 43 18t16 55z" />
    <glyph glyph-name="ampersand" unicode="&#x26;" horiz-adv-x="566" 
d="M364 195v212h183v-113h-47v-99q0 -90 -61 -149t-163 -59q-103 0 -167.5 59.5t-64.5 148.5q0 99 77 154q-67 50 -67 141q0 88 63 143.5t164 55.5q65 0 160 -36l-42 -114q-64 27 -114 27q-45 0 -66 -21.5t-21 -54.5q0 -34 19.5 -58.5t59.5 -24.5h53v-113h-57
q-40 0 -62.5 -30t-22.5 -69q0 -37 23.5 -61t64.5 -24q42 0 65 24t23 61z" />
    <glyph glyph-name="quotesingle" unicode="'" horiz-adv-x="246" 
d="M173 475h-98l-11 257h118z" />
    <glyph glyph-name="parenleft" unicode="(" horiz-adv-x="334" 
d="M321 -116v-120q-251 0 -251 225v593q0 225 251 225v-120q-66 0 -90 -25t-24 -82v-589q0 -57 24 -82t90 -25z" />
    <glyph glyph-name="parenright" unicode=")" horiz-adv-x="334" 
d="M13 -236v120q66 0 90 25t24 82v589q0 57 -24 82t-90 25v120q251 0 251 -225v-593q0 -225 -251 -225z" />
    <glyph glyph-name="asterisk" unicode="*" horiz-adv-x="502" 
d="M389 391l-86 55l6 -102h-116l5 102l-86 -55l-58 100l92 47l-92 47l58 100l86 -56l-5 103h116l-6 -103l86 56l59 -100l-92 -47l92 -47z" />
    <glyph glyph-name="plus" unicode="+" horiz-adv-x="571" 
d="M517 218h-172v-172h-118v172h-173v118h173v172h118v-172h172v-118z" />
    <glyph glyph-name="comma" unicode="," horiz-adv-x="271" 
d="M138 -139l-97 17l48 273h131z" />
    <glyph glyph-name="hyphen" unicode="-" horiz-adv-x="499" 
d="M429 211h-359v118h359v-118z" />
    <glyph glyph-name="period" unicode="." horiz-adv-x="274" 
d="M137 -11q-34 0 -58.5 25t-24.5 60t24.5 58.5t58.5 23.5t58.5 -23.5t24.5 -58.5t-24.5 -60t-58.5 -25z" />
    <glyph glyph-name="slash" unicode="/" horiz-adv-x="397" 
d="M167 -63h-124l186 795h125z" />
    <glyph glyph-name="zero" unicode="0" horiz-adv-x="598" 
d="M548 413v-149q0 -136 -70.5 -206.5t-178.5 -70.5q-109 0 -179 70.5t-70 206.5v149q0 136 69.5 206t179.5 70q109 0 179 -70.5t70 -205.5zM406 264v149q0 155 -107 155t-107 -155v-149q0 -156 107 -156t107 156z" />
    <glyph glyph-name="one" unicode="1" horiz-adv-x="405" 
d="M332 0h-142v548l-150 -23v122l292 42v-689z" />
    <glyph glyph-name="two" unicode="2" horiz-adv-x="524" 
d="M477 0h-441v78q0 58 22 107.5t55 80.5t71.5 60.5t71.5 51t55 49.5t22 58q0 37 -23 60t-66 23q-64 0 -150 -42l-49 108q104 55 206 55q99 0 163 -56.5t64 -147.5q0 -52 -29.5 -99t-72 -80.5t-84.5 -63.5t-71.5 -62t-29.5 -63h286v-117z" />
    <glyph glyph-name="three" unicode="3" horiz-adv-x="518" 
d="M17 25l35 113q85 -30 155 -30q53 0 86.5 28t33.5 73q0 87 -100 87h-86l-21 109l164 154h-243l-18 117h411l9 -117l-163 -154q77 -2 134.5 -57.5t57.5 -138.5q0 -101 -77 -161.5t-185 -60.5q-85 0 -193 38z" />
    <glyph glyph-name="four" unicode="4" horiz-adv-x="566" 
d="M443 1l-136 -10v142h-248l-17 110l131 433h132l-125 -426h127v207l136 23v-230h93v-117h-93v-132z" />
    <glyph glyph-name="five" unicode="5" horiz-adv-x="525" 
d="M26 21l28 118q104 -31 170 -31q48 0 81.5 30t33.5 85q0 97 -128 97h-146l12 356h387l-21 -117h-240l-6 -124h27q119 0 189.5 -53.5t70.5 -157.5q0 -76 -39.5 -132t-96 -80.5t-119.5 -24.5q-93 0 -203 34z" />
    <glyph glyph-name="six" unicode="6" horiz-adv-x="571" 
d="M50 218v216q0 109 66 182t184 73q75 0 169 -30l-31 -117q-75 26 -138 26q-46 0 -76.5 -32.5t-30.5 -84.5v-23q51 40 116 40q99 0 159.5 -64.5t60.5 -177.5q0 -111 -69.5 -175t-170.5 -64q-100 0 -169.5 62.5t-69.5 168.5zM192 320v-103q0 -46 25.5 -77.5t70.5 -31.5
q46 0 71 33.5t25 84.5q0 134 -96 134q-55 0 -96 -40z" />
    <glyph glyph-name="seven" unicode="7" horiz-adv-x="518" 
d="M318 0h-147q0 353 160 559h-301l-12 117h466v-116q-95 -114 -130.5 -239t-35.5 -321z" />
    <glyph glyph-name="eight" unicode="8" horiz-adv-x="581" 
d="M424 360q111 -66 111 -177q0 -89 -77.5 -142.5t-167.5 -53.5q-94 0 -169 53t-75 144q0 100 108 161q-88 60 -88 156q0 77 61.5 132.5t162.5 55.5q88 0 157 -52.5t69 -135.5t-92 -141zM303 417q68 37 68 86q0 30 -23 47.5t-58 17.5t-57 -17.5t-22 -47.5q0 -27 23 -46.5
t69 -39.5zM274 285q-83 -45 -83 -101q0 -32 29 -54t70 -22t70.5 22.5t29.5 53.5q0 33 -28.5 54.5t-87.5 46.5z" />
    <glyph glyph-name="nine" unicode="9" horiz-adv-x="567" 
d="M374 225v23q-51 -40 -116 -40q-98 0 -159 64.5t-61 177.5q0 111 69.5 175t171.5 64q100 0 169 -62.5t69 -168.5v-216q0 -109 -66 -182t-183 -73q-76 0 -170 30l32 117q75 -26 138 -26q46 0 76 32.5t30 84.5zM375 356v103q0 46 -25 77.5t-70 31.5q-46 0 -71.5 -33.5
t-25.5 -84.5q0 -134 97 -134q52 0 95 40z" />
    <glyph glyph-name="colon" unicode=":" horiz-adv-x="274" 
d="M137 298q-34 0 -58.5 25t-24.5 59q0 35 24.5 59t58.5 24t58.5 -24t24.5 -59q0 -34 -24.5 -59t-58.5 -25zM137 -11q-34 0 -58.5 25t-24.5 60t24.5 58.5t58.5 23.5t58.5 -23.5t24.5 -58.5t-24.5 -60t-58.5 -25z" />
    <glyph glyph-name="semicolon" unicode=";" horiz-adv-x="276" 
d="M137 298q-34 0 -59 25t-25 59q0 35 25 59t59 24t58.5 -24t24.5 -59q0 -34 -24.5 -59t-58.5 -25zM133 -163l-97 17l48 273h131z" />
    <glyph glyph-name="less" unicode="&#x3c;" horiz-adv-x="541" 
d="M411 -19l-357 300l357 300l76 -90l-249 -210l249 -210z" />
    <glyph glyph-name="equal" unicode="=" horiz-adv-x="571" 
d="M517 324h-463v119h463v-119zM517 116h-463v118h463v-118z" />
    <glyph glyph-name="greater" unicode="&#x3e;" horiz-adv-x="541" 
d="M487 281l-356 -300l-77 90l250 210l-250 210l77 90z" />
    <glyph glyph-name="question" unicode="?" horiz-adv-x="450" 
d="M285 216l-134 20v43q0 37 18.5 73.5t40.5 59.5t40.5 51t18.5 51q0 26 -17 41.5t-45 15.5q-49 0 -112 -44l-58 98q85 64 172 64q81 0 139 -48t58 -127q0 -35 -19 -70.5t-41.5 -59.5t-41.5 -52.5t-19 -50.5v-65zM218 -11q-35 0 -59.5 24.5t-24.5 59.5t25 58.5t59 23.5
q33 0 58 -24t25 -58t-24.5 -59t-58.5 -25z" />
    <glyph glyph-name="at" unicode="@" horiz-adv-x="889" 
d="M649 -4l41 -86q-124 -86 -274 -86q-165 0 -264 105t-99 261q0 122 51 225t152 167.5t232 64.5q155 0 249 -102t94 -266q0 -44 -3 -68h-207l-7 -57q-8 -67 -63.5 -110.5t-130.5 -43.5q-71 0 -115.5 38.5t-44.5 100.5q0 74 53.5 113t139.5 39h56l2 13q4 25 -7.5 44
t-40.5 19q-56 0 -127 -22l-15 97q87 29 154 29q73 0 120 -47t38 -120l-2 -13h99q0 117 -71.5 188.5t-186.5 71.5q-140 0 -229 -100.5t-89 -251.5q0 -126 73 -202.5t196 -76.5q106 0 226 76zM492 154l7 57h-57q-27 0 -42 -16t-15 -44q0 -21 12 -34t35 -13q25 0 41 15.5
t19 34.5z" />
    <glyph glyph-name="A" unicode="A" horiz-adv-x="616" 
d="M20 0l203 676h170l203 -676h-149l-45 163h-188l-45 -163h-149zM247 282h122l-35 128q-12 41 -26 115q-10 -54 -26 -115z" />
    <glyph glyph-name="B" unicode="B" horiz-adv-x="583" 
d="M296 0h-226v676h221q106 0 169 -53t63 -137q0 -91 -85 -131q110 -40 110 -149q0 -87 -71 -146.5t-181 -59.5zM217 406h63q45 0 69.5 20.5t24.5 52.5q0 33 -21.5 52.5t-65.5 19.5h-70v-145zM217 125h78q48 0 76 23t28 58q0 37 -24.5 59t-71.5 22h-86v-162z" />
    <glyph glyph-name="C" unicode="C" horiz-adv-x="569" 
d="M496 139l28 -121q-96 -31 -195 -31q-124 0 -200 71.5t-76 206.5v146q0 135 76 206.5t200 71.5q99 0 195 -31l-28 -120q-84 26 -166 26q-130 0 -130 -165v-121q0 -88 33.5 -127t96.5 -39q88 0 166 27z" />
    <glyph glyph-name="D" unicode="D" horiz-adv-x="635" 
d="M326 0h-256v630q157 59 256 59q109 0 182.5 -68.5t73.5 -188.5v-182q0 -122 -67.5 -186t-188.5 -64zM435 261v159q0 72 -29 108t-80 36q-53 0 -109 -19v-420h109q59 0 84 30t25 106z" />
    <glyph glyph-name="E" unicode="E" horiz-adv-x="533" 
d="M70 0v676h404v-125h-257v-150h216l-6 -120h-210v-156h266v-125h-413z" />
    <glyph glyph-name="F" unicode="F" horiz-adv-x="523" 
d="M70 0v676h403v-125h-256v-150h208l-7 -120h-201v-281h-147z" />
    <glyph glyph-name="G" unicode="G" horiz-adv-x="616" 
d="M53 265v146q0 135 76 206.5t200 71.5q88 0 215 -40l-32 -119q-106 33 -182 33q-63 0 -96.5 -38t-33.5 -125v-120q0 -89 33.5 -128t96.5 -39q48 0 94 10v148h-69v103h206v-345q-123 -42 -232 -42q-124 0 -200 71.5t-76 206.5z" />
    <glyph glyph-name="H" unicode="H" horiz-adv-x="642" 
d="M70 0v676h147v-271h208v271h147v-676h-147v283h-208v-283h-147z" />
    <glyph glyph-name="I" unicode="I" horiz-adv-x="287" 
d="M70 0v676h147v-676h-147z" />
    <glyph glyph-name="J" unicode="J" horiz-adv-x="484" 
d="M15 23l35 117q81 -28 141 -28q86 0 86 121v443l147 -7v-439q0 -113 -59.5 -178t-168.5 -65q-79 0 -181 36z" />
    <glyph glyph-name="K" unicode="K" horiz-adv-x="610" 
d="M70 0v676h147v-250l175 250h172l-217 -295l248 -381h-174l-163 260l-41 -56v-204h-147z" />
    <glyph glyph-name="L" unicode="L" horiz-adv-x="512" 
d="M70 0v676h147v-551h270l-6 -125h-411z" />
    <glyph glyph-name="M" unicode="M" horiz-adv-x="828" 
d="M35 0l72 676h167l116 -327q8 -23 24 -87q11 49 24 87l116 327h167l72 -676h-146l-29 346q-3 35 -7 129q-18 -77 -36 -128l-83 -233h-156l-83 233q-21 60 -37 129q-2 -79 -6 -130l-29 -346h-146z" />
    <glyph glyph-name="N" unicode="N" horiz-adv-x="635" 
d="M70 0v676h119l232 -386q-3 57 -3 103v283h147v-676h-120l-232 384q4 -52 4 -106v-278h-147z" />
    <glyph glyph-name="O" unicode="O" horiz-adv-x="641" 
d="M53 266v143q0 134 75.5 207t191.5 73q117 0 192.5 -73t75.5 -207v-143q0 -135 -75.5 -207t-192.5 -72q-116 0 -191.5 72.5t-75.5 206.5zM320 112q121 0 121 165v122q0 165 -121 165q-120 0 -120 -165v-122q0 -165 120 -165z" />
    <glyph glyph-name="P" unicode="P" horiz-adv-x="558" 
d="M70 0v676h241q99 0 160.5 -63.5t61.5 -152.5t-61 -151t-161 -62h-94v-247h-147zM217 369h89q35 0 56.5 25t21.5 66t-21.5 66t-56.5 25h-89v-182z" />
    <glyph glyph-name="Q" unicode="Q" horiz-adv-x="641" 
d="M53 266v143q0 134 75.5 207t191.5 73q117 0 192.5 -73t75.5 -207v-143q0 -185 -142 -253l52 -138l-108 -62l-65 174h-5q-116 0 -191.5 72.5t-75.5 206.5zM320 112q121 0 121 165v122q0 165 -121 165q-120 0 -120 -165v-122q0 -165 120 -165z" />
    <glyph glyph-name="R" unicode="R" horiz-adv-x="571" 
d="M70 0v676h241q99 0 160.5 -63.5t61.5 -152.5q0 -62 -31.5 -112t-88.5 -75l128 -273h-164l-110 252h-50v-252h-147zM217 369h87q36 0 58.5 25t22.5 66q0 40 -23 65.5t-58 25.5h-87v-182z" />
    <glyph glyph-name="S" unicode="S" horiz-adv-x="522" 
d="M35 29l28 122q106 -39 189 -39q38 0 60.5 21t22.5 55q0 33 -29 57t-70.5 42t-83 41t-70.5 66.5t-29 104.5q0 86 65 138t163 52q87 0 192 -42l-38 -117q-85 34 -154 34q-76 0 -76 -63q0 -30 29 -52.5t70.5 -40t83 -40.5t70.5 -68.5t29 -110.5q0 -96 -68.5 -149t-166.5 -53
q-102 0 -217 42z" />
    <glyph glyph-name="T" unicode="T" horiz-adv-x="525" 
d="M189 0v551h-164v125h475v-125h-164v-551h-147z" />
    <glyph glyph-name="U" unicode="U" horiz-adv-x="640" 
d="M65 226v450h147v-438q0 -59 29.5 -92.5t78.5 -33.5t78.5 34t29.5 92v438h147v-450q0 -104 -74.5 -171.5t-180.5 -67.5q-107 0 -181 67t-74 172z" />
    <glyph glyph-name="V" unicode="V" horiz-adv-x="616" 
d="M223 0l-203 676h149l113 -410q11 -39 26 -120q15 81 26 120l113 410h149l-203 -676h-170z" />
    <glyph glyph-name="W" unicode="W" horiz-adv-x="849" 
d="M145 0l-110 676h150l42 -343q5 -40 11 -150q19 103 34 149l73 235h157l75 -235q17 -54 34 -146q6 108 11 147l42 343h150l-110 -676h-163l-96 318q-10 35 -21 95q-8 -55 -20 -95l-96 -318h-163z" />
    <glyph glyph-name="X" unicode="X" horiz-adv-x="594" 
d="M15 0l196 352l-175 324h163l98 -187l103 187h159l-175 -321l196 -355h-169l-113 216l-118 -216h-165z" />
    <glyph glyph-name="Y" unicode="Y" horiz-adv-x="579" 
d="M216 0v257l-201 419h158l116 -268l117 268h158l-201 -419v-257h-147z" />
    <glyph glyph-name="Z" unicode="Z" horiz-adv-x="564" 
d="M40 0v97l277 454h-271v125h455v-97l-280 -454h303l-13 -125h-471z" />
    <glyph glyph-name="bracketleft" unicode="[" horiz-adv-x="294" 
d="M278 -235h-208v1042h208v-113h-72v-815h72v-114z" />
    <glyph glyph-name="backslash" unicode="\" horiz-adv-x="398" 
d="M355 -63h-125l-187 795h124z" />
    <glyph glyph-name="bracketright" unicode="]" horiz-adv-x="294" 
d="M224 -235h-208v114h72v815h-72v113h208v-1042z" />
    <glyph glyph-name="asciicircum" unicode="^" horiz-adv-x="632" 
d="M565 418l-121 -54l-128 251l-128 -251l-120 54l185 314h127z" />
    <glyph glyph-name="underscore" unicode="_" horiz-adv-x="500" 
d="M500 -191h-500v118h500v-118z" />
    <glyph glyph-name="grave" unicode="`" horiz-adv-x="407" 
d="M298 574l-223 84l38 95l221 -96z" />
    <glyph glyph-name="a" unicode="a" horiz-adv-x="498" 
d="M38 167q0 80 55 121t149 41h65v12q0 36 -17 55t-48 19q-62 0 -145 -26l-31 113q110 34 176 34q93 0 150.5 -54t57.5 -141v-174q0 -77 -61 -128.5t-145 -51.5q-88 0 -147 51t-59 129zM183 168q0 -24 15 -42t46 -18q29 0 46 18.5t17 40.5v62h-66q-58 0 -58 -61z" />
    <glyph glyph-name="b" unicode="b" horiz-adv-x="535" 
d="M48 206v520l143 19v-233q42 24 89 24q86 0 146.5 -57.5t60.5 -162.5v-110q0 -100 -63.5 -159.5t-155.5 -59.5q-93 0 -156.5 59.5t-63.5 159.5zM191 211q0 -50 21.5 -76.5t55.5 -26.5t55 26.5t21 76.5v100q0 104 -77 104q-31 0 -76 -18v-186z" />
    <glyph glyph-name="c" unicode="c" horiz-adv-x="476" 
d="M48 216v91q0 116 62.5 172.5t168.5 56.5q73 0 153 -25l-30 -116q-69 20 -115 20q-48 0 -72 -24.5t-24 -83.5v-91q0 -59 24 -83.5t72 -24.5q46 0 115 20l31 -116q-85 -25 -154 -25q-106 0 -168.5 56.5t-62.5 172.5z" />
    <glyph glyph-name="d" unicode="d" horiz-adv-x="534" 
d="M48 206v110q0 105 60.5 162.5t146.5 57.5q46 0 88 -24v220h143v-526q0 -100 -63.5 -159.5t-155.5 -59.5t-155.5 59.5t-63.5 159.5zM190 211q0 -50 21.5 -76.5t55.5 -26.5t55 26.5t21 76.5v186q-43 18 -75 18q-78 0 -78 -104v-100z" />
    <glyph glyph-name="e" unicode="e" horiz-adv-x="518" 
d="M48 213v102q0 104 60.5 162.5t152.5 58.5q90 0 152 -57t62 -145v-114h-285v-7q0 -105 92 -105q66 0 143 25l28 -115q-84 -31 -171 -31q-107 0 -170.5 59t-63.5 167zM190 320h142v14q0 35 -19 58t-52 23q-31 0 -51 -23t-20 -58v-14z" />
    <glyph glyph-name="f" unicode="f" horiz-adv-x="354" 
d="M84 0v428h-68v95h68v57q0 78 54.5 121.5t127.5 43.5q49 0 106 -18l-28 -115q-39 12 -69 12q-49 0 -49 -44v-57h112l-22 -95h-90v-428h-142z" />
    <glyph glyph-name="g" unicode="g" horiz-adv-x="500" 
d="M55 -65q96 -42 175 -42q95 0 95 40q0 15 -37.5 24t-82 14.5t-82 32.5t-37.5 74q0 39 32 69q-74 53 -74 151v48q0 84 56 137t142 53q40 0 75 -12l162 12l-9 -91l-54 -2q25 -44 25 -97v-48q0 -84 -55.5 -136.5t-142.5 -52.5q-21 0 -41 3q-2 -6 -2 -10q0 -11 42 -20
t93 -17.5t93 -40t42 -82.5q0 -79 -63.5 -122.5t-173.5 -43.5q-107 0 -212 51zM243 227q58 0 58 71v48q0 69 -59 69q-58 0 -58 -69v-48q0 -71 59 -71z" />
    <glyph glyph-name="h" unicode="h" horiz-adv-x="555" 
d="M65 0v732h143v-220q44 24 89 24q86 0 142 -52t56 -157v-327h-143v319q0 53 -17 74.5t-51 21.5q-31 0 -76 -18v-397h-143z" />
    <glyph glyph-name="i" unicode="i" horiz-adv-x="273" 
d="M136 592q-33 0 -57 23t-24 56t24 55.5t57 22.5t57 -22.5t24 -55.5q0 -32 -24 -55.5t-57 -23.5zM65 0v523h143v-523h-143z" />
    <glyph glyph-name="j" unicode="j" horiz-adv-x="273" 
d="M136 592q-33 0 -57 23t-24 56t24 55.5t57 22.5t57 -22.5t24 -55.5q0 -32 -24 -55.5t-57 -23.5zM65 -222v745h143v-725z" />
    <glyph glyph-name="k" unicode="k" horiz-adv-x="500" 
d="M65 0v732h143v-404l48 16q26 9 37 54l31 125h139l-41 -158q-11 -44 -25 -69.5t-39 -40.5l132 -255h-158l-98 207l-26 -9v-198h-143z" />
    <glyph glyph-name="l" unicode="l" horiz-adv-x="273" 
d="M65 0v725l143 20v-745h-143z" />
    <glyph glyph-name="m" unicode="m" horiz-adv-x="793" 
d="M60 0v321q0 103 58 159t146 56q84 0 132 -67q48 67 133 67q89 0 146.5 -55.5t57.5 -159.5v-321h-143v311q0 104 -61 104t-61 -121v-294h-143v294q0 121 -61 121t-61 -104v-311h-143z" />
    <glyph glyph-name="n" unicode="n" horiz-adv-x="549" 
d="M60 0v316q0 104 61 162t154 58q92 0 153 -58t61 -162v-316h-143v311q0 51 -18.5 77.5t-52.5 26.5t-53.5 -26.5t-19.5 -77.5v-311h-142z" />
    <glyph glyph-name="o" unicode="o" horiz-adv-x="542" 
d="M48 216v91q0 105 62 167t161 62t161 -62t62 -167v-91q0 -105 -62 -167t-161 -62t-161 62t-62 167zM190 221q0 -113 81 -113t81 113v81q0 113 -81 113t-81 -113v-81z" />
    <glyph glyph-name="p" unicode="p" horiz-adv-x="535" 
d="M191 11v-222h-143v528q0 100 63.5 159.5t156.5 59.5q92 0 155.5 -59.5t63.5 -159.5v-110q0 -105 -60.5 -162.5t-146.5 -57.5q-47 0 -89 24zM191 126q45 -18 76 -18q77 0 77 104v100q0 50 -21 76.5t-55 26.5t-55.5 -26.5t-21.5 -76.5v-186z" />
    <glyph glyph-name="q" unicode="q" horiz-adv-x="535" 
d="M48 207v110q0 100 63.5 159.5t155.5 59.5q93 0 156.5 -59.5t63.5 -159.5v-522l-143 -19v235q-44 -24 -89 -24q-86 0 -146.5 57.5t-60.5 162.5zM191 212q0 -104 77 -104q31 0 76 18v186q0 50 -21.5 76.5t-55.5 26.5t-55 -26.5t-21 -76.5v-100z" />
    <glyph glyph-name="r" unicode="r" horiz-adv-x="372" 
d="M60 0v334q0 89 60.5 145.5t151.5 56.5q51 0 99 -16l-27 -116q-40 11 -71 11q-33 0 -52 -22.5t-19 -58.5v-334h-142z" />
    <glyph glyph-name="s" unicode="s" horiz-adv-x="432" 
d="M28 19l28 114q70 -25 137 -25q27 0 45 11.5t18 28.5q0 21 -22 35.5t-53 27.5t-62.5 30t-53.5 52.5t-22 85.5q0 69 53 113t140 44q71 0 142 -25l-30 -117q-67 21 -112 21q-48 0 -48 -36q0 -20 22 -34t53 -26t62 -29t53 -53t22 -87q0 -67 -54 -115t-153 -48q-77 0 -165 32z
" />
    <glyph glyph-name="t" unicode="t" horiz-adv-x="340" 
d="M96 0v428h-64l-21 95h85v141l143 19v-160h84v-95h-84v-428h-143z" />
    <glyph glyph-name="u" unicode="u" horiz-adv-x="549" 
d="M60 207v316h142v-311q0 -51 19 -77.5t53 -26.5q72 0 72 104v311h143v-316q0 -104 -61.5 -162t-153.5 -58q-93 0 -153.5 58t-60.5 162z" />
    <glyph glyph-name="v" unicode="v" horiz-adv-x="502" 
d="M171 0l-161 523h147l54 -198q18 -70 40 -172q26 124 40 172l54 198h147l-161 -523h-160z" />
    <glyph glyph-name="w" unicode="w" horiz-adv-x="795" 
d="M65 180l-25 343h142l24 -333q5 -80 62 -80q28 0 43.5 23t15.5 58v298h139v-298q0 -35 15.5 -58t43.5 -23q56 0 63 80l25 333h142l-27 -343q-7 -91 -61 -142t-140 -51q-88 0 -131 69q-43 -69 -131 -69q-84 0 -138.5 52t-61.5 141z" />
    <glyph glyph-name="x" unicode="x" horiz-adv-x="502" 
d="M10 0l159 268l-146 255h157l72 -130l75 130h153l-146 -251l159 -272h-161l-81 147l-84 -147h-157z" />
    <glyph glyph-name="y" unicode="y" horiz-adv-x="510" 
d="M68 188l-48 335h142l47 -325q12 -77 59 -77h24l50 402h143l-99 -734h-140l29 211h-12q-167 0 -195 188z" />
    <glyph glyph-name="z" unicode="z" horiz-adv-x="488" 
d="M45 0v97l212 309h-204v117h376v-96l-203 -310h217l-10 -117h-388z" />
    <glyph glyph-name="braceleft" unicode="{" horiz-adv-x="418" 
d="M409 -112v-120q-252 0 -252 205v160q0 53 -23.5 77.5t-89.5 24.5v100q66 0 89.5 24.5t23.5 77.5v166q0 205 252 205v-120q-67 0 -91.5 -19.5t-24.5 -67.5v-164q0 -55 -18.5 -90.5t-65.5 -61.5q84 -49 84 -152v-158q0 -48 24.5 -67.5t91.5 -19.5z" />
    <glyph glyph-name="bar" unicode="|" horiz-adv-x="268" 
d="M202 -200h-136v932h136v-932z" />
    <glyph glyph-name="braceright" unicode="}" horiz-adv-x="418" 
d="M9 -232v120q67 0 91.5 19.5t24.5 67.5v158q0 103 84 152q-47 26 -65.5 61.5t-18.5 90.5v164q0 48 -24.5 67.5t-91.5 19.5v120q252 0 252 -205v-166q0 -53 23.5 -77.5t89.5 -24.5v-100q-66 0 -89.5 -24.5t-23.5 -77.5v-160q0 -205 -252 -205z" />
    <glyph glyph-name="asciitilde" unicode="~" horiz-adv-x="610" 
d="M454 365l85 -77q-34 -51 -70 -81t-83 -30q-35 0 -66 19.5t-55 39t-41 19.5q-36 0 -68 -53l-85 77q34 51 70 81t85 30q33 0 63.5 -19.5t55 -39t41.5 -19.5q34 0 68 53z" />
    <glyph glyph-name="uni00A0" unicode="&#xa0;" horiz-adv-x="220" 
 />
    <glyph glyph-name="exclamdown" unicode="&#xa1;" horiz-adv-x="275" 
d="M221 502q0 -35 -25 -58.5t-58 -23.5q-34 0 -59 23.5t-25 58.5q0 34 25 59t59 25q33 0 58 -24.5t25 -59.5zM211 -88l-147 -20l7 471h133z" />
    <glyph glyph-name="cent" unicode="&#xa2;" horiz-adv-x="487" 
d="M328 -124h-101v115q-82 13 -129.5 69t-47.5 156v91q0 100 47 156t130 69v115h101v-114q47 -4 106 -22l-30 -116q-69 20 -115 20q-48 0 -72 -24.5t-24 -83.5v-91q0 -59 24 -83.5t72 -24.5q46 0 115 20l31 -116q-59 -18 -107 -22v-114z" />
    <glyph glyph-name="sterling" unicode="&#xa3;" horiz-adv-x="506" 
d="M466 0h-406v100q65 82 65 133q0 14 -2 40h-65v81h50q-25 98 -25 134q0 95 62.5 148t156.5 53q77 0 169 -40l-40 -110q-65 27 -120 27q-81 0 -81 -87q0 -35 23 -125h158v-81h-143q2 -26 2 -40q0 -32 -18 -65.5t-43 -55.5h257v-112z" />
    <glyph glyph-name="currency" unicode="&#xa4;" horiz-adv-x="597" 
d="M440 42l-64 64q-38 -16 -76 -16q-44 0 -77 16l-64 -64l-99 97l65 65q-16 37 -16 76q0 41 16 76l-65 64l99 98l64 -64q37 16 77 16q38 0 75 -16l65 64l97 -98l-63 -63q16 -38 16 -77t-16 -77l63 -64zM370 280q0 29 -20.5 49.5t-49.5 20.5t-49.5 -20.5t-20.5 -49.5
t20.5 -49.5t49.5 -20.5t49.5 20.5t20.5 49.5z" />
    <glyph glyph-name="yen" unicode="&#xa5;" horiz-adv-x="546" 
d="M465 92h-119v-92h-145v92h-119v80h119v69h-119v81h86l-167 354h147l125 -291l125 291h147l-166 -354h86v-81h-119v-69h119v-80z" />
    <glyph glyph-name="brokenbar" unicode="&#xa6;" horiz-adv-x="268" 
d="M202 380h-136v352h136v-352zM202 -200h-136v350h136v-350z" />
    <glyph glyph-name="section" unicode="&#xa7;" horiz-adv-x="567" 
d="M57 -101l25 120q91 -33 158 -33q78 0 78 60q0 25 -18 44t-45.5 30t-59 28t-59 36t-45.5 55t-18 84q0 74 52 121q-12 30 -12 71q0 79 59 126.5t147 47.5q82 0 184 -38l-34 -117q-75 30 -136 30q-68 0 -68 -48q0 -20 18 -38t45.5 -30.5t59 -31t59 -39t45.5 -56.5t18 -82
q0 -76 -52 -125q12 -33 12 -67q0 -88 -66.5 -137t-156.5 -49q-74 0 -190 38zM228 343q-3 -7 -3 -19q0 -17 13 -32t27 -23t45 -24.5t46 -24.5q2 10 2 18q0 16 -6.5 28.5t-22 23.5t-27 17.5t-37.5 18t-37 17.5z" />
    <glyph glyph-name="dieresis" unicode="&#xa8;" horiz-adv-x="460" 
d="M390 663q0 -27 -19 -45.5t-46 -18.5q-26 0 -45 18.5t-19 45.5t19 46.5t45 19.5q27 0 46 -19.5t19 -46.5zM200 663q0 -27 -19 -45.5t-46 -18.5q-26 0 -45.5 18.5t-19.5 45.5t19.5 46.5t45.5 19.5q27 0 46 -19.5t19 -46.5z" />
    <glyph glyph-name="copyright" unicode="&#xa9;" horiz-adv-x="742" 
d="M371 -13q-145 0 -231.5 95.5t-86.5 239.5t86.5 239.5t231.5 95.5t231.5 -95.5t86.5 -239.5t-86.5 -239.5t-231.5 -95.5zM371 63q108 0 171 72.5t63 186.5t-63 186.5t-171 72.5t-171 -72.5t-63 -186.5t63 -186.5t171 -72.5zM456 227l18 -69q-57 -18 -106 -18
q-66 0 -108.5 40t-42.5 109v66q0 69 42.5 109t108.5 40q49 0 106 -18l-18 -69q-46 13 -88 13q-33 0 -48 -20t-15 -63v-50q0 -83 63 -83q42 0 88 13z" />
    <glyph glyph-name="ordfeminine" unicode="&#xaa;" horiz-adv-x="374" 
d="M334 538v-120q0 -55 -43.5 -92t-103.5 -37q-63 0 -105 37t-42 92q0 57 39.5 85.5t106.5 28.5h38v11q0 39 -38 39q-41 0 -104 -18l-25 87q77 25 129 25q65 0 106.5 -39t41.5 -99zM224 418v41h-32q-41 0 -41 -40q0 -18 10.5 -27t25.5 -9q17 0 27 11t10 24z" />
    <glyph glyph-name="guillemotleft" unicode="&#xab;" horiz-adv-x="551" 
d="M507 149l-96 -70l-149 202l149 202l96 -70l-97 -131zM299 149l-95 -70l-150 202l150 202l95 -70l-96 -131z" />
    <glyph glyph-name="logicalnot" unicode="&#xac;" horiz-adv-x="571" 
d="M517 50h-117v160h-346v118h463v-278z" />
    <glyph glyph-name="uni00AD" unicode="&#xad;" horiz-adv-x="499" 
d="M429 211h-359v118h359v-118z" />
    <glyph glyph-name="registered" unicode="&#xae;" horiz-adv-x="742" 
d="M371 -13q-145 0 -231.5 95.5t-86.5 239.5t86.5 239.5t231.5 95.5t231.5 -95.5t86.5 -239.5t-86.5 -239.5t-231.5 -95.5zM371 63q108 0 171 72.5t63 186.5t-63 186.5t-171 72.5t-171 -72.5t-63 -186.5t63 -186.5t171 -72.5zM514 148h-95l-51 117h-30v-117h-88v350h130
q54 0 86.5 -33t32.5 -84q0 -72 -51 -100zM338 339h36q18 0 28.5 11.5t10.5 30.5t-10.5 31t-30.5 12h-34v-85z" />
    <glyph glyph-name="macron" unicode="&#xaf;" horiz-adv-x="409" 
d="M332 618h-254v90h254v-90z" />
    <glyph glyph-name="degree" unicode="&#xb0;" horiz-adv-x="364" 
d="M182 485q-53 0 -90.5 37.5t-37.5 92.5q0 51 38 88.5t90 37.5t90 -38t38 -90q0 -53 -38 -90.5t-90 -37.5zM182 570q18 0 30.5 12.5t12.5 30.5t-12.5 30.5t-31.5 12.5q-17 0 -29.5 -12.5t-12.5 -30.5t12.5 -30.5t30.5 -12.5z" />
    <glyph glyph-name="plusminus" unicode="&#xb1;" horiz-adv-x="571" 
d="M517 210h-172v-157h-118v157h-173v118h173v157h118v-157h172v-118zM517 -103h-463v117h463v-117z" />
    <glyph glyph-name="acute" unicode="&#xb4;" horiz-adv-x="407" 
d="M333 658l-223 -84l-36 83l221 96z" />
    <glyph glyph-name="mu" unicode="&#xb5;" horiz-adv-x="554" 
d="M207 -211h-142v734h142v-321q0 -46 19.5 -70t52.5 -24q72 0 72 104v311h143v-316q0 -104 -61.5 -162t-153.5 -58q-35 0 -72 10v-208z" />
    <glyph glyph-name="paragraph" unicode="&#xb6;" horiz-adv-x="636" 
d="M584 -119h-136v665h-64v-665h-136v387h-16q-77 0 -132.5 61t-55.5 143q0 84 56.5 144t143.5 60h340v-795z" />
    <glyph glyph-name="periodcentered" unicode="&#xb7;" horiz-adv-x="284" 
d="M214 281q0 -30 -21 -50t-51 -20q-29 0 -50 20t-21 50t21 51t50 21q30 0 51 -21t21 -51z" />
    <glyph glyph-name="cedilla" unicode="&#xb8;" horiz-adv-x="313" 
d="M136 -75v75h106v-88q0 -63 -39 -93t-92 -30q-43 0 -84 12l13 96q37 -8 62 -8q34 0 34 36z" />
    <glyph glyph-name="ordmasculine" unicode="&#xba;" horiz-adv-x="398" 
d="M358 514v-63q0 -73 -44.5 -117.5t-114.5 -44.5t-114.5 44.5t-44.5 117.5v63q0 73 44.5 117.5t114.5 44.5t114.5 -44.5t44.5 -117.5zM248 454v57q0 71 -49 71q-50 0 -50 -71v-57q0 -71 50 -71q49 0 49 71z" />
    <glyph glyph-name="guillemotright" unicode="&#xbb;" horiz-adv-x="551" 
d="M347 79l-95 70l96 131l-96 133l95 70l150 -202zM140 79l-96 70l97 131l-97 133l96 70l149 -202z" />
    <glyph glyph-name="questiondown" unicode="&#xbf;" horiz-adv-x="450" 
d="M309 500q0 -35 -25 -58.5t-59 -23.5q-33 0 -58 24t-25 58t24.5 59t58.5 25q35 0 59.5 -24.5t24.5 -59.5zM348 46l58 -98q-85 -64 -172 -64q-81 0 -139 48t-58 127q0 35 19 70.5t41.5 59.5t41.5 52.5t19 50.5v65l134 -20v-43q0 -37 -18.5 -73.5t-40.5 -59.5t-40.5 -51
t-18.5 -51q0 -26 17 -41.5t45 -15.5q49 0 112 44z" />
    <glyph glyph-name="Agrave" unicode="&#xc0;" horiz-adv-x="616" 
d="M401 712l-223 84l38 95l221 -96zM20 0l203 676h170l203 -676h-149l-45 163h-188l-45 -163h-149zM247 282h122l-35 128q-12 41 -26 115q-10 -54 -26 -115z" />
    <glyph glyph-name="Aacute" unicode="&#xc1;" horiz-adv-x="616" 
d="M437 796l-223 -84l-36 83l221 96zM20 0l203 676h170l203 -676h-149l-45 163h-188l-45 -163h-149zM247 282h122l-35 128q-12 41 -26 115q-10 -54 -26 -115z" />
    <glyph glyph-name="Acircumflex" unicode="&#xc2;" horiz-adv-x="616" 
d="M406 718l-97 61l-98 -61l-53 81l150 85l151 -85zM20 0l203 676h170l203 -676h-149l-45 163h-188l-45 -163h-149zM247 282h122l-35 128q-12 41 -26 115q-10 -54 -26 -115z" />
    <glyph glyph-name="Atilde" unicode="&#xc3;" horiz-adv-x="616" 
d="M409 856l53 -62q-12 -27 -37.5 -46t-62.5 -19q-25 0 -59 22.5t-51 22.5q-28 0 -47 -29l-53 62q12 27 37.5 46t62.5 19q25 0 59 -22.5t51 -22.5q28 0 47 29zM20 0l203 676h170l203 -676h-149l-45 163h-188l-45 -163h-149zM247 282h122l-35 128q-12 41 -26 115
q-10 -54 -26 -115z" />
    <glyph glyph-name="Adieresis" unicode="&#xc4;" horiz-adv-x="616" 
d="M467 801q0 -27 -19 -45.5t-46 -18.5q-26 0 -45 18.5t-19 45.5t19 46.5t45 19.5q27 0 46 -19.5t19 -46.5zM277 801q0 -27 -19 -45.5t-46 -18.5q-26 0 -45.5 18.5t-19.5 45.5t19.5 46.5t45.5 19.5q27 0 46 -19.5t19 -46.5zM20 0l203 676h170l203 -676h-149l-45 163h-188
l-45 -163h-149zM247 282h122l-35 128q-12 41 -26 115q-10 -54 -26 -115z" />
    <glyph glyph-name="Aring" unicode="&#xc5;" horiz-adv-x="616" 
d="M308 712q-43 0 -73 30.5t-30 72.5q0 41 30 71t73 30q41 0 71 -30t30 -71q0 -42 -30 -72.5t-71 -30.5zM308 784q13 0 21.5 9t8.5 22t-8.5 21.5t-21.5 8.5t-22 -8.5t-9 -21.5t9 -22t22 -9zM20 0l203 676h170l203 -676h-149l-45 163h-188l-45 -163h-149zM247 282h122
l-35 128q-12 41 -26 115q-10 -54 -26 -115z" />
    <glyph glyph-name="AE" unicode="&#xc6;" horiz-adv-x="911" 
d="M487 0l-13 163h-203l-89 -163h-162l388 675h423l9 -125h-257l14 -149h230l-12 -120h-209l11 -156h260l9 -125h-399zM449 486l-112 -204h128z" />
    <glyph glyph-name="Ccedilla" unicode="&#xc7;" horiz-adv-x="569" 
d="M286 -75v64q-106 12 -169.5 82.5t-63.5 193.5v146q0 135 76 206.5t200 71.5q99 0 195 -31l-28 -120q-84 26 -166 26q-130 0 -130 -165v-121q0 -88 33.5 -127t96.5 -39q88 0 166 27l28 -121q-57 -19 -132 -28v-78q0 -63 -39 -93t-92 -30q-43 0 -84 12l13 96q37 -8 62 -8
q34 0 34 36z" />
    <glyph glyph-name="Egrave" unicode="&#xc8;" horiz-adv-x="533" 
d="M374 712l-223 84l38 95l221 -96zM70 0v676h404v-125h-257v-150h216l-6 -120h-210v-156h266v-125h-413z" />
    <glyph glyph-name="Eacute" unicode="&#xc9;" horiz-adv-x="533" 
d="M395 796l-223 -84l-36 83l221 96zM70 0v676h404v-125h-257v-150h216l-6 -120h-210v-156h266v-125h-413z" />
    <glyph glyph-name="Ecircumflex" unicode="&#xca;" horiz-adv-x="533" 
d="M373 718l-97 61l-98 -61l-53 81l150 85l151 -85zM70 0v676h404v-125h-257v-150h216l-6 -120h-210v-156h266v-125h-413z" />
    <glyph glyph-name="Edieresis" unicode="&#xcb;" horiz-adv-x="533" 
d="M435 801q0 -27 -19 -45.5t-46 -18.5q-26 0 -45 18.5t-19 45.5t19 46.5t45 19.5q27 0 46 -19.5t19 -46.5zM245 801q0 -27 -19 -45.5t-46 -18.5q-26 0 -45.5 18.5t-19.5 45.5t19.5 46.5t45.5 19.5q27 0 46 -19.5t19 -46.5zM70 0v676h404v-125h-257v-150h216l-6 -120h-210
v-156h266v-125h-413z" />
    <glyph glyph-name="Igrave" unicode="&#xcc;" horiz-adv-x="287" 
d="M236 712l-223 84l38 95l221 -96zM70 0v676h147v-676h-147z" />
    <glyph glyph-name="Iacute" unicode="&#xcd;" horiz-adv-x="287" 
d="M272 796l-223 -84l-36 83l221 96zM70 0v676h147v-676h-147z" />
    <glyph glyph-name="Icircumflex" unicode="&#xce;" horiz-adv-x="287" 
d="M240 718l-97 61l-98 -61l-53 81l150 85l151 -85zM70 0v676h147v-676h-147z" />
    <glyph glyph-name="Idieresis" unicode="&#xcf;" horiz-adv-x="287" 
d="M303 801q0 -27 -19 -45.5t-46 -18.5q-26 0 -45 18.5t-19 45.5t19 46.5t45 19.5q27 0 46 -19.5t19 -46.5zM113 801q0 -27 -19 -45.5t-46 -18.5q-26 0 -45.5 18.5t-19.5 45.5t19.5 46.5t45.5 19.5q27 0 46 -19.5t19 -46.5zM70 0v676h147v-676h-147z" />
    <glyph glyph-name="Eth" unicode="&#xd0;" horiz-adv-x="635" 
d="M326 0h-256v289h-63v95h63v246q157 59 256 59q109 0 182.5 -68.5t73.5 -188.5v-182q0 -122 -67.5 -186t-188.5 -64zM435 261v159q0 72 -29 108t-80 36q-53 0 -109 -19v-161h111v-95h-111v-164h109q59 0 84 30t25 106z" />
    <glyph glyph-name="Ntilde" unicode="&#xd1;" horiz-adv-x="635" 
d="M418 856l53 -62q-12 -27 -37.5 -46t-62.5 -19q-25 0 -59 22.5t-51 22.5q-28 0 -47 -29l-53 62q12 27 37.5 46t62.5 19q25 0 59 -22.5t51 -22.5q28 0 47 29zM70 0v676h119l232 -386q-3 57 -3 103v283h147v-676h-120l-232 384q4 -52 4 -106v-278h-147z" />
    <glyph glyph-name="Ograve" unicode="&#xd2;" horiz-adv-x="641" 
d="M413 712l-223 84l38 95l221 -96zM53 266v143q0 134 75.5 207t191.5 73q117 0 192.5 -73t75.5 -207v-143q0 -135 -75.5 -207t-192.5 -72q-116 0 -191.5 72.5t-75.5 206.5zM200 399v-122q0 -165 120 -165q121 0 121 165v122q0 165 -121 165q-120 0 -120 -165z" />
    <glyph glyph-name="Oacute" unicode="&#xd3;" horiz-adv-x="641" 
d="M444 796l-223 -84l-36 83l221 96zM53 266v143q0 134 75.5 207t191.5 73q117 0 192.5 -73t75.5 -207v-143q0 -135 -75.5 -207t-192.5 -72q-116 0 -191.5 72.5t-75.5 206.5zM200 399v-122q0 -165 120 -165q121 0 121 165v122q0 165 -121 165q-120 0 -120 -165z" />
    <glyph glyph-name="Ocircumflex" unicode="&#xd4;" horiz-adv-x="641" 
d="M417 718l-97 61l-98 -61l-53 81l150 85l151 -85zM53 266v143q0 134 75.5 207t191.5 73q117 0 192.5 -73t75.5 -207v-143q0 -135 -75.5 -207t-192.5 -72q-116 0 -191.5 72.5t-75.5 206.5zM200 399v-122q0 -165 120 -165q121 0 121 165v122q0 165 -121 165
q-120 0 -120 -165z" />
    <glyph glyph-name="Otilde" unicode="&#xd5;" horiz-adv-x="641" 
d="M422 856l53 -62q-12 -27 -37.5 -46t-62.5 -19q-25 0 -59 22.5t-51 22.5q-28 0 -47 -29l-53 62q12 27 37.5 46t62.5 19q25 0 59 -22.5t51 -22.5q28 0 47 29zM53 266v143q0 134 75.5 207t191.5 73q117 0 192.5 -73t75.5 -207v-143q0 -135 -75.5 -207t-192.5 -72
q-116 0 -191.5 72.5t-75.5 206.5zM200 399v-122q0 -165 120 -165q121 0 121 165v122q0 165 -121 165q-120 0 -120 -165z" />
    <glyph glyph-name="Odieresis" unicode="&#xd6;" horiz-adv-x="641" 
d="M480 801q0 -27 -19 -45.5t-46 -18.5q-26 0 -45 18.5t-19 45.5t19 46.5t45 19.5q27 0 46 -19.5t19 -46.5zM290 801q0 -27 -19 -45.5t-46 -18.5q-26 0 -45.5 18.5t-19.5 45.5t19.5 46.5t45.5 19.5q27 0 46 -19.5t19 -46.5zM53 266v143q0 134 75.5 207t191.5 73
q117 0 192.5 -73t75.5 -207v-143q0 -135 -75.5 -207t-192.5 -72q-116 0 -191.5 72.5t-75.5 206.5zM200 399v-122q0 -165 120 -165q121 0 121 165v122q0 165 -121 165q-120 0 -120 -165z" />
    <glyph glyph-name="multiply" unicode="&#xd7;" horiz-adv-x="519" 
d="M382 65l-122 121l-122 -122l-84 85l122 122l-121 122l83 83l122 -122l122 121l82 -82l-121 -122l122 -122z" />
    <glyph glyph-name="Oslash" unicode="&#xd8;" horiz-adv-x="641" 
d="M173 -65l-82 40l40 82q-78 75 -78 209v143q0 134 75.5 207t191.5 73q58 0 109 -20l35 72l82 -40l-39 -80q81 -76 81 -212v-143q0 -135 -75.5 -207t-192.5 -72q-60 0 -112 20zM206 210l167 343q-22 11 -53 11q-120 0 -120 -165v-122q0 -39 6 -67zM441 277v122q0 39 -8 71
l-169 -347q22 -11 56 -11q121 0 121 165z" />
    <glyph glyph-name="Ugrave" unicode="&#xd9;" horiz-adv-x="640" 
d="M412 712l-223 84l38 95l221 -96zM65 226v450h147v-438q0 -59 29.5 -92.5t78.5 -33.5t78.5 34t29.5 92v438h147v-450q0 -104 -74.5 -171.5t-180.5 -67.5q-107 0 -181 67t-74 172z" />
    <glyph glyph-name="Uacute" unicode="&#xda;" horiz-adv-x="640" 
d="M448 796l-223 -84l-36 83l221 96zM65 226v450h147v-438q0 -59 29.5 -92.5t78.5 -33.5t78.5 34t29.5 92v438h147v-450q0 -104 -74.5 -171.5t-180.5 -67.5q-107 0 -181 67t-74 172z" />
    <glyph glyph-name="Ucircumflex" unicode="&#xdb;" horiz-adv-x="640" 
d="M416 718l-97 61l-98 -61l-53 81l150 85l151 -85zM65 226v450h147v-438q0 -59 29.5 -92.5t78.5 -33.5t78.5 34t29.5 92v438h147v-450q0 -104 -74.5 -171.5t-180.5 -67.5q-107 0 -181 67t-74 172z" />
    <glyph glyph-name="Udieresis" unicode="&#xdc;" horiz-adv-x="640" 
d="M479 801q0 -27 -19 -45.5t-46 -18.5q-26 0 -45 18.5t-19 45.5t19 46.5t45 19.5q27 0 46 -19.5t19 -46.5zM289 801q0 -27 -19 -45.5t-46 -18.5q-26 0 -45.5 18.5t-19.5 45.5t19.5 46.5t45.5 19.5q27 0 46 -19.5t19 -46.5zM65 226v450h147v-438q0 -59 29.5 -92.5
t78.5 -33.5t78.5 34t29.5 92v438h147v-450q0 -104 -74.5 -171.5t-180.5 -67.5q-107 0 -181 67t-74 172z" />
    <glyph glyph-name="Yacute" unicode="&#xdd;" horiz-adv-x="579" 
d="M418 796l-223 -84l-36 83l221 96zM216 0v257l-201 419h158l116 -268l117 268h158l-201 -419v-257h-147z" />
    <glyph glyph-name="Thorn" unicode="&#xde;" horiz-adv-x="558" 
d="M311 115h-94v-115h-147v676h147v-132h94q99 0 160.5 -63.5t61.5 -152.5t-61 -151t-161 -62zM217 237h89q35 0 56.5 25t21.5 66t-21.5 66t-56.5 25h-89v-182z" />
    <glyph glyph-name="germandbls" unicode="&#xdf;" horiz-adv-x="636" 
d="M226 555v-555h-142v428h-68v95h68v45q0 81 49.5 129t136.5 48q92 0 146 -43.5t54 -129.5q0 -45 -20 -81t-39.5 -63.5t-19.5 -50.5q0 -20 22 -34t53 -25.5t62 -28.5t53 -52.5t22 -86.5q0 -67 -53 -115t-150 -48q-76 0 -162 32l27 114q70 -25 135 -25q27 0 46 11.5t19 28.5
q0 21 -21 35.5t-50.5 27t-59.5 29.5t-51 52t-21 85q0 37 11.5 67.5t25 47.5t25 37t11.5 38q0 57 -57 57q-52 0 -52 -69z" />
    <glyph glyph-name="agrave" unicode="&#xe0;" horiz-adv-x="498" 
d="M335 574l-223 84l38 95l221 -96zM38 167q0 80 55 121t149 41h65v12q0 36 -17 55t-48 19q-62 0 -145 -26l-31 113q110 34 176 34q93 0 150.5 -54t57.5 -141v-174q0 -77 -61 -128.5t-145 -51.5q-88 0 -147 51t-59 129zM183 168q0 -24 15 -42t46 -18q29 0 46 18.5t17 40.5
v62h-66q-58 0 -58 -61z" />
    <glyph glyph-name="aacute" unicode="&#xe1;" horiz-adv-x="498" 
d="M360 658l-223 -84l-36 83l221 96zM38 167q0 80 55 121t149 41h65v12q0 36 -17 55t-48 19q-62 0 -145 -26l-31 113q110 34 176 34q93 0 150.5 -54t57.5 -141v-174q0 -77 -61 -128.5t-145 -51.5q-88 0 -147 51t-59 129zM183 168q0 -24 15 -42t46 -18q29 0 46 18.5t17 40.5
v62h-66q-58 0 -58 -61z" />
    <glyph glyph-name="acircumflex" unicode="&#xe2;" horiz-adv-x="498" 
d="M340 580l-97 61l-98 -61l-53 81l150 85l151 -85zM38 167q0 80 55 121t149 41h65v12q0 36 -17 55t-48 19q-62 0 -145 -26l-31 113q110 34 176 34q93 0 150.5 -54t57.5 -141v-174q0 -77 -61 -128.5t-145 -51.5q-88 0 -147 51t-59 129zM183 168q0 -24 15 -42t46 -18
q29 0 46 18.5t17 40.5v62h-66q-58 0 -58 -61z" />
    <glyph glyph-name="atilde" unicode="&#xe3;" horiz-adv-x="498" 
d="M346 718l53 -62q-12 -27 -37.5 -46t-62.5 -19q-25 0 -59 22.5t-51 22.5q-28 0 -47 -29l-53 62q12 27 37.5 46t62.5 19q25 0 59 -22.5t51 -22.5q28 0 47 29zM38 167q0 80 55 121t149 41h65v12q0 36 -17 55t-48 19q-62 0 -145 -26l-31 113q110 34 176 34q93 0 150.5 -54
t57.5 -141v-174q0 -77 -61 -128.5t-145 -51.5q-88 0 -147 51t-59 129zM183 168q0 -24 15 -42t46 -18q29 0 46 18.5t17 40.5v62h-66q-58 0 -58 -61z" />
    <glyph glyph-name="adieresis" unicode="&#xe4;" horiz-adv-x="498" 
d="M406 663q0 -27 -19 -45.5t-46 -18.5q-26 0 -45 18.5t-19 45.5t19 46.5t45 19.5q27 0 46 -19.5t19 -46.5zM216 663q0 -27 -19 -45.5t-46 -18.5q-26 0 -45.5 18.5t-19.5 45.5t19.5 46.5t45.5 19.5q27 0 46 -19.5t19 -46.5zM38 167q0 80 55 121t149 41h65v12q0 36 -17 55
t-48 19q-62 0 -145 -26l-31 113q110 34 176 34q93 0 150.5 -54t57.5 -141v-174q0 -77 -61 -128.5t-145 -51.5q-88 0 -147 51t-59 129zM183 168q0 -24 15 -42t46 -18q29 0 46 18.5t17 40.5v62h-66q-58 0 -58 -61z" />
    <glyph glyph-name="aring" unicode="&#xe5;" horiz-adv-x="498" 
d="M248 574q-43 0 -73 30.5t-30 72.5q0 41 30 71t73 30q41 0 71 -30t30 -71q0 -42 -30 -72.5t-71 -30.5zM248 646q13 0 21.5 9t8.5 22t-8.5 21.5t-21.5 8.5t-22 -8.5t-9 -21.5t9 -22t22 -9zM38 167q0 80 55 121t149 41h65v12q0 36 -17 55t-48 19q-62 0 -145 -26l-31 113
q110 34 176 34q93 0 150.5 -54t57.5 -141v-174q0 -77 -61 -128.5t-145 -51.5q-88 0 -147 51t-59 129zM183 168q0 -24 15 -42t46 -18q29 0 46 18.5t17 40.5v62h-66q-58 0 -58 -61z" />
    <glyph glyph-name="ae" unicode="&#xe6;" horiz-adv-x="776" 
d="M683 133l28 -115q-84 -31 -171 -31q-99 0 -160 50q-57 -50 -136 -50q-88 0 -147 51t-59 129q0 80 55 121t149 41h65v12q0 36 -17 55t-48 19q-61 0 -144 -26l-32 113q104 34 176 34q83 0 139 -46q57 46 138 46q90 0 152 -57t62 -145v-114h-285v-7q0 -105 92 -105
q66 0 143 25zM590 320v14q0 35 -19 58t-52 23q-31 0 -51 -23t-20 -58v-14h142zM308 213v16h-67q-58 0 -58 -61q0 -24 15 -42t46 -18q50 0 72 32q-8 35 -8 73z" />
    <glyph glyph-name="ccedilla" unicode="&#xe7;" horiz-adv-x="476" 
d="M223 -75v67q-82 13 -128.5 68.5t-46.5 155.5v91q0 116 62.5 172.5t168.5 56.5q73 0 153 -25l-30 -116q-69 20 -115 20q-48 0 -72 -24.5t-24 -83.5v-91q0 -59 24 -83.5t72 -24.5q46 0 115 20l31 -116q-57 -18 -104 -22v-78q0 -63 -39 -93t-92 -30q-43 0 -84 12l13 96
q37 -8 62 -8q34 0 34 36z" />
    <glyph glyph-name="egrave" unicode="&#xe8;" horiz-adv-x="518" 
d="M353 574l-223 84l38 95l221 -96zM48 213v102q0 104 60.5 162.5t152.5 58.5q90 0 152 -57t62 -145v-114h-285v-7q0 -105 92 -105q66 0 143 25l28 -115q-84 -31 -171 -31q-107 0 -170.5 59t-63.5 167zM190 320h142v14q0 35 -19 58t-52 23q-31 0 -51 -23t-20 -58v-14z" />
    <glyph glyph-name="eacute" unicode="&#xe9;" horiz-adv-x="518" 
d="M378 658l-223 -84l-36 83l221 96zM48 213v102q0 104 60.5 162.5t152.5 58.5q90 0 152 -57t62 -145v-114h-285v-7q0 -105 92 -105q66 0 143 25l28 -115q-84 -31 -171 -31q-107 0 -170.5 59t-63.5 167zM190 320h142v14q0 35 -19 58t-52 23q-31 0 -51 -23t-20 -58v-14z" />
    <glyph glyph-name="ecircumflex" unicode="&#xea;" horiz-adv-x="518" 
d="M357 580l-97 61l-98 -61l-53 81l150 85l151 -85zM48 213v102q0 104 60.5 162.5t152.5 58.5q90 0 152 -57t62 -145v-114h-285v-7q0 -105 92 -105q66 0 143 25l28 -115q-84 -31 -171 -31q-107 0 -170.5 59t-63.5 167zM190 320h142v14q0 35 -19 58t-52 23q-31 0 -51 -23
t-20 -58v-14z" />
    <glyph glyph-name="edieresis" unicode="&#xeb;" horiz-adv-x="518" 
d="M419 663q0 -27 -19 -45.5t-46 -18.5q-26 0 -45 18.5t-19 45.5t19 46.5t45 19.5q27 0 46 -19.5t19 -46.5zM229 663q0 -27 -19 -45.5t-46 -18.5q-26 0 -45.5 18.5t-19.5 45.5t19.5 46.5t45.5 19.5q27 0 46 -19.5t19 -46.5zM48 213v102q0 104 60.5 162.5t152.5 58.5
q90 0 152 -57t62 -145v-114h-285v-7q0 -105 92 -105q66 0 143 25l28 -115q-84 -31 -171 -31q-107 0 -170.5 59t-63.5 167zM190 320h142v14q0 35 -19 58t-52 23q-31 0 -51 -23t-20 -58v-14z" />
    <glyph glyph-name="igrave" unicode="&#xec;" horiz-adv-x="273" 
d="M228 574l-223 84l38 95l221 -96zM208 0h-143v523h143v-523z" />
    <glyph glyph-name="iacute" unicode="&#xed;" horiz-adv-x="273" 
d="M266 658l-223 -84l-36 83l221 96zM208 0h-143v523h143v-523z" />
    <glyph glyph-name="icircumflex" unicode="&#xee;" horiz-adv-x="273" 
d="M233 580l-97 61l-98 -61l-53 81l150 85l151 -85zM208 0h-143v523h143v-523z" />
    <glyph glyph-name="idieresis" unicode="&#xef;" horiz-adv-x="273" 
d="M295 663q0 -27 -19 -45.5t-46 -18.5q-26 0 -45 18.5t-19 45.5t19 46.5t45 19.5q27 0 46 -19.5t19 -46.5zM105 663q0 -27 -19 -45.5t-46 -18.5q-26 0 -45.5 18.5t-19.5 45.5t19.5 46.5t45.5 19.5q27 0 46 -19.5t19 -46.5zM208 0h-143v523h143v-523z" />
    <glyph glyph-name="eth" unicode="&#xf0;" horiz-adv-x="542" 
d="M48 206v73q0 105 62.5 162.5t148.5 57.5q61 0 100 -22v36q0 85 -52 105l-28 -85l-86 28l20 61q-49 -6 -89 -19l-26 106q98 29 153 31l27 80l86 -28l-20 -62q150 -40 150 -219v-305q0 -100 -65 -159.5t-158 -59.5t-158 59.5t-65 159.5zM190 274v-63q0 -50 23 -76.5
t58 -26.5t58 26.5t23 76.5v151q-38 16 -80 16q-36 0 -59 -25t-23 -79z" />
    <glyph glyph-name="ntilde" unicode="&#xf1;" horiz-adv-x="549" 
d="M376 718l53 -62q-12 -27 -37.5 -46t-62.5 -19q-25 0 -59 22.5t-51 22.5q-28 0 -47 -29l-53 62q12 27 37.5 46t62.5 19q25 0 59 -22.5t51 -22.5q28 0 47 29zM60 0v316q0 104 61 162t154 58q92 0 153 -58t61 -162v-316h-143v311q0 51 -18.5 77.5t-52.5 26.5t-53.5 -26.5
t-19.5 -77.5v-311h-142z" />
    <glyph glyph-name="ograve" unicode="&#xf2;" horiz-adv-x="542" 
d="M364 574l-223 84l38 95l221 -96zM48 216v91q0 105 62 167t161 62t161 -62t62 -167v-91q0 -105 -62 -167t-161 -62t-161 62t-62 167zM190 221q0 -113 81 -113t81 113v81q0 113 -81 113t-81 -113v-81z" />
    <glyph glyph-name="oacute" unicode="&#xf3;" horiz-adv-x="542" 
d="M401 658l-223 -84l-36 83l221 96zM48 216v91q0 105 62 167t161 62t161 -62t62 -167v-91q0 -105 -62 -167t-161 -62t-161 62t-62 167zM190 221q0 -113 81 -113t81 113v81q0 113 -81 113t-81 -113v-81z" />
    <glyph glyph-name="ocircumflex" unicode="&#xf4;" horiz-adv-x="542" 
d="M369 580l-97 61l-98 -61l-53 81l150 85l151 -85zM48 216v91q0 105 62 167t161 62t161 -62t62 -167v-91q0 -105 -62 -167t-161 -62t-161 62t-62 167zM190 221q0 -113 81 -113t81 113v81q0 113 -81 113t-81 -113v-81z" />
    <glyph glyph-name="otilde" unicode="&#xf5;" horiz-adv-x="542" 
d="M373 718l53 -62q-12 -27 -37.5 -46t-62.5 -19q-25 0 -59 22.5t-51 22.5q-28 0 -47 -29l-53 62q12 27 37.5 46t62.5 19q25 0 59 -22.5t51 -22.5q28 0 47 29zM48 216v91q0 105 62 167t161 62t161 -62t62 -167v-91q0 -105 -62 -167t-161 -62t-161 62t-62 167zM190 221
q0 -113 81 -113t81 113v81q0 113 -81 113t-81 -113v-81z" />
    <glyph glyph-name="odieresis" unicode="&#xf6;" horiz-adv-x="542" 
d="M431 663q0 -27 -19 -45.5t-46 -18.5q-26 0 -45 18.5t-19 45.5t19 46.5t45 19.5q27 0 46 -19.5t19 -46.5zM241 663q0 -27 -19 -45.5t-46 -18.5q-26 0 -45.5 18.5t-19.5 45.5t19.5 46.5t45.5 19.5q27 0 46 -19.5t19 -46.5zM48 216v91q0 105 62 167t161 62t161 -62t62 -167
v-91q0 -105 -62 -167t-161 -62t-161 62t-62 167zM190 221q0 -113 81 -113t81 113v81q0 113 -81 113t-81 -113v-81z" />
    <glyph glyph-name="oslash" unicode="&#xf8;" horiz-adv-x="542" 
d="M156 -70l-77 39l36 74q-67 64 -67 173v91q0 105 62 167t161 62q41 0 79 -12l36 74l77 -39l-38 -78q69 -64 69 -174v-91q0 -105 -62 -167t-161 -62q-45 0 -81 13zM191 198l104 214q-11 3 -24 3q-81 0 -81 -113v-81q0 -16 1 -23zM352 221v81q0 18 -1 27l-107 -218
q12 -3 27 -3q81 0 81 113z" />
    <glyph glyph-name="ugrave" unicode="&#xf9;" horiz-adv-x="549" 
d="M368 574l-223 84l38 95l221 -96zM60 207v316h142v-311q0 -51 19 -77.5t53 -26.5q72 0 72 104v311h143v-316q0 -104 -61.5 -162t-153.5 -58q-93 0 -153.5 58t-60.5 162z" />
    <glyph glyph-name="uacute" unicode="&#xfa;" horiz-adv-x="549" 
d="M390 658l-223 -84l-36 83l221 96zM60 207v316h142v-311q0 -51 19 -77.5t53 -26.5q72 0 72 104v311h143v-316q0 -104 -61.5 -162t-153.5 -58q-93 0 -153.5 58t-60.5 162z" />
    <glyph glyph-name="ucircumflex" unicode="&#xfb;" horiz-adv-x="549" 
d="M372 580l-97 61l-98 -61l-53 81l150 85l151 -85zM60 207v316h142v-311q0 -51 19 -77.5t53 -26.5q72 0 72 104v311h143v-316q0 -104 -61.5 -162t-153.5 -58q-93 0 -153.5 58t-60.5 162z" />
    <glyph glyph-name="udieresis" unicode="&#xfc;" horiz-adv-x="549" 
d="M434 663q0 -27 -19 -45.5t-46 -18.5q-26 0 -45 18.5t-19 45.5t19 46.5t45 19.5q27 0 46 -19.5t19 -46.5zM244 663q0 -27 -19 -45.5t-46 -18.5q-26 0 -45.5 18.5t-19.5 45.5t19.5 46.5t45.5 19.5q27 0 46 -19.5t19 -46.5zM60 207v316h142v-311q0 -51 19 -77.5t53 -26.5
q72 0 72 104v311h143v-316q0 -104 -61.5 -162t-153.5 -58q-93 0 -153.5 58t-60.5 162z" />
    <glyph glyph-name="yacute" unicode="&#xfd;" horiz-adv-x="510" 
d="M382 658l-223 -84l-36 83l221 96zM68 188l-48 335h142l47 -325q12 -77 59 -77h24l50 402h143l-99 -734h-140l29 211h-12q-167 0 -195 188z" />
    <glyph glyph-name="thorn" unicode="&#xfe;" horiz-adv-x="552" 
d="M208 -209h-143v941h143v-208q36 12 77 12q92 0 155.5 -59.5t63.5 -159.5v-110q0 -105 -60.5 -162.5t-146.5 -57.5q-47 0 -89 24v-220zM361 212v100q0 50 -21 76.5t-55 26.5q-33 0 -55 -24t-22 -69v-196q45 -18 76 -18q77 0 77 104z" />
    <glyph glyph-name="ydieresis" unicode="&#xff;" horiz-adv-x="510" 
d="M420 663q0 -27 -19 -45.5t-46 -18.5q-26 0 -45 18.5t-19 45.5t19 46.5t45 19.5q27 0 46 -19.5t19 -46.5zM230 663q0 -27 -19 -45.5t-46 -18.5q-26 0 -45.5 18.5t-19.5 45.5t19.5 46.5t45.5 19.5q27 0 46 -19.5t19 -46.5zM68 188l-48 335h142l47 -325q12 -77 59 -77h24
l50 402h143l-99 -734h-140l29 211h-12q-167 0 -195 188z" />
    <glyph glyph-name="Amacron" unicode="&#x100;" horiz-adv-x="616" 
d="M434 756h-254v90h254v-90zM20 0l203 676h170l203 -676h-149l-45 163h-188l-45 -163h-149zM247 282h122l-35 128q-12 41 -26 115q-10 -54 -26 -115z" />
    <glyph glyph-name="amacron" unicode="&#x101;" horiz-adv-x="498" 
d="M371 618h-254v90h254v-90zM38 167q0 80 55 121t149 41h65v12q0 36 -17 55t-48 19q-62 0 -145 -26l-31 113q110 34 176 34q93 0 150.5 -54t57.5 -141v-174q0 -77 -61 -128.5t-145 -51.5q-88 0 -147 51t-59 129zM183 168q0 -24 15 -42t46 -18q29 0 46 18.5t17 40.5v62h-66
q-58 0 -58 -61z" />
    <glyph glyph-name="Abreve" unicode="&#x102;" horiz-adv-x="616" 
d="M354 874h90q-1 -61 -41.5 -103t-96.5 -42t-95.5 42t-40.5 103h89q1 -25 14.5 -42.5t32.5 -17.5q21 0 34.5 17t13.5 43zM20 0l203 676h170l203 -676h-149l-45 163h-188l-45 -163h-149zM247 282h122l-35 128q-12 41 -26 115q-10 -54 -26 -115z" />
    <glyph glyph-name="abreve" unicode="&#x103;" horiz-adv-x="498" 
d="M283 736h90q-1 -61 -41.5 -103t-96.5 -42t-95.5 42t-40.5 103h89q1 -25 14.5 -42.5t32.5 -17.5q21 0 34.5 17t13.5 43zM38 167q0 80 55 121t149 41h65v12q0 36 -17 55t-48 19q-62 0 -145 -26l-31 113q110 34 176 34q93 0 150.5 -54t57.5 -141v-174q0 -77 -61 -128.5
t-145 -51.5q-88 0 -147 51t-59 129zM183 168q0 -24 15 -42t46 -18q29 0 46 18.5t17 40.5v62h-66q-58 0 -58 -61z" />
    <glyph glyph-name="Aogonek" unicode="&#x104;" horiz-adv-x="616" 
d="M20 0l203 676h170l203 -676q-33 -23 -54.5 -52.5t-21.5 -54.5q0 -27 29 -27q18 0 33 6l14 -85q-26 -11 -64 -11q-59 0 -88.5 27.5t-29.5 74.5q0 70 70 122h-37l-45 163h-188l-45 -163h-149zM247 282h122l-35 128q-12 41 -26 115q-10 -54 -26 -115z" />
    <glyph glyph-name="aogonek" unicode="&#x105;" horiz-adv-x="498" 
d="M305 -128l14 -85q-26 -11 -64 -11q-59 0 -88.5 27.5t-29.5 74.5q0 64 59 114q-70 13 -114 60.5t-44 114.5q0 80 55 121t149 41h65v12q0 36 -17 55t-48 19q-62 0 -145 -26l-31 113q110 34 176 34q93 0 150.5 -54t57.5 -141v-174q0 -58 -37 -103.5t-96 -64.5
q-32 -24 -53 -52.5t-21 -53.5q0 -27 29 -27q18 0 33 6zM183 168q0 -24 15 -42t46 -18q29 0 46 18.5t17 40.5v62h-66q-58 0 -58 -61z" />
    <glyph glyph-name="Cacute" unicode="&#x106;" horiz-adv-x="569" 
d="M429 796l-223 -84l-36 83l221 96zM496 139l28 -121q-96 -31 -195 -31q-124 0 -200 71.5t-76 206.5v146q0 135 76 206.5t200 71.5q99 0 195 -31l-28 -120q-84 26 -166 26q-130 0 -130 -165v-121q0 -88 33.5 -127t96.5 -39q88 0 166 27z" />
    <glyph glyph-name="cacute" unicode="&#x107;" horiz-adv-x="476" 
d="M372 665l-223 -84l-36 83l221 96zM48 216v91q0 116 62.5 172.5t168.5 56.5q73 0 153 -25l-30 -116q-69 20 -115 20q-48 0 -72 -24.5t-24 -83.5v-91q0 -59 24 -83.5t72 -24.5q46 0 115 20l31 -116q-85 -25 -154 -25q-106 0 -168.5 56.5t-62.5 172.5z" />
    <glyph glyph-name="Ccircumflex" unicode="&#x108;" horiz-adv-x="569" 
d="M404 718l-97 61l-98 -61l-53 81l150 85l151 -85zM496 139l28 -121q-96 -31 -195 -31q-124 0 -200 71.5t-76 206.5v146q0 135 76 206.5t200 71.5q99 0 195 -31l-28 -120q-84 26 -166 26q-130 0 -130 -165v-121q0 -88 33.5 -127t96.5 -39q88 0 166 27z" />
    <glyph glyph-name="ccircumflex" unicode="&#x109;" horiz-adv-x="476" 
d="M356 580l-97 61l-98 -61l-53 81l150 85l151 -85zM48 216v91q0 116 62.5 172.5t168.5 56.5q73 0 153 -25l-30 -116q-69 20 -115 20q-48 0 -72 -24.5t-24 -83.5v-91q0 -59 24 -83.5t72 -24.5q46 0 115 20l31 -116q-85 -25 -154 -25q-106 0 -168.5 56.5t-62.5 172.5z" />
    <glyph glyph-name="Cdotaccent" unicode="&#x10a;" horiz-adv-x="569" 
d="M349 801q0 -27 -19 -45.5t-46 -18.5q-26 0 -45 18.5t-19 45.5t19 46.5t45 19.5q27 0 46 -19.5t19 -46.5zM496 139l28 -121q-96 -31 -195 -31q-124 0 -200 71.5t-76 206.5v146q0 135 76 206.5t200 71.5q99 0 195 -31l-28 -120q-84 26 -166 26q-130 0 -130 -165v-121
q0 -88 33.5 -127t96.5 -39q88 0 166 27z" />
    <glyph glyph-name="cdotaccent" unicode="&#x10b;" horiz-adv-x="476" 
d="M317 663q0 -27 -19 -45.5t-46 -18.5q-26 0 -45 18.5t-19 45.5t19 46.5t45 19.5q27 0 46 -19.5t19 -46.5zM48 216v91q0 116 62.5 172.5t168.5 56.5q73 0 153 -25l-30 -116q-69 20 -115 20q-48 0 -72 -24.5t-24 -83.5v-91q0 -59 24 -83.5t72 -24.5q46 0 115 20l31 -116
q-85 -25 -154 -25q-106 0 -168.5 56.5t-62.5 172.5z" />
    <glyph glyph-name="Ccaron" unicode="&#x10c;" horiz-adv-x="569" 
d="M465 802l-150 -85l-151 85l53 81l97 -61l98 61zM496 139l28 -121q-96 -31 -195 -31q-124 0 -200 71.5t-76 206.5v146q0 135 76 206.5t200 71.5q99 0 195 -31l-28 -120q-84 26 -166 26q-130 0 -130 -165v-121q0 -88 33.5 -127t96.5 -39q88 0 166 27z" />
    <glyph glyph-name="ccaron" unicode="&#x10d;" horiz-adv-x="476" 
d="M401 664l-150 -85l-151 85l53 81l97 -61l98 61zM48 216v91q0 116 62.5 172.5t168.5 56.5q73 0 153 -25l-30 -116q-69 20 -115 20q-48 0 -72 -24.5t-24 -83.5v-91q0 -59 24 -83.5t72 -24.5q46 0 115 20l31 -116q-85 -25 -154 -25q-106 0 -168.5 56.5t-62.5 172.5z" />
    <glyph glyph-name="Dcaron" unicode="&#x10e;" horiz-adv-x="635" 
d="M467 802l-150 -85l-151 85l53 81l97 -61l98 61zM326 0h-256v630q157 59 256 59q109 0 182.5 -68.5t73.5 -188.5v-182q0 -122 -67.5 -186t-188.5 -64zM435 261v159q0 72 -29 108t-80 36q-53 0 -109 -19v-420h109q59 0 84 30t25 106z" />
    <glyph glyph-name="dcaron" unicode="&#x10f;" horiz-adv-x="534" 
d="M635 551h-89v181l118 13zM48 206v110q0 105 60.5 162.5t146.5 57.5q46 0 88 -24v220h143v-526q0 -100 -63.5 -159.5t-155.5 -59.5t-155.5 59.5t-63.5 159.5zM190 311v-100q0 -50 21.5 -76.5t55.5 -26.5t55 26.5t21 76.5v186q-43 18 -75 18q-78 0 -78 -104z" />
    <glyph glyph-name="Dcroat" unicode="&#x110;" horiz-adv-x="635" 
d="M326 0h-256v289h-63v95h63v246q157 59 256 59q109 0 182.5 -68.5t73.5 -188.5v-182q0 -122 -67.5 -186t-188.5 -64zM435 261v159q0 72 -29 108t-80 36q-53 0 -109 -19v-161h111v-95h-111v-164h109q59 0 84 30t25 106z" />
    <glyph glyph-name="dcroat" unicode="&#x111;" horiz-adv-x="534" 
d="M48 206v110q0 105 60.5 162.5t146.5 57.5q46 0 88 -24v75h-80v95h80v50h143v-50h39v-95h-39v-381q0 -100 -63.5 -159.5t-155.5 -59.5t-155.5 59.5t-63.5 159.5zM190 311v-100q0 -50 21.5 -76.5t55.5 -26.5t55 26.5t21 76.5v186q-43 18 -75 18q-78 0 -78 -104z" />
    <glyph glyph-name="Emacron" unicode="&#x112;" horiz-adv-x="533" 
d="M392 756h-254v90h254v-90zM70 0v676h404v-125h-257v-150h216l-6 -120h-210v-156h266v-125h-413z" />
    <glyph glyph-name="emacron" unicode="&#x113;" horiz-adv-x="518" 
d="M386 618h-254v90h254v-90zM48 213v102q0 104 60.5 162.5t152.5 58.5q90 0 152 -57t62 -145v-114h-285v-7q0 -105 92 -105q66 0 143 25l28 -115q-84 -31 -171 -31q-107 0 -170.5 59t-63.5 167zM190 320h142v14q0 35 -19 58t-52 23q-31 0 -51 -23t-20 -58v-14z" />
    <glyph glyph-name="Ebreve" unicode="&#x114;" horiz-adv-x="533" 
d="M312 874h90q-1 -61 -41.5 -103t-96.5 -42t-95.5 42t-40.5 103h89q1 -25 14.5 -42.5t32.5 -17.5q21 0 34.5 17t13.5 43zM70 0v676h404v-125h-257v-150h216l-6 -120h-210v-156h266v-125h-413z" />
    <glyph glyph-name="ebreve" unicode="&#x115;" horiz-adv-x="518" 
d="M306 736h90q-1 -61 -41.5 -103t-96.5 -42t-95.5 42t-40.5 103h89q1 -25 14.5 -42.5t32.5 -17.5q21 0 34.5 17t13.5 43zM48 213v102q0 104 60.5 162.5t152.5 58.5q90 0 152 -57t62 -145v-114h-285v-7q0 -105 92 -105q66 0 143 25l28 -115q-84 -31 -171 -31
q-107 0 -170.5 59t-63.5 167zM190 320h142v14q0 35 -19 58t-52 23q-31 0 -51 -23t-20 -58v-14z" />
    <glyph glyph-name="Edotaccent" unicode="&#x116;" horiz-adv-x="533" 
d="M343 801q0 -27 -19 -45.5t-46 -18.5q-26 0 -45 18.5t-19 45.5t19 46.5t45 19.5q27 0 46 -19.5t19 -46.5zM70 0v676h404v-125h-257v-150h216l-6 -120h-210v-156h266v-125h-413z" />
    <glyph glyph-name="edotaccent" unicode="&#x117;" horiz-adv-x="518" 
d="M324 663q0 -27 -19 -45.5t-46 -18.5q-26 0 -45 18.5t-19 45.5t19 46.5t45 19.5q27 0 46 -19.5t19 -46.5zM48 213v102q0 104 60.5 162.5t152.5 58.5q90 0 152 -57t62 -145v-114h-285v-7q0 -105 92 -105q66 0 143 25l28 -115q-84 -31 -171 -31q-107 0 -170.5 59t-63.5 167z
M190 320h142v14q0 35 -19 58t-52 23q-31 0 -51 -23t-20 -58v-14z" />
    <glyph glyph-name="Eogonek" unicode="&#x118;" horiz-adv-x="533" 
d="M70 0v676h404v-125h-257v-150h216l-6 -120h-210v-156h266v-125q-33 -23 -54.5 -52.5t-21.5 -54.5q0 -27 29 -27q18 0 33 6l14 -85q-26 -11 -64 -11q-59 0 -88.5 27.5t-29.5 74.5q0 70 70 122h-301z" />
    <glyph glyph-name="eogonek" unicode="&#x119;" horiz-adv-x="518" 
d="M439 -128l14 -85q-26 -11 -64 -11q-59 0 -88.5 27.5t-29.5 74.5q0 59 46 110q-5 0 -17 -0.5t-18 -0.5q-107 0 -170.5 59t-63.5 167v102q0 104 60.5 162.5t152.5 58.5q90 0 152 -57t62 -145v-114h-285v-7q0 -105 92 -105q66 0 143 25l28 -115q-31 -22 -53.5 -60.5
t-22.5 -64.5q0 -27 29 -27q18 0 33 6zM332 320v14q0 35 -19 58t-52 23q-31 0 -51 -23t-20 -58v-14h142z" />
    <glyph glyph-name="Ecaron" unicode="&#x11a;" horiz-adv-x="533" 
d="M416 802l-150 -85l-151 85l53 81l97 -61l98 61zM70 0v676h404v-125h-257v-150h216l-6 -120h-210v-156h266v-125h-413z" />
    <glyph glyph-name="ecaron" unicode="&#x11b;" horiz-adv-x="518" 
d="M410 664l-150 -85l-151 85l53 81l97 -61l98 61zM48 213v102q0 104 60.5 162.5t152.5 58.5q90 0 152 -57t62 -145v-114h-285v-7q0 -105 92 -105q66 0 143 25l28 -115q-84 -31 -171 -31q-107 0 -170.5 59t-63.5 167zM190 320h142v14q0 35 -19 58t-52 23q-31 0 -51 -23
t-20 -58v-14z" />
    <glyph glyph-name="Gcircumflex" unicode="&#x11c;" horiz-adv-x="616" 
d="M402 718l-97 61l-98 -61l-53 81l150 85l151 -85zM53 265v146q0 135 76 206.5t200 71.5q88 0 215 -40l-32 -119q-106 33 -182 33q-63 0 -96.5 -38t-33.5 -125v-120q0 -89 33.5 -128t96.5 -39q48 0 94 10v148h-69v103h206v-345q-123 -42 -232 -42q-124 0 -200 71.5
t-76 206.5z" />
    <glyph glyph-name="gcircumflex" unicode="&#x11d;" horiz-adv-x="500" 
d="M330 580l-97 61l-98 -61l-53 81l150 85l151 -85zM55 -65q96 -42 175 -42q95 0 95 40q0 15 -37.5 24t-82 14.5t-82 32.5t-37.5 74q0 39 32 69q-74 53 -74 151v48q0 84 56 137t142 53q40 0 75 -12l162 12l-9 -91l-54 -2q25 -44 25 -97v-48q0 -84 -55.5 -136.5t-142.5 -52.5
q-21 0 -41 3q-2 -6 -2 -10q0 -11 42 -20t93 -17.5t93 -40t42 -82.5q0 -79 -63.5 -122.5t-173.5 -43.5q-107 0 -212 51zM243 227q58 0 58 71v48q0 69 -59 69q-58 0 -58 -69v-48q0 -71 59 -71z" />
    <glyph glyph-name="Gbreve" unicode="&#x11e;" horiz-adv-x="616" 
d="M352 874h90q-1 -61 -41.5 -103t-96.5 -42t-95.5 42t-40.5 103h89q1 -25 14.5 -42.5t32.5 -17.5q21 0 34.5 17t13.5 43zM53 265v146q0 135 76 206.5t200 71.5q88 0 215 -40l-32 -119q-106 33 -182 33q-63 0 -96.5 -38t-33.5 -125v-120q0 -89 33.5 -128t96.5 -39
q48 0 94 10v148h-69v103h206v-345q-123 -42 -232 -42q-124 0 -200 71.5t-76 206.5z" />
    <glyph glyph-name="gbreve" unicode="&#x11f;" horiz-adv-x="500" 
d="M286 736h90q-1 -61 -41.5 -103t-96.5 -42t-95.5 42t-40.5 103h89q1 -25 14.5 -42.5t32.5 -17.5q21 0 34.5 17t13.5 43zM55 -65q96 -42 175 -42q95 0 95 40q0 15 -37.5 24t-82 14.5t-82 32.5t-37.5 74q0 39 32 69q-74 53 -74 151v48q0 84 56 137t142 53q40 0 75 -12
l162 12l-9 -91l-54 -2q25 -44 25 -97v-48q0 -84 -55.5 -136.5t-142.5 -52.5q-21 0 -41 3q-2 -6 -2 -10q0 -11 42 -20t93 -17.5t93 -40t42 -82.5q0 -79 -63.5 -122.5t-173.5 -43.5q-107 0 -212 51zM243 227q58 0 58 71v48q0 69 -59 69q-58 0 -58 -69v-48q0 -71 59 -71z" />
    <glyph glyph-name="Gdotaccent" unicode="&#x120;" horiz-adv-x="616" 
d="M383 801q0 -27 -19 -45.5t-46 -18.5q-26 0 -45 18.5t-19 45.5t19 46.5t45 19.5q27 0 46 -19.5t19 -46.5zM53 265v146q0 135 76 206.5t200 71.5q88 0 215 -40l-32 -119q-106 33 -182 33q-63 0 -96.5 -38t-33.5 -125v-120q0 -89 33.5 -128t96.5 -39q48 0 94 10v148h-69v103
h206v-345q-123 -42 -232 -42q-124 0 -200 71.5t-76 206.5z" />
    <glyph glyph-name="gdotaccent" unicode="&#x121;" horiz-adv-x="500" 
d="M303 663q0 -27 -19 -45.5t-46 -18.5q-26 0 -45 18.5t-19 45.5t19 46.5t45 19.5q27 0 46 -19.5t19 -46.5zM55 -65q96 -42 175 -42q95 0 95 40q0 15 -37.5 24t-82 14.5t-82 32.5t-37.5 74q0 39 32 69q-74 53 -74 151v48q0 84 56 137t142 53q40 0 75 -12l162 12l-9 -91
l-54 -2q25 -44 25 -97v-48q0 -84 -55.5 -136.5t-142.5 -52.5q-21 0 -41 3q-2 -6 -2 -10q0 -11 42 -20t93 -17.5t93 -40t42 -82.5q0 -79 -63.5 -122.5t-173.5 -43.5q-107 0 -212 51zM243 227q58 0 58 71v48q0 69 -59 69q-58 0 -58 -69v-48q0 -71 59 -71z" />
    <glyph glyph-name="Gcommaaccent" unicode="&#x122;" horiz-adv-x="616" 
d="M53 265v146q0 135 76 206.5t200 71.5q88 0 215 -40l-32 -119q-106 33 -182 33q-63 0 -96.5 -38t-33.5 -125v-120q0 -89 33.5 -128t96.5 -39q48 0 94 10v148h-69v103h206v-345q-123 -42 -232 -42q-124 0 -200 71.5t-76 206.5zM324 -224h-93l26 162h123z" />
    <glyph glyph-name="gcommaaccent" unicode="&#x123;" horiz-adv-x="500" 
d="M291 581h-93l26 162h123zM55 -65q96 -42 175 -42q95 0 95 40q0 15 -37.5 24t-82 14.5t-82 32.5t-37.5 74q0 39 32 69q-74 53 -74 151v48q0 84 56 137t142 53q40 0 75 -12l162 12l-9 -91l-54 -2q25 -44 25 -97v-48q0 -84 -55.5 -136.5t-142.5 -52.5q-21 0 -41 3
q-2 -6 -2 -10q0 -11 42 -20t93 -17.5t93 -40t42 -82.5q0 -79 -63.5 -122.5t-173.5 -43.5q-107 0 -212 51zM243 227q58 0 58 71v48q0 69 -59 69q-58 0 -58 -69v-48q0 -71 59 -71z" />
    <glyph glyph-name="Hcircumflex" unicode="&#x124;" horiz-adv-x="642" 
d="M418 718l-97 61l-98 -61l-53 81l151 85l150 -85zM70 0v676h147v-271h208v271h147v-676h-147v283h-208v-283h-147z" />
    <glyph glyph-name="hcircumflex" unicode="&#x125;" horiz-adv-x="555" 
d="M233 745l-97 64l-98 -64l-53 81l150 88l151 -88zM495 0h-143v319q0 53 -17 74.5t-51 21.5q-31 0 -76 -18v-397h-143v732h143v-220q44 24 89 24q86 0 142 -52t56 -157v-327z" />
    <glyph glyph-name="Hbar" unicode="&#x126;" horiz-adv-x="642" 
d="M572 0h-147v283h-208v-283h-147v474h-40v95h40v107h147v-107h208v107h147v-107h38v-95h-38v-474zM425 405v69h-208v-69h208z" />
    <glyph glyph-name="hbar" unicode="&#x127;" horiz-adv-x="555" 
d="M495 0h-143v319q0 53 -17 74.5t-51 21.5q-31 0 -76 -18v-397h-143v587h-40v95h40v50h143v-50h79v-95h-79v-75q44 24 89 24q86 0 142 -52t56 -157v-327z" />
    <glyph glyph-name="Itilde" unicode="&#x128;" horiz-adv-x="287" 
d="M245 856l53 -62q-12 -27 -37.5 -46t-62.5 -19q-25 0 -59 22.5t-51 22.5q-28 0 -47 -29l-53 62q12 27 37.5 46t62.5 19q25 0 59 -22.5t51 -22.5q28 0 47 29zM70 0v676h147v-676h-147z" />
    <glyph glyph-name="itilde" unicode="&#x129;" horiz-adv-x="273" 
d="M238 718l53 -62q-12 -27 -37.5 -46t-62.5 -19q-25 0 -59 22.5t-51 22.5q-28 0 -47 -29l-53 62q12 27 37.5 46t62.5 19q25 0 59 -22.5t51 -22.5q28 0 47 29zM208 0h-143v523h143v-523z" />
    <glyph glyph-name="Imacron" unicode="&#x12a;" horiz-adv-x="287" 
d="M270 756h-254v90h254v-90zM70 0v676h147v-676h-147z" />
    <glyph glyph-name="imacron" unicode="&#x12b;" horiz-adv-x="273" 
d="M263 618h-254v90h254v-90zM208 0h-143v523h143v-523z" />
    <glyph glyph-name="Ibreve" unicode="&#x12c;" horiz-adv-x="287" 
d="M190 889h90q-1 -61 -41.5 -103t-96.5 -42t-95.5 42t-40.5 103h89q1 -25 14.5 -42.5t32.5 -17.5q21 0 34.5 17t13.5 43zM70 0v676h147v-676h-147z" />
    <glyph glyph-name="ibreve" unicode="&#x12d;" horiz-adv-x="273" 
d="M183 736h90q-1 -61 -41.5 -103t-96.5 -42t-95.5 42t-40.5 103h89q1 -25 14.5 -42.5t32.5 -17.5q21 0 34.5 17t13.5 43zM208 0h-143v523h143v-523z" />
    <glyph glyph-name="Iogonek" unicode="&#x12e;" horiz-adv-x="287" 
d="M70 0v676h147v-676q-33 -23 -54.5 -52.5t-21.5 -54.5q0 -27 29 -27q18 0 33 6l14 -85q-26 -11 -64 -11q-59 0 -88.5 27.5t-29.5 74.5q0 70 70 122h-35z" />
    <glyph glyph-name="iogonek" unicode="&#x12f;" horiz-adv-x="273" 
d="M136 592q-33 0 -57 23t-24 56t24 55.5t57 22.5t57 -22.5t24 -55.5q0 -32 -24 -55.5t-57 -23.5zM65 0v523h143v-523q-33 -23 -54.5 -52.5t-21.5 -54.5q0 -27 29 -27q18 0 33 6l14 -85q-26 -11 -64 -11q-59 0 -88.5 27.5t-29.5 74.5q0 70 70 122h-31z" />
    <glyph glyph-name="Idotaccent" unicode="&#x130;" horiz-adv-x="287" 
d="M207 801q0 -27 -19 -45.5t-46 -18.5q-26 0 -45 18.5t-19 45.5t19 46.5t45 19.5q27 0 46 -19.5t19 -46.5zM70 0v676h147v-676h-147z" />
    <glyph glyph-name="dotlessi" unicode="&#x131;" horiz-adv-x="273" 
d="M208 0h-143v523h143v-523z" />
    <glyph glyph-name="IJ" unicode="&#x132;" horiz-adv-x="771" 
d="M564 233v443l147 -7v-439q0 -113 -59.5 -178t-168.5 -65q-79 0 -181 36l35 117q81 -28 141 -28q86 0 86 121zM217 0h-147v676h147v-676z" />
    <glyph glyph-name="ij" unicode="&#x133;" horiz-adv-x="546" 
d="M490 671q0 -32 -24 -55.5t-57 -23.5t-57 23t-24 56t24 55.5t57 22.5t57 -22.5t24 -55.5zM217 671q0 -32 -24 -55.5t-57 -23.5t-57 23t-24 56t24 55.5t57 22.5t57 -22.5t24 -55.5zM481 -202l-143 -20v745h143v-725zM208 0h-143v523h143v-523z" />
    <glyph glyph-name="Jcircumflex" unicode="&#x134;" horiz-adv-x="484" 
d="M441 718l-97 61l-98 -61l-53 81l150 85l151 -85zM15 23l35 117q81 -28 141 -28q86 0 86 121v443l147 -7v-439q0 -113 -59.5 -178t-168.5 -65q-79 0 -181 36z" />
    <glyph glyph-name="jcircumflex" unicode="&#x135;" horiz-adv-x="273" 
d="M234 575l-97 71l-98 -71l-53 81l150 95l151 -95zM208 -202l-143 -20v745h143v-725z" />
    <glyph glyph-name="Kcommaaccent" unicode="&#x136;" horiz-adv-x="610" 
d="M70 0v676h147v-250l175 250h172l-217 -295l248 -381h-174l-163 260l-41 -56v-204h-147zM307 -224h-93l26 162h123z" />
    <glyph glyph-name="kcommaaccent" unicode="&#x137;" horiz-adv-x="500" 
d="M65 0v732h143v-404l48 16q26 9 37 54l31 125h139l-41 -158q-11 -44 -25 -69.5t-39 -40.5l132 -255h-162l-97 206l-23 -8v-198h-143zM262 -224h-93l26 162h123z" />
    <glyph glyph-name="Lacute" unicode="&#x139;" horiz-adv-x="512" 
d="M278 796l-223 -84l-36 83l221 96zM70 0v676h147v-551h270l-6 -125h-411z" />
    <glyph glyph-name="lacute" unicode="&#x13a;" horiz-adv-x="273" 
d="M260 820l-223 -84l-36 83l221 96zM208 0h-143v725l143 20v-745z" />
    <glyph glyph-name="Lcommaaccent" unicode="&#x13b;" horiz-adv-x="512" 
d="M70 0v676h147v-551h270l-6 -125h-411zM288 -224h-93l26 162h123z" />
    <glyph glyph-name="lcommaaccent" unicode="&#x13c;" horiz-adv-x="273" 
d="M65 0v725l143 20v-745h-143zM133 -224h-93l26 162h123z" />
    <glyph glyph-name="Lcaron" unicode="&#x13d;" horiz-adv-x="512" 
d="M413 495h-89v181l118 13zM481 0h-411v676h147v-551h270z" />
    <glyph glyph-name="lcaron" unicode="&#x13e;" horiz-adv-x="273" 
d="M362 551h-89v181l118 13zM65 0v725l143 20v-745h-143z" />
    <glyph glyph-name="Ldot" unicode="&#x13f;" horiz-adv-x="512" 
d="M481 0h-411v676h147v-551h270zM418 281q0 -30 -21 -50t-51 -20q-29 0 -50 20t-21 50t21 51t50 21q30 0 51 -21t21 -51z" />
    <glyph glyph-name="ldot" unicode="&#x140;" horiz-adv-x="398" 
d="M208 0h-143v725l143 20v-745zM401 281q0 -30 -21 -50t-51 -20q-29 0 -50 20t-21 50t21 51t50 21q30 0 51 -21t21 -51z" />
    <glyph glyph-name="Lslash" unicode="&#x141;" horiz-adv-x="512" 
d="M481 0h-411v263l-38 -14l-28 75l66 24v328h147v-275l71 26l28 -75l-99 -36v-191h270z" />
    <glyph glyph-name="lslash" unicode="&#x142;" horiz-adv-x="273" 
d="M208 0h-143v269l-38 -13l-28 75l66 24v370l143 20v-339l37 14l28 -75l-65 -24v-321z" />
    <glyph glyph-name="Nacute" unicode="&#x143;" horiz-adv-x="635" 
d="M446 796l-223 -84l-36 83l221 96zM70 0v676h119l232 -386q-3 57 -3 103v283h147v-676h-120l-232 384q4 -52 4 -106v-278h-147z" />
    <glyph glyph-name="nacute" unicode="&#x144;" horiz-adv-x="549" 
d="M387 658l-223 -84l-36 83l221 96zM60 0v316q0 104 61 162t154 58q92 0 153 -58t61 -162v-316h-143v311q0 51 -18.5 77.5t-52.5 26.5t-53.5 -26.5t-19.5 -77.5v-311h-142z" />
    <glyph glyph-name="Ncommaaccent" unicode="&#x145;" horiz-adv-x="635" 
d="M70 0v676h119l232 -386q-3 57 -3 103v283h147v-676h-120l-232 384q4 -52 4 -106v-278h-147zM332 -224h-93l26 162h123z" />
    <glyph glyph-name="ncommaaccent" unicode="&#x146;" horiz-adv-x="549" 
d="M60 0v316q0 104 61 162t154 58q92 0 153 -58t61 -162v-316h-143v311q0 51 -18.5 77.5t-52.5 26.5t-53.5 -26.5t-19.5 -77.5v-311h-142zM277 -224h-93l26 162h123z" />
    <glyph glyph-name="Ncaron" unicode="&#x147;" horiz-adv-x="635" 
d="M467 802l-150 -85l-151 85l53 81l97 -61l98 61zM70 0v676h119l232 -386q-3 57 -3 103v283h147v-676h-120l-232 384q4 -52 4 -106v-278h-147z" />
    <glyph glyph-name="ncaron" unicode="&#x148;" horiz-adv-x="549" 
d="M425 664l-150 -85l-151 85l53 81l97 -61l98 61zM60 0v316q0 104 61 162t154 58q92 0 153 -58t61 -162v-316h-143v311q0 51 -18.5 77.5t-52.5 26.5t-53.5 -26.5t-19.5 -77.5v-311h-142z" />
    <glyph glyph-name="Eng" unicode="&#x14a;" horiz-adv-x="635" 
d="M565 -202l-143 -20v260l-209 346q4 -52 4 -106v-278h-147v676h119l232 -386q-3 57 -3 103v283h147v-878z" />
    <glyph glyph-name="eng" unicode="&#x14b;" horiz-adv-x="549" 
d="M489 -202l-143 -20v531q0 51 -18.5 77.5t-52.5 26.5t-53.5 -26.5t-19.5 -77.5v-309h-142v314q0 104 61 162t154 58q92 0 153 -58t61 -162v-516z" />
    <glyph glyph-name="Omacron" unicode="&#x14c;" horiz-adv-x="641" 
d="M447 756h-254v90h254v-90zM53 266v143q0 134 75.5 207t191.5 73q117 0 192.5 -73t75.5 -207v-143q0 -135 -75.5 -207t-192.5 -72q-116 0 -191.5 72.5t-75.5 206.5zM200 399v-122q0 -165 120 -165q121 0 121 165v122q0 165 -121 165q-120 0 -120 -165z" />
    <glyph glyph-name="omacron" unicode="&#x14d;" horiz-adv-x="542" 
d="M398 618h-254v90h254v-90zM48 216v91q0 105 62 167t161 62t161 -62t62 -167v-91q0 -105 -62 -167t-161 -62t-161 62t-62 167zM190 221q0 -113 81 -113t81 113v81q0 113 -81 113t-81 -113v-81z" />
    <glyph glyph-name="Obreve" unicode="&#x14e;" horiz-adv-x="641" 
d="M367 874h90q-1 -61 -41.5 -103t-96.5 -42t-95.5 42t-40.5 103h89q1 -25 14.5 -42.5t32.5 -17.5q21 0 34.5 17t13.5 43zM53 266v143q0 134 75.5 207t191.5 73q117 0 192.5 -73t75.5 -207v-143q0 -135 -75.5 -207t-192.5 -72q-116 0 -191.5 72.5t-75.5 206.5zM200 399v-122
q0 -165 120 -165q121 0 121 165v122q0 165 -121 165q-120 0 -120 -165z" />
    <glyph glyph-name="obreve" unicode="&#x14f;" horiz-adv-x="542" 
d="M318 736h90q-1 -61 -41.5 -103t-96.5 -42t-95.5 42t-40.5 103h89q1 -25 14.5 -42.5t32.5 -17.5q21 0 34.5 17t13.5 43zM48 216v91q0 105 62 167t161 62t161 -62t62 -167v-91q0 -105 -62 -167t-161 -62t-161 62t-62 167zM190 221q0 -113 81 -113t81 113v81q0 113 -81 113
t-81 -113v-81z" />
    <glyph glyph-name="Ohungarumlaut" unicode="&#x150;" horiz-adv-x="641" 
d="M600 809l-174 -102l-49 81l168 110zM362 809l-173 -102l-50 81l168 110zM53 266v143q0 134 75.5 207t191.5 73q117 0 192.5 -73t75.5 -207v-143q0 -135 -75.5 -207t-192.5 -72q-116 0 -191.5 72.5t-75.5 206.5zM200 399v-122q0 -165 120 -165q121 0 121 165v122
q0 165 -121 165q-120 0 -120 -165z" />
    <glyph glyph-name="ohungarumlaut" unicode="&#x151;" horiz-adv-x="542" 
d="M542 671l-174 -102l-49 81l168 110zM304 671l-173 -102l-50 81l168 110zM48 216v91q0 105 62 167t161 62t161 -62t62 -167v-91q0 -105 -62 -167t-161 -62t-161 62t-62 167zM190 221q0 -113 81 -113t81 113v81q0 113 -81 113t-81 -113v-81z" />
    <glyph glyph-name="OE" unicode="&#x152;" horiz-adv-x="901" 
d="M851 0h-440q-47 -13 -91 -13q-116 0 -191.5 72.5t-75.5 206.5v143q0 134 75.5 207t191.5 73q44 0 89 -13h433v-125h-284q30 -62 30 -142v-8h213l-6 -120h-207v-15q0 -79 -30 -141h293v-125zM441 277v122q0 165 -121 165q-120 0 -120 -165v-122q0 -165 120 -165
q121 0 121 165z" />
    <glyph glyph-name="oe" unicode="&#x153;" horiz-adv-x="822" 
d="M729 133l28 -115q-84 -31 -171 -31q-103 0 -164 53q-58 -53 -151 -53q-99 0 -161 62t-62 167v91q0 105 62 167t161 62q88 0 149 -52q57 52 145 52q90 0 152 -57t62 -145v-114h-285v-7q0 -105 92 -105q66 0 143 25zM636 320v14q0 35 -19 58t-52 23q-31 0 -51 -23t-20 -58
v-14h142zM352 221v81q0 113 -81 113t-81 -113v-81q0 -113 81 -113t81 113z" />
    <glyph glyph-name="Racute" unicode="&#x154;" horiz-adv-x="571" 
d="M414 796l-223 -84l-36 83l221 96zM70 0v676h241q99 0 160.5 -63.5t61.5 -152.5q0 -62 -31.5 -112t-88.5 -75l128 -273h-164l-110 252h-50v-252h-147zM217 369h87q36 0 58.5 25t22.5 66q0 40 -23 65.5t-58 25.5h-87v-182z" />
    <glyph glyph-name="racute" unicode="&#x155;" horiz-adv-x="372" 
d="M344 658l-223 -84l-36 83l221 96zM60 0v334q0 89 60.5 145.5t151.5 56.5q51 0 99 -16l-27 -116q-40 11 -71 11q-33 0 -52 -22.5t-19 -58.5v-334h-142z" />
    <glyph glyph-name="Rcommaaccent" unicode="&#x156;" horiz-adv-x="571" 
d="M70 0v676h241q99 0 160.5 -63.5t61.5 -152.5q0 -62 -31.5 -112t-88.5 -75l128 -273h-164l-110 252h-50v-252h-147zM217 369h87q36 0 58.5 25t22.5 66q0 40 -23 65.5t-58 25.5h-87v-182zM292 -224h-93l26 162h123z" />
    <glyph glyph-name="rcommaaccent" unicode="&#x157;" horiz-adv-x="372" 
d="M60 0v334q0 89 60.5 145.5t151.5 56.5q51 0 99 -16l-27 -116q-40 11 -71 11q-33 0 -52 -22.5t-19 -58.5v-334h-142zM139 -224h-93l26 162h123z" />
    <glyph glyph-name="Rcaron" unicode="&#x158;" horiz-adv-x="571" 
d="M435 802l-150 -85l-151 85l53 81l97 -61l98 61zM70 0v676h241q99 0 160.5 -63.5t61.5 -152.5q0 -62 -31.5 -112t-88.5 -75l128 -273h-164l-110 252h-50v-252h-147zM217 369h87q36 0 58.5 25t22.5 66q0 40 -23 65.5t-58 25.5h-87v-182z" />
    <glyph glyph-name="rcaron" unicode="&#x159;" horiz-adv-x="372" 
d="M356 664l-150 -85l-151 85l53 81l97 -61l98 61zM60 0v334q0 89 60.5 145.5t151.5 56.5q51 0 99 -16l-27 -116q-40 11 -71 11q-33 0 -52 -22.5t-19 -58.5v-334h-142z" />
    <glyph glyph-name="Sacute" unicode="&#x15a;" horiz-adv-x="522" 
d="M390 796l-223 -84l-36 83l221 96zM35 29l28 122q106 -39 189 -39q38 0 60.5 21t22.5 55q0 33 -29 57t-70.5 42t-83 41t-70.5 66.5t-29 104.5q0 86 65 138t163 52q87 0 192 -42l-38 -117q-85 34 -154 34q-76 0 -76 -63q0 -30 29 -52.5t70.5 -40t83 -40.5t70.5 -68.5
t29 -110.5q0 -96 -68.5 -149t-166.5 -53q-102 0 -217 42z" />
    <glyph glyph-name="sacute" unicode="&#x15b;" horiz-adv-x="432" 
d="M335 658l-223 -84l-36 83l221 96zM28 19l28 114q70 -25 137 -25q27 0 45 11.5t18 28.5q0 21 -22 35.5t-53 27.5t-62.5 30t-53.5 52.5t-22 85.5q0 69 53 113t140 44q71 0 142 -25l-30 -117q-67 21 -112 21q-48 0 -48 -36q0 -20 22 -34t53 -26t62 -29t53 -53t22 -87
q0 -67 -54 -115t-153 -48q-77 0 -165 32z" />
    <glyph glyph-name="Scircumflex" unicode="&#x15c;" horiz-adv-x="522" 
d="M358 718l-97 61l-98 -61l-53 81l150 85l151 -85zM35 29l28 122q106 -39 189 -39q38 0 60.5 21t22.5 55q0 33 -29 57t-70.5 42t-83 41t-70.5 66.5t-29 104.5q0 86 65 138t163 52q87 0 192 -42l-38 -117q-85 34 -154 34q-76 0 -76 -63q0 -30 29 -52.5t70.5 -40t83 -40.5
t70.5 -68.5t29 -110.5q0 -96 -68.5 -149t-166.5 -53q-102 0 -217 42z" />
    <glyph glyph-name="scircumflex" unicode="&#x15d;" horiz-adv-x="432" 
d="M312 580l-97 61l-98 -61l-53 81l150 85l151 -85zM28 19l28 114q70 -25 137 -25q27 0 45 11.5t18 28.5q0 21 -22 35.5t-53 27.5t-62.5 30t-53.5 52.5t-22 85.5q0 69 53 113t140 44q71 0 142 -25l-30 -117q-67 21 -112 21q-48 0 -48 -36q0 -20 22 -34t53 -26t62 -29t53 -53
t22 -87q0 -67 -54 -115t-153 -48q-77 0 -165 32z" />
    <glyph glyph-name="Scedilla" unicode="&#x15e;" horiz-adv-x="522" 
d="M205 -75v64q-81 7 -170 40l28 122q106 -39 189 -39q38 0 60.5 21t22.5 55q0 33 -29 57t-70.5 42t-83 41t-70.5 66.5t-29 104.5q0 86 65 138t163 52q87 0 192 -42l-38 -117q-85 34 -154 34q-76 0 -76 -63q0 -30 29 -52.5t70.5 -40t83 -40.5t70.5 -68.5t29 -110.5
q0 -81 -49.5 -131.5t-126.5 -64.5v-81q0 -63 -39 -93t-92 -30q-43 0 -84 12l13 96q37 -8 62 -8q34 0 34 36z" />
    <glyph glyph-name="scedilla" unicode="&#x15f;" horiz-adv-x="432" 
d="M170 -75v63q-73 5 -142 31l28 114q70 -25 137 -25q27 0 45 11.5t18 28.5q0 21 -22 35.5t-53 27.5t-62.5 30t-53.5 52.5t-22 85.5q0 69 53 113t140 44q71 0 142 -25l-30 -117q-67 21 -112 21q-48 0 -48 -36q0 -20 22 -34t53 -26t62 -29t53 -53t22 -87t-32 -92.5t-92 -58.5
v-87q0 -63 -39 -93t-92 -30q-43 0 -84 12l13 96q37 -8 62 -8q34 0 34 36z" />
    <glyph glyph-name="Scaron" unicode="&#x160;" horiz-adv-x="522" 
d="M416 802l-150 -85l-151 85l53 81l97 -61l98 61zM35 29l28 122q106 -39 189 -39q38 0 60.5 21t22.5 55q0 33 -29 57t-70.5 42t-83 41t-70.5 66.5t-29 104.5q0 86 65 138t163 52q87 0 192 -42l-38 -117q-85 34 -154 34q-76 0 -76 -63q0 -30 29 -52.5t70.5 -40t83 -40.5
t70.5 -68.5t29 -110.5q0 -96 -68.5 -149t-166.5 -53q-102 0 -217 42z" />
    <glyph glyph-name="scaron" unicode="&#x161;" horiz-adv-x="432" 
d="M365 664l-150 -85l-151 85l53 81l97 -61l98 61zM28 19l28 114q70 -25 137 -25q27 0 45 11.5t18 28.5q0 21 -22 35.5t-53 27.5t-62.5 30t-53.5 52.5t-22 85.5q0 69 53 113t140 44q71 0 142 -25l-30 -117q-67 21 -112 21q-48 0 -48 -36q0 -20 22 -34t53 -26t62 -29t53 -53
t22 -87q0 -67 -54 -115t-153 -48q-77 0 -165 32z" />
    <glyph glyph-name="Tcommaaccent" unicode="&#x162;" horiz-adv-x="525" 
d="M189 0v551h-164v125h475v-125h-164v-551h-147zM273 -224h-93l26 162h123z" />
    <glyph glyph-name="tcommaaccent" unicode="&#x163;" horiz-adv-x="340" 
d="M96 0v428h-64l-21 95h85v141l143 19v-160h84v-95h-84v-428h-143zM172 -224h-93l26 162h123z" />
    <glyph glyph-name="Tcaron" unicode="&#x164;" horiz-adv-x="525" 
d="M413 802l-150 -85l-151 85l53 81l97 -61l98 61zM189 0v551h-164v125h475v-125h-164v-551h-147z" />
    <glyph glyph-name="tcaron" unicode="&#x165;" horiz-adv-x="337" 
d="M381 571h-89v181l118 13zM236 -1h-140v428h-63l-21 95h84v141l140 19v-160h82v-95h-82v-428z" />
    <glyph glyph-name="Tbar" unicode="&#x166;" horiz-adv-x="525" 
d="M336 0h-147v306h-78v96h78v149h-164v125h475v-125h-164v-149h76v-96h-76v-306z" />
    <glyph glyph-name="tbar" unicode="&#x167;" horiz-adv-x="340" 
d="M239 0h-143v237h-66v95h66v96h-64l-21 95h85v141l143 19v-160h84v-95h-84v-96h84v-95h-84v-237z" />
    <glyph glyph-name="Utilde" unicode="&#x168;" horiz-adv-x="640" 
d="M421 856l53 -62q-12 -27 -37.5 -46t-62.5 -19q-25 0 -59 22.5t-51 22.5q-28 0 -47 -29l-53 62q12 27 37.5 46t62.5 19q25 0 59 -22.5t51 -22.5q28 0 47 29zM65 226v450h147v-438q0 -59 29.5 -92.5t78.5 -33.5t78.5 34t29.5 92v438h147v-450q0 -104 -74.5 -171.5
t-180.5 -67.5q-107 0 -181 67t-74 172z" />
    <glyph glyph-name="utilde" unicode="&#x169;" horiz-adv-x="549" 
d="M376 718l53 -62q-12 -27 -37.5 -46t-62.5 -19q-25 0 -59 22.5t-51 22.5q-28 0 -47 -29l-53 62q12 27 37.5 46t62.5 19q25 0 59 -22.5t51 -22.5q28 0 47 29zM60 207v316h142v-311q0 -51 19 -77.5t53 -26.5q72 0 72 104v311h143v-316q0 -104 -61.5 -162t-153.5 -58
q-93 0 -153.5 58t-60.5 162z" />
    <glyph glyph-name="Umacron" unicode="&#x16a;" horiz-adv-x="640" 
d="M447 756h-254v90h254v-90zM65 226v450h147v-438q0 -59 29.5 -92.5t78.5 -33.5t78.5 34t29.5 92v438h147v-450q0 -104 -74.5 -171.5t-180.5 -67.5q-107 0 -181 67t-74 172z" />
    <glyph glyph-name="umacron" unicode="&#x16b;" horiz-adv-x="549" 
d="M401 618h-254v90h254v-90zM60 207v316h142v-311q0 -51 19 -77.5t53 -26.5q72 0 72 104v311h143v-316q0 -104 -61.5 -162t-153.5 -58q-93 0 -153.5 58t-60.5 162z" />
    <glyph glyph-name="Ubreve" unicode="&#x16c;" horiz-adv-x="640" 
d="M366 874h90q-1 -61 -41.5 -103t-96.5 -42t-95.5 42t-40.5 103h89q1 -25 14.5 -42.5t32.5 -17.5q21 0 34.5 17t13.5 43zM65 226v450h147v-438q0 -59 29.5 -92.5t78.5 -33.5t78.5 34t29.5 92v438h147v-450q0 -104 -74.5 -171.5t-180.5 -67.5q-107 0 -181 67t-74 172z" />
    <glyph glyph-name="ubreve" unicode="&#x16d;" horiz-adv-x="549" 
d="M321 736h90q-1 -61 -41.5 -103t-96.5 -42t-95.5 42t-40.5 103h89q1 -25 14.5 -42.5t32.5 -17.5q21 0 34.5 17t13.5 43zM60 207v316h142v-311q0 -51 19 -77.5t53 -26.5q72 0 72 104v311h143v-316q0 -104 -61.5 -162t-153.5 -58q-93 0 -153.5 58t-60.5 162z" />
    <glyph glyph-name="Uring" unicode="&#x16e;" horiz-adv-x="640" 
d="M320 712q-43 0 -73 30.5t-30 72.5q0 41 30 71t73 30q41 0 71 -30t30 -71q0 -42 -30 -72.5t-71 -30.5zM320 784q13 0 21.5 9t8.5 22t-8.5 21.5t-21.5 8.5t-22 -8.5t-9 -21.5t9 -22t22 -9zM65 226v450h147v-438q0 -59 29.5 -92.5t78.5 -33.5t78.5 34t29.5 92v438h147v-450
q0 -104 -74.5 -171.5t-180.5 -67.5q-107 0 -181 67t-74 172z" />
    <glyph glyph-name="uring" unicode="&#x16f;" horiz-adv-x="549" 
d="M275 574q-43 0 -73 30.5t-30 72.5q0 41 30 71t73 30q41 0 71 -30t30 -71q0 -42 -30 -72.5t-71 -30.5zM275 646q13 0 21.5 9t8.5 22t-8.5 21.5t-21.5 8.5t-22 -8.5t-9 -21.5t9 -22t22 -9zM60 207v316h142v-311q0 -51 19 -77.5t53 -26.5q72 0 72 104v311h143v-316
q0 -104 -61.5 -162t-153.5 -58q-93 0 -153.5 58t-60.5 162z" />
    <glyph glyph-name="Uhungarumlaut" unicode="&#x170;" horiz-adv-x="640" 
d="M569 809l-174 -102l-49 81l168 110zM331 809l-173 -102l-50 81l168 110zM65 226v450h147v-438q0 -59 29.5 -92.5t78.5 -33.5t78.5 34t29.5 92v438h147v-450q0 -104 -74.5 -171.5t-180.5 -67.5q-107 0 -181 67t-74 172z" />
    <glyph glyph-name="uhungarumlaut" unicode="&#x171;" horiz-adv-x="549" 
d="M527 671l-174 -102l-49 81l168 110zM289 671l-173 -102l-50 81l168 110zM60 207v316h142v-311q0 -51 19 -77.5t53 -26.5q72 0 72 104v311h143v-316q0 -104 -61.5 -162t-153.5 -58q-93 0 -153.5 58t-60.5 162z" />
    <glyph glyph-name="Uogonek" unicode="&#x172;" horiz-adv-x="640" 
d="M366 -128l14 -85q-26 -11 -64 -11q-59 0 -88.5 27.5t-29.5 74.5q0 65 61 116q-85 18 -139.5 80.5t-54.5 151.5v450h147v-438q0 -59 29.5 -92.5t78.5 -33.5t78.5 34t29.5 92v438h147v-450q0 -92 -58.5 -156t-148.5 -79q-64 -50 -64 -98q0 -27 29 -27q18 0 33 6z" />
    <glyph glyph-name="uogonek" unicode="&#x173;" horiz-adv-x="549" 
d="M323 -128l14 -85q-26 -11 -64 -11q-59 0 -88.5 27.5t-29.5 74.5q0 65 61 116q-70 16 -113 71t-43 142v316h142v-311q0 -51 19 -77.5t53 -26.5q72 0 72 104v311h143v-316q0 -88 -45 -143.5t-117 -70.5q-66 -52 -66 -100q0 -27 29 -27q18 0 33 6z" />
    <glyph glyph-name="Wcircumflex" unicode="&#x174;" horiz-adv-x="849" 
d="M521 718l-97 61l-98 -61l-53 81l150 85l151 -85zM145 0l-110 676h150l42 -343q5 -40 11 -150q19 103 34 149l73 235h157l75 -235q17 -54 34 -146q6 108 11 147l42 343h150l-110 -676h-163l-96 318q-10 35 -21 95q-8 -55 -20 -95l-96 -318h-163z" />
    <glyph glyph-name="wcircumflex" unicode="&#x175;" horiz-adv-x="795" 
d="M495 580l-97 61l-98 -61l-53 81l150 85l151 -85zM65 180l-25 343h142l24 -333q5 -80 62 -80q28 0 43.5 23t15.5 58v298h139v-298q0 -35 15.5 -58t43.5 -23q56 0 63 80l25 333h142l-27 -343q-7 -91 -61 -142t-140 -51q-88 0 -131 69q-43 -69 -131 -69q-84 0 -138.5 52
t-61.5 141z" />
    <glyph glyph-name="Ycircumflex" unicode="&#x176;" horiz-adv-x="579" 
d="M386 718l-97 61l-98 -61l-53 81l150 85l151 -85zM216 0v257l-201 419h158l116 -268l117 268h158l-201 -419v-257h-147z" />
    <glyph glyph-name="ycircumflex" unicode="&#x177;" horiz-adv-x="510" 
d="M350 580l-97 61l-98 -61l-53 81l150 85l151 -85zM68 188l-48 335h142l47 -325q12 -77 59 -77h24l50 402h143l-99 -734h-140l29 211h-12q-167 0 -195 188z" />
    <glyph glyph-name="Ydieresis" unicode="&#x178;" horiz-adv-x="579" 
d="M449 801q0 -27 -19 -45.5t-46 -18.5q-26 0 -45 18.5t-19 45.5t19 46.5t45 19.5q27 0 46 -19.5t19 -46.5zM259 801q0 -27 -19 -45.5t-46 -18.5q-26 0 -45.5 18.5t-19.5 45.5t19.5 46.5t45.5 19.5q27 0 46 -19.5t19 -46.5zM216 0v257l-201 419h158l116 -268l117 268h158
l-201 -419v-257h-147z" />
    <glyph glyph-name="Zacute" unicode="&#x179;" horiz-adv-x="564" 
d="M410 796l-223 -84l-36 83l221 96zM40 0v97l277 460h-271v119h455v-97l-280 -458h303l-13 -121h-471z" />
    <glyph glyph-name="zacute" unicode="&#x17a;" horiz-adv-x="488" 
d="M374 658l-223 -84l-36 83l221 96zM433 0h-388v97l212 309h-204v117h376v-96l-203 -310h217z" />
    <glyph glyph-name="Zdotaccent" unicode="&#x17b;" horiz-adv-x="564" 
d="M345 801q0 -27 -19 -45.5t-46 -18.5q-26 0 -45 18.5t-19 45.5t19 46.5t45 19.5q27 0 46 -19.5t19 -46.5zM40 0v97l277 460h-271v119h455v-97l-280 -458h303l-13 -121h-471z" />
    <glyph glyph-name="zdotaccent" unicode="&#x17c;" horiz-adv-x="488" 
d="M309 663q0 -27 -19 -45.5t-46 -18.5q-26 0 -45 18.5t-19 45.5t19 46.5t45 19.5q27 0 46 -19.5t19 -46.5zM433 0h-388v97l212 309h-204v117h376v-96l-203 -310h217z" />
    <glyph glyph-name="Zcaron" unicode="&#x17d;" horiz-adv-x="564" 
d="M431 802l-150 -85l-151 85l53 81l97 -61l98 61zM40 0v97l277 460h-271v119h455v-97l-280 -458h303l-13 -121h-471z" />
    <glyph glyph-name="zcaron" unicode="&#x17e;" horiz-adv-x="488" 
d="M395 664l-150 -85l-151 85l53 81l97 -61l98 61zM433 0h-388v97l212 309h-204v117h376v-96l-203 -310h217z" />
    <glyph glyph-name="florin" unicode="&#x192;" horiz-adv-x="521" 
d="M145 -38l57 407h-85v95h99l16 112q11 79 66 121.5t125 42.5q55 0 105 -21l-35 -115q-39 13 -70 13q-54 0 -62 -58l-14 -95h124l-21 -95h-116l-60 -424q-11 -79 -66 -121.5t-125 -42.5q-56 0 -105 21l35 115q39 -13 70 -13q54 0 62 58z" />
    <glyph glyph-name="Scommaaccent" unicode="&#x218;" horiz-adv-x="522" 
d="M35 29l28 122q106 -39 189 -39q38 0 60.5 21t22.5 55q0 33 -29 57t-70.5 42t-83 41t-70.5 66.5t-29 104.5q0 86 65 138t163 52q87 0 192 -42l-38 -117q-85 34 -154 34q-76 0 -76 -63q0 -30 29 -52.5t70.5 -40t83 -40.5t70.5 -68.5t29 -110.5q0 -96 -68.5 -149t-166.5 -53
q-102 0 -217 42zM276 -224h-93l26 162h123z" />
    <glyph glyph-name="scommaaccent" unicode="&#x219;" horiz-adv-x="432" 
d="M28 19l28 114q70 -25 137 -25q27 0 45 11.5t18 28.5q0 21 -22 35.5t-53 27.5t-62.5 30t-53.5 52.5t-22 85.5q0 69 53 113t140 44q71 0 142 -25l-30 -117q-67 21 -112 21q-48 0 -48 -36q0 -20 22 -34t53 -26t62 -29t53 -53t22 -87q0 -67 -54 -115t-153 -48q-77 0 -165 32z
M232 -224h-93l26 162h123z" />
    <glyph glyph-name="circumflex" unicode="&#x2c6;" horiz-adv-x="481" 
d="M338 580l-97 61l-98 -61l-53 81l150 85l151 -85z" />
    <glyph glyph-name="caron" unicode="&#x2c7;" horiz-adv-x="481" 
d="M391 664l-150 -85l-151 85l53 81l97 -61l98 61z" />
    <glyph glyph-name="breve" unicode="&#x2d8;" horiz-adv-x="419" 
d="M257 736h90q-1 -61 -41.5 -103t-96.5 -42t-95.5 42t-40.5 103h89q1 -25 14.5 -42.5t32.5 -17.5q21 0 34.5 17t13.5 43z" />
    <glyph glyph-name="dotaccent" unicode="&#x2d9;" horiz-adv-x="271" 
d="M200 663q0 -27 -19 -45.5t-46 -18.5q-26 0 -45 18.5t-19 45.5t19 46.5t45 19.5q27 0 46 -19.5t19 -46.5z" />
    <glyph glyph-name="ring" unicode="&#x2da;" horiz-adv-x="346" 
d="M174 574q-43 0 -73 30.5t-30 72.5q0 41 30 71t73 30q41 0 71 -30t30 -71q0 -42 -30 -72.5t-71 -30.5zM174 646q13 0 21.5 9t8.5 22t-8.5 21.5t-21.5 8.5t-22 -8.5t-9 -21.5t9 -22t22 -9z" />
    <glyph glyph-name="ogonek" unicode="&#x2db;" horiz-adv-x="316" 
d="M234 -128l14 -85q-26 -11 -64 -11q-59 0 -88.5 27.5t-29.5 74.5q0 70 70 122h112q-33 -23 -54.5 -52.5t-21.5 -54.5q0 -27 29 -27q18 0 33 6z" />
    <glyph glyph-name="tilde" unicode="&#x2dc;" horiz-adv-x="456" 
d="M331 718l53 -62q-12 -27 -37.5 -46t-62.5 -19q-25 0 -59 22.5t-51 22.5q-28 0 -47 -29l-53 62q12 27 37.5 46t62.5 19q25 0 59 -22.5t51 -22.5q28 0 47 29z" />
    <glyph glyph-name="hungarumlaut" unicode="&#x2dd;" horiz-adv-x="617" 
d="M539 671l-174 -102l-49 81l168 110zM301 671l-173 -102l-50 81l168 110z" />
    <glyph glyph-name="Omega" unicode="&#x3a9;" horiz-adv-x="690" 
d="M646 0h-238v239q46 24 73.5 67t27.5 88v32q0 66 -43.5 120t-120.5 54q-79 0 -121 -52.5t-42 -121.5v-32q0 -46 26.5 -89.5t74.5 -66.5v-238h-239v100h114v61q-54 40 -84 98t-30 124v54q0 120 82 201.5t219 81.5q136 0 218.5 -83.5t82.5 -199.5v-54q0 -69 -30 -127
t-84 -97v-59h114v-100z" />
    <glyph glyph-name="pi" unicode="&#x3c0;" horiz-adv-x="734" 
d="M601 0h-136v405h-196v-405h-136v405h-81v118h631v-118h-82v-405z" />
    <glyph glyph-name="afii10023" unicode="&#x401;" horiz-adv-x="533" 
d="M70 0v676h404v-125h-257v-150h216l-6 -120h-210v-156h266v-125h-413zM435 801q0 -27 -19 -45.5t-46 -18.5q-26 0 -45 18.5t-19 45.5t19 46.5t45 19.5q27 0 46 -19.5t19 -46.5zM245 801q0 -27 -19 -45.5t-46 -18.5q-26 0 -45.5 18.5t-19.5 45.5t19.5 46.5t45.5 19.5
q27 0 46 -19.5t19 -46.5z" />
    <glyph glyph-name="afii10051" unicode="&#x402;" horiz-adv-x="722" 
d="M387 -6v123q1 0 3 -0.5t3 -0.5q30 -5 43 -5q42 0 66 22t24 63v26q0 41 -24 63t-66 22q-18 0 -52 -6t-48 -11v-290h-147v551h-164v125h475v-125h-164v-137q99 18 151 18q78 0 131.5 -48.5t53.5 -131.5v-86q0 -83 -53.5 -131.5t-131.5 -48.5q-48 0 -100 8z" />
    <glyph glyph-name="afii10052" unicode="&#x403;" horiz-adv-x="475" 
d="M70 0v676h390v-125h-243v-551h-147zM397 796l-223 -84l-36 83l221 96z" />
    <glyph glyph-name="afii10053" unicode="&#x404;" horiz-adv-x="569" 
d="M496 137l28 -119q-96 -31 -195 -31q-124 0 -200 71.5t-76 206.5v146q0 135 76 206.5t200 71.5q99 0 195 -31l-28 -118q-84 26 -166 26q-129 0 -130 -162h214l-11 -120h-203v-3q0 -171 130 -171q88 0 166 27z" />
    <glyph glyph-name="afii10054" unicode="&#x405;" horiz-adv-x="522" 
d="M35 29l28 122q106 -39 189 -39q38 0 60.5 21t22.5 55q0 33 -29 57t-70.5 42t-83 41t-70.5 66.5t-29 104.5q0 86 65 138t163 52q87 0 192 -42l-38 -117q-85 34 -154 34q-76 0 -76 -63q0 -30 29 -52.5t70.5 -40t83 -40.5t70.5 -68.5t29 -110.5q0 -96 -68.5 -149t-166.5 -53
q-102 0 -217 42z" />
    <glyph glyph-name="afii10055" unicode="&#x406;" horiz-adv-x="287" 
d="M70 0v676h147v-676h-147z" />
    <glyph glyph-name="afii10056" unicode="&#x407;" horiz-adv-x="287" 
d="M70 0v676h147v-676h-147zM304 801q0 -27 -19 -45.5t-46 -18.5q-26 0 -45 18.5t-19 45.5t19 46.5t45 19.5q27 0 46 -19.5t19 -46.5zM114 801q0 -27 -19 -45.5t-46 -18.5q-26 0 -45.5 18.5t-19.5 45.5t19.5 46.5t45.5 19.5q27 0 46 -19.5t19 -46.5z" />
    <glyph glyph-name="afii10057" unicode="&#x408;" horiz-adv-x="484" 
d="M15 23l35 117q81 -28 141 -28q86 0 86 121v443h147v-446q0 -113 -59.5 -178t-168.5 -65q-79 0 -181 36z" />
    <glyph glyph-name="afii10058" unicode="&#x409;" horiz-adv-x="953" 
d="M455 0v554h-154q0 -107 -7 -190t-18 -141.5t-31.5 -99.5t-42 -66t-55 -39.5t-64.5 -20t-76 -7.5l-7 122q39 7 62 20.5t44.5 46.5t32 94t16.5 158.5t6 244.5h441v-250h104q100 0 161 -62t61 -151t-61 -151t-161 -62h-251zM701 304h-99v-182h99q35 0 56.5 25t21.5 66
t-21.5 66t-56.5 25z" />
    <glyph glyph-name="afii10059" unicode="&#x40a;" horiz-adv-x="923" 
d="M425 0v284h-208v-284h-147v676h147v-270h208v270h147v-270h104q101 0 161.5 -57.5t60.5 -145.5t-60.5 -145.5t-161.5 -57.5h-251zM671 284h-99v-162h99q36 0 57 20.5t21 60.5t-21 60.5t-57 20.5z" />
    <glyph glyph-name="afii10060" unicode="&#x40b;" horiz-adv-x="722" 
d="M672 252v-252h-146v222q0 41 -24 63t-66 22q-18 0 -52 -6t-48 -11v-290h-147v551h-164v125h475v-125h-164v-137q99 18 151 18q78 0 131.5 -48.5t53.5 -131.5z" />
    <glyph glyph-name="afii10061" unicode="&#x40c;" horiz-adv-x="616" 
d="M70 0v676h147v-275l77 24q31 10 45.5 25.5t22.5 43.5l50 182h146l-60 -228q-21 -78 -77 -107l175 -341h-173l-137 288l-69 -25v-263h-147zM457 796l-223 -84l-36 83l221 96z" />
    <glyph glyph-name="afii10062" unicode="&#x40e;" horiz-adv-x="576" 
d="M124 0l-16 122h147q25 0 38.5 18.5t20.5 58.5l4 24h-50q-165 0 -195 188l-43 265h146l42 -255q12 -77 59 -77h63l59 332h147l-87 -487q-33 -189 -195 -189h-140zM341 869l90 -10q-5 -61 -43 -95.5t-98 -34.5t-97.5 34.5t-41.5 95.5l89 10q3 -25 17 -40t33 -15q43 0 51 55
z" />
    <glyph glyph-name="afii10145" unicode="&#x40f;" horiz-adv-x="642" 
d="M70 0v676h147v-554h208v554h147v-676h-184v-111l-134 -20v131h-184z" />
    <glyph glyph-name="afii10017" unicode="&#x410;" horiz-adv-x="616" 
d="M20 0l203 676h170l203 -676h-149l-45 163h-188l-45 -163h-149zM247 282h122l-35 128q-12 41 -26 115q-10 -54 -26 -115z" />
    <glyph glyph-name="afii10018" unicode="&#x411;" horiz-adv-x="578" 
d="M217 554v-131h104q100 0 161 -61t61 -149q0 -89 -61 -151t-161 -62h-251v676h410v-122h-263zM316 301h-99v-179h99q35 0 56.5 25t21.5 66t-21 64.5t-57 23.5z" />
    <glyph glyph-name="afii10019" unicode="&#x412;" horiz-adv-x="583" 
d="M296 0h-226v676h221q106 0 169 -53t63 -137q0 -91 -85 -131q110 -40 110 -149q0 -87 -71 -146.5t-181 -59.5zM217 406h63q45 0 69.5 20.5t24.5 52.5q0 33 -21.5 52.5t-65.5 19.5h-70v-145zM217 125h78q48 0 76 23t28 58q0 37 -24.5 59t-71.5 22h-86v-162z" />
    <glyph glyph-name="afii10020" unicode="&#x413;" horiz-adv-x="475" 
d="M70 0v676h390v-125h-243v-551h-147z" />
    <glyph glyph-name="afii10021" unicode="&#x414;" horiz-adv-x="697" 
d="M229 122h231v432h-148q-8 -130 -32 -257.5t-51 -174.5zM10 122h60q46 57 77 224t33 330h427v-554h70v-233l-134 -20v131h-399v-111l-134 -20v253z" />
    <glyph glyph-name="afii10022" unicode="&#x415;" horiz-adv-x="533" 
d="M70 0v676h404v-125h-257v-150h216l-6 -120h-210v-156h266v-125h-413z" />
    <glyph glyph-name="afii10024" unicode="&#x416;" horiz-adv-x="875" 
d="M511 0h-147v263l-55 21l-116 -284h-173l154 338q-56 30 -76 107l-60 231h146l50 -185q8 -28 22.5 -43.5t45.5 -25.5l62 -21v275h147v-275l62 21q31 10 45.5 25.5t22.5 43.5l50 185h146l-60 -231q-21 -78 -77 -107l155 -338h-173l-117 284l-54 -21v-263z" />
    <glyph glyph-name="afii10025" unicode="&#x417;" horiz-adv-x="542" 
d="M497 209q0 -102 -69.5 -162t-175.5 -60q-50 0 -114 10t-98 25l28 121q94 -33 164 -33q53 0 86.5 26t33.5 68q0 41 -21 61.5t-76 20.5h-93l-7 119h77q93 0 93 89q0 30 -20 51t-65 21q-66 0 -151 -34l-35 115q105 42 217 42q96 0 152 -50t56 -132q0 -48 -25 -90.5
t-64 -57.5q53 -15 80 -54t27 -96z" />
    <glyph glyph-name="afii10026" unicode="&#x418;" horiz-adv-x="652" 
d="M582 676v-676h-147v288q0 54 4 106l-249 -394h-120v676h147v-293q0 -46 -3 -103l249 396h119z" />
    <glyph glyph-name="afii10027" unicode="&#x419;" horiz-adv-x="652" 
d="M582 676v-676h-147v288q0 54 4 106l-249 -394h-120v676h147v-293q0 -46 -3 -103l249 396h119zM384 869l90 -10q-5 -61 -43 -95.5t-98 -34.5t-97.5 34.5t-41.5 95.5l89 10q3 -25 17 -40t33 -15q43 0 51 55z" />
    <glyph glyph-name="afii10028" unicode="&#x41a;" horiz-adv-x="616" 
d="M70 0v676h147v-275l77 24q31 10 45.5 25.5t22.5 43.5l50 182h146l-60 -228q-21 -78 -77 -107l175 -341h-173l-137 288l-69 -25v-263h-147z" />
    <glyph glyph-name="afii10029" unicode="&#x41b;" horiz-adv-x="672" 
d="M7 -10l-7 122q39 7 62 20.5t44.5 46.5t32 94t16.5 158.5t6 244.5h441v-676h-147v554h-154q0 -107 -7 -190t-18 -141.5t-31.5 -99.5t-42 -66t-55 -39.5t-64.5 -20t-76 -7.5z" />
    <glyph glyph-name="afii10030" unicode="&#x41c;" horiz-adv-x="828" 
d="M35 0l72 676h167l116 -327q8 -23 24 -87q11 49 24 87l116 327h167l72 -676h-146l-29 346q-3 35 -7 129q-18 -77 -36 -128l-83 -233h-156l-83 233q-21 60 -37 129q-2 -79 -6 -130l-29 -346h-146z" />
    <glyph glyph-name="afii10031" unicode="&#x41d;" horiz-adv-x="642" 
d="M70 0v676h147v-271h208v271h147v-676h-147v283h-208v-283h-147z" />
    <glyph glyph-name="afii10032" unicode="&#x41e;" horiz-adv-x="641" 
d="M53 266v143q0 134 75.5 207t191.5 73q117 0 192.5 -73t75.5 -207v-143q0 -135 -75.5 -207t-192.5 -72q-116 0 -191.5 72.5t-75.5 206.5zM320 112q121 0 121 165v122q0 165 -121 165q-120 0 -120 -165v-122q0 -165 120 -165z" />
    <glyph glyph-name="afii10033" unicode="&#x41f;" horiz-adv-x="642" 
d="M70 0v676h502v-676h-147v554h-208v-554h-147z" />
    <glyph glyph-name="afii10034" unicode="&#x420;" horiz-adv-x="558" 
d="M70 0v676h241q99 0 160.5 -63.5t61.5 -152.5t-61 -151t-161 -62h-94v-247h-147zM217 369h89q35 0 56.5 25t21.5 66t-21.5 66t-56.5 25h-89v-182z" />
    <glyph glyph-name="afii10035" unicode="&#x421;" horiz-adv-x="569" 
d="M496 139l28 -121q-96 -31 -195 -31q-124 0 -200 71.5t-76 206.5v146q0 135 76 206.5t200 71.5q99 0 195 -31l-28 -120q-84 26 -166 26q-130 0 -130 -165v-121q0 -88 33.5 -127t96.5 -39q88 0 166 27z" />
    <glyph glyph-name="afii10036" unicode="&#x422;" horiz-adv-x="525" 
d="M189 0v551h-164v125h475v-125h-164v-551h-147z" />
    <glyph glyph-name="afii10037" unicode="&#x423;" horiz-adv-x="576" 
d="M124 0l-16 122h147q25 0 38.5 18.5t20.5 58.5l4 24h-50q-165 0 -195 188l-43 265h146l42 -255q12 -77 59 -77h63l59 332h147l-87 -487q-33 -189 -195 -189h-140z" />
    <glyph glyph-name="afii10038" unicode="&#x424;" horiz-adv-x="819" 
d="M483 490v-281q157 4 157 141q0 140 -157 140zM336 209v281q-157 -4 -157 -140q0 -137 157 -141zM30 349q0 70 24.5 122t68.5 81.5t96.5 44t116.5 15.5v77h147v-77q64 -1 116.5 -15.5t96.5 -43.5t68.5 -81t24.5 -122t-24.5 -122t-68.5 -81.5t-96.5 -44t-116.5 -15.5v-97
h-147v97q-64 1 -116.5 15.5t-96.5 43.5t-68.5 81t-24.5 122z" />
    <glyph glyph-name="afii10039" unicode="&#x425;" horiz-adv-x="594" 
d="M15 0l196 352l-175 324h163l98 -187l103 187h159l-175 -321l196 -355h-169l-113 216l-118 -216h-165z" />
    <glyph glyph-name="afii10040" unicode="&#x426;" horiz-adv-x="662" 
d="M70 0v676h147v-554h208v554h147v-554h70v-233l-134 -20v131h-438z" />
    <glyph glyph-name="afii10041" unicode="&#x427;" horiz-adv-x="603" 
d="M50 424v252h146v-222q0 -41 24 -63t66 -22q18 0 52 6t48 11v290h147v-676h-147v262q-99 -18 -151 -18q-78 0 -131.5 48.5t-53.5 131.5z" />
    <glyph glyph-name="afii10042" unicode="&#x428;" horiz-adv-x="907" 
d="M837 0h-767v676h147v-554h163v554h147v-554h163v554h147v-676z" />
    <glyph glyph-name="afii10043" unicode="&#x429;" horiz-adv-x="917" 
d="M773 0h-703v676h147v-554h163v554h147v-554h163v554h147v-554h70v-233l-134 -20v131z" />
    <glyph glyph-name="afii10044" unicode="&#x42a;" horiz-adv-x="660" 
d="M309 676v-250h104q100 0 161 -61t61 -149q0 -89 -61.5 -152.5t-160.5 -63.5h-251v554h-137v122h284zM408 304h-99v-182h99q35 0 56.5 25t21.5 66t-21.5 66t-56.5 25z" />
    <glyph glyph-name="afii10045" unicode="&#x42b;" horiz-adv-x="817" 
d="M70 0v676h147v-250h94q100 0 161 -62t61 -151t-61 -151t-161 -62h-241zM306 304h-89v-182h89q35 0 56.5 25t21.5 66t-21.5 66t-56.5 25zM600 0v676h147v-676h-147z" />
    <glyph glyph-name="afii10046" unicode="&#x42c;" horiz-adv-x="568" 
d="M70 0v676h147v-250h104q100 0 161 -62t61 -151t-61 -151t-161 -62h-251zM316 304h-99v-182h99q35 0 56.5 25t21.5 66t-21.5 66t-56.5 25z" />
    <glyph glyph-name="afii10047" unicode="&#x42d;" horiz-adv-x="569" 
d="M45 18l28 119q78 -27 166 -27q130 0 130 171v3h-203l-11 120h214q-1 162 -130 162q-82 0 -166 -26l-28 118q96 31 195 31q124 0 200 -71.5t76 -206.5v-146q0 -135 -76 -206.5t-200 -71.5q-99 0 -195 31z" />
    <glyph glyph-name="afii10048" unicode="&#x42e;" horiz-adv-x="871" 
d="M313 266v17h-96v-283h-147v676h147v-271h96v4q0 135 70.5 207.5t181.5 72.5q112 0 182.5 -72.5t70.5 -207.5v-143q0 -135 -70.5 -207t-182.5 -72t-182 72t-70 207zM565 112q52 0 79 38t27 127v122q0 165 -106 165q-52 0 -78.5 -38.5t-26.5 -126.5v-122q0 -90 26.5 -127.5
t78.5 -37.5z" />
    <glyph glyph-name="afii10049" unicode="&#x42f;" horiz-adv-x="575" 
d="M505 676v-676h-147v247h-56l-108 -247h-164l126 268q-56 25 -87 77t-31 115q0 89 61.5 152.5t160.5 63.5h245zM267 369h91v182h-91q-35 0 -58 -25.5t-23 -65.5q0 -41 22.5 -66t58.5 -25z" />
    <glyph glyph-name="afii10065" unicode="&#x430;" horiz-adv-x="510" 
d="M38 167q0 80 55 121t149 41h65v12q0 36 -17 55t-48 19q-62 0 -145 -26l-31 113q110 34 176 34q93 0 150.5 -54t57.5 -141v-174v-167h-123l-9 29q-32 -42 -100 -42q-85 0 -132.5 50t-47.5 130zM183 168q0 -24 15 -42t46 -18q29 0 46 18.5t17 40.5v62h-66q-58 0 -58 -61z
" />
    <glyph glyph-name="afii10066" unicode="&#x431;" horiz-adv-x="554" 
d="M195 483q46 33 111 33q85 0 142.5 -55t57.5 -157v-88q0 -105 -62 -167t-161 -62t-161 62t-62 167v232q0 68 17 117t50.5 78t72.5 45t93 25l196 32v-117l-186 -32q-108 -19 -108 -113zM202 221q0 -113 81 -113t81 113v61q0 113 -81 113t-81 -113v-61z" />
    <glyph glyph-name="afii10067" unicode="&#x432;" horiz-adv-x="540" 
d="M335 171q0 25 -16.5 41.5t-49.5 16.5h-66v-116h66q31 0 48.5 17.5t17.5 40.5zM281 523q90 0 139.5 -35.5t49.5 -106.5q0 -74 -69 -106q89 -32 89 -121q0 -78 -62 -116t-158 -38h-210v341v182h221zM203 326h51q35 0 55 14.5t20 38.5q0 49 -70 49h-56v-102z" />
    <glyph glyph-name="afii10068" unicode="&#x433;" horiz-adv-x="390" 
d="M60 0v523h321v-118h-179v-405h-142z" />
    <glyph glyph-name="afii10069" unicode="&#x434;" horiz-adv-x="589" 
d="M10 118h56l51 217q21 90 65 139t130 49h202v-405h56v-206l-120 -17v105h-320v-88l-120 -17v223zM263 325l-49 -207h157v287h-39q-51 0 -69 -80z" />
    <glyph glyph-name="afii10070" unicode="&#x435;" horiz-adv-x="518" 
d="M48 213v102q0 104 60.5 162.5t152.5 58.5q90 0 152 -57t62 -145v-114h-285v-7q0 -105 92 -105q66 0 143 25l28 -115q-84 -31 -171 -31q-107 0 -170.5 59t-63.5 167zM190 320h142v14q0 35 -19 58t-52 23q-31 0 -51 -23t-20 -58v-14z" />
    <glyph glyph-name="afii10072" unicode="&#x436;" horiz-adv-x="747" 
d="M445 0h-143v198l-35 9l-98 -207h-158l132 255q-25 15 -39 40.5t-25 69.5l-41 158h139l31 -125q11 -45 37 -54l57 -16v195h143v-195l57 16q26 9 37 54l31 125h139l-41 -158q-11 -44 -25 -69.5t-39 -40.5l132 -255h-158l-98 207l-35 -9v-198z" />
    <glyph glyph-name="afii10073" unicode="&#x437;" horiz-adv-x="481" 
d="M433 165q0 -84 -56 -131t-156 -47q-39 0 -95.5 8.5t-85.5 21.5l25 116q73 -26 136 -26q38 0 62 14t24 40t-14 39t-50 13h-75l-9 109h67q61 0 61 54q0 17 -15 28.5t-45 11.5q-55 0 -126 -27l-31 111q93 36 196 36q83 0 128.5 -38.5t45.5 -99.5q0 -43 -21 -73.5t-49 -41.5
q35 -11 59 -44.5t24 -73.5z" />
    <glyph glyph-name="afii10074" unicode="&#x438;" horiz-adv-x="570" 
d="M505 523v-523h-141v193q0 27 5 102l-184 -295h-120v523h141v-197q0 -26 -5 -99l185 296h119z" />
    <glyph glyph-name="afii10075" unicode="&#x439;" horiz-adv-x="570" 
d="M505 523v-523h-141v193q0 27 5 102l-184 -295h-120v523h141v-197q0 -26 -5 -99l185 296h119zM332 736l90 -10q-1 -60 -40.5 -95t-97.5 -35q-57 0 -96 35t-40 95l89 10q3 -25 15.5 -40t31.5 -15q40 0 48 55z" />
    <glyph glyph-name="afii10076" unicode="&#x43a;" horiz-adv-x="520" 
d="M65 0v523h143v-195l67 16q26 9 37 54l31 125h139l-41 -158q-11 -44 -25 -69.5t-39 -40.5l132 -255h-158l-98 207l-45 -9v-198h-143z" />
    <glyph glyph-name="afii10077" unicode="&#x43b;" horiz-adv-x="537" 
d="M17 0l68 335q18 89 63.5 138.5t131.5 49.5h192v-523h-143v405h-29q-52 0 -69 -80l-67 -325h-147z" />
    <glyph glyph-name="afii10078" unicode="&#x43c;" horiz-adv-x="710" 
d="M88 523h179l88 -279l89 279h179l52 -523h-145l-27 327l-77 -239h-141l-78 240l-27 -328h-145z" />
    <glyph glyph-name="afii10079" unicode="&#x43d;" horiz-adv-x="559" 
d="M351 523h143v-523h-143v213h-143v-213h-143v523h143v-192h143v192z" />
    <glyph glyph-name="afii10080" unicode="&#x43e;" horiz-adv-x="542" 
d="M48 216v91q0 105 62 167t161 62t161 -62t62 -167v-91q0 -105 -62 -167t-161 -62t-161 62t-62 167zM190 221q0 -113 81 -113t81 113v81q0 113 -81 113t-81 -113v-81z" />
    <glyph glyph-name="afii10081" unicode="&#x43f;" horiz-adv-x="558" 
d="M208 405v-405h-143v523h428v-523h-143v405h-142z" />
    <glyph glyph-name="afii10082" unicode="&#x440;" horiz-adv-x="552" 
d="M208 126q45 -18 76 -18q77 0 77 104v100q0 50 -21 76.5t-55 26.5t-55.5 -26.5t-21.5 -76.5v-186zM319 536q82 0 133.5 -58.5t51.5 -160.5v-110q0 -105 -60.5 -162.5t-146.5 -57.5q-47 0 -89 24v-222h-143v734h117l15 -45q23 29 49.5 43.5t72.5 14.5z" />
    <glyph glyph-name="afii10083" unicode="&#x441;" horiz-adv-x="466" 
d="M48 216v91q0 116 62.5 172.5t168.5 56.5q73 0 153 -25l-30 -116q-69 20 -115 20q-48 0 -72 -24.5t-24 -83.5v-91q0 -59 24 -83.5t72 -24.5q46 0 115 20l31 -116q-85 -25 -154 -25q-106 0 -168.5 56.5t-62.5 172.5z" />
    <glyph glyph-name="afii10084" unicode="&#x442;" horiz-adv-x="443" 
d="M150 0v405h-125v118h393v-118h-125v-405h-143z" />
    <glyph glyph-name="afii10085" unicode="&#x443;" horiz-adv-x="515" 
d="M73 188l-48 335h142l47 -325q12 -77 59 -77h24l50 402h143l-99 -734h-140l29 211h-12q-167 0 -195 188z" />
    <glyph glyph-name="afii10086" unicode="&#x444;" horiz-adv-x="791" 
d="M600 212v100q0 55 -16.5 79t-50.5 24q-21 0 -66 -18v-271q45 -18 66 -18q67 0 67 104zM191 312v-100q0 -104 67 -104q21 0 66 18v271q-45 18 -66 18q-34 0 -50.5 -24t-16.5 -79zM467 -211h-143v222q-42 -24 -96 -24q-82 0 -131 56t-49 164v109q0 105 54.5 162.5
t130.5 57.5q49 0 91 -24v213l143 20v-233q42 24 94 24q74 0 128 -57.5t54 -162.5v-109q0 -107 -50.5 -163.5t-133.5 -56.5q-50 0 -92 24v-222z" />
    <glyph glyph-name="afii10087" unicode="&#x445;" horiz-adv-x="502" 
d="M10 0l159 268l-146 255h157l72 -130l75 130h153l-146 -251l159 -272h-161l-81 147l-84 -147h-157z" />
    <glyph glyph-name="afii10088" unicode="&#x446;" horiz-adv-x="568" 
d="M208 523v-405h142v405h143v-405h56v-211l-120 -17v110h-364v523h143z" />
    <glyph glyph-name="afii10089" unicode="&#x447;" horiz-adv-x="527" 
d="M48 315v208h139v-165q0 -66 65 -66q34 0 67 14v217h143v-523h-143v190q-79 -14 -123 -14q-61 0 -104.5 38t-43.5 101z" />
    <glyph glyph-name="afii10090" unicode="&#x448;" horiz-adv-x="791" 
d="M726 523v-523h-661v523h143v-405h116v405h143v-405h116v405h143z" />
    <glyph glyph-name="afii10091" unicode="&#x449;" horiz-adv-x="801" 
d="M583 523h143v-405h56v-211l-120 -17v110h-597v523h143v-405h116v405h143v-405h116v405z" />
    <glyph glyph-name="afii10092" unicode="&#x44a;" horiz-adv-x="568" 
d="M540 175q0 -84 -57.5 -129.5t-148.5 -45.5h-216v413h-98v110h241v-185h75q94 0 149 -40.5t55 -122.5zM395 171q0 59 -58 59h-76v-117h73q61 0 61 58z" />
    <glyph glyph-name="afii10093" unicode="&#x44b;" horiz-adv-x="740" 
d="M532 0v523h143v-523h-143zM487 175q0 -84 -57.5 -129.5t-148.5 -45.5h-216v523h143v-185h75q94 0 149 -40.5t55 -122.5zM342 171q0 59 -58 59h-76v-117h73q61 0 61 58z" />
    <glyph glyph-name="afii10094" unicode="&#x44c;" horiz-adv-x="515" 
d="M487 175q0 -84 -57.5 -129.5t-148.5 -45.5h-216v523h143v-185h75q94 0 149 -40.5t55 -122.5zM342 171q0 59 -58 59h-76v-117h73q61 0 61 58z" />
    <glyph glyph-name="afii10095" unicode="&#x44d;" horiz-adv-x="466" 
d="M418 307v-91q0 -116 -62.5 -172.5t-168.5 -56.5q-69 0 -154 25l31 113q69 -20 115 -20q95 0 96 109h-136l-10 116h145q-10 88 -95 88q-46 0 -115 -20l-30 113q80 25 153 25q106 0 168.5 -56.5t62.5 -172.5z" />
    <glyph glyph-name="afii10096" unicode="&#x44e;" horiz-adv-x="772" 
d="M65 523h143v-192h81q7 95 66 150t151 55q98 0 158 -61.5t60 -167.5v-91q0 -106 -60 -167.5t-158 -61.5q-97 0 -157 61t-61 165h-80v-213h-143v523zM430 221q0 -56 16.5 -84.5t59.5 -28.5t59.5 28.5t16.5 84.5v81q0 56 -16.5 84.5t-59.5 28.5t-59.5 -28.5t-16.5 -84.5v-81
z" />
    <glyph glyph-name="afii10097" unicode="&#x44f;" horiz-adv-x="510" 
d="M38 353q0 83 57 126.5t149 43.5h206v-523h-143v188h-45l-76 -188h-158l97 210q-87 40 -87 143zM183 352q0 -64 58 -64h66v127h-63q-31 0 -46 -18t-15 -45z" />
    <glyph glyph-name="afii10071" unicode="&#x451;" horiz-adv-x="518" 
d="M48 213v102q0 104 60.5 162.5t152.5 58.5q90 0 152 -57t62 -145v-114h-285v-7q0 -105 92 -105q66 0 143 25l28 -115q-84 -31 -171 -31q-107 0 -170.5 59t-63.5 167zM190 320h142v14q0 35 -19 58t-52 23q-31 0 -51 -23t-20 -58v-14zM419 663q0 -27 -19 -45.5t-46 -18.5
q-26 0 -45 18.5t-19 45.5t19 46.5t45 19.5q27 0 46 -19.5t19 -46.5zM229 663q0 -27 -19 -45.5t-46 -18.5q-26 0 -45.5 18.5t-19.5 45.5t19.5 46.5t45.5 19.5q27 0 46 -19.5t19 -46.5z" />
    <glyph glyph-name="afii10099" unicode="&#x452;" horiz-adv-x="555" 
d="M352 -222v541q0 53 -17 74.5t-51 21.5q-31 0 -76 -18v-397h-143v587h-40v95h40v50h143v-50h79v-95h-79v-75q44 24 89 24q86 0 142 -52t56 -157v-529z" />
    <glyph glyph-name="afii10100" unicode="&#x453;" horiz-adv-x="390" 
d="M60 0v523h321v-118h-179v-405h-142zM345 658l-223 -84l-36 83l221 96z" />
    <glyph glyph-name="afii10101" unicode="&#x454;" horiz-adv-x="466" 
d="M48 216v91q0 116 62.5 172.5t168.5 56.5q73 0 153 -25l-30 -113q-69 20 -115 20q-85 0 -95 -88h145l-10 -116h-136q1 -109 96 -109q46 0 115 20l31 -113q-85 -25 -154 -25q-106 0 -168.5 56.5t-62.5 172.5z" />
    <glyph glyph-name="afii10102" unicode="&#x455;" horiz-adv-x="432" 
d="M28 19l28 114q70 -25 137 -25q27 0 45 11.5t18 28.5q0 21 -22 35.5t-53 27.5t-62.5 30t-53.5 52.5t-22 85.5q0 69 53 113t140 44q71 0 142 -25l-30 -117q-67 21 -112 21q-48 0 -48 -36q0 -20 22 -34t53 -26t62 -29t53 -53t22 -87q0 -67 -54 -115t-153 -48q-77 0 -165 32z
" />
    <glyph glyph-name="afii10103" unicode="&#x456;" horiz-adv-x="273" 
d="M136 592q-33 0 -57 23t-24 56t24 55.5t57 22.5t57 -22.5t24 -55.5q0 -32 -24 -55.5t-57 -23.5zM65 0v523h143v-523h-143z" />
    <glyph glyph-name="afii10104" unicode="&#x457;" horiz-adv-x="273" 
d="M297 663q0 -27 -19 -45.5t-46 -18.5q-26 0 -45 18.5t-19 45.5t19 46.5t45 19.5q27 0 46 -19.5t19 -46.5zM107 663q0 -27 -19 -45.5t-46 -18.5q-26 0 -45.5 18.5t-19.5 45.5t19.5 46.5t45.5 19.5q27 0 46 -19.5t19 -46.5zM208 0h-143v523h143v-523z" />
    <glyph glyph-name="afii10105" unicode="&#x458;" horiz-adv-x="273" 
d="M136 592q-33 0 -57 23t-24 56t24 55.5t57 22.5t57 -22.5t24 -55.5q0 -32 -24 -55.5t-57 -23.5zM65 -222v745h143v-725z" />
    <glyph glyph-name="afii10106" unicode="&#x459;" horiz-adv-x="779" 
d="M751 175q0 -84 -57.5 -129.5t-148.5 -45.5h-216v405h-29q-52 0 -69 -80l-67 -325h-147l68 335q18 89 63.5 138.5t131.5 49.5h192v-185h75q94 0 149 -40.5t55 -122.5zM606 171q0 59 -58 59h-76v-117h73q61 0 61 58z" />
    <glyph glyph-name="afii10107" unicode="&#x45a;" horiz-adv-x="801" 
d="M773 175q0 -84 -57.5 -129.5t-148.5 -45.5h-216v220h-143v-220h-143v523h143v-185h143v185h143v-185h75q94 0 149 -40.5t55 -122.5zM628 171q0 59 -58 59h-76v-117h73q61 0 61 58z" />
    <glyph glyph-name="afii10108" unicode="&#x45b;" horiz-adv-x="555" 
d="M495 0h-143v319q0 53 -17 74.5t-51 21.5q-31 0 -76 -18v-397h-143v587h-40v95h40v50h143v-50h79v-95h-79v-75q44 24 89 24q86 0 142 -52t56 -157v-327z" />
    <glyph glyph-name="afii10109" unicode="&#x45c;" horiz-adv-x="520" 
d="M65 0v523h143v-195l67 16q26 9 37 54l31 125h139l-41 -158q-11 -44 -25 -69.5t-39 -40.5l132 -255h-158l-98 207l-45 -9v-198h-143zM409 658l-223 -84l-36 83l221 96z" />
    <glyph glyph-name="afii10110" unicode="&#x45e;" horiz-adv-x="515" 
d="M73 188l-48 335h142l47 -325q12 -77 59 -77h24l50 402h143l-99 -734h-140l29 211h-12q-167 0 -195 188zM309 736l90 -10q-1 -60 -40.5 -95t-97.5 -35q-57 0 -96 35t-40 95l89 10q3 -25 15.5 -40t31.5 -15q40 0 48 55z" />
    <glyph glyph-name="afii10193" unicode="&#x45f;" horiz-adv-x="558" 
d="M208 523v-405h142v405h143v-523h-154v-93l-120 -17v110h-154v523h143z" />
    <glyph glyph-name="afii10050" unicode="&#x490;" horiz-adv-x="475" 
d="M70 0v676h256v84l134 20v-229h-243v-551h-147z" />
    <glyph glyph-name="afii10098" unicode="&#x491;" horiz-adv-x="390" 
d="M381 405h-179v-405h-142v523h201v79l120 17v-214z" />
    <glyph glyph-name="Wgrave" unicode="&#x1e80;" horiz-adv-x="849" 
d="M517 712l-223 84l38 95l221 -96zM145 0l-110 676h150l42 -343q5 -40 11 -150q19 103 34 149l73 235h157l75 -235q17 -54 34 -146q6 108 11 147l42 343h150l-110 -676h-163l-96 318q-10 35 -21 95q-8 -55 -20 -95l-96 -318h-163z" />
    <glyph glyph-name="wgrave" unicode="&#x1e81;" horiz-adv-x="795" 
d="M491 574l-223 84l38 95l221 -96zM65 180l-25 343h142l24 -333q5 -80 62 -80q28 0 43.5 23t15.5 58v298h139v-298q0 -35 15.5 -58t43.5 -23q56 0 63 80l25 333h142l-27 -343q-7 -91 -61 -142t-140 -51q-88 0 -131 69q-43 -69 -131 -69q-84 0 -138.5 52t-61.5 141z" />
    <glyph glyph-name="Wacute" unicode="&#x1e82;" horiz-adv-x="849" 
d="M553 796l-223 -84l-36 83l221 96zM145 0l-110 676h150l42 -343q5 -40 11 -150q19 103 34 149l73 235h157l75 -235q17 -54 34 -146q6 108 11 147l42 343h150l-110 -676h-163l-96 318q-10 35 -21 95q-8 -55 -20 -95l-96 -318h-163z" />
    <glyph glyph-name="wacute" unicode="&#x1e83;" horiz-adv-x="795" 
d="M527 658l-223 -84l-36 83l221 96zM65 180l-25 343h142l24 -333q5 -80 62 -80q28 0 43.5 23t15.5 58v298h139v-298q0 -35 15.5 -58t43.5 -23q56 0 63 80l25 333h142l-27 -343q-7 -91 -61 -142t-140 -51q-88 0 -131 69q-43 -69 -131 -69q-84 0 -138.5 52t-61.5 141z" />
    <glyph glyph-name="Wdieresis" unicode="&#x1e84;" horiz-adv-x="849" 
d="M584 801q0 -27 -19 -45.5t-46 -18.5q-26 0 -45 18.5t-19 45.5t19 46.5t45 19.5q27 0 46 -19.5t19 -46.5zM394 801q0 -27 -19 -45.5t-46 -18.5q-26 0 -45.5 18.5t-19.5 45.5t19.5 46.5t45.5 19.5q27 0 46 -19.5t19 -46.5zM145 0l-110 676h150l42 -343q5 -40 11 -150
q19 103 34 149l73 235h157l75 -235q17 -54 34 -146q6 108 11 147l42 343h150l-110 -676h-163l-96 318q-10 35 -21 95q-8 -55 -20 -95l-96 -318h-163z" />
    <glyph glyph-name="wdieresis" unicode="&#x1e85;" horiz-adv-x="795" 
d="M557 663q0 -27 -19 -45.5t-46 -18.5q-26 0 -45 18.5t-19 45.5t19 46.5t45 19.5q27 0 46 -19.5t19 -46.5zM367 663q0 -27 -19 -45.5t-46 -18.5q-26 0 -45.5 18.5t-19.5 45.5t19.5 46.5t45.5 19.5q27 0 46 -19.5t19 -46.5zM65 180l-25 343h142l24 -333q5 -80 62 -80
q28 0 43.5 23t15.5 58v298h139v-298q0 -35 15.5 -58t43.5 -23q56 0 63 80l25 333h142l-27 -343q-7 -91 -61 -142t-140 -51q-88 0 -131 69q-43 -69 -131 -69q-84 0 -138.5 52t-61.5 141z" />
    <glyph glyph-name="Ygrave" unicode="&#x1ef2;" horiz-adv-x="579" 
d="M382 712l-223 84l38 95l221 -96zM216 0v257l-201 419h158l116 -268l117 268h158l-201 -419v-257h-147z" />
    <glyph glyph-name="ygrave" unicode="&#x1ef3;" horiz-adv-x="510" 
d="M360 574l-223 84l38 95l221 -96zM68 188l-48 335h142l47 -325q12 -77 59 -77h24l50 402h143l-99 -734h-140l29 211h-12q-167 0 -195 188z" />
    <glyph glyph-name="endash" unicode="&#x2013;" horiz-adv-x="500" 
d="M500 211h-500v118h500v-118z" />
    <glyph glyph-name="emdash" unicode="&#x2014;" horiz-adv-x="1000" 
d="M1000 211h-1000v118h1000v-118z" />
    <glyph glyph-name="quoteleft" unicode="&#x2018;" horiz-adv-x="271" 
d="M191 481h-124l72 252l92 -15z" />
    <glyph glyph-name="quoteright" unicode="&#x2019;" horiz-adv-x="273" 
d="M160 481l-92 15l40 237h124z" />
    <glyph glyph-name="quotesinglbase" unicode="&#x201a;" horiz-adv-x="271" 
d="M148 -101l-92 15l40 237h124z" />
    <glyph glyph-name="quotedblleft" unicode="&#x201c;" horiz-adv-x="459" 
d="M368 481h-124l72 252l92 -15zM183 481h-124l72 252l92 -15z" />
    <glyph glyph-name="quotedblright" unicode="&#x201d;" horiz-adv-x="459" 
d="M338 481l-92 15l40 237h124zM153 481l-92 15l40 237h124z" />
    <glyph glyph-name="quotedblbase" unicode="&#x201e;" horiz-adv-x="447" 
d="M324 -101l-92 15l40 237h124zM148 -101l-92 15l40 237h124z" />
    <glyph glyph-name="dagger" unicode="&#x2020;" horiz-adv-x="434" 
d="M287 0h-136v400h-95v110h95v146h136v-146h95v-110h-95v-400z" />
    <glyph glyph-name="daggerdbl" unicode="&#x2021;" horiz-adv-x="434" 
d="M287 0h-136v158h-95v110h95v120h-95v110h95v158h136v-158h95v-110h-95v-120h95v-110h-95v-158z" />
    <glyph glyph-name="bullet" unicode="&#x2022;" horiz-adv-x="460" 
d="M230 125q-64 0 -110 45.5t-46 110.5t46 110.5t110 45.5t110 -45.5t46 -110.5t-46 -110.5t-110 -45.5z" />
    <glyph glyph-name="ellipsis" unicode="&#x2026;" horiz-adv-x="816" 
d="M679 -11q-34 0 -59 25t-25 60t25 58.5t59 23.5t58.5 -23.5t24.5 -58.5t-24.5 -60t-58.5 -25zM408 -11q-34 0 -58.5 25t-24.5 60t24.5 58.5t58.5 23.5t58.5 -23.5t24.5 -58.5t-24.5 -60t-58.5 -25zM138 -11q-34 0 -59 25t-25 60t25 58.5t59 23.5t58.5 -23.5t24.5 -58.5
t-24.5 -60t-58.5 -25z" />
    <glyph glyph-name="perthousand" unicode="&#x2030;" horiz-adv-x="1283" 
d="M372 524v-67q0 -74 -45 -118.5t-116 -44.5q-70 0 -115.5 44.5t-45.5 118.5v67q0 74 45.5 119.5t115.5 45.5q71 0 116 -45.5t45 -119.5zM344 0h-106l317 676h104zM271 459v63q0 73 -60 73q-57 0 -57 -73v-63q0 -74 57 -74q60 0 60 74zM1233 218v-66q0 -74 -45.5 -119.5
t-116.5 -45.5t-116 45.5t-45 119.5v66q0 75 45 120t116 45t116.5 -45t45.5 -120zM850 218v-66q0 -74 -45.5 -119.5t-116.5 -45.5t-116 45.5t-45 119.5v66q0 75 45 120t116 45t116.5 -45t45.5 -120zM1130 154v62q0 37 -16 56t-43 19q-26 0 -42 -19t-16 -56v-62q0 -73 58 -73
q27 0 43 18t16 55zM747 154v62q0 37 -16 56t-43 19q-26 0 -42 -19t-16 -56v-62q0 -73 58 -73q27 0 43 18t16 55z" />
    <glyph glyph-name="guilsinglleft" unicode="&#x2039;" horiz-adv-x="343" 
d="M294 149l-95 -70l-150 202l150 202l95 -70l-96 -131z" />
    <glyph glyph-name="guilsinglright" unicode="&#x203a;" horiz-adv-x="343" 
d="M144 79l-95 70l96 131l-96 133l95 70l150 -202z" />
    <glyph glyph-name="Euro" unicode="&#x20ac;" horiz-adv-x="544" 
d="M497 130l26 -121q-84 -22 -162 -22q-108 0 -181.5 65t-76.5 176h-66v72h66v76h-66v72h66q3 110 76.5 175.5t181.5 65.5q78 0 162 -22l-26 -121q-79 19 -135 19q-49 0 -79.5 -31.5t-33.5 -85.5h183l-14 -72h-169v-76h153l-14 -72h-139q3 -55 33 -86t80 -31q56 0 135 19z
" />
    <glyph glyph-name="afii61352" unicode="&#x2116;" horiz-adv-x="979" 
d="M70 0v676h119l232 -386q-3 57 -3 103v283h147v-676h-120l-232 384q4 -52 4 -106v-278h-147zM929 428v-59q0 -65 -39.5 -104t-101.5 -39t-101.5 39t-39.5 104v59q0 65 39.5 105t101.5 40t101.5 -40t39.5 -105zM841 371v55q0 64 -53 64q-50 0 -50 -64v-55q0 -65 50 -65
q53 0 53 65zM909 107h-241v87h241v-87z" />
    <glyph glyph-name="trademark" unicode="&#x2122;" horiz-adv-x="776" 
d="M706 371h-95l-13 127l-33 -89h-82l-33 89l-13 -127h-95l41 305h91l50 -149l50 149h91zM246 371h-94v223h-82v82h259l-7 -82h-76v-223z" />
    <glyph glyph-name="Delta" unicode="&#x2206;" horiz-adv-x="777" 
d="M753 0h-729l293 702h144zM561 118l-172 417l-173 -417h345z" />
    <glyph glyph-name="product" unicode="&#x220f;" horiz-adv-x="790" 
d="M657 -131h-136v689h-250v-689h-137v689h-80v118h685v-118h-82v-689z" />
    <glyph glyph-name="summation" unicode="&#x2211;" horiz-adv-x="688" 
d="M621 -126h-536v109l263 292l-263 291v110h536v-118h-350l256 -283l-255 -283h349v-118z" />
    <glyph glyph-name="radical" unicode="&#x221a;" horiz-adv-x="640" 
d="M406 0h-158l-132 428h-90l-21 95h232l51 -198q30 -121 39 -163q36 149 40 163l119 407h149z" />
    <glyph glyph-name="integral" unicode="&#x222b;" horiz-adv-x="413" 
d="M139 -40v613q0 79 51.5 123t122.5 44q44 0 106 -20l-26 -118q-47 15 -72 15q-47 0 -47 -56v-613q0 -79 -51 -123t-122 -44q-44 0 -107 20l27 118q42 -15 71 -15q47 0 47 56z" />
    <glyph glyph-name="approxequal" unicode="&#x2248;" horiz-adv-x="610" 
d="M454 485l85 -77q-34 -51 -70 -81t-83 -30q-35 0 -66 19.5t-55 39t-41 19.5q-36 0 -68 -53l-85 77q34 51 70 81t85 30q33 0 63.5 -19.5t55 -39t41.5 -19.5q34 0 68 53zM454 245l85 -77q-34 -51 -70 -81t-83 -30q-35 0 -66 19.5t-55 39t-41 19.5q-36 0 -68 -53l-85 77
q34 51 70 81t85 30q33 0 63.5 -19.5t55 -39t41.5 -19.5q34 0 68 53z" />
    <glyph glyph-name="notequal" unicode="&#x2260;" horiz-adv-x="571" 
d="M517 119h-228l-52 -143l-109 39l38 104h-112v118h155l30 84h-185v119h229l51 141l109 -38l-38 -103h112v-119h-155l-30 -84h185v-118z" />
    <glyph glyph-name="lessequal" unicode="&#x2264;" horiz-adv-x="533" 
d="M419 16l-365 208v93l365 209l60 -118l-256 -137l256 -137zM464 -122h-410v117h410v-117z" />
    <glyph glyph-name="greaterequal" unicode="&#x2265;" horiz-adv-x="533" 
d="M479 224l-365 -208l-60 118l256 137l-256 137l60 118l365 -209v-93zM479 -122h-410v117h410v-117z" />
    <glyph glyph-name="lozenge" unicode="&#x25ca;" horiz-adv-x="679" 
d="M336 -7l-312 341l312 340l311 -341zM214 335l122 -135l122 133l-122 134z" />
    <glyph glyph-name="afii10068.002" unicode="&#xe001;" horiz-adv-x="390" 
d="M60 0v324q0 92 56 145.5t141 53.5h124v-118h-107q-36 0 -54 -21.5t-18 -52.5v-331h-142z" />
    <glyph glyph-name="afii10069.001" unicode="&#xe002;" horiz-adv-x="554" 
d="M271 -13q-93 0 -158 59.5t-65 159.5v93q0 105 62.5 162.5t148.5 57.5q61 0 100 -22v16q0 64 -26.5 88t-81.5 24q-54 0 -127 -22l-26 106q105 31 163 31q106 0 169.5 -56.5t63.5 -172.5v-305q0 -100 -65 -159.5t-158 -59.5zM271 108q35 0 58 26.5t23 76.5v171
q-38 16 -80 16q-36 0 -59 -25t-23 -79v-83q0 -50 23 -76.5t58 -26.5z" />
    <glyph glyph-name="afii10024.001" unicode="&#xe003;" horiz-adv-x="875" 
d="M511 0h-147v295l-176 -295h-173l217 359l-204 317h171l165 -275v275h147v-275l165 275h171l-204 -317l217 -359h-173l-176 295v-295z" />
    <glyph glyph-name="afii10028.001" unicode="&#xe004;" horiz-adv-x="611" 
d="M70 0v676h147v-275l195 275h171l-234 -317l247 -359h-173l-206 295v-295h-147z" />
    <glyph glyph-name="apple" unicode="&#xf8ff;" horiz-adv-x="0" 
 />
    <glyph glyph-name="cyrbreve" horiz-adv-x="419" 
d="M257 736l90 -10q-1 -60 -40.5 -95t-97.5 -35q-57 0 -96 35t-40 95l89 10q3 -25 15.5 -40t31.5 -15q40 0 48 55z" />
    <glyph glyph-name="five.onum" horiz-adv-x="525" 
d="M26 -82l28 118q104 -31 170 -31q48 0 81.5 30t33.5 85q0 97 -128 97h-146l12 356h387l-21 -117h-240l-6 -124h27q119 0 189.5 -53.5t70.5 -157.5q0 -76 -39.5 -132t-96 -80.5t-119.5 -24.5q-93 0 -203 34z" />
    <glyph glyph-name="five.smcp" horiz-adv-x="477" 
d="M28 17l28 117q96 -27 150 -27q37 0 62 22.5t25 61.5q0 70 -101 70h-130l11 313h348l-18 -115h-206l-5 -85h12q106 0 170 -45.5t64 -136.5q0 -98 -68.5 -151.5t-157.5 -53.5q-82 0 -184 30z" />
    <glyph glyph-name="fiveonum.tnum" 
d="M63 -82l28 118q104 -31 170 -31q48 0 81.5 30t33.5 85q0 97 -128 97h-146l12 356h387l-21 -117h-240l-6 -124h27q119 0 189.5 -53.5t70.5 -157.5q0 -76 -39.5 -132t-96 -80.5t-119.5 -24.5q-93 0 -203 34z" />
    <glyph glyph-name="fivesmcp.tnum" horiz-adv-x="511" 
d="M45 17l28 117q96 -27 150 -27q37 0 62 22.5t25 61.5q0 70 -101 70h-130l11 313h348l-18 -115h-206l-5 -85h12q106 0 170 -45.5t64 -136.5q0 -98 -68.5 -151.5t-157.5 -53.5q-82 0 -184 30z" />
    <glyph glyph-name="four.onum" horiz-adv-x="566" 
d="M443 -102l-136 -10v142h-248l-17 110l131 433h132l-125 -426h127v207l136 23v-230h93v-117h-93v-132z" />
    <glyph glyph-name="four.tnum" 
d="M446 1l-136 -10v142h-248l-17 110l131 433h132l-125 -426h127v207l136 23v-230h93v-117h-93v-132z" />
    <glyph glyph-name="fouronum.tnum" 
d="M446 -102l-136 -10v142h-248l-17 110l131 433h132l-125 -426h127v207l136 23v-230h93v-117h-93v-132z" />
    <glyph glyph-name="foursmcp.tnum" horiz-adv-x="511" 
d="M397 1l-135 -9v113h-211l-17 108l112 361h131l-106 -354h91v171l135 23v-194h79v-115h-79v-104z" />
    <glyph glyph-name="ycircumflex.smcp" horiz-adv-x="524" 
d="M360 630l-97 61l-98 -61l-53 81l150 85l151 -85zM191 0v218l-173 356h156l88 -212l88 212h156l-172 -356v-218h-143z" />
    <glyph glyph-name="two.onum" horiz-adv-x="493" 
d="M437 0h-401v62q0 54 19 98.5t48 71.5t62.5 52t62.5 41.5t48 38t19 43.5q0 26 -17.5 42t-51.5 16q-66 0 -138 -40l-49 105q92 56 191 56q90 0 150 -49.5t60 -129.5q0 -44 -25 -83.5t-61 -67.5t-71.5 -51.5t-60.5 -46t-25 -41.5h250z" />
    <glyph glyph-name="dcaron.smcp" horiz-adv-x="571" 
d="M421 714l-150 -85l-151 85l53 81l97 -61l98 61zM292 0h-227v535q138 52 227 52q97 0 162.5 -59.5t65.5 -162.5v-149q0 -105 -60.5 -160.5t-167.5 -55.5zM377 227v126q0 113 -85 113q-45 0 -84 -13v-332h84q47 0 66 23t19 83z" />
    <glyph glyph-name="dcroat.smcp" horiz-adv-x="571" 
d="M292 0h-227v238h-55v90h55v207q138 52 227 52q97 0 162.5 -59.5t65.5 -162.5v-149q0 -105 -60.5 -160.5t-167.5 -55.5zM377 227v126q0 113 -85 113q-45 0 -84 -13v-125h87v-90h-87v-117h84q47 0 66 23t19 83z" />
    <glyph glyph-name="gbreve.smcp" horiz-adv-x="554" 
d="M331 786h90q-1 -61 -41.5 -103t-96.5 -42t-95.5 42t-40.5 103h89q1 -25 14.5 -42.5t32.5 -17.5q21 0 34.5 17t13.5 43zM369 114v110h-58v98h191v-298q-111 -37 -207 -37q-109 0 -176.5 61.5t-67.5 178.5v120q0 117 67.5 178.5t176.5 61.5q75 0 192 -36l-31 -114
q-96 29 -160 29q-51 0 -76.5 -29.5t-25.5 -100.5v-94q0 -73 25.5 -103.5t76.5 -30.5q42 0 73 6z" />
    <glyph glyph-name="gcircumflex.smcp" horiz-adv-x="554" 
d="M379 630l-97 61l-98 -61l-53 81l150 85l151 -85zM369 114v110h-58v98h191v-298q-111 -37 -207 -37q-109 0 -176.5 61.5t-67.5 178.5v120q0 117 67.5 178.5t176.5 61.5q75 0 192 -36l-31 -114q-96 29 -160 29q-51 0 -76.5 -29.5t-25.5 -100.5v-94q0 -73 25.5 -103.5
t76.5 -30.5q42 0 73 6z" />
    <glyph glyph-name="gcommaaccent.smcp" horiz-adv-x="554" 
d="M369 114v110h-58v98h191v-298q-111 -37 -207 -37q-109 0 -176.5 61.5t-67.5 178.5v120q0 117 67.5 178.5t176.5 61.5q75 0 192 -36l-31 -114q-96 29 -160 29q-51 0 -76.5 -29.5t-25.5 -100.5v-94q0 -73 25.5 -103.5t76.5 -30.5q42 0 73 6zM305 -224h-93l26 162h123z" />
    <glyph glyph-name="grave.smcp" horiz-adv-x="407" 
d="M298 624l-223 84l38 95l221 -96z" />
    <glyph glyph-name="h.smcp" horiz-adv-x="576" 
d="M511 0h-143v234h-160v-234h-143v574h143v-224h160v224h143v-574z" />
    <glyph glyph-name="hbar.smcp" horiz-adv-x="576" 
d="M511 0h-143v234h-160v-234h-143v398h-35v90h35v86h143v-86h160v86h143v-86h33v-90h-33v-398zM368 350v48h-160v-48h160z" />
    <glyph glyph-name="hungarumlaut.smcp" horiz-adv-x="617" 
d="M539 721l-174 -102l-49 81l168 110zM301 721l-173 -102l-50 81l168 110z" />
    <glyph glyph-name="i.smcp" horiz-adv-x="273" 
d="M208 0h-143v574h143v-574z" />
    <glyph glyph-name="iacute.smcp" horiz-adv-x="273" 
d="M266 708l-223 -84l-36 83l221 96zM208 0h-143v574h143v-574z" />
    <glyph glyph-name="six.onum" horiz-adv-x="571" 
d="M50 218v216q0 109 66 182t184 73q75 0 169 -30l-31 -117q-75 26 -138 26q-46 0 -76.5 -32.5t-30.5 -84.5v-23q51 40 116 40q99 0 159.5 -64.5t60.5 -177.5q0 -111 -69.5 -175t-170.5 -64q-100 0 -169.5 62.5t-69.5 168.5zM192 320v-103q0 -46 25.5 -77.5t70.5 -31.5
q46 0 71 33.5t25 84.5q0 134 -96 134q-55 0 -96 -40z" />
    <glyph glyph-name="dollar.smcp" horiz-adv-x="470" 
d="M281 -105h-95v94q-75 5 -161 37l27 117q93 -34 171 -34q30 0 46 15t16 39t-25 40.5t-60.5 29t-71.5 30t-61 52.5t-25 87q0 57 37.5 101t109.5 58v101h95v-97q50 -6 133 -35l-37 -112q-76 30 -128 30q-39 0 -53 -11t-14 -33t25 -37t60.5 -27t71.5 -29t61 -54.5t25 -92.5
q0 -61 -37 -106.5t-110 -61.5v-101z" />
    <glyph glyph-name="icircumflex.smcp" horiz-adv-x="273" 
d="M234 630l-97 61l-98 -61l-53 81l150 85l151 -85zM208 0h-143v574h143v-574z" />
    <glyph glyph-name="idieresis.smcp" horiz-adv-x="273" 
d="M296 713q0 -27 -19 -45.5t-46 -18.5q-26 0 -45 18.5t-19 45.5t19 46.5t45 19.5q27 0 46 -19.5t19 -46.5zM106 713q0 -27 -19 -45.5t-46 -18.5q-26 0 -45.5 18.5t-19.5 45.5t19.5 46.5t45.5 19.5q27 0 46 -19.5t19 -46.5zM208 0h-143v574h143v-574z" />
    <glyph glyph-name="igrave.smcp" horiz-adv-x="273" 
d="M230 624l-223 84l38 95l221 -96zM208 0h-143v574h143v-574z" />
    <glyph glyph-name="ij.smcp" horiz-adv-x="696" 
d="M497 202v372l143 -6v-369q0 -97 -52.5 -153.5t-151.5 -56.5q-68 0 -162 32l34 112q73 -24 124 -24q65 0 65 93zM208 0h-143v574h143v-574z" />
    <glyph glyph-name="imacron.smcp" horiz-adv-x="273" 
d="M263 668h-254v90h254v-90zM208 0h-143v574h143v-574z" />
    <glyph glyph-name="j.smcp" horiz-adv-x="439" 
d="M240 201v373l143 -6v-370q0 -98 -52.5 -154.5t-151.5 -56.5q-66 0 -162 32l34 113q73 -24 124 -24q65 0 65 93z" />
    <glyph glyph-name="jcircumflex.smcp" horiz-adv-x="439" 
d="M406 630l-97 61l-98 -61l-53 81l150 85l151 -85zM240 201v373l143 -6v-370q0 -98 -52.5 -154.5t-151.5 -56.5q-66 0 -162 32l34 113q73 -24 124 -24q65 0 65 93z" />
    <glyph glyph-name="k.smcp" horiz-adv-x="552" 
d="M535 0h-170l-131 209l-26 -31v-178h-143v574h143v-184l133 184h168l-189 -248z" />
    <glyph glyph-name="l.smcp" horiz-adv-x="463" 
d="M432 0h-367v574h143v-453h229z" />
    <glyph glyph-name="lacute.smcp" horiz-adv-x="463" 
d="M268 708l-223 -84l-36 83l221 96zM432 0h-367v574h143v-453h229z" />
    <glyph glyph-name="lcaron.smcp" horiz-adv-x="463" 
d="M384 393h-89v181l118 13zM432 0h-367v574h143v-453h229z" />
    <glyph glyph-name="eogonek.smcp" horiz-adv-x="482" 
d="M420 -128l14 -85q-26 -11 -64 -11q-59 0 -88.5 27.5t-29.5 74.5q0 70 70 122h-257v574h361v-121h-218v-106h182l-5 -115h-177v-111h226v-121q-33 -23 -54.5 -52.5t-21.5 -54.5q0 -27 29 -27q18 0 33 6z" />
    <glyph glyph-name="ldot.smcp" horiz-adv-x="463" 
d="M432 0h-367v574h143v-453h229zM426 281q0 -30 -21 -50t-51 -20q-29 0 -50 20t-21 50t21 51t50 21q30 0 51 -21t21 -51z" />
    <glyph glyph-name="lslash.smcp" horiz-adv-x="463" 
d="M432 0h-367v217l-29 -10l-26 70l55 19v278h143v-227l55 20l27 -70l-82 -29v-147h229z" />
    <glyph glyph-name="m.smcp" horiz-adv-x="740" 
d="M35 0l60 574h161l93 -263q7 -20 21 -74q7 36 20 74l93 263h161l61 -574h-141l-20 259q-1 18 -2.5 61t-2.5 58q-14 -62 -34 -118l-61 -168h-149l-61 168q-19 55 -34 119q-1 -63 -5 -120l-19 -259h-141z" />
    <glyph glyph-name="macron.smcp" horiz-adv-x="409" 
d="M332 668h-254v90h254v-90z" />
    <glyph glyph-name="n.smcp" horiz-adv-x="570" 
d="M505 0h-116l-185 292q4 -45 4 -92v-200h-143v574h116l184 -292q-3 50 -3 89v203h143v-574z" />
    <glyph glyph-name="eacute.smcp" horiz-adv-x="482" 
d="M374 708l-223 -84l-36 83l221 96zM434 0h-369v574h361v-121h-218v-106h182l-5 -115h-177v-111h226v-121z" />
    <glyph glyph-name="w.smcp" horiz-adv-x="760" 
d="M129 0l-93 574h145l28 -256q6 -53 9 -139q15 81 33 138l52 163h150l54 -163q21 -63 34 -135q7 122 9 136l28 256h146l-94 -574h-157l-75 248q-12 39 -19 82q-6 -47 -17 -82l-77 -248h-156z" />
    <glyph glyph-name="ncommaaccent.smcp" horiz-adv-x="570" 
d="M505 0h-116l-185 292q4 -45 4 -92v-200h-143v574h116l184 -292q-3 50 -3 89v203h143v-574zM301 -224h-93l26 162h123z" />
    <glyph glyph-name="nine.onum" horiz-adv-x="574" 
d="M381 122v23q-51 -40 -116 -40q-98 0 -159 64.5t-61 177.5q0 111 69.5 175t171.5 64q100 0 169 -62.5t69 -168.5v-216q0 -109 -66 -182t-183 -73q-75 0 -170 30l32 117q75 -26 138 -26q46 0 76 32.5t30 84.5zM382 253v103q0 46 -25 77.5t-70 31.5q-46 0 -71.5 -33.5
t-25.5 -84.5q0 -134 97 -134q52 0 95 40z" />
    <glyph glyph-name="nine.smcp" horiz-adv-x="516" 
d="M325 188v19q-39 -34 -93 -34q-87 0 -140 55.5t-53 151.5t62.5 151.5t153.5 55.5q89 0 151 -54.5t62 -146.5v-179q0 -93 -59 -156.5t-163 -63.5q-66 0 -155 27l33 116q64 -23 122 -23q32 0 55.5 22t23.5 59zM326 312v75q0 35 -18.5 58t-51.5 23q-35 0 -54 -25t-19 -63
q0 -102 73 -102q40 0 70 34z" />
    <glyph glyph-name="y.smcp" horiz-adv-x="524" 
d="M191 0v218l-173 356h156l88 -212l88 212h156l-172 -356v-218h-143z" />
    <glyph glyph-name="nine.tnum" 
d="M388 225v23q-51 -40 -116 -40q-98 0 -159 64.5t-61 177.5q0 111 69.5 175t171.5 64q100 0 169 -62.5t69 -168.5v-216q0 -109 -66 -182t-183 -73q-76 0 -170 30l32 117q75 -26 138 -26q46 0 76 32.5t30 84.5zM389 356v103q0 46 -25 77.5t-70 31.5q-46 0 -71.5 -33.5
t-25.5 -84.5q0 -134 97 -134q52 0 95 40z" />
    <glyph glyph-name="nineonum.tnum" 
d="M388 122v23q-51 -40 -116 -40q-98 0 -159 64.5t-61 177.5q0 111 69.5 175t171.5 64q100 0 169 -62.5t69 -168.5v-216q0 -109 -66 -182t-183 -73q-76 0 -170 30l32 117q75 -26 138 -26q46 0 76 32.5t30 84.5zM389 253v103q0 46 -25 77.5t-70 31.5q-46 0 -71.5 -33.5
t-25.5 -84.5q0 -134 97 -134q52 0 95 40z" />
    <glyph glyph-name="ninesmcp.tnum" horiz-adv-x="511" 
d="M326 188v19q-39 -34 -93 -34q-87 0 -140 55.5t-53 151.5t62.5 151.5t153.5 55.5q89 0 151 -54.5t62 -146.5v-179q0 -93 -59 -156.5t-163 -63.5q-67 0 -155 27l33 116q64 -23 122 -23q32 0 55.5 22t23.5 59zM327 312v75q0 35 -18.5 58t-51.5 23q-35 0 -54 -25t-19 -63
q0 -102 73 -102q40 0 70 34z" />
    <glyph glyph-name="four.smcp" horiz-adv-x="513" 
d="M405 1l-135 -9v113h-211l-17 108l112 361h131l-106 -354h91v171l135 23v-194h79v-115h-79v-104z" />
    <glyph glyph-name="agrave.smcp" horiz-adv-x="556" 
d="M372 624l-223 84l38 95l221 -96zM22 0l173 574h166l173 -574h-146l-36 132h-149l-35 -132h-146zM234 246h88l-22 82q-12 45 -22 109q-14 -80 -22 -109z" />
    <glyph glyph-name="numbersign.onum" horiz-adv-x="589" 
d="M429 0h-124l18 181h-94l-18 -181h-124l18 181h-70v123h83l10 102h-70v123h83l18 180h124l-18 -180h94l18 180h124l-18 -180h70v-123h-83l-10 -102h69v-123h-82zM336 304l10 102h-94l-10 -102h94z" />
    <glyph glyph-name="edieresis.smcp" horiz-adv-x="482" 
d="M404 713q0 -27 -19 -45.5t-46 -18.5q-26 0 -45 18.5t-19 45.5t19 46.5t45 19.5q27 0 46 -19.5t19 -46.5zM214 713q0 -27 -19 -45.5t-46 -18.5q-26 0 -45.5 18.5t-19.5 45.5t19.5 46.5t45.5 19.5q27 0 46 -19.5t19 -46.5zM434 0h-369v574h361v-121h-218v-106h182l-5 -115
h-177v-111h226v-121z" />
    <glyph glyph-name="yen.tnum" 
d="M484 92h-119v-92h-145v92h-119v80h119v69h-119v81h86l-167 354h147l125 -291l125 291h147l-166 -354h86v-81h-119v-69h119v-80z" />
    <glyph glyph-name="numbersign.tnum" 
d="M427 0h-124l18 181h-94l-18 -181h-124l18 181h-70v123h83l10 102h-70v123h83l18 180h124l-18 -180h94l18 180h124l-18 -180h70v-123h-83l-10 -102h69v-123h-82zM334 304l10 102h-94l-10 -102h94z" />
    <glyph glyph-name="numbersignonum.tnum" 
d="M427 0h-124l18 181h-94l-18 -181h-124l18 181h-70v123h83l10 102h-70v123h83l18 180h124l-18 -180h94l18 180h124l-18 -180h70v-123h-83l-10 -102h69v-123h-82zM334 304l10 102h-94l-10 -102h94z" />
    <glyph glyph-name="amacron.smcp" horiz-adv-x="556" 
d="M405 668h-254v90h254v-90zM22 0l173 574h166l173 -574h-146l-36 132h-149l-35 -132h-146zM234 246h88l-22 82q-12 45 -22 109q-14 -80 -22 -109z" />
    <glyph glyph-name="gdotaccent.smcp" horiz-adv-x="554" 
d="M343 713q0 -27 -19 -45.5t-46 -18.5q-26 0 -45 18.5t-19 45.5t19 46.5t45 19.5q27 0 46 -19.5t19 -46.5zM369 114v110h-58v98h191v-298q-111 -37 -207 -37q-109 0 -176.5 61.5t-67.5 178.5v120q0 117 67.5 178.5t176.5 61.5q75 0 192 -36l-31 -114q-96 29 -160 29
q-51 0 -76.5 -29.5t-25.5 -100.5v-94q0 -73 25.5 -103.5t76.5 -30.5q42 0 73 6z" />
    <glyph glyph-name="o.smcp" horiz-adv-x="576" 
d="M525 346v-118q0 -116 -67 -178.5t-171 -62.5q-103 0 -169.5 62.5t-66.5 178.5v118q0 115 67 178t169 63q104 0 171 -63t67 -178zM382 239v97q0 130 -95 130q-93 0 -93 -130v-97q0 -73 23.5 -102t69.5 -29q45 0 70 29.5t25 101.5z" />
    <glyph glyph-name="ampersand.smcp" horiz-adv-x="505" 
d="M485 245h-38v-77q0 -78 -54 -129.5t-144 -51.5q-92 0 -149.5 52t-57.5 129q0 81 64 126q-55 42 -55 119t56.5 125.5t146.5 48.5q60 0 141 -33l-41 -108q-56 23 -97 23q-35 0 -50.5 -16t-15.5 -40q0 -25 14 -45t44 -20h38v-103h-41q-31 0 -47.5 -21.5t-16.5 -55.5
q0 -27 18 -45t49 -18q73 0 73 63v180h163v-103z" />
    <glyph glyph-name="oacute.smcp" horiz-adv-x="576" 
d="M398 708l-223 -84l-36 83l221 96zM525 346v-118q0 -116 -67 -178.5t-171 -62.5q-103 0 -169.5 62.5t-66.5 178.5v118q0 115 67 178t169 63q104 0 171 -63t67 -178zM382 239v97q0 130 -95 130q-93 0 -93 -130v-97q0 -73 23.5 -102t69.5 -29q45 0 70 29.5t25 101.5z" />
    <glyph glyph-name="zacute.smcp" horiz-adv-x="511" 
d="M382 708l-223 -84l-36 83l221 96zM457 0h-416v91l229 369h-224v114h403v-92l-230 -366h251z" />
    <glyph glyph-name="obreve.smcp" horiz-adv-x="576" 
d="M335 786h90q-1 -61 -41.5 -103t-96.5 -42t-95.5 42t-40.5 103h89q1 -25 14.5 -42.5t32.5 -17.5q21 0 34.5 17t13.5 43zM525 346v-118q0 -116 -67 -178.5t-171 -62.5q-103 0 -169.5 62.5t-66.5 178.5v118q0 115 67 178t169 63q104 0 171 -63t67 -178zM382 239v97
q0 130 -95 130q-93 0 -93 -130v-97q0 -73 23.5 -102t69.5 -29q45 0 70 29.5t25 101.5z" />
    <glyph glyph-name="aogonek.smcp" horiz-adv-x="556" 
d="M22 0l173 574h166l173 -574q-33 -23 -54.5 -52.5t-21.5 -54.5q0 -27 29 -27q18 0 33 6l14 -85q-26 -11 -64 -11q-59 0 -88.5 27.5t-29.5 74.5q0 70 70 122h-34l-36 132h-149l-35 -132h-146zM234 246h88l-22 82q-12 45 -22 109q-14 -80 -22 -109z" />
    <glyph glyph-name="ocircumflex.smcp" horiz-adv-x="576" 
d="M386 630l-97 61l-98 -61l-53 81l150 85l151 -85zM525 346v-118q0 -116 -67 -178.5t-171 -62.5q-103 0 -169.5 62.5t-66.5 178.5v118q0 115 67 178t169 63q104 0 171 -63t67 -178zM382 239v97q0 130 -95 130q-93 0 -93 -130v-97q0 -73 23.5 -102t69.5 -29q45 0 70 29.5
t25 101.5z" />
    <glyph glyph-name="hcircumflex.smcp" horiz-adv-x="576" 
d="M386 630l-97 61l-98 -61l-53 81l150 85l151 -85zM511 0h-143v234h-160v-234h-143v574h143v-224h160v224h143v-574z" />
    <glyph glyph-name="oe.smcp" horiz-adv-x="802" 
d="M754 0h-382q-42 -13 -85 -13q-103 0 -169.5 62.5t-66.5 178.5v118q0 115 67 178t169 63q42 0 86 -13h373v-121h-238q17 -42 17 -89v-17h185l-5 -115h-180v-14q0 -51 -18 -97h247v-121zM382 239v97q0 130 -95 130q-93 0 -93 -130v-97q0 -73 23.5 -102t69.5 -29
q45 0 70 29.5t25 101.5z" />
    <glyph glyph-name="eight.onum" horiz-adv-x="581" 
d="M424 360q111 -66 111 -177q0 -89 -77.5 -142.5t-167.5 -53.5q-94 0 -169 53t-75 144q0 100 108 161q-88 60 -88 156q0 77 61.5 132.5t162.5 55.5q88 0 157 -52.5t69 -135.5t-92 -141zM303 417q68 37 68 86q0 30 -23 47.5t-58 17.5t-57 -17.5t-22 -47.5q0 -27 23 -46.5
t69 -39.5zM274 285q-83 -45 -83 -101q0 -32 29 -54t70 -22t70.5 22.5t29.5 53.5q0 33 -28.5 54.5t-87.5 46.5z" />
    <glyph glyph-name="ogonek.smcp" horiz-adv-x="316" 
d="M234 -128l14 -85q-26 -11 -64 -11q-59 0 -88.5 27.5t-29.5 74.5q0 70 70 122h112q-33 -23 -54.5 -52.5t-21.5 -54.5q0 -27 29 -27q18 0 33 6z" />
    <glyph glyph-name="zero.onum" 
d="M534 328v-83q0 -121 -68.5 -189.5t-173.5 -68.5q-104 0 -173 68.5t-69 189.5v83q0 121 68.5 189.5t173.5 68.5q104 0 173 -69t69 -189zM389 245v83q0 68 -25.5 102.5t-71.5 34.5q-97 0 -97 -137v-83q0 -137 97 -137q46 0 71.5 34.5t25.5 102.5z" />
    <glyph glyph-name="eight.tnum" 
d="M424 360q111 -66 111 -177q0 -89 -77.5 -142.5t-167.5 -53.5q-94 0 -169 53t-75 144q0 100 108 161q-88 60 -88 156q0 77 61.5 132.5t162.5 55.5q88 0 157 -52.5t69 -135.5t-92 -141zM303 417q68 37 68 86q0 30 -23 47.5t-58 17.5t-57 -17.5t-22 -47.5q0 -27 23 -46.5
t69 -39.5zM274 285q-83 -45 -83 -101q0 -32 29 -54t70 -22t70.5 22.5t29.5 53.5q0 33 -28.5 54.5t-87.5 46.5z" />
    <glyph glyph-name="zero.smcp" horiz-adv-x="541" 
d="M493 349v-123q0 -117 -63 -178t-160 -61t-159.5 61t-62.5 178v123q0 116 62 177t160 61t160.5 -61t62.5 -177zM351 226v123q0 118 -81 118q-80 0 -80 -118v-123q0 -119 80 -119q81 0 81 119z" />
    <glyph glyph-name="aring.smcp" horiz-adv-x="556" 
d="M279 624q-43 0 -73 30.5t-30 72.5q0 41 30 71t73 30q41 0 71 -30t30 -71q0 -42 -30 -72.5t-71 -30.5zM279 696q13 0 21.5 9t8.5 22t-8.5 21.5t-21.5 8.5t-22 -8.5t-9 -21.5t9 -22t22 -9zM22 0l173 574h166l173 -574h-146l-36 132h-149l-35 -132h-146zM234 246h88l-22 82
q-12 45 -22 109q-14 -80 -22 -109z" />
    <glyph glyph-name="iogonek.smcp" horiz-adv-x="273" 
d="M194 -128l14 -85q-26 -11 -64 -11q-59 0 -88.5 27.5t-29.5 74.5q0 70 70 122h-31v574h143v-574q-33 -23 -54.5 -52.5t-21.5 -54.5q0 -27 29 -27q18 0 33 6z" />
    <glyph glyph-name="omacron.smcp" horiz-adv-x="576" 
d="M415 668h-254v90h254v-90zM525 346v-118q0 -116 -67 -178.5t-171 -62.5q-103 0 -169.5 62.5t-66.5 178.5v118q0 115 67 178t169 63q104 0 171 -63t67 -178zM382 239v97q0 130 -95 130q-93 0 -93 -130v-97q0 -73 23.5 -102t69.5 -29q45 0 70 29.5t25 101.5z" />
    <glyph glyph-name="one.onum" horiz-adv-x="403" 
d="M330 0h-142v445l-145 -19v118l287 42v-586z" />
    <glyph glyph-name="one.smcp" horiz-adv-x="375" 
d="M309 0h-142v447l-127 -19v122l269 36v-586z" />
    <glyph glyph-name="eightsmcp.tnum" horiz-adv-x="511" 
d="M379 304q95 -57 95 -145q0 -80 -68 -126t-151 -46q-88 0 -153 45.5t-65 127.5q0 80 87 131q-70 53 -70 130q0 67 55.5 116.5t145.5 49.5q77 0 139.5 -46t62.5 -120q0 -69 -78 -117zM263 358q50 28 50 65q0 20 -16.5 32t-41.5 12t-41 -12.5t-16 -31.5q0 -34 65 -65z
M238 233q-57 -32 -57 -73q0 -24 21 -38.5t53 -14.5t53.5 14.5t21.5 38.5q0 22 -23 38t-69 35z" />
    <glyph glyph-name="one.tnum" 
d="M438 0h-142v548l-150 -23v122l292 42v-689z" />
    <glyph glyph-name="CR" horiz-adv-x="219" 
 />
    <glyph glyph-name="oneonum.tnum" 
d="M435 0h-142v445l-145 -23v122l287 42v-586z" />
    <glyph glyph-name="at.smcp" horiz-adv-x="791" 
d="M578 3l39 -81q-108 -75 -245 -75q-146 0 -234.5 91.5t-88.5 225.5q0 105 45 193.5t134 144.5t206 56q136 0 218.5 -87t82.5 -230q0 -34 -2 -60h-178l-5 -44q-7 -60 -57 -98.5t-118 -38.5q-64 0 -103.5 33.5t-39.5 89.5q0 65 48 98.5t125 33.5h44l2 12q6 41 -39 41
q-53 0 -114 -21l-15 92q79 27 140 27q66 0 109 -35.5t35 -96.5l-2 -19h72q0 99 -60.5 155t-159.5 56q-118 0 -194.5 -81.5t-76.5 -210.5q0 -109 63 -172t170 -63q93 0 199 64zM435 141l4 40h-45q-46 0 -46 -46q0 -36 39 -36q43 0 48 42z" />
    <glyph glyph-name="onesmcp.tnum" horiz-adv-x="511" 
d="M390 0h-142v447l-127 -19v122l269 36v-586z" />
    <glyph glyph-name="lcommaaccent.smcp" horiz-adv-x="463" 
d="M432 0h-367v574h143v-453h229zM257 -224h-93l26 162h123z" />
    <glyph glyph-name="oslash.smcp" horiz-adv-x="576" 
d="M163 -59l-76 37l34 68q-70 65 -70 182v118q0 115 67 178t169 63q49 0 93 -15l30 61l77 -37l-34 -68q72 -65 72 -182v-118q0 -116 -67 -178.5t-171 -62.5q-51 0 -94 15zM196 199l128 260q-15 7 -37 7q-93 0 -93 -130v-97q0 -28 2 -40zM382 239v97q0 22 -3 42l-131 -264
q14 -6 39 -6q45 0 70 29.5t25 101.5z" />
    <glyph glyph-name="otilde.smcp" horiz-adv-x="576" 
d="M390 768l53 -62q-12 -27 -37.5 -46t-62.5 -19q-25 0 -59 22.5t-51 22.5q-28 0 -47 -29l-53 62q12 27 37.5 46t62.5 19q25 0 59 -22.5t51 -22.5q28 0 47 29zM525 346v-118q0 -116 -67 -178.5t-171 -62.5q-103 0 -169.5 62.5t-66.5 178.5v118q0 115 67 178t169 63
q104 0 171 -63t67 -178zM382 239v97q0 130 -95 130q-93 0 -93 -130v-97q0 -73 23.5 -102t69.5 -29q45 0 70 29.5t25 101.5z" />
    <glyph glyph-name="exclam.smcp" horiz-adv-x="261" 
d="M195 183h-129l-6 383l141 17zM130 -12q-32 0 -55.5 23.5t-23.5 56.5q0 34 23.5 56t55.5 22q33 0 56.5 -22.5t23.5 -55.5t-23.5 -56.5t-56.5 -23.5z" />
    <glyph glyph-name="p.smcp" horiz-adv-x="503" 
d="M208 0h-143v574h214q89 0 143.5 -55t54.5 -132q0 -76 -54.5 -130t-143.5 -54h-71v-203zM208 320h66q26 0 42 18.5t16 48.5t-16 48.5t-42 18.5h-66v-134z" />
    <glyph glyph-name="q.smcp" horiz-adv-x="576" 
d="M452 -109l-104 -58q-59 154 -61 154q-103 0 -169.5 62.5t-66.5 178.5v118q0 115 67 178t169 63q104 0 171 -63t67 -178v-118q0 -156 -120 -215zM382 239v97q0 130 -95 130q-93 0 -93 -130v-97q0 -73 23.5 -102t69.5 -29q45 0 70 29.5t25 101.5z" />
    <glyph glyph-name="breve.smcp" horiz-adv-x="419" 
d="M257 786h90q-1 -61 -41.5 -103t-96.5 -42t-95.5 42t-40.5 103h89q1 -25 14.5 -42.5t32.5 -17.5q21 0 34.5 17t13.5 43z" />
    <glyph glyph-name="nacute.smcp" horiz-adv-x="570" 
d="M415 708l-223 -84l-36 83l221 96zM505 0h-116l-185 292q4 -45 4 -92v-200h-143v574h116l184 -292q-3 50 -3 89v203h143v-574z" />
    <glyph glyph-name="ncaron.smcp" horiz-adv-x="570" 
d="M436 714l-150 -85l-151 85l53 81l97 -61l98 61zM505 0h-116l-185 292q4 -45 4 -92v-200h-143v574h116l184 -292q-3 50 -3 89v203h143v-574z" />
    <glyph glyph-name="questiondown.smcp" horiz-adv-x="408" 
d="M285 416q0 -34 -24 -56t-56 -22t-55.5 22.5t-23.5 55.5q0 32 23.5 55.5t55.5 23.5q33 0 56.5 -23t23.5 -56zM311 47l56 -92q-75 -58 -154 -58q-73 0 -125 42t-52 107q0 38 26 75t52 67t26 51v50l130 -17v-31q0 -31 -16 -61t-35 -48.5t-35 -39.5t-16 -38q0 -20 13 -32.5
t34 -12.5q41 0 96 38z" />
    <glyph glyph-name="c.smcp" horiz-adv-x="512" 
d="M438 131l27 -117q-80 -27 -170 -27q-109 0 -176.5 61.5t-67.5 178.5v120q0 117 67.5 178.5t176.5 61.5q89 0 170 -26l-27 -116q-69 21 -142 21q-51 0 -76.5 -30t-25.5 -101v-95q0 -71 26 -101.5t76 -30.5q79 0 142 23z" />
    <glyph glyph-name="five.tnum" 
d="M58 21l28 118q104 -31 170 -31q48 0 81.5 30t33.5 85q0 97 -128 97h-146l12 356h387l-21 -117h-240l-6 -124h27q119 0 189.5 -53.5t70.5 -157.5q0 -76 -39.5 -132t-96 -80.5t-119.5 -24.5q-93 0 -203 34z" />
    <glyph glyph-name="ecaron.smcp" horiz-adv-x="482" 
d="M397 714l-150 -85l-151 85l53 81l97 -61l98 61zM434 0h-369v574h361v-121h-218v-106h182l-5 -115h-177v-111h226v-121z" />
    <glyph glyph-name="r.smcp" horiz-adv-x="516" 
d="M486 0h-159l-92 208h-27v-208h-143v574h214q89 0 143.5 -55t54.5 -132q0 -113 -101 -157zM208 320h63q27 0 44.5 18.5t17.5 48.5t-17.5 48.5t-44.5 18.5h-63v-134z" />
    <glyph glyph-name="a.smcp" horiz-adv-x="556" 
d="M22 0l173 574h166l173 -574h-146l-36 132h-149l-35 -132h-146zM234 246h88l-22 82q-12 45 -22 109q-14 -80 -22 -109z" />
    <glyph glyph-name="racute.smcp" horiz-adv-x="516" 
d="M388 708l-223 -84l-36 83l221 96zM486 0h-159l-92 208h-27v-208h-143v574h214q89 0 143.5 -55t54.5 -132q0 -113 -101 -157zM208 320h63q27 0 44.5 18.5t17.5 48.5t-17.5 48.5t-44.5 18.5h-63v-134z" />
    <glyph glyph-name="rcaron.smcp" horiz-adv-x="516" 
d="M409 714l-150 -85l-151 85l53 81l97 -61l98 61zM486 0h-159l-92 208h-27v-208h-143v574h214q89 0 143.5 -55t54.5 -132q0 -113 -101 -157zM208 320h63q27 0 44.5 18.5t17.5 48.5t-17.5 48.5t-44.5 18.5h-63v-134z" />
    <glyph glyph-name="rcommaaccent.smcp" horiz-adv-x="516" 
d="M486 0h-159l-92 208h-27v-208h-143v574h214q89 0 143.5 -55t54.5 -132q0 -113 -101 -157zM208 320h63q27 0 44.5 18.5t17.5 48.5t-17.5 48.5t-44.5 18.5h-63v-134zM274 -224h-93l26 162h123z" />
    <glyph glyph-name="ntilde.smcp" horiz-adv-x="570" 
d="M387 768l53 -62q-12 -27 -37.5 -46t-62.5 -19q-25 0 -59 22.5t-51 22.5q-28 0 -47 -29l-53 62q12 27 37.5 46t62.5 19q25 0 59 -22.5t51 -22.5q28 0 47 29zM505 0h-116l-185 292q4 -45 4 -92v-200h-143v574h116l184 -292q-3 50 -3 89v203h143v-574z" />
    <glyph glyph-name="numbersign.smcp" horiz-adv-x="537" 
d="M390 0h-120l16 149h-68l-15 -149h-120l15 149h-61v118h74l7 69h-61v118h74l15 148h120l-16 -148h68l15 148h120l-15 -148h61v-118h-74l-7 -69h60v-118h-73zM298 267l8 69h-68l-8 -69h68z" />
    <glyph glyph-name="aacute.smcp" horiz-adv-x="556" 
d="M408 708l-223 -84l-36 83l221 96zM22 0l173 574h166l173 -574h-146l-36 132h-149l-35 -132h-146zM234 246h88l-22 82q-12 45 -22 109q-14 -80 -22 -109z" />
    <glyph glyph-name="ring.smcp" horiz-adv-x="346" 
d="M174 624q-43 0 -73 30.5t-30 72.5q0 41 30 71t73 30q41 0 71 -30t30 -71q0 -42 -30 -72.5t-71 -30.5zM174 696q13 0 21.5 9t8.5 22t-8.5 21.5t-21.5 8.5t-22 -8.5t-9 -21.5t9 -22t22 -9z" />
    <glyph glyph-name="ccedilla.smcp" horiz-adv-x="512" 
d="M265 -75v64q-98 8 -156 68.5t-58 169.5v120q0 117 67.5 178.5t176.5 61.5q89 0 170 -26l-27 -116q-69 21 -142 21q-51 0 -76.5 -30t-25.5 -101v-95q0 -71 26 -101.5t76 -30.5q79 0 142 23l27 -117q-35 -13 -94 -22v-80q0 -63 -39 -93t-92 -30q-43 0 -84 12l13 96
q37 -8 62 -8q34 0 34 36z" />
    <glyph glyph-name="g.smcp" horiz-adv-x="554" 
d="M369 114v110h-58v98h191v-298q-111 -37 -207 -37q-109 0 -176.5 61.5t-67.5 178.5v120q0 117 67.5 178.5t176.5 61.5q75 0 192 -36l-31 -114q-96 29 -160 29q-51 0 -76.5 -29.5t-25.5 -100.5v-94q0 -73 25.5 -103.5t76.5 -30.5q42 0 73 6z" />
    <glyph glyph-name="s.smcp" horiz-adv-x="475" 
d="M36 24l27 119q94 -35 166 -35q30 0 46 15.5t16 38.5q0 24 -24.5 42.5t-60 34t-70.5 35.5t-59.5 57.5t-24.5 89.5q0 75 58.5 120.5t145.5 45.5q75 0 171 -38l-37 -113q-73 30 -134 30q-56 0 -56 -44q0 -23 24.5 -39.5t60 -31t70.5 -34.5t59.5 -59t24.5 -95
q0 -84 -61.5 -130t-148.5 -46q-91 0 -193 37z" />
    <glyph glyph-name="sacute.smcp" horiz-adv-x="475" 
d="M367 708l-223 -84l-36 83l221 96zM36 24l27 119q94 -35 166 -35q30 0 46 15.5t16 38.5q0 24 -24.5 42.5t-60 34t-70.5 35.5t-59.5 57.5t-24.5 89.5q0 75 58.5 120.5t145.5 45.5q75 0 171 -38l-37 -113q-73 30 -134 30q-56 0 -56 -44q0 -23 24.5 -39.5t60 -31t70.5 -34.5
t59.5 -59t24.5 -95q0 -84 -61.5 -130t-148.5 -46q-91 0 -193 37z" />
    <glyph glyph-name="scaron.smcp" horiz-adv-x="475" 
d="M388 714l-150 -85l-151 85l53 81l97 -61l98 61zM36 24l27 119q94 -35 166 -35q30 0 46 15.5t16 38.5q0 24 -24.5 42.5t-60 34t-70.5 35.5t-59.5 57.5t-24.5 89.5q0 75 58.5 120.5t145.5 45.5q75 0 171 -38l-37 -113q-73 30 -134 30q-56 0 -56 -44q0 -23 24.5 -39.5
t60 -31t70.5 -34.5t59.5 -59t24.5 -95q0 -84 -61.5 -130t-148.5 -46q-91 0 -193 37z" />
    <glyph glyph-name="abreve.smcp" horiz-adv-x="556" 
d="M325 786h90q-1 -61 -41.5 -103t-96.5 -42t-95.5 42t-40.5 103h89q1 -25 14.5 -42.5t32.5 -17.5q21 0 34.5 17t13.5 43zM22 0l173 574h166l173 -574h-146l-36 132h-149l-35 -132h-146zM234 246h88l-22 82q-12 45 -22 109q-14 -80 -22 -109z" />
    <glyph glyph-name="egrave.smcp" horiz-adv-x="482" 
d="M346 624l-223 84l38 95l221 -96zM434 0h-369v574h361v-121h-218v-106h182l-5 -115h-177v-111h226v-121z" />
    <glyph glyph-name="scedilla.smcp" horiz-adv-x="475" 
d="M189 -75v64q-77 6 -153 35l27 119q94 -35 166 -35q30 0 46 15.5t16 38.5q0 24 -24.5 42.5t-60 34t-70.5 35.5t-59.5 57.5t-24.5 89.5q0 75 58.5 120.5t145.5 45.5q75 0 171 -38l-37 -113q-73 30 -134 30q-56 0 -56 -44q0 -23 24.5 -39.5t60 -31t70.5 -34.5t59.5 -59
t24.5 -95q0 -67 -40 -110.5t-104 -57.5v-83q0 -63 -39 -93t-92 -30q-43 0 -84 12l13 96q37 -8 62 -8q34 0 34 36z" />
    <glyph glyph-name="cdotaccent.smcp" horiz-adv-x="512" 
d="M341 713q0 -27 -19 -45.5t-46 -18.5q-26 0 -45 18.5t-19 45.5t19 46.5t45 19.5q27 0 46 -19.5t19 -46.5zM438 131l27 -117q-80 -27 -170 -27q-109 0 -176.5 61.5t-67.5 178.5v120q0 117 67.5 178.5t176.5 61.5q89 0 170 -26l-27 -116q-69 21 -142 21q-51 0 -76.5 -30
t-25.5 -101v-95q0 -71 26 -101.5t76 -30.5q79 0 142 23z" />
    <glyph glyph-name="germandbls.smcp" horiz-adv-x="955" 
d="M516 24l27 119q94 -35 166 -35q30 0 46 15.5t16 38.5q0 24 -24.5 42.5t-59.5 34t-70.5 35.5t-60 57.5t-24.5 89.5q0 75 58.5 120.5t145.5 45.5q75 0 171 -38l-37 -113q-74 30 -134 30q-56 0 -56 -44q0 -23 24.5 -39.5t60 -31t70.5 -34.5t59.5 -59t24.5 -95
q0 -84 -61.5 -130t-148.5 -46q-91 0 -193 37zM36 24l27 119q94 -35 166 -35q30 0 46 15.5t16 38.5q0 24 -24.5 42.5t-60 34t-70.5 35.5t-59.5 57.5t-24.5 89.5q0 75 58.5 120.5t145.5 45.5q75 0 171 -38l-37 -113q-73 30 -134 30q-56 0 -56 -44q0 -23 24.5 -39.5t60 -31
t70.5 -34.5t59.5 -59t24.5 -95q0 -84 -61.5 -130t-148.5 -46q-91 0 -193 37z" />
    <glyph glyph-name="scircumflex.smcp" horiz-adv-x="475" 
d="M335 630l-97 61l-98 -61l-53 81l150 85l151 -85zM36 24l27 119q94 -35 166 -35q30 0 46 15.5t16 38.5q0 24 -24.5 42.5t-60 34t-70.5 35.5t-59.5 57.5t-24.5 89.5q0 75 58.5 120.5t145.5 45.5q75 0 171 -38l-37 -113q-73 30 -134 30q-56 0 -56 -44q0 -23 24.5 -39.5
t60 -31t70.5 -34.5t59.5 -59t24.5 -95q0 -84 -61.5 -130t-148.5 -46q-91 0 -193 37z" />
    <glyph glyph-name="scommaaccent.smcp" horiz-adv-x="475" 
d="M36 24l27 119q94 -35 166 -35q30 0 46 15.5t16 38.5q0 24 -24.5 42.5t-60 34t-70.5 35.5t-59.5 57.5t-24.5 89.5q0 75 58.5 120.5t145.5 45.5q75 0 171 -38l-37 -113q-73 30 -134 30q-56 0 -56 -44q0 -23 24.5 -39.5t60 -31t70.5 -34.5t59.5 -59t24.5 -95
q0 -84 -61.5 -130t-148.5 -46q-91 0 -193 37zM247 -224h-93l26 162h123z" />
    <glyph glyph-name="cedilla.smcp" horiz-adv-x="313" 
d="M136 -75v75h106v-88q0 -63 -39 -93t-92 -30q-43 0 -84 12l13 96q37 -8 62 -8q34 0 34 36z" />
    <glyph glyph-name="ibreve.smcp" horiz-adv-x="273" 
d="M183 786h90q-1 -61 -41.5 -103t-96.5 -42t-95.5 42t-40.5 103h89q1 -25 14.5 -42.5t32.5 -17.5q21 0 34.5 17t13.5 43zM208 0h-143v574h143v-574z" />
    <glyph glyph-name="seven.smcp" horiz-adv-x="477" 
d="M302 0h-147q0 296 130 459h-251l-12 115h415v-115q-81 -94 -108 -197t-27 -262z" />
    <glyph glyph-name="seven.tnum" 
d="M359 0h-147q0 353 160 559h-301l-12 117h466v-116q-95 -114 -130.5 -239t-35.5 -321z" />
    <glyph glyph-name="ohungarumlaut.smcp" horiz-adv-x="576" 
d="M569 721l-174 -102l-49 81l168 110zM331 721l-173 -102l-50 81l168 110zM525 346v-118q0 -116 -67 -178.5t-171 -62.5q-103 0 -169.5 62.5t-66.5 178.5v118q0 115 67 178t169 63q104 0 171 -63t67 -178zM382 239v97q0 130 -95 130q-93 0 -93 -130v-97q0 -73 23.5 -102
t69.5 -29q45 0 70 29.5t25 101.5z" />
    <glyph glyph-name="ograve.smcp" horiz-adv-x="576" 
d="M387 624l-223 84l38 95l221 -96zM525 346v-118q0 -116 -67 -178.5t-171 -62.5q-103 0 -169.5 62.5t-66.5 178.5v118q0 115 67 178t169 63q104 0 171 -63t67 -178zM382 239v97q0 130 -95 130q-93 0 -93 -130v-97q0 -73 23.5 -102t69.5 -29q45 0 70 29.5t25 101.5z" />
    <glyph glyph-name="sevenonum.tnum" 
d="M359 -103h-147q0 353 160 559h-301l-12 117h466v-116q-95 -114 -130.5 -239t-35.5 -321z" />
    <glyph glyph-name="cent.smcp" horiz-adv-x="441" 
d="M297 -105h-95v100q-153 25 -153 190v77q0 164 153 190v100h95v-97q40 -4 92 -19l-30 -111q-60 17 -97 17t-55.5 -17t-18.5 -61v-81q0 -44 18.5 -61t55.5 -17t97 17l30 -111q-45 -14 -92 -19v-97z" />
    <glyph glyph-name="sevensmcp.tnum" horiz-adv-x="511" 
d="M328 0h-147q0 296 130 459h-251l-12 115h415v-115q-81 -94 -108 -197t-27 -262z" />
    <glyph glyph-name="itilde.smcp" horiz-adv-x="273" 
d="M238 768l53 -62q-12 -27 -37.5 -46t-62.5 -19q-25 0 -59 22.5t-51 22.5q-28 0 -47 -29l-53 62q12 27 37.5 46t62.5 19q25 0 59 -22.5t51 -22.5q28 0 47 29zM208 0h-143v574h143v-574z" />
    <glyph glyph-name="six.smcp" horiz-adv-x="519" 
d="M48 188v179q0 93 59.5 156.5t164.5 63.5q66 0 153 -27l-31 -116q-65 23 -122 23q-37 0 -59 -24t-22 -57v-19q41 34 93 34q88 0 140.5 -55.5t52.5 -151.5t-62 -151.5t-153 -55.5q-90 0 -152 54.5t-62 146.5zM190 262v-75q0 -34 19 -57t53 -23t52.5 24.5t18.5 62.5
q0 102 -71 102q-42 0 -72 -34z" />
    <glyph glyph-name="centonum.tnum" 
d="M377 -124h-101v115q-82 13 -129.5 69t-47.5 156v91q0 100 47 156t130 69v115h101v-114q47 -4 106 -22l-30 -116q-69 20 -115 20q-48 0 -72 -24.5t-24 -83.5v-91q0 -59 24 -83.5t72 -24.5q46 0 115 20l31 -116q-59 -18 -107 -22v-114z" />
    <glyph glyph-name="sixonum.tnum" 
d="M52 218v216q0 109 66 182t184 73q75 0 169 -30l-31 -117q-75 26 -138 26q-46 0 -76.5 -32.5t-30.5 -84.5v-23q51 40 116 40q99 0 159.5 -64.5t60.5 -177.5q0 -111 -69.5 -175t-170.5 -64q-100 0 -169.5 62.5t-69.5 168.5zM194 320v-103q0 -46 25.5 -77.5t70.5 -31.5
q46 0 71 33.5t25 84.5q0 134 -96 134q-55 0 -96 -40z" />
    <glyph glyph-name="centsmcp.tnum" horiz-adv-x="511" 
d="M332 -105h-95v100q-153 25 -153 190v77q0 164 153 190v100h95v-97q40 -4 92 -19l-30 -111q-60 17 -97 17t-55.5 -17t-18.5 -61v-81q0 -44 18.5 -61t55.5 -17t97 17l30 -111q-45 -14 -92 -19v-97z" />
    <glyph glyph-name="sterling.smcp" horiz-adv-x="460" 
d="M421 0h-362v94q52 57 55 118h-56v75h44q-24 89 -24 127q0 81 56 127t139 46q70 0 152 -37l-38 -108q-57 24 -105 24q-62 0 -62 -60q0 -19 2.5 -37t5.5 -28t8.5 -28.5t7.5 -25.5h127v-75h-118q-2 -48 -51 -106h219v-106z" />
    <glyph glyph-name="sterling.tnum" 
d="M493 0h-406v100q65 82 65 133q0 14 -2 40h-65v81h50q-25 98 -25 134q0 95 62.5 148t156.5 53q77 0 169 -40l-40 -110q-65 27 -120 27q-81 0 -81 -87q0 -35 23 -125h158v-81h-143q2 -26 2 -40q0 -32 -18 -65.5t-43 -55.5h257v-112z" />
    <glyph glyph-name="sterlingonum.tnum" 
d="M503 0h-406v100q65 82 65 133q0 14 -2 40h-65v81h50q-25 98 -25 134q0 95 62.5 148t156.5 53q77 0 169 -40l-40 -110q-65 27 -120 27q-81 0 -81 -87q0 -35 23 -125h158v-81h-143q2 -26 2 -40q0 -32 -18 -65.5t-43 -55.5h257v-112z" />
    <glyph glyph-name="kcommaaccent.smcp" horiz-adv-x="552" 
d="M535 0h-170l-131 209l-26 -31v-178h-143v574h143v-184l133 184h168l-189 -248zM296 -224h-93l26 162h123z" />
    <glyph glyph-name="commaaccent" horiz-adv-x="231" 
d="M134 -224h-93l26 162h123z" />
    <glyph glyph-name="t.smcp" horiz-adv-x="474" 
d="M308 0h-143v453h-137v121h418v-121h-138v-453z" />
    <glyph glyph-name="b.smcp" horiz-adv-x="526" 
d="M268 0h-203v574h196q94 0 150.5 -45.5t56.5 -119.5q0 -76 -72 -108q94 -32 94 -123q0 -77 -64 -127.5t-158 -50.5zM208 349h43q34 0 53.5 15.5t19.5 38.5q0 51 -67 51h-49v-105zM208 120h59q35 0 57 17t22 41q0 27 -19 44t-53 17h-66v-119z" />
    <glyph glyph-name="tbar.smcp" horiz-adv-x="474" 
d="M308 0h-143v255h-61v91h61v107h-137v121h418v-121h-138v-107h59v-91h-59v-255z" />
    <glyph glyph-name="tcaron.smcp" horiz-adv-x="474" 
d="M388 714l-150 -85l-151 85l53 81l97 -61l98 61zM308 0h-143v453h-137v121h418v-121h-138v-453z" />
    <glyph glyph-name="cyrBreve" horiz-adv-x="419" 
d="M260 869l90 -10q-5 -61 -43 -95.5t-98 -34.5t-97.5 34.5t-41.5 95.5l89 10q3 -25 17 -40t33 -15q43 0 51 55z" />
    <glyph glyph-name="question.smcp" horiz-adv-x="409" 
d="M263 194l-130 17v31q0 31 16 61t35 48.5t35 39.5t16 38q0 20 -13 32.5t-34 12.5q-41 0 -96 -38l-56 92q75 58 154 58q73 0 125 -42t52 -107q0 -38 -26 -75t-52 -67t-26 -51v-50zM198 -12q-33 0 -56.5 23t-23.5 56q0 34 24 56t56 22t55.5 -22.5t23.5 -55.5
q0 -32 -23.5 -55.5t-55.5 -23.5z" />
    <glyph glyph-name="tcommaaccent.smcp" horiz-adv-x="474" 
d="M308 0h-143v453h-137v121h418v-121h-138v-453zM253 -224h-93l26 162h123z" />
    <glyph glyph-name="atilde.smcp" horiz-adv-x="556" 
d="M380 768l53 -62q-12 -27 -37.5 -46t-62.5 -19q-25 0 -59 22.5t-51 22.5q-28 0 -47 -29l-53 62q12 27 37.5 46t62.5 19q25 0 59 -22.5t51 -22.5q28 0 47 29zM22 0l173 574h166l173 -574h-146l-36 132h-149l-35 -132h-146zM234 246h88l-22 82q-12 45 -22 109
q-14 -80 -22 -109z" />
    <glyph glyph-name="thorn.smcp" horiz-adv-x="503" 
d="M279 91h-71v-91h-143v574h143v-112h71q89 0 143.5 -55t54.5 -132q0 -76 -54.5 -130t-143.5 -54zM208 208h66q26 0 42 18.5t16 48.5t-16 48.5t-42 18.5h-66v-134z" />
    <glyph glyph-name="three.onum" horiz-adv-x="518" 
d="M17 -78l35 113q85 -30 155 -30q53 0 86.5 28t33.5 73q0 87 -100 87h-86l-21 109l164 154h-243l-18 117h411l9 -117l-163 -154q77 -2 134.5 -57.5t57.5 -138.5q0 -101 -77 -161.5t-185 -60.5q-85 0 -193 38z" />
    <glyph glyph-name="d.smcp" horiz-adv-x="571" 
d="M292 0h-227v535q138 52 227 52q97 0 162.5 -59.5t65.5 -162.5v-149q0 -105 -60.5 -160.5t-167.5 -55.5zM377 227v126q0 113 -85 113q-45 0 -84 -13v-332h84q47 0 66 23t19 83z" />
    <glyph glyph-name="three.tnum" 
d="M54 25l35 113q85 -30 155 -30q53 0 86.5 28t33.5 73q0 87 -100 87h-86l-21 109l164 154h-243l-18 117h411l9 -117l-163 -154q77 -2 134.5 -57.5t57.5 -138.5q0 -101 -77 -161.5t-185 -60.5q-85 0 -193 38z" />
    <glyph glyph-name="threeonum.tnum" 
d="M64 -78l35 113q85 -30 155 -30q53 0 86.5 28t33.5 73q0 87 -100 87h-86l-21 109l164 154h-243l-18 117h411l9 -117l-163 -154q77 -2 134.5 -57.5t57.5 -138.5q0 -101 -77 -161.5t-185 -60.5q-85 0 -193 38z" />
    <glyph glyph-name="caron.smcp" horiz-adv-x="481" 
d="M391 714l-150 -85l-151 85l53 81l97 -61l98 61z" />
    <glyph glyph-name="tilde.smcp" horiz-adv-x="456" 
d="M331 768l53 -62q-12 -27 -37.5 -46t-62.5 -19q-25 0 -59 22.5t-51 22.5q-28 0 -47 -29l-53 62q12 27 37.5 46t62.5 19q25 0 59 -22.5t51 -22.5q28 0 47 29z" />
    <glyph glyph-name="two.smcp" horiz-adv-x="470" 
d="M429 0h-396v73q0 57 26 103t63 75.5t74 54t63 50.5t26 53q0 58 -67 58q-53 0 -128 -36l-49 106q91 50 186 50q88 0 145.5 -50t57.5 -128q0 -44 -24.5 -84.5t-60 -69.5t-71 -53.5t-60 -47t-24.5 -40.5h239v-114z" />
    <glyph glyph-name="two.tnum" 
d="M507 0h-441v78q0 58 22 107.5t55 80.5t71.5 60.5t71.5 51t55 49.5t22 58q0 37 -23 60t-66 23q-64 0 -150 -42l-49 108q104 55 206 55q99 0 163 -56.5t64 -147.5q0 -52 -29.5 -99t-72 -80.5t-84.5 -63.5t-71.5 -62t-29.5 -63h286v-117z" />
    <glyph glyph-name="ccaron.smcp" horiz-adv-x="512" 
d="M423 714l-150 -85l-151 85l53 81l97 -61l98 61zM438 131l27 -117q-80 -27 -170 -27q-109 0 -176.5 61.5t-67.5 178.5v120q0 117 67.5 178.5t176.5 61.5q89 0 170 -26l-27 -116q-69 21 -142 21q-51 0 -76.5 -30t-25.5 -101v-95q0 -71 26 -101.5t76 -30.5q79 0 142 23z" />
    <glyph glyph-name="twosmcp.tnum" horiz-adv-x="511" 
d="M447 0h-396v73q0 57 26 103t63 75.5t74 54t63 50.5t26 53q0 58 -67 58q-53 0 -128 -36l-49 106q91 50 186 50q88 0 145.5 -50t57.5 -128q0 -44 -24.5 -84.5t-60 -69.5t-71 -53.5t-60 -47t-24.5 -40.5h239v-114z" />
    <glyph glyph-name="u.smcp" horiz-adv-x="575" 
d="M371 207v367h143v-381q0 -90 -66 -148t-161 -58t-160.5 58t-65.5 148v381h143v-367q0 -47 22 -73t61 -26q38 0 61 26t23 73z" />
    <glyph glyph-name="Euro.onum" horiz-adv-x="535" 
d="M497 130l26 -121q-84 -22 -162 -22q-108 0 -181.5 65t-76.5 176h-66v72h66v76h-66v72h66q3 110 76.5 175.5t181.5 65.5q78 0 162 -22l-26 -121q-79 19 -135 19q-49 0 -79.5 -31.5t-33.5 -85.5h183l-14 -72h-169v-76h153l-14 -72h-139q3 -55 33 -86t80 -31q56 0 135 19z
" />
    <glyph glyph-name="numbersignsmcp.tnum" horiz-adv-x="511" 
d="M377 0h-120l16 149h-68l-15 -149h-120l15 149h-61v118h74l7 69h-61v118h74l15 148h120l-16 -148h68l15 148h120l-15 -148h61v-118h-74l-7 -69h60v-118h-73zM285 267l8 69h-68l-8 -69h68z" />
    <glyph glyph-name="uacute.smcp" horiz-adv-x="575" 
d="M417 708l-223 -84l-36 83l221 96zM371 207v367h143v-381q0 -90 -66 -148t-161 -58t-160.5 58t-65.5 148v381h143v-367q0 -47 22 -73t61 -26q38 0 61 26t23 73z" />
    <glyph glyph-name="dieresis.smcp" horiz-adv-x="460" 
d="M390 713q0 -27 -19 -45.5t-46 -18.5q-26 0 -45 18.5t-19 45.5t19 46.5t45 19.5q27 0 46 -19.5t19 -46.5zM200 713q0 -27 -19 -45.5t-46 -18.5q-26 0 -45.5 18.5t-19.5 45.5t19.5 46.5t45.5 19.5q27 0 46 -19.5t19 -46.5z" />
    <glyph glyph-name="ubreve.smcp" horiz-adv-x="575" 
d="M334 786h90q-1 -61 -41.5 -103t-96.5 -42t-95.5 42t-40.5 103h89q1 -25 14.5 -42.5t32.5 -17.5q21 0 34.5 17t13.5 43zM371 207v367h143v-381q0 -90 -66 -148t-161 -58t-160.5 58t-65.5 148v381h143v-367q0 -47 22 -73t61 -26q38 0 61 26t23 73z" />
    <glyph glyph-name="ucircumflex.smcp" horiz-adv-x="575" 
d="M385 630l-97 61l-98 -61l-53 81l150 85l151 -85zM371 207v367h143v-381q0 -90 -66 -148t-161 -58t-160.5 58t-65.5 148v381h143v-367q0 -47 22 -73t61 -26q38 0 61 26t23 73z" />
    <glyph glyph-name="dollar.onum" horiz-adv-x="517" 
d="M307 -124h-101v112q-88 6 -182 41l28 122q106 -39 193 -39q38 0 60.5 21t22.5 55q0 33 -29.5 55t-71.5 37t-84 35t-71.5 61.5t-29.5 102.5q0 72 46.5 120.5t122.5 63.5v117h101v-114q62 -6 150 -39l-38 -117q-88 34 -148 34q-48 0 -67 -16t-19 -47q0 -23 16 -39.5
t41 -27.5t55.5 -21.5t61 -26t55.5 -36.5t41 -57t16 -84q0 -79 -47 -129t-122 -66v-118z" />
    <glyph glyph-name="udieresis.smcp" horiz-adv-x="575" 
d="M447 713q0 -27 -19 -45.5t-46 -18.5q-26 0 -45 18.5t-19 45.5t19 46.5t45 19.5q27 0 46 -19.5t19 -46.5zM257 713q0 -27 -19 -45.5t-46 -18.5q-26 0 -45.5 18.5t-19.5 45.5t19.5 46.5t45.5 19.5q27 0 46 -19.5t19 -46.5zM371 207v367h143v-381q0 -90 -66 -148t-161 -58
t-160.5 58t-65.5 148v381h143v-367q0 -47 22 -73t61 -26q38 0 61 26t23 73z" />
    <glyph glyph-name="ugrave.smcp" horiz-adv-x="575" 
d="M381 624l-223 84l38 95l221 -96zM371 207v367h143v-381q0 -90 -66 -148t-161 -58t-160.5 58t-65.5 148v381h143v-367q0 -47 22 -73t61 -26q38 0 61 26t23 73z" />
    <glyph glyph-name="dollar.tnum" 
d="M345 -124h-101v112q-88 6 -182 41l28 122q106 -39 193 -39q38 0 60.5 21t22.5 55q0 33 -29.5 55t-71.5 37t-84 35t-71.5 61.5t-29.5 102.5q0 72 46.5 120.5t122.5 63.5v117h101v-114q62 -6 150 -39l-38 -117q-88 34 -148 34q-48 0 -67 -16t-19 -47q0 -23 16 -39.5
t41 -27.5t55.5 -21.5t61 -26t55.5 -36.5t41 -57t16 -84q0 -79 -47 -129t-122 -66v-118z" />
    <glyph glyph-name="uhungarumlaut.smcp" horiz-adv-x="575" 
d="M539 721l-174 -102l-49 81l168 110zM301 721l-173 -102l-50 81l168 110zM371 207v367h143v-381q0 -90 -66 -148t-161 -58t-160.5 58t-65.5 148v381h143v-367q0 -47 22 -73t61 -26q38 0 61 26t23 73z" />
    <glyph glyph-name="dollaronum.tnum" 
d="M349 -124h-101v112q-88 6 -182 41l28 122q106 -39 193 -39q38 0 60.5 21t22.5 55q0 33 -29.5 55t-71.5 37t-84 35t-71.5 61.5t-29.5 102.5q0 72 46.5 120.5t122.5 63.5v117h101v-114q62 -6 150 -39l-38 -117q-88 34 -148 34q-48 0 -67 -16t-19 -47q0 -23 16 -39.5
t41 -27.5t55.5 -21.5t61 -26t55.5 -36.5t41 -57t16 -84q0 -79 -47 -129t-122 -66v-118z" />
    <glyph glyph-name="umacron.smcp" horiz-adv-x="575" 
d="M414 668h-254v90h254v-90zM371 207v367h143v-381q0 -90 -66 -148t-161 -58t-160.5 58t-65.5 148v381h143v-367q0 -47 22 -73t61 -26q38 0 61 26t23 73z" />
    <glyph glyph-name="dollarsmcp.tnum" horiz-adv-x="511" 
d="M305 -105h-95v94q-75 5 -161 37l27 117q93 -34 171 -34q30 0 46 15t16 39t-25 40.5t-60.5 29t-71.5 30t-61 52.5t-25 87q0 57 37.5 101t109.5 58v101h95v-97q50 -6 133 -35l-37 -112q-76 30 -128 30q-39 0 -53 -11t-14 -33t25 -37t60.5 -27t71.5 -29t61 -54.5t25 -92.5
q0 -61 -37 -106.5t-110 -61.5v-101z" />
    <glyph glyph-name="odieresis.smcp" horiz-adv-x="576" 
d="M448 713q0 -27 -19 -45.5t-46 -18.5q-26 0 -45 18.5t-19 45.5t19 46.5t45 19.5q27 0 46 -19.5t19 -46.5zM258 713q0 -27 -19 -45.5t-46 -18.5q-26 0 -45.5 18.5t-19.5 45.5t19.5 46.5t45.5 19.5q27 0 46 -19.5t19 -46.5zM525 346v-118q0 -116 -67 -178.5t-171 -62.5
q-103 0 -169.5 62.5t-66.5 178.5v118q0 115 67 178t169 63q104 0 171 -63t67 -178zM382 239v97q0 130 -95 130q-93 0 -93 -130v-97q0 -73 23.5 -102t69.5 -29q45 0 70 29.5t25 101.5z" />
    <glyph glyph-name="seven.onum" horiz-adv-x="518" 
d="M318 -103h-147q0 353 160 559h-301l-12 117h466v-116q-95 -114 -130.5 -239t-35.5 -321z" />
    <glyph glyph-name="uogonek.smcp" horiz-adv-x="575" 
d="M338 -128l14 -85q-26 -11 -64 -11q-59 0 -88.5 27.5t-29.5 74.5q0 66 61 115q-75 16 -122.5 70t-47.5 130v381h143v-367q0 -47 22 -73t61 -26q38 0 61 26t23 73v367h143v-381q0 -75 -48.5 -129.5t-123.5 -70.5q-66 -52 -66 -100q0 -27 29 -27q18 0 33 6z" />
    <glyph glyph-name="dotaccent.smcp" horiz-adv-x="271" 
d="M200 713q0 -27 -19 -45.5t-46 -18.5q-26 0 -45 18.5t-19 45.5t19 46.5t45 19.5q27 0 46 -19.5t19 -46.5z" />
    <glyph glyph-name="cent.onum" horiz-adv-x="485" 
d="M328 -124h-101v115q-82 13 -129.5 69t-47.5 156v91q0 100 47 156t130 69v115h101v-114q47 -4 106 -22l-30 -116q-69 20 -115 20q-48 0 -72 -24.5t-24 -83.5v-91q0 -59 24 -83.5t72 -24.5q46 0 115 20l31 -116q-59 -18 -107 -22v-114z" />
    <glyph glyph-name="uring.smcp" horiz-adv-x="575" 
d="M288 624q-43 0 -73 30.5t-30 72.5q0 41 30 71t73 30q41 0 71 -30t30 -71q0 -42 -30 -72.5t-71 -30.5zM288 696q13 0 21.5 9t8.5 22t-8.5 21.5t-21.5 8.5t-22 -8.5t-9 -21.5t9 -22t22 -9zM371 207v367h143v-381q0 -90 -66 -148t-161 -58t-160.5 58t-65.5 148v381h143v-367
q0 -47 22 -73t61 -26q38 0 61 26t23 73z" />
    <glyph glyph-name="utilde.smcp" horiz-adv-x="575" 
d="M389 768l53 -62q-12 -27 -37.5 -46t-62.5 -19q-25 0 -59 22.5t-51 22.5q-28 0 -47 -29l-53 62q12 27 37.5 46t62.5 19q25 0 59 -22.5t51 -22.5q28 0 47 29zM371 207v367h143v-381q0 -90 -66 -148t-161 -58t-160.5 58t-65.5 148v381h143v-367q0 -47 22 -73t61 -26
q38 0 61 26t23 73z" />
    <glyph glyph-name="v.smcp" horiz-adv-x="556" 
d="M360 0h-164l-174 574h151l84 -328q13 -53 21 -101q13 70 21 101l84 328h151z" />
    <glyph glyph-name="e.smcp" horiz-adv-x="482" 
d="M434 0h-369v574h361v-121h-218v-106h182l-5 -115h-177v-111h226v-121z" />
    <glyph glyph-name="wacute.smcp" horiz-adv-x="760" 
d="M509 708l-223 -84l-36 83l221 96zM129 0l-93 574h145l28 -256q6 -53 9 -139q15 81 33 138l52 163h150l54 -163q21 -63 34 -135q7 122 9 136l28 256h146l-94 -574h-157l-75 248q-12 39 -19 82q-6 -47 -17 -82l-77 -248h-156z" />
    <glyph glyph-name="wcircumflex.smcp" horiz-adv-x="760" 
d="M474 630l-97 61l-98 -61l-53 81l150 85l151 -85zM129 0l-93 574h145l28 -256q6 -53 9 -139q15 81 33 138l52 163h150l54 -163q21 -63 34 -135q7 122 9 136l28 256h146l-94 -574h-157l-75 248q-12 39 -19 82q-6 -47 -17 -82l-77 -248h-156z" />
    <glyph glyph-name="wdieresis.smcp" horiz-adv-x="760" 
d="M535 713q0 -27 -19 -45.5t-46 -18.5q-26 0 -45 18.5t-19 45.5t19 46.5t45 19.5q27 0 46 -19.5t19 -46.5zM345 713q0 -27 -19 -45.5t-46 -18.5q-26 0 -45.5 18.5t-19.5 45.5t19.5 46.5t45.5 19.5q27 0 46 -19.5t19 -46.5zM129 0l-93 574h145l28 -256q6 -53 9 -139
q15 81 33 138l52 163h150l54 -163q21 -63 34 -135q7 122 9 136l28 256h146l-94 -574h-157l-75 248q-12 39 -19 82q-6 -47 -17 -82l-77 -248h-156z" />
    <glyph glyph-name="Euro.tnum" 
d="M509 130l26 -121q-84 -22 -162 -22q-108 0 -181.5 65t-76.5 176h-66v72h66v76h-66v72h66q3 110 76.5 175.5t181.5 65.5q78 0 162 -22l-26 -121q-79 19 -135 19q-49 0 -79.5 -31.5t-33.5 -85.5h183l-14 -72h-169v-76h153l-14 -72h-139q3 -55 33 -86t80 -31q56 0 135 19z
" />
    <glyph glyph-name="sixsmcp.tnum" horiz-adv-x="511" 
d="M38 188v179q0 93 59.5 156.5t164.5 63.5q66 0 153 -27l-31 -116q-65 23 -122 23q-37 0 -59 -24t-22 -57v-19q41 34 93 34q88 0 140.5 -55.5t52.5 -151.5t-62 -151.5t-153 -55.5q-90 0 -152 54.5t-62 146.5zM180 262v-75q0 -34 19 -57t53 -23t52.5 24.5t18.5 62.5
q0 102 -71 102q-42 0 -72 -34z" />
    <glyph glyph-name="sterlingsmcp.tnum" horiz-adv-x="511" 
d="M434 0h-362v94q52 57 55 118h-56v75h44q-24 89 -24 127q0 81 56 127t139 46q70 0 152 -37l-38 -108q-57 24 -105 24q-62 0 -62 -60q0 -19 2.5 -37t5.5 -28t8.5 -28.5t7.5 -25.5h127v-75h-118q-2 -48 -51 -106h219v-106z" />
    <glyph glyph-name="ebreve.smcp" horiz-adv-x="482" 
d="M291 786h90q-1 -61 -41.5 -103t-96.5 -42t-95.5 42t-40.5 103h89q1 -25 14.5 -42.5t32.5 -17.5q21 0 34.5 17t13.5 43zM434 0h-369v574h361v-121h-218v-106h182l-5 -115h-177v-111h226v-121z" />
    <glyph glyph-name="wgrave.smcp" horiz-adv-x="760" 
d="M472 624l-223 84l38 95l221 -96zM129 0l-93 574h145l28 -256q6 -53 9 -139q15 81 33 138l52 163h150l54 -163q21 -63 34 -135q7 122 9 136l28 256h146l-94 -574h-157l-75 248q-12 39 -19 82q-6 -47 -17 -82l-77 -248h-156z" />
    <glyph glyph-name="x.smcp" horiz-adv-x="535" 
d="M355 0l-87 172l-94 -172h-158l168 296l-149 278h157l75 -146l80 146h152l-148 -269l167 -305h-163z" />
    <glyph glyph-name="yacute.smcp" horiz-adv-x="524" 
d="M393 708l-223 -84l-36 83l221 96zM191 0v218l-173 356h156l88 -212l88 212h156l-172 -356v-218h-143z" />
    <glyph glyph-name="ccircumflex.smcp" horiz-adv-x="512" 
d="M376 630l-97 61l-98 -61l-53 81l150 85l151 -85zM438 131l27 -117q-80 -27 -170 -27q-109 0 -176.5 61.5t-67.5 178.5v120q0 117 67.5 178.5t176.5 61.5q89 0 170 -26l-27 -116q-69 21 -142 21q-51 0 -76.5 -30t-25.5 -101v-95q0 -71 26 -101.5t76 -30.5q79 0 142 23z
" />
    <glyph glyph-name="ecircumflex.smcp" horiz-adv-x="482" 
d="M345 630l-97 61l-98 -61l-53 81l150 85l151 -85zM434 0h-369v574h361v-121h-218v-106h182l-5 -115h-177v-111h226v-121z" />
    <glyph glyph-name="ydieresis.smcp" horiz-adv-x="524" 
d="M423 713q0 -27 -19 -45.5t-46 -18.5q-26 0 -45 18.5t-19 45.5t19 46.5t45 19.5q27 0 46 -19.5t19 -46.5zM233 713q0 -27 -19 -45.5t-46 -18.5q-26 0 -45.5 18.5t-19.5 45.5t19.5 46.5t45.5 19.5q27 0 46 -19.5t19 -46.5zM191 0v218l-173 356h156l88 -212l88 212h156
l-172 -356v-218h-143z" />
    <glyph glyph-name="yen.onum" horiz-adv-x="528" 
d="M456 92h-119v-92h-145v92h-119v80h119v69h-119v81h86l-167 354h147l125 -291l125 291h147l-166 -354h86v-81h-119v-69h119v-80z" />
    <glyph glyph-name="ae.smcp" horiz-adv-x="785" 
d="M411 0l-12 132h-161l-72 -132h-161l334 574h380l9 -121h-221l12 -106h197l-10 -115h-178l8 -111h222l9 -121h-356zM378 388l-78 -142h90z" />
    <glyph glyph-name="yen.smcp" horiz-adv-x="498" 
d="M419 74h-99v-74h-141v74h-100v74h100v56h-100v75h69l-141 295h141l101 -235l101 235h141l-141 -295h69v-75h-99v-56h99v-74z" />
    <glyph glyph-name="Euroonum.tnum" 
d="M509 130l26 -121q-84 -22 -162 -22q-108 0 -181.5 65t-76.5 176h-66v72h66v76h-66v72h66q3 110 76.5 175.5t181.5 65.5q78 0 162 -22l-26 -121q-79 19 -135 19q-49 0 -79.5 -31.5t-33.5 -85.5h183l-14 -72h-169v-76h153l-14 -72h-139q3 -55 33 -86t80 -31q56 0 135 19z
" />
    <glyph glyph-name="yenonum.tnum" 
d="M484 92h-119v-92h-145v92h-119v80h119v69h-119v81h86l-167 354h147l125 -291l125 291h147l-166 -354h86v-81h-119v-69h119v-80z" />
    <glyph glyph-name="edotaccent.smcp" horiz-adv-x="482" 
d="M312 713q0 -27 -19 -45.5t-46 -18.5q-26 0 -45 18.5t-19 45.5t19 46.5t45 19.5q27 0 46 -19.5t19 -46.5zM434 0h-369v574h361v-121h-218v-106h182l-5 -115h-177v-111h226v-121z" />
    <glyph glyph-name="three.smcp" horiz-adv-x="472" 
d="M17 22l34 111q75 -26 139 -26q40 0 65.5 19.5t25.5 51.5q0 60 -72 60h-79l-20 106l135 115h-205l-18 115h372l8 -115l-134 -116q73 -6 115.5 -52.5t42.5 -112.5q0 -87 -68.5 -139t-164.5 -52q-76 0 -176 35z" />
    <glyph glyph-name="yensmcp.tnum" horiz-adv-x="511" 
d="M425 74h-99v-74h-141v74h-100v74h100v56h-100v75h69l-141 295h141l101 -235l101 235h141l-141 -295h69v-75h-99v-56h99v-74z" />
    <glyph glyph-name="ygrave.smcp" horiz-adv-x="524" 
d="M357 624l-223 84l38 95l221 -96zM191 0v218l-173 356h156l88 -212l88 212h156l-172 -356v-218h-143z" />
    <glyph glyph-name="acircumflex.smcp" horiz-adv-x="556" 
d="M376 630l-97 61l-98 -61l-53 81l150 85l151 -85zM22 0l173 574h166l173 -574h-146l-36 132h-149l-35 -132h-146zM234 246h88l-22 82q-12 45 -22 109q-14 -80 -22 -109z" />
    <glyph glyph-name="z.smcp" horiz-adv-x="511" 
d="M41 0v91l229 362h-224v121h403v-92l-230 -361h251l-13 -121h-416z" />
    <glyph glyph-name="threesmcp.tnum" horiz-adv-x="511" 
d="M39 22l34 111q75 -26 139 -26q40 0 65.5 19.5t25.5 51.5q0 60 -72 60h-79l-20 106l135 115h-205l-18 115h372l8 -115l-134 -116q73 -6 115.5 -52.5t42.5 -112.5q0 -87 -68.5 -139t-164.5 -52q-76 0 -176 35z" />
    <glyph glyph-name="twoonum.tnum" 
d="M487 0h-401v62q0 54 19 98.5t48 71.5t62.5 52t62.5 41.5t48 38t19 43.5q0 26 -17.5 42t-51.5 16q-66 0 -138 -40l-49 105q92 56 191 56q90 0 150 -49.5t60 -129.5q0 -44 -25 -83.5t-61 -67.5t-71.5 -51.5t-60.5 -46t-25 -41.5h250z" />
    <glyph glyph-name="zcaron.smcp" horiz-adv-x="511" 
d="M406 714l-150 -85l-151 85l53 81l97 -61l98 61zM457 0h-416v91l229 369h-224v114h403v-92l-230 -366h251z" />
    <glyph glyph-name="eight.smcp" horiz-adv-x="527" 
d="M387 304q95 -57 95 -145q0 -80 -68 -126t-151 -46q-88 0 -153 45.5t-65 127.5q0 80 87 131q-70 53 -70 130q0 67 55.5 116.5t145.5 49.5q77 0 139.5 -46t62.5 -120q0 -69 -78 -117zM271 358q50 28 50 65q0 20 -16.5 32t-41.5 12t-41 -12.5t-16 -31.5q0 -34 65 -65z
M246 233q-57 -32 -57 -73q0 -24 21 -38.5t53 -14.5t53.5 14.5t21.5 38.5q0 22 -23 38t-69 35z" />
    <glyph glyph-name="zdotaccent.smcp" horiz-adv-x="511" 
d="M317 713q0 -27 -19 -45.5t-46 -18.5q-26 0 -45 18.5t-19 45.5t19 46.5t45 19.5q27 0 46 -19.5t19 -46.5zM457 0h-416v91l229 369h-224v114h403v-92l-230 -366h251z" />
    <glyph glyph-name="cent.tnum" 
d="M377 -124h-101v115q-82 13 -129.5 69t-47.5 156v91q0 100 47 156t130 69v115h101v-114q47 -4 106 -22l-30 -116q-69 20 -115 20q-48 0 -72 -24.5t-24 -83.5v-91q0 -59 24 -83.5t72 -24.5q46 0 115 20l31 -116q-59 -18 -107 -22v-114z" />
    <glyph glyph-name="six.tnum" 
d="M52 218v216q0 109 66 182t184 73q75 0 169 -30l-31 -117q-75 26 -138 26q-46 0 -76.5 -32.5t-30.5 -84.5v-23q51 40 116 40q99 0 159.5 -64.5t60.5 -177.5q0 -111 -69.5 -175t-170.5 -64q-100 0 -169.5 62.5t-69.5 168.5zM194 320v-103q0 -46 25.5 -77.5t70.5 -31.5
q46 0 71 33.5t25 84.5q0 134 -96 134q-55 0 -96 -40z" />
    <glyph glyph-name="acute.smcp" horiz-adv-x="407" 
d="M333 708l-223 -84l-36 83l221 96z" />
    <glyph glyph-name="eightonum.tnum" 
d="M425 360q111 -66 111 -177q0 -89 -77.5 -142.5t-167.5 -53.5q-94 0 -169 53t-75 144q0 100 108 161q-88 60 -88 156q0 77 61.5 132.5t162.5 55.5q88 0 157 -52.5t69 -135.5t-92 -141zM304 417q68 37 68 86q0 30 -23 47.5t-58 17.5t-57 -17.5t-22 -47.5q0 -27 23 -46.5
t69 -39.5zM275 285q-83 -45 -83 -101q0 -32 29 -54t70 -22t70.5 22.5t29.5 53.5q0 33 -28.5 54.5t-87.5 46.5z" />
    <glyph glyph-name="zero.tnum" 
d="M541 413v-149q0 -136 -70.5 -206.5t-178.5 -70.5q-109 0 -179 70.5t-70 206.5v149q0 136 69.5 206t179.5 70q109 0 179 -70.5t70 -205.5zM399 264v149q0 155 -107 155t-107 -155v-149q0 -156 107 -156t107 156z" />
    <glyph glyph-name="sterling.onum" horiz-adv-x="501" 
d="M466 0h-406v100q65 82 65 133q0 14 -2 40h-65v81h50q-25 98 -25 134q0 95 62.5 148t156.5 53q77 0 169 -40l-40 -110q-65 27 -120 27q-81 0 -81 -87q0 -35 23 -125h158v-81h-143q2 -26 2 -40q0 -32 -18 -65.5t-43 -55.5h257v-112z" />
    <glyph glyph-name="circumflex.smcp" horiz-adv-x="481" 
d="M338 630l-97 61l-98 -61l-53 81l150 85l151 -85z" />
    <glyph glyph-name="adieresis.smcp" horiz-adv-x="556" 
d="M438 713q0 -27 -19 -45.5t-46 -18.5q-26 0 -45 18.5t-19 45.5t19 46.5t45 19.5q27 0 46 -19.5t19 -46.5zM248 713q0 -27 -19 -45.5t-46 -18.5q-26 0 -45.5 18.5t-19.5 45.5t19.5 46.5t45.5 19.5q27 0 46 -19.5t19 -46.5zM22 0l173 574h166l173 -574h-146l-36 132h-149
l-35 -132h-146zM234 246h88l-22 82q-12 45 -22 109q-14 -80 -22 -109z" />
    <glyph glyph-name="Eurosmcp.tnum" horiz-adv-x="511" 
d="M444 123l26 -116q-76 -20 -146 -20q-96 0 -161.5 55.5t-68.5 150.5h-54v64h54v60h-54v64h54q3 94 69 150t161 56q70 0 146 -20l-26 -116q-70 17 -119 17q-38 0 -62 -23.5t-27 -63.5h153l-12 -64h-141v-60h127l-13 -64h-114q3 -40 27 -63.5t62 -23.5q49 0 119 17z" />
    <glyph glyph-name="zeroonum.tnum" 
d="M534 328v-83q0 -121 -68.5 -189.5t-173.5 -68.5q-104 0 -173 68.5t-69 189.5v83q0 121 68.5 189.5t173.5 68.5q104 0 173 -69t69 -189zM389 245v83q0 68 -25.5 102.5t-71.5 34.5q-97 0 -97 -137v-83q0 -137 97 -137q46 0 71.5 34.5t25.5 102.5z" />
    <glyph glyph-name="zerosmcp.tnum" horiz-adv-x="511" 
d="M478 349v-123q0 -117 -63 -178t-160 -61t-159.5 61t-62.5 178v123q0 116 62 177t160 61t160.5 -61t62.5 -177zM336 226v123q0 118 -81 118q-80 0 -80 -118v-123q0 -119 80 -119q81 0 81 119z" />
    <glyph glyph-name="emacron.smcp" horiz-adv-x="482" 
d="M376 668h-254v90h254v-90zM434 0h-369v574h361v-121h-218v-106h182l-5 -115h-177v-111h226v-121z" />
    <glyph glyph-name="eng.smcp" horiz-adv-x="570" 
d="M505 -171l-139 -17v226l-162 254q4 -45 4 -92v-200h-143v574h116l184 -292q-3 50 -3 89v203h143v-745z" />
    <glyph glyph-name="Euro.smcp" horiz-adv-x="494" 
d="M444 123l26 -116q-76 -20 -146 -20q-96 0 -161.5 55.5t-68.5 150.5h-54v64h54v60h-54v64h54q3 94 69 150t161 56q70 0 146 -20l-26 -116q-70 17 -119 17q-38 0 -62 -23.5t-27 -63.5h153l-12 -64h-141v-60h127l-13 -64h-114q3 -40 27 -63.5t62 -23.5q49 0 119 17z" />
    <glyph glyph-name="commaaccent.smcp" horiz-adv-x="231" 
d="M134 -224h-93l26 162h123z" />
    <glyph glyph-name="eth.smcp" horiz-adv-x="571" 
d="M292 0h-227v238h-55v90h55v207q138 52 227 52q97 0 162.5 -59.5t65.5 -162.5v-149q0 -105 -60.5 -160.5t-167.5 -55.5zM377 227v126q0 113 -85 113q-45 0 -84 -13v-125h87v-90h-87v-117h84q47 0 66 23t19 83z" />
    <glyph glyph-name="cacute.smcp" horiz-adv-x="512" 
d="M397 708l-223 -84l-36 83l221 96zM438 131l27 -117q-80 -27 -170 -27q-109 0 -176.5 61.5t-67.5 178.5v120q0 117 67.5 178.5t176.5 61.5q89 0 170 -26l-27 -116q-69 21 -142 21q-51 0 -76.5 -30t-25.5 -101v-95q0 -71 26 -101.5t76 -30.5q79 0 142 23z" />
    <glyph glyph-name="exclamdown.smcp" horiz-adv-x="261" 
d="M210 417q0 -34 -23.5 -56t-55.5 -22q-33 0 -56.5 22.5t-23.5 55.5t23.5 56.5t56.5 23.5q32 0 55.5 -23.5t23.5 -56.5zM201 -81l-141 -17l6 400h129z" />
    <glyph glyph-name="f.smcp" horiz-adv-x="475" 
d="M208 0h-143v574h360v-121h-217v-107h175l-6 -115h-169v-231z" />
    </font>
</defs>
</svg>
