<svg xmlns="http://www.w3.org/2000/svg" width="32" height="29.3335" viewBox="0 0 32 29.3335">
  <title>bell</title>
  <g>
    <path d="M25.0788,15.4665V10.67A7.76,7.76,0,0,0,20.53,3.6213a10.7211,10.7211,0,0,0-1.8634-.6485V2.6666a2.6667,2.6667,0,0,0-5.3333,0v.3526a10.5616,10.5616,0,0,0-1.6779.6069,8.0687,8.0687,0,0,0-4.722,7.04v4.8a11.8329,11.8329,0,0,1-3.576,8.6884.5335.5335,0,0,0,.2854.904l5.0618.8741c.9429.1626,1.8111.296,2.6373.4058a5.2724,5.2724,0,0,0,9.5108-.0016c.8229-.1093,1.6869-.2421,2.6245-.4042l5.0612-.8741a.5334.5334,0,0,0,.2853-.904A11.9256,11.9256,0,0,1,25.0788,15.4665Zm-10.6794-12.8a1.6,1.6,0,0,1,3.2,0v.0971a10.6053,10.6053,0,0,0-3.2.0251Zm1.6976,25.6a4.2743,4.2743,0,0,1-3.4223-1.768,33.0215,33.0215,0,0,0,3.4165.1845,32.8388,32.8388,0,0,0,3.4292-.1861A4.2759,4.2759,0,0,1,16.097,28.2663Zm7.1989-3.385c-1.0235.1765-1.9616.32-2.848.433h-.0037c-.391.05-.7707.0928-1.1424.13l-.0091.0006c-.3408.0341-.6736.0618-1.0032.0853-.0618.0043-.1237.0085-.185.0123-.2854.0186-.5675.0336-.848.0442-.0571.0022-.1147.0054-.1718.007-.6634.0224-1.3178.0224-1.9807,0-.0592-.0021-.119-.0053-.1782-.0075-.2757-.0112-.5536-.025-.8346-.0437-.0667-.0043-.1333-.0085-.2-.0133-.32-.023-.6427-.05-.9728-.0827l-.0363-.0032c-.3691-.0368-.7456-.08-1.1328-.1291H11.744c-.89-.1125-1.8314-.257-2.8591-.4341L4.8,24.1757A12.8363,12.8363,0,0,0,8,15.4665V10.67a6.9826,6.9826,0,0,1,4.1017-6.0751,9.5317,9.5317,0,0,1,1.8651-.6309l.0165-.0016a9.6961,9.6961,0,0,1,4.0426-.0363c.007.0016.0139-.0016.0208-.0005a9.6425,9.6425,0,0,1,2.04.6661,6.77,6.77,0,0,1,3.9258,6.0757v4.8a12.977,12.977,0,0,0,3.3669,8.71Z"/>
    <path d="M19.422,6.0468a8.15,8.15,0,0,0-6.65.0011A5.39,5.39,0,0,0,9.6,10.6633a.5335.5335,0,0,0,.53.5365h.0032a.5331.5331,0,0,0,.5333-.53,4.3022,4.3022,0,0,1,2.552-3.6533,7.06,7.06,0,0,1,5.7594,0,.5333.5333,0,1,0,.4443-.97Z"/>
    <path d="M2.561,10.8228a.5328.5328,0,0,0-.7541,0,6.1829,6.1829,0,0,0,0,8.7359.5333.5333,0,1,0,.7541-.7542,5.1169,5.1169,0,0,1,0-7.2276A.5337.5337,0,0,0,2.561,10.8228Z"/>
    <path d="M4.43,18.5011a.5334.5334,0,0,0,.3771-.91,3.5014,3.5014,0,0,1,0-4.9471.5333.5333,0,0,0-.7542-.7542,4.57,4.57,0,0,0,0,6.4554A.53.53,0,0,0,4.43,18.5011Z"/>
    <path d="M30.1931,10.8228a.5332.5332,0,0,0-.7541.7541,5.1169,5.1169,0,0,1,0,7.2276.5333.5333,0,1,0,.7541.7542,6.1829,6.1829,0,0,0,0-8.7359Z"/>
    <path d="M27.1933,11.8894a.5329.5329,0,0,0,0,.7542,3.5014,3.5014,0,0,1,0,4.9471.5332.5332,0,1,0,.7541.7541,4.57,4.57,0,0,0,0-6.4554A.5328.5328,0,0,0,27.1933,11.8894Z"/>
  </g>
</svg>
