<svg width="20" height="20" viewBox="0 0 20 20" fill="none" xmlns="http://www.w3.org/2000/svg">
<path d="M19.4268 7.44141C19.2753 7.28992 19.0304 7.28992 18.8789 7.44141L8.30377 18.0166C7.52421 18.7961 6.4839 19.2251 5.37345 19.2251C4.26262 19.2251 3.22192 18.7961 2.44275 18.0166C1.66358 17.237 1.23428 16.1967 1.23428 15.0859C1.23428 13.9754 1.66319 12.9347 2.44275 12.1556L13.0175 1.58001C14.14 0.457939 15.9021 0.526519 17.1164 1.74003C18.3303 2.95392 18.3993 4.71645 17.2768 5.8389L7.3425 15.7736C6.78727 16.3288 5.88296 16.3292 5.32657 15.7736C4.77096 15.2176 4.77096 14.3133 5.32657 13.7577L12.0563 7.028C12.2078 6.87651 12.2078 6.63164 12.0563 6.48014C11.9048 6.32865 11.6599 6.32865 11.5084 6.48014L4.77871 13.2094C3.92089 14.0673 3.92089 15.4629 4.77871 16.3211C5.63731 17.1797 7.03331 17.1781 7.89036 16.3211L17.8251 6.38638C19.2598 4.95125 19.1908 2.71796 17.6647 1.19178C16.1389 -0.334017 13.9052 -0.403371 12.4701 1.03176L1.8945 11.6073C0.968487 12.533 0.458984 13.7682 0.458984 15.0859C0.458984 16.4036 0.968487 17.6392 1.8945 18.5648C2.82013 19.4909 4.05533 20.0004 5.37345 20.0004C6.6908 20.0004 7.92639 19.4909 8.85202 18.5648L19.4268 7.98928C19.5783 7.83778 19.5783 7.59252 19.4268 7.44141Z" fill="#3464E0"/>
</svg>
