<svg xmlns="http://www.w3.org/2000/svg" width="18.0267" height="32" viewBox="0 0 18.0267 32">
  <title>key</title>
  <g>
    <path d="M9.0134,0A8.8553,8.8553,0,0,0,0,8.6667a8.6251,8.6251,0,0,0,4.16,7.2959v.704a.6807.6807,0,0,0,.6933.6667h.6935v1.724L4.3625,20.1946a.6492.6492,0,0,0,0,.9427L5.5468,22.276v.7813L4.3625,24.1946a.6492.6492,0,0,0,0,.9427L5.5468,26.276v2.3906a.6586.6586,0,0,0,.2023.472l2.7734,2.6667a.7161.7161,0,0,0,.9817,0l2.7734-2.6667a.6584.6584,0,0,0,.2025-.472V17.3333h.6932a.6807.6807,0,0,0,.6934-.6667v-.704a8.6252,8.6252,0,0,0,4.16-7.296A8.8553,8.8553,0,0,0,9.0134,0Zm3.8118,15.0106a.6651.6651,0,0,0-.3452.5773V16h-.6934a.6807.6807,0,0,0-.6934.6667V28.3905l-2.08,2-2.08-2V26A.6542.6542,0,0,0,6.73,25.528l-.8958-.8615.8972-.8613a.6586.6586,0,0,0,.2025-.4719V22A.6544.6544,0,0,0,6.73,21.528l-.8958-.8615.8972-.8613a.6582.6582,0,0,0,.2025-.4719V16.6666A.6807.6807,0,0,0,6.24,16H5.5468v-.412a.6653.6653,0,0,0-.3454-.5773A7.3117,7.3117,0,0,1,1.3867,8.6667,7.4932,7.4932,0,0,1,9.0134,1.3334,7.4931,7.4931,0,0,1,16.64,8.6667,7.3116,7.3116,0,0,1,12.8252,15.0106Z"/>
    <path d="M9.0116,2.6667A3.4058,3.4058,0,0,0,5.545,6,3.4058,3.4058,0,0,0,9.0116,9.3333,3.4057,3.4057,0,0,0,12.4782,6,3.4057,3.4057,0,0,0,9.0116,2.6667ZM9.0116,8a2.0436,2.0436,0,0,1-2.08-2,2.0816,2.0816,0,0,1,4.16,0A2.0436,2.0436,0,0,1,9.0116,8Z"/>
    <path d="M9.0134,17.3333A.6806.6806,0,0,0,8.32,18v9.3334a.6939.6939,0,0,0,1.3867,0V18A.6806.6806,0,0,0,9.0134,17.3333Z"/>
  </g>
</svg>
