<svg xmlns="http://www.w3.org/2000/svg" width="31.994" height="32" viewBox="0 0 31.994 32">
  <title>link</title>
  <path d="M30.24,2.215l-.4573-.4574a6.0026,6.0026,0,0,0-8.4878,0L17.7662,5.286a5.992,5.992,0,0,0-.252,8.1776l-4.0322,4.07a5.9556,5.9556,0,0,0-8.1993.2369L1.7542,21.2987a6.0089,6.0089,0,0,0,0,8.4863l.4574.4575a6.0027,6.0027,0,0,0,8.4878,0l3.5284-3.5286a5.9943,5.9943,0,0,0,.2008-8.24L18.45,14.4153a5.9632,5.9632,0,0,0,8.262-.1857L30.24,10.7012A6.0086,6.0086,0,0,0,30.24,2.215ZM13.2837,25.77,9.7553,29.2983a4.7791,4.7791,0,0,1-6.6009,0L2.697,28.841a4.6747,4.6747,0,0,1,0-6.6008l3.5285-3.5284a4.6269,4.6269,0,0,1,6.3188-.2321L9.5361,21.5159a.6671.6671,0,0,0,.948.9389L13.49,19.4214A4.661,4.661,0,0,1,13.2837,25.77ZM29.2957,9.7572l-3.5283,3.5285a4.7742,4.7742,0,0,1-6.3774.18l2.9849-3.0127a.6671.6671,0,0,0-.948-.9388l-2.9731,3.0007a4.6593,4.6593,0,0,1,.2553-6.2877L22.2375,2.699a4.6681,4.6681,0,0,1,6.6008,0l.4574.4574A4.6745,4.6745,0,0,1,29.2957,9.7572Z"/>
</svg>
