<svg xmlns="http://www.w3.org/2000/svg" width="32" height="30.7696" viewBox="0 0 32 30.7696">
  <title>logout</title>
  <g>
    <path d="M21.5655,12.04a.6831.6831,0,0,0,.6958-.6689V3.3445A3.4175,3.4175,0,0,0,18.7829,0H3.4783A3.4172,3.4172,0,0,0,0,3.3445V27.4252A3.4172,3.4172,0,0,0,3.4783,30.77H18.7829a3.4171,3.4171,0,0,0,3.4782-3.3444v-8.027a.6961.6961,0,0,0-1.3912,0v8.027a2.0505,2.0505,0,0,1-2.087,2.0066H3.4783a2.05,2.05,0,0,1-2.087-2.0066V3.3445a2.05,2.05,0,0,1,2.087-2.0067H18.7829A2.0505,2.0505,0,0,1,20.87,3.3445v8.0269A.6829.6829,0,0,0,21.5655,12.04Z"/>
    <path d="M31.946,15.6415a.6391.6391,0,0,0,.0361-.1712A.6137.6137,0,0,0,32,15.3849a.6251.6251,0,0,0-.0388-.1846.591.591,0,0,0-.0139-.0663.6651.6651,0,0,0-.16-.2278l-4.1659-4.0057a.716.716,0,0,0-.9837,0,.6513.6513,0,0,0,0,.9458l2.9843,2.87H9.0432a.6695.6695,0,1,0,0,1.3379H29.6249l-2.9871,2.8723a.6513.6513,0,0,0,0,.9458.7189.7189,0,0,0,.9837.0014l4.174-4.0135a.6251.6251,0,0,0,.0439-.0636A.6593.6593,0,0,0,31.946,15.6415Z"/>
  </g>
</svg>
