<svg xmlns="http://www.w3.org/2000/svg" width="29.0909" height="32" viewBox="0 0 29.0909 32">
  <title>network</title>
  <path d="M29.0059,4.9513C28.3323,2.4553,23.3175,0,14.5455,0S.7581,2.4553.0849,4.9513A.5706.5706,0,0,0,0,5.2364V26.7636a.5464.5464,0,0,0,.0681.2624C.7552,29.874,6.9027,32,14.5455,32c7.6252,0,13.7628-2.1172,14.4727-4.9548a.5751.5751,0,0,0,.0727-.2816V5.2364A.57.57,0,0,0,29.0059,4.9513ZM27.8813,19.7731a1.4227,1.4227,0,0,1-.0675.2112,1.6606,1.6606,0,0,1-.0832.1728,1.9821,1.9821,0,0,1-.1344.2147c-.0383.0541-.082.1076-.1274.1612-.0646.0762-.1333.1524-.2112.228-.0471.046-.099.0914-.1513.1373-.0954.0832-.1949.1659-.3061.2479-.0476.0355-.0988.07-.1495.1047-.1314.0908-.2688.1809-.4194.2694-.04.0239-.0821.0465-.1234.07-.1733.0977-.3543.1949-.55.2892-.0251.0122-.0512.0238-.0768.0355-.2182.103-.4462.2042-.69.3019l-.021.0082a22.555,22.555,0,0,1-4.9809,1.2625l-.03.0041q-.5742.0846-1.1787.1507c-.0658.007-.1351.0116-.2014.0186-.352.0366-.7081.07-1.0746.0972-.1675.0122-.3432.018-.5137.0285-.2759.0163-.5487.0343-.8314.0442-.4621.0145-.9333.0239-1.4144.0239s-.9525-.0094-1.415-.0256c-.2828-.01-.5557-.0286-.8314-.0443-.17-.01-.3462-.0163-.5138-.0285-.3666-.0268-.7227-.0605-1.0747-.0972-.0663-.0069-.1355-.0116-.2012-.0186q-.6048-.0663-1.1788-.1506l-.03-.0041A22.5541,22.5541,0,0,1,4.32,22.2231l-.0209-.0081c-.2438-.0978-.4725-.199-.69-.302-.025-.0122-.0518-.0238-.0768-.0355-.1955-.0942-.3764-.1908-.55-.2891-.0407-.0233-.0838-.046-.1234-.07-.1506-.0885-.288-.1787-.4194-.2694-.05-.035-.1019-.0693-.15-.1048-.1111-.082-.2106-.1646-.306-.2478-.0518-.0454-.1042-.0908-.1513-.1373a3.0667,3.0667,0,0,1-.2112-.2281c-.0454-.0535-.089-.107-.1274-.1612a2.1751,2.1751,0,0,1-.1344-.2146,1.8154,1.8154,0,0,1-.0832-.1728,1.4121,1.4121,0,0,1-.0675-.2112,1.2616,1.2616,0,0,1-.0454-.28,1.24,1.24,0,0,1,.0181-.1967.5793.5793,0,0,0-.0181-.2588V14.7159c.0163.0151.0367.03.0536.0448.1268.1117.256.2229.4014.33,2.1917,1.6576,6.5745,2.9458,12.9269,2.9458,6.3255,0,10.6972-1.2777,12.8983-2.9254a5.9148,5.9148,0,0,0,.4828-.3945l.0007-.0006v4.32a.5779.5779,0,0,0-.0181.2588,1.1845,1.1845,0,0,1,.0181.1967A1.2588,1.2588,0,0,1,27.8813,19.7731Zm.046-12.039v4.3194a.5783.5783,0,0,0-.0181.2589,1.1845,1.1845,0,0,1,.0181.1967,1.2588,1.2588,0,0,1-.046.2822,1.4227,1.4227,0,0,1-.0675.2112,1.6606,1.6606,0,0,1-.0832.1728,1.9821,1.9821,0,0,1-.1344.2147c-.0383.0541-.082.1076-.1274.1611-.0646.0763-.1333.1525-.2112.2281-.0471.046-.099.0914-.1513.1373-.0954.0832-.1949.1658-.3061.2479-.0476.0354-.0988.07-.1495.1047-.1314.0907-.2688.1809-.4194.2694-.04.0238-.0821.0465-.1234.07-.1733.0977-.3543.1949-.55.2891-.0251.0123-.0512.0239-.0768.0356-.2182.1029-.4462.2042-.69.3019l-.021.0081a22.549,22.549,0,0,1-4.9809,1.2626l-.03.0041q-.5742.0846-1.1787.1507c-.0658.007-.1351.0116-.2014.0186-.352.0366-.7081.07-1.0746.0972-.1675.0122-.3432.018-.5137.0284-.2759.0164-.5487.0344-.8314.0443-.4621.0145-.9333.0238-1.4144.0238s-.9525-.0093-1.415-.0256c-.2828-.01-.5557-.0285-.8314-.0442-.17-.01-.3462-.0163-.5138-.0285-.3666-.0268-.7227-.0605-1.0747-.0972-.0663-.007-.1355-.0116-.2012-.0186q-.6048-.0663-1.1788-.1507l-.03-.0041A22.549,22.549,0,0,1,4.32,15.2413l-.0209-.0081c-.2438-.0978-.4725-.199-.69-.302-.025-.0122-.0518-.0238-.0768-.0355-.1955-.0943-.3764-.1908-.55-.2891-.0407-.0233-.0838-.046-.1234-.07-.1506-.0884-.288-.1786-.4194-.2693-.05-.035-.1019-.0693-.15-.1048-.1111-.082-.2106-.1646-.306-.2478-.0518-.0454-.1042-.0908-.1513-.1374a3.0461,3.0461,0,0,1-.2112-.228c-.0454-.0536-.089-.1071-.1274-.1612a2.1762,2.1762,0,0,1-.1344-.2147,1.8154,1.8154,0,0,1-.0832-.1728A1.4121,1.4121,0,0,1,1.209,12.79a1.26,1.26,0,0,1-.0454-.28,1.24,1.24,0,0,1,.0181-.1967.58.58,0,0,0-.0181-.2589V7.7341c.07.0634.15.1257.2252.1885.0419.0349.0809.07.1251.1047.1745.1374.363.2729.5673.405.0424.0273.09.0541.1344.0814q.2565.16.5422.3131c.07.0378.1408.075.2135.1122q.3186.1624.67.3154c.0384.0169.0733.0343.1123.0506.2729.1158.5626.2264.864.3334.0832.03.17.0576.256.0867q.36.1213.7441.2333c.0926.0268.1833.0547.2782.08.34.0943.6917.1839,1.0606.2665.0506.0116.1053.0209.1565.032.3252.071.6627.1367,1.0095.1984.1175.0209.2368.0407.3566.06q.4948.0812,1.0182.1489c.09.0116.1752.025.2659.0361.4329.0523.8809.0971,1.3411.1355.1135.0094.2315.0164.3467.0245q.5526.04,1.13.0663c.14.0064.28.0128.4229.018.5015.0169,1.0124.0292,1.5419.0292s1.04-.0123,1.5418-.0292c.1425-.0052.2822-.0116.423-.018q.5776-.0261,1.13-.0663c.1152-.0087.2327-.0151.3467-.0245.46-.0378.9082-.0832,1.3411-.1355.0907-.0111.1762-.0245.2658-.0361q.5229-.0681,1.0183-.1489c.12-.02.2391-.04.3566-.06.3467-.0617.6843-.1274,1.01-.1984.0512-.0111.1059-.021.1564-.032.3689-.0826.72-.1728,1.0608-.2665.0948-.0262.1856-.0535.2781-.08q.3847-.1125.7441-.2333c.0855-.0291.1728-.057.256-.0867.3014-.107.5917-.2176.864-.3334.039-.0163.0738-.0337.1122-.0506q.3517-.1536.67-.3154c.0727-.0372.1438-.0744.2135-.1122q.2856-.1529.5424-.3131c.0441-.0273.0919-.0541.1344-.0814q.3062-.1982.5672-.405c.0437-.0349.0826-.07.1251-.1047C27.7778,7.86,27.8575,7.7975,27.9273,7.7341Zm-13.3818-6.57c7.8865,0,13.3818,2.2994,13.3818,4.3637S22.432,9.8909,14.5455,9.8909,1.1636,7.5916,1.1636,5.5273,6.6589,1.1636,14.5455,1.1636ZM27.9273,26.5908a.5761.5761,0,0,0-.0186.0786c-.33,2.0125-5.7787,4.167-13.3632,4.167S1.5121,28.6819,1.1823,26.6694a.6328.6328,0,0,0-.0187-.0762V21.6978c.0163.0151.0367.03.0536.0448.1268.1116.256.2228.4014.33C3.81,23.73,8.1931,25.0182,14.5455,25.0182c6.3255,0,10.6972-1.2777,12.8983-2.9254a5.9148,5.9148,0,0,0,.4828-.3945l.0007,0Z"/>
</svg>
