<svg xmlns="http://www.w3.org/2000/svg" width="24.5024" height="31.5" viewBox="0 0 24.5024 31.5">
  <title>science</title>
  <path d="M24.0278,27.6377,16.1421,13.98V4.0166h.1757a2.0936,2.0936,0,0,0,2.209-2.0083A2.1387,2.1387,0,0,0,16.2387,0H8.2729A2.1381,2.1381,0,0,0,5.9858,2.0083,2.0708,2.0708,0,0,0,8.1543,4.0166h.1933V13.98L3.2822,22.7656a.5843.5843,0,0,0-.0772.13l-2.73,4.7354a2.66,2.66,0,0,0-.1924,2.6914A2.6057,2.6057,0,0,0,2.65,31.5H21.8618a2.5637,2.5637,0,0,0,2.3594-1.1729A2.66,2.66,0,0,0,24.0278,27.6377ZM9.6655,14.5225l.0005-.002a.7138.7138,0,0,0,.0932-.352V3.3218a.7067.7067,0,0,0-.2036-.502.7139.7139,0,0,0-.5019-.2148H8.1543a.6838.6838,0,0,1-.7569-.5967c0-.3232.4009-.5967.8755-.5967h7.9658c.4746,0,.876.2735.876.5967,0,.3345-.35.5967-.7969.5967h-.8867a.7153.7153,0,0,0-.7012.7158V14.1685a.7193.7193,0,0,0,.0948.354l1.2793,2.2148H8.3881ZM4.6035,25.541a.6989.6989,0,0,0-.5-.207H3.4126L4.2558,23.88H5.7319a.7037.7037,0,0,0,.7061-.7051.7065.7065,0,0,0-.2071-.501.7156.7156,0,0,0-.499-.205h-.66l.8433-1.4542h1.51a.696.696,0,0,0,.498-.206.7059.7059,0,0,0-.498-1.2061H6.73l.8433-1.4531h9.3447l5.8887,10.1934a1.3532,1.3532,0,0,1,.19,1.2812,1.256,1.256,0,0,1-1.1357.4639H2.65a1.2638,1.2638,0,0,1-1.1436-.4756,1.3542,1.3542,0,0,1,.189-1.2871l.9023-1.5791H4.104a.7061.7061,0,0,0,.5-1.2051Z"/>
</svg>
