<svg xmlns="http://www.w3.org/2000/svg" width="25.3356" height="32" viewBox="0 0 25.3356 32">
  <title>sheild</title>
  <g>
    <path d="M25.292,1.9707a.7018.7018,0,0,0-1.1093-.2187A7.3228,7.3228,0,0,1,19.336,3.58,7.3144,7.3144,0,0,1,13.2253.2987.6664.6664,0,0,0,12.1147.2973,7.3262,7.3262,0,0,1,6,3.5786,7.3144,7.3144,0,0,1,1.112,1.7119.667.667,0,0,0,0,2.2079V16.6653c0,8.3253,11.84,14.9719,12.344,15.2506A.66.66,0,0,0,12.6667,32a.6867.6867,0,0,0,.3227-.0815c.504-.2786,12.344-6.9266,12.344-15.2506v-14.4A.6886.6886,0,0,0,25.292,1.9707ZM24,16.6667c0,6.8227-9.452,12.7785-11.3333,13.8959C10.784,29.4452,1.3334,23.496,1.3334,16.6667V3.5507A8.6574,8.6574,0,0,0,6,4.9134a8.6454,8.6454,0,0,0,6.6666-3.1307,8.6509,8.6509,0,0,0,6.6694,3.1307A8.6584,8.6584,0,0,0,24,3.5521V16.6667Z"/>
    <path d="M17.1414,12.196a.6672.6672,0,0,0-.9427,0l-4.8653,4.8613-2.192-2.1947a.6666.6666,0,0,0-.9427.9427L10.86,18.472a.6679.6679,0,0,0,.9427,0l5.3387-5.3333A.6672.6672,0,0,0,17.1414,12.196Z"/>
  </g>
</svg>
