<?xml version="1.0" standalone="no"?>
<!DOCTYPE svg PUBLIC "-//W3C//DTD SVG 1.1//EN" "http://www.w3.org/Graphics/SVG/1.1/DTD/svg11.dtd" >
<svg xmlns="http://www.w3.org/2000/svg" xmlns:xlink="http://www.w3.org/1999/xlink" version="1.1">
<metadata>
Created by FontForge 20190801 at Tue Jul 13 14:39:15 2010
 By Jimmy Wärting
Copyright (c) 2009 by DA. All rights reserved.
</metadata>
<defs>
<font id="Russia-Light" horiz-adv-x="571" >
  <font-face 
    font-family="Russia"
    font-weight="300"
    font-stretch="normal"
    units-per-em="1000"
    panose-1="2 11 3 3 4 0 0 2 0 4"
    ascent="760"
    descent="-240"
    x-height="511"
    cap-height="676"
    bbox="-37 -224 1163 910"
    underline-thickness="20"
    underline-position="-133"
    stemh="61"
    stemv="66"
    unicode-range="U+0020-FB04"
  />
<missing-glyph horiz-adv-x="500" 
d="M38 0v764h418v-764h-418zM104 63h286v638h-286v-638z" />
    <glyph glyph-name="f_f" unicode="ff" horiz-adv-x="617" 
d="M472 0h-66v459h-242v-459h-66v459h-69v52h69v90c0 96 73 144 151 144c24 0 46 -3 65 -9l-12 -59c-15 4 -36 7 -52 7c-44 0 -86 -25 -86 -83v-90h242v90c0 96 73 144 151 144c24 0 46 -3 65 -9l-12 -59c-15 4 -36 7 -52 7c-44 0 -86 -25 -86 -83v-90h137l-20 -52h-117
v-459z" />
    <glyph glyph-name="fi" unicode="fi" horiz-adv-x="545" 
d="M98 0v459h-69v52h69v85c0 96 73 149 151 149c24 0 46 -3 65 -9l-12 -59c-15 4 -36 7 -52 7c-44 0 -86 -30 -86 -88v-85h137l-20 -52h-117v-459h-66zM427 608c-26 0 -47 21 -47 46s21 45 47 45c25 0 47 -20 47 -45s-22 -46 -47 -46zM394 0v511h66v-511h-66z" />
    <glyph glyph-name="fl" unicode="fl" horiz-adv-x="545" 
d="M394 0v725l66 20v-745h-66zM98 0v459h-69v52h69v85c0 96 73 149 151 149c24 0 46 -3 65 -9l-12 -59c-15 4 -36 7 -52 7c-44 0 -86 -30 -86 -88v-85h137l-20 -52h-117v-459h-66z" />
    <glyph glyph-name="f_f_i" unicode="ffi" horiz-adv-x="853" 
d="M472 0h-66v459h-242v-459h-66v459h-69v52h69v90c0 96 73 144 151 144c24 0 46 -3 65 -9l-12 -59c-15 4 -36 7 -52 7c-44 0 -86 -25 -86 -83v-90h242v90c0 96 73 144 151 144c24 0 46 -3 65 -9l-12 -59c-15 4 -36 7 -52 7c-44 0 -86 -25 -86 -83v-90h137l-20 -52h-117
v-459zM781 654c0 -25 -22 -46 -47 -46c-26 0 -47 21 -47 46s21 45 47 45c25 0 47 -20 47 -45zM768 0h-66v511h66v-511z" />
    <glyph glyph-name="f_f_l" unicode="ffl" horiz-adv-x="853" 
d="M768 0h-66v725l66 20v-745zM472 0h-66v459h-242v-459h-66v459h-69v52h69v85c0 96 73 149 151 149c24 0 46 -3 65 -9l-12 -59c-15 4 -36 7 -52 7c-44 0 -86 -30 -86 -88v-85h242v90c0 96 73 144 151 144c24 0 46 -3 65 -9l-12 -59c-15 4 -36 7 -52 7
c-44 0 -86 -25 -86 -83v-90h137l-20 -52h-117v-459z" />
    <glyph glyph-name="f_y" unicode="fy" horiz-adv-x="787" 
d="M389 176l-39 283h-186v-459h-66v459h-69v52h69v90c0 96 73 144 151 144c24 0 46 -3 65 -9l-12 -59c-15 4 -36 7 -52 7c-44 0 -86 -25 -86 -83v-90h246l45 -326c10 -74 39 -123 111 -123h64l56 449h66l-91 -722h-66l27 211h-57c-108 0 -161 66 -176 176z" />
    <glyph glyph-name="t_y" unicode="ty" horiz-adv-x="772" 
d="M374 176l-39 283h-169v-459h-66v459h-66l-22 52h88v150l66 19v-169h229l45 -326c10 -74 39 -123 111 -123h64l56 449h66l-91 -722h-66l27 211h-57c-108 0 -161 66 -176 176z" />
    <glyph glyph-name="f_t" unicode="ft" horiz-adv-x="602" 
d="M475 0h-66v459h-245v-459h-66v459h-69v52h69v90c0 96 73 144 151 144c24 0 46 -3 65 -9l-12 -59c-15 4 -36 7 -52 7c-44 0 -86 -25 -86 -83v-90h245v150l66 19v-169h109v-52h-109v-459z" />
    <glyph glyph-name="t_t" unicode="tt" horiz-adv-x="587" 
d="M460 0h-66v459h-228v-459h-66v459h-66l-22 52h88v150l66 19v-169h228v150l66 19v-169h109v-52h-109v-459z" />
    <glyph glyph-name=".notdef" horiz-adv-x="500" 
d="M38 0v764h418v-764h-418zM104 63h286v638h-286v-638z" />
    <glyph glyph-name="space" unicode=" " horiz-adv-x="250" 
 />
    <glyph glyph-name="exclam" unicode="!" horiz-adv-x="242" 
d="M152 215h-60l-8 450l77 20zM122 -8c-26 0 -47 21 -47 46c0 26 21 45 47 45c24 0 45 -19 45 -45c0 -25 -21 -46 -45 -46z" />
    <glyph glyph-name="quotedbl" unicode="&#x22;" horiz-adv-x="341" 
d="M256 517h-46l-9 215h65zM131 517h-47l-9 215h65z" />
    <glyph glyph-name="numbersign" unicode="#" horiz-adv-x="544" 
d="M382 0h-61l20 204h-166l-20 -204h-61l20 204h-71v61h77l17 179h-70v61h76l20 204h61l-20 -204h166l20 204h61l-20 -204h70v-61h-76l-17 -179h70v-61h-76zM347 265l17 179h-166l-17 -179h166z" />
    <glyph glyph-name="dollar" unicode="$" horiz-adv-x="498" 
d="M276 -124h-63v112c-67 3 -124 18 -167 33l12 62c51 -17 114 -33 177 -33c71 0 138 40 138 121c0 184 -315 102 -315 327c0 93 67 157 167 169v113h63v-112c46 -3 91 -14 138 -31l-17 -60c-50 16 -99 29 -150 29c-80 0 -131 -37 -131 -106c0 -171 315 -91 315 -327
c0 -107 -73 -169 -167 -183v-114z" />
    <glyph glyph-name="percent" unicode="%" horiz-adv-x="867" 
d="M368 537v-69c0 -95 -65 -152 -149 -152c-85 0 -148 57 -148 152v69c0 94 63 152 148 152c84 0 149 -58 149 -152zM300 0h-65l323 676h65zM309 470v65c0 71 -37 100 -90 100s-90 -29 -90 -100v-65c0 -71 37 -101 90 -101s90 30 90 101zM796 208v-68
c0 -95 -65 -153 -149 -153c-85 0 -148 58 -148 153v68c0 95 63 153 148 153c84 0 149 -58 149 -153zM737 142v64c0 72 -37 101 -90 101s-90 -29 -90 -101v-64c0 -72 37 -101 90 -101s90 29 90 101z" />
    <glyph glyph-name="ampersand" unicode="&#x26;" horiz-adv-x="579" 
d="M412 180v206h127v-63h-62v-143c0 -107 -74 -193 -205 -193c-132 0 -207 86 -207 193c0 71 35 138 99 174c-58 32 -91 90 -91 155c0 102 77 180 203 180c46 0 90 -8 137 -25l-20 -59c-38 14 -76 22 -115 22c-86 0 -135 -48 -135 -118c0 -74 45 -123 131 -123h47v-63h-51
c-86 0 -135 -64 -135 -143c0 -78 52 -130 138 -130c85 0 139 52 139 130z" />
    <glyph glyph-name="quotesingle" unicode="'" horiz-adv-x="216" 
d="M131 517h-47l-9 215h66z" />
    <glyph glyph-name="parenleft" unicode="(" horiz-adv-x="315" 
d="M295 -150v-61c-118 0 -204 58 -204 189v615c0 131 86 190 204 190v-62c-78 0 -139 -27 -139 -131v-609c0 -103 60 -131 139 -131z" />
    <glyph glyph-name="parenright" unicode=")" horiz-adv-x="314" 
d="M20 -211v61c78 0 138 28 138 131v609c0 104 -61 131 -138 131v62c117 0 203 -59 203 -190v-615c0 -131 -86 -189 -203 -189z" />
    <glyph glyph-name="asterisk" unicode="*" horiz-adv-x="484" 
d="M381 442l-116 73l6 -138h-57l5 138l-115 -73l-29 49l122 63l-122 65l29 48l115 -73l-5 138h57l-6 -138l116 73l28 -48l-122 -65l122 -63z" />
    <glyph glyph-name="plus" unicode="+" horiz-adv-x="562" 
d="M487 248h-176v-175h-60v175h-176v61h176v175h60v-175h176v-61z" />
    <glyph glyph-name="comma" unicode="," horiz-adv-x="248" 
d="M106 -152l-49 9l41 218h73z" />
    <glyph glyph-name="hyphen" unicode="-" horiz-adv-x="485" 
d="M395 248h-305v61h305v-61z" />
    <glyph glyph-name="period" unicode="." horiz-adv-x="242" 
d="M121 -11c-25 0 -46 21 -46 46c0 26 21 45 46 45s46 -19 46 -45c0 -25 -21 -46 -46 -46z" />
    <glyph glyph-name="slash" unicode="/" horiz-adv-x="365" 
d="M119 -63h-61l188 795h61z" />
    <glyph glyph-name="zero" unicode="0" horiz-adv-x="579" 
d="M514 420v-163c0 -190 -102 -270 -224 -270c-123 0 -225 80 -225 270v163c0 190 101 269 225 269c123 0 224 -79 224 -269zM448 257v163c0 150 -66 208 -158 208s-159 -58 -159 -208v-163c0 -150 66 -209 159 -209s158 59 158 209z" />
    <glyph glyph-name="one" unicode="1" horiz-adv-x="374" 
d="M279 0h-66v613l-162 -32v63l228 42v-686z" />
    <glyph glyph-name="two" unicode="2" horiz-adv-x="527" 
d="M449 0h-388v56c0 269 321 280 321 442c0 67 -43 130 -133 130c-67 0 -112 -19 -154 -39l-24 56c46 22 91 44 178 44c118 0 201 -72 201 -188c0 -199 -323 -215 -323 -440h322v-61z" />
    <glyph glyph-name="three" unicode="3" horiz-adv-x="495" 
d="M42 14l19 59c46 -16 92 -25 139 -25c95 0 171 55 171 154c0 78 -47 139 -162 139h-67l-12 60l194 215h-268l-8 60h349l11 -60l-198 -215c129 0 229 -68 229 -199c0 -134 -109 -215 -239 -215c-54 0 -105 9 -158 27z" />
    <glyph glyph-name="four" unicode="4" horiz-adv-x="544" 
d="M395 1l-66 -10v169h-268l-10 60l141 456h65l-135 -454h207v225l66 10v-235h98v-62h-98v-159z" />
    <glyph glyph-name="five" unicode="5" horiz-adv-x="502" 
d="M38 16l12 58c54 -17 107 -26 160 -26c72 0 166 45 166 163c0 84 -36 144 -169 144h-133l12 321h337l-20 -60h-254l-7 -201h76c145 0 226 -69 226 -202c0 -152 -121 -226 -234 -226c-58 0 -115 9 -172 29z" />
    <glyph glyph-name="six" unicode="6" horiz-adv-x="545" 
d="M65 206v237c0 135 75 246 224 246c49 0 95 -9 143 -23l-14 -61c-42 13 -85 23 -129 23c-109 0 -158 -84 -158 -185v-41c49 27 97 40 148 40c116 0 213 -79 213 -227c0 -150 -98 -228 -214 -228c-117 0 -213 78 -213 219zM131 342v-137c0 -83 49 -157 146 -157
s147 76 147 167c0 97 -54 167 -147 167c-50 0 -98 -13 -146 -40z" />
    <glyph glyph-name="seven" unicode="7" horiz-adv-x="475" 
d="M245 0h-69c0 303 90 478 200 616h-347l-4 60h425v-58c-121 -155 -205 -286 -205 -618z" />
    <glyph glyph-name="eight" unicode="8" horiz-adv-x="559" 
d="M352 357c78 -36 148 -84 148 -189c0 -112 -99 -181 -221 -181c-114 0 -220 67 -220 180c0 100 71 148 149 185c-69 35 -128 82 -128 170c0 91 73 167 199 167c117 0 202 -70 202 -167c0 -86 -59 -130 -129 -165zM285 386c70 31 128 66 128 136c0 66 -55 106 -134 106
c-78 0 -131 -40 -131 -106c0 -73 64 -105 137 -136zM274 321c-78 -35 -147 -72 -147 -153c0 -74 67 -120 152 -120c81 0 153 43 153 120c0 81 -77 117 -158 153z" />
    <glyph glyph-name="nine" unicode="9" horiz-adv-x="537" 
d="M406 233v41c-49 -27 -97 -40 -148 -40c-117 0 -213 79 -213 227c0 150 97 228 214 228c116 0 213 -78 213 -219v-237c0 -135 -76 -246 -224 -246c-49 0 -95 9 -143 23l13 61c43 -13 86 -23 130 -23c109 0 158 84 158 185zM406 334v137c0 83 -49 157 -146 157
s-147 -76 -147 -167c0 -97 54 -167 147 -167c50 0 98 13 146 40z" />
    <glyph glyph-name="colon" unicode=":" horiz-adv-x="242" 
d="M121 332c-25 0 -46 21 -46 46s21 45 46 45s46 -20 46 -45s-21 -46 -46 -46zM121 -11c-25 0 -46 21 -46 46c0 26 21 45 46 45s46 -19 46 -45c0 -25 -21 -46 -46 -46z" />
    <glyph glyph-name="semicolon" unicode=";" horiz-adv-x="257" 
d="M134 332c-25 0 -46 21 -46 46s21 45 46 45s46 -20 46 -45s-21 -46 -46 -46zM106 -152l-49 9l41 218h73z" />
    <glyph glyph-name="less" unicode="&#x3c;" horiz-adv-x="501" 
d="M388 21l-313 258l313 258l38 -47l-254 -211l254 -210z" />
    <glyph glyph-name="equal" unicode="=" horiz-adv-x="560" 
d="M485 354h-410v60h410v-60zM485 145h-410v60h410v-60z" />
    <glyph glyph-name="greater" unicode="&#x3e;" horiz-adv-x="501" 
d="M426 279l-313 -258l-38 48l254 210l-254 211l38 47z" />
    <glyph glyph-name="question" unicode="?" horiz-adv-x="444" 
d="M247 165l-65 20v68c0 118 131 178 131 274c0 61 -38 99 -106 99c-37 0 -83 -18 -119 -42l-30 55c42 27 93 50 149 50c88 0 172 -50 172 -162c0 -117 -132 -172 -132 -272v-90zM215 -11c-26 0 -47 21 -47 46c0 26 21 45 47 45c24 0 45 -19 45 -45c0 -25 -21 -46 -45 -46z
" />
    <glyph glyph-name="at" unicode="@" horiz-adv-x="878" 
d="M624 -41l26 -45c-66 -47 -133 -80 -246 -80c-210 0 -331 153 -331 349c0 241 158 445 407 445c202 0 331 -159 331 -359c0 -16 -2 -36 -5 -52h-216l-10 -81c-9 -75 -80 -136 -170 -136c-83 0 -141 54 -141 122c0 94 72 146 170 146h100l4 30c7 57 -19 108 -86 108
c-35 0 -77 -8 -113 -18l-6 49c40 12 84 21 126 21c100 0 148 -65 136 -160l-4 -30h157c0 162 -105 309 -277 309c-225 0 -349 -202 -349 -391c0 -166 103 -301 282 -301c75 0 161 32 215 74zM523 136l10 81h-100c-59 0 -106 -26 -106 -88c0 -43 34 -77 89 -77
c57 0 101 38 107 84z" />
    <glyph glyph-name="A" unicode="A" horiz-adv-x="590" 
d="M35 0l221 676h78l221 -676h-70l-62 192h-257l-61 -192h-70zM185 252h219l-79 249c-9 27 -20 68 -30 104c-9 -36 -21 -76 -30 -104z" />
    <glyph glyph-name="B" unicode="B" horiz-adv-x="562" 
d="M283 0h-193v676h199c129 0 203 -74 203 -172c0 -62 -33 -116 -90 -148c86 -33 115 -105 115 -166c0 -83 -61 -190 -234 -190zM158 378h122c88 0 142 45 142 118s-47 117 -135 117h-129v-235zM158 63h124c111 0 165 51 165 127c0 75 -46 127 -157 127h-132v-254z" />
    <glyph glyph-name="C" unicode="C" horiz-adv-x="560" 
d="M502 79l13 -62c-65 -19 -117 -30 -191 -30c-146 0 -254 87 -254 268v166c0 181 108 268 254 268c72 0 124 -12 191 -32l-13 -61c-48 14 -105 30 -177 30c-110 0 -187 -66 -187 -208v-161c0 -146 77 -207 187 -207c72 0 129 15 177 29z" />
    <glyph glyph-name="D" unicode="D" horiz-adv-x="621" 
d="M321 0h-231v638c58 21 145 51 231 51c125 0 230 -86 230 -243v-209c0 -157 -83 -237 -230 -237zM483 240v202c0 119 -67 184 -163 184c-57 0 -124 -18 -162 -31v-532h163c107 0 162 53 162 177z" />
    <glyph glyph-name="E" unicode="E" horiz-adv-x="522" 
d="M90 0v676h353v-63h-285v-242h244l-6 -61h-238v-247h294v-63h-362z" />
    <glyph glyph-name="F" unicode="F" horiz-adv-x="502" 
d="M90 0v676h352v-63h-284v-242h236l-7 -61h-229v-310h-68z" />
    <glyph glyph-name="G" unicode="G" horiz-adv-x="602" 
d="M70 255v166c0 181 108 268 254 268c72 0 122 -12 188 -31l-15 -61c-47 15 -103 29 -172 29c-110 0 -187 -66 -187 -207v-162c0 -141 77 -207 187 -207c55 0 95 10 136 20v227h-76v59h142v-333c-59 -20 -129 -36 -203 -36c-146 0 -254 87 -254 268z" />
    <glyph glyph-name="H" unicode="H" horiz-adv-x="631" 
d="M90 0v676h68v-300h315v300h68v-676h-68v313h-315v-313h-68z" />
    <glyph glyph-name="I" unicode="I" horiz-adv-x="248" 
d="M90 0v676h68v-676h-68z" />
    <glyph glyph-name="J" unicode="J" horiz-adv-x="472" 
d="M35 16l15 60c37 -13 89 -26 137 -26c97 0 137 72 137 165v461l68 -7v-457c0 -140 -78 -225 -202 -225c-52 0 -104 10 -155 29z" />
    <glyph glyph-name="K" unicode="K" horiz-adv-x="579" 
d="M90 0v676h68v-379l276 379h75l-218 -306l253 -370h-79l-215 313l-92 -130v-183h-68z" />
    <glyph glyph-name="L" unicode="L" horiz-adv-x="503" 
d="M90 0v676h68v-613h300l-7 -63h-361z" />
    <glyph glyph-name="M" unicode="M" horiz-adv-x="809" 
d="M55 0l84 676h83l154 -395c9 -23 20 -57 28 -87c9 30 19 63 29 87l154 395h83l84 -676h-67l-64 511c-3 22 -6 54 -7 84c-10 -30 -20 -61 -29 -84l-143 -376h-79l-143 376c-9 22 -20 52 -30 81c-2 -29 -3 -59 -6 -81l-64 -511h-67z" />
    <glyph glyph-name="N" unicode="N" horiz-adv-x="624" 
d="M90 0v676h53l325 -546c-2 35 -2 69 -2 95v451h68v-676h-58l-322 537c3 -35 4 -71 4 -96v-441h-68z" />
    <glyph glyph-name="O" unicode="O" horiz-adv-x="625" 
d="M70 255v164c0 181 109 270 243 270c133 0 242 -89 242 -270v-164c0 -181 -109 -268 -242 -268c-134 0 -243 87 -243 268zM138 258c0 -141 74 -208 175 -208s174 67 174 208v158c0 143 -73 210 -174 210s-175 -67 -175 -210v-158z" />
    <glyph glyph-name="P" unicode="P" horiz-adv-x="547" 
d="M90 0v676h217c117 0 195 -90 195 -200c0 -108 -78 -200 -195 -200h-149v-276h-68zM158 339h149c81 0 125 58 125 137c0 80 -44 137 -125 137h-149v-274z" />
    <glyph glyph-name="Q" unicode="Q" horiz-adv-x="626" 
d="M70 255v164c0 181 109 270 243 270c133 0 243 -89 243 -270v-164c0 -138 -64 -221 -153 -253l48 -125l-58 -41l-57 152c-8 0 -16 -1 -23 -1c-134 0 -243 87 -243 268zM138 258c0 -141 74 -208 175 -208s175 67 175 208v158c0 143 -74 210 -175 210s-175 -67 -175 -210
v-158z" />
    <glyph glyph-name="R" unicode="R" horiz-adv-x="552" 
d="M90 0v676h218c117 0 194 -90 194 -200c0 -90 -54 -166 -139 -188l136 -288h-76l-129 281h-136v-281h-68zM158 339h150c80 0 125 58 125 137c0 80 -45 137 -125 137h-150v-274z" />
    <glyph glyph-name="S" unicode="S" horiz-adv-x="497" 
d="M50 21l12 62c51 -17 114 -33 177 -33c71 0 138 40 138 121c0 184 -315 122 -315 347c0 103 83 171 201 171c57 0 111 -11 167 -32l-17 -60c-50 16 -99 29 -150 29c-80 0 -131 -37 -131 -106c0 -171 315 -111 315 -347c0 -122 -95 -186 -208 -186c-77 0 -141 18 -189 34z
" />
    <glyph glyph-name="T" unicode="T" horiz-adv-x="518" 
d="M225 0v613h-190v63h448v-63h-190v-613h-68z" />
    <glyph glyph-name="U" unicode="U" horiz-adv-x="627" 
d="M85 213v463h68v-460c0 -96 67 -166 162 -166c94 0 160 70 160 166v460h67v-463c0 -134 -102 -226 -227 -226c-127 0 -230 92 -230 226z" />
    <glyph glyph-name="V" unicode="V" horiz-adv-x="590" 
d="M256 0l-221 676h70l160 -501c9 -29 21 -73 30 -109c9 37 21 79 30 109l160 501h70l-221 -676h-78z" />
    <glyph glyph-name="W" unicode="W" horiz-adv-x="813" 
d="M169 0l-124 676h68l90 -511c4 -25 8 -61 11 -93c9 33 18 68 26 93l125 407h83l125 -407c7 -25 17 -61 25 -93c3 33 7 68 12 93l90 511h68l-124 -676h-81l-133 423c-7 23 -17 57 -24 87c-7 -30 -16 -63 -23 -87l-133 -423h-81z" />
    <glyph glyph-name="X" unicode="X" horiz-adv-x="577" 
d="M35 0l214 357l-189 319h75l154 -260l156 260h70l-189 -315l216 -361h-76l-179 302l-181 -302h-71z" />
    <glyph glyph-name="Y" unicode="Y" horiz-adv-x="552" 
d="M242 0v260l-212 416h71l175 -348l175 348h71l-212 -416v-260h-68z" />
    <glyph glyph-name="Z" unicode="Z" horiz-adv-x="542" 
d="M50 0v57l339 556h-334v63h418v-54l-340 -559h359l-9 -63h-433z" />
    <glyph glyph-name="bracketleft" unicode="[" horiz-adv-x="271" 
d="M251 -211h-160v994h160v-62h-95v-871h95v-61z" />
    <glyph glyph-name="backslash" unicode="\" horiz-adv-x="365" 
d="M307 -63h-61l-188 795h61z" />
    <glyph glyph-name="bracketright" unicode="]" horiz-adv-x="271" 
d="M180 -211h-160v61h95v871h-95v62h160v-994z" />
    <glyph glyph-name="asciicircum" unicode="^" horiz-adv-x="580" 
d="M492 445l-54 -26l-147 258l-148 -258l-54 26l167 287h69z" />
    <glyph glyph-name="underscore" unicode="_" horiz-adv-x="500" 
d="M500 -161h-500v60h500v-60z" />
    <glyph glyph-name="grave" unicode="`" horiz-adv-x="382" 
d="M278 589l-193 69l26 62l186 -81z" />
    <glyph glyph-name="a" unicode="a" horiz-adv-x="478" 
d="M50 147c0 97 72 154 179 154h118v35c0 81 -39 127 -116 127c-42 0 -90 -10 -131 -22l-14 58c45 15 95 25 145 25c111 0 182 -68 182 -188v-189c0 -89 -80 -160 -180 -160c-104 0 -183 72 -183 160zM118 149c0 -55 46 -101 115 -101c67 0 114 44 114 99v96h-118
c-76 0 -111 -40 -111 -94z" />
    <glyph glyph-name="b" unicode="b" horiz-adv-x="521" 
d="M65 200v525l66 20v-263c31 20 80 42 133 42c103 0 192 -66 192 -214v-110c0 -139 -91 -213 -196 -213c-104 0 -195 74 -195 213zM131 205c0 -108 57 -157 129 -157c71 0 130 49 130 157v100c0 118 -61 158 -131 158c-44 0 -86 -17 -128 -44v-214z" />
    <glyph glyph-name="c" unicode="c" horiz-adv-x="469" 
d="M65 211v90c0 153 84 223 207 223c48 0 95 -9 142 -23l-11 -59c-43 11 -86 21 -130 21c-95 0 -142 -53 -142 -169v-76c0 -116 47 -170 142 -170c43 0 86 8 130 20l11 -58c-47 -14 -94 -23 -142 -23c-123 0 -207 71 -207 224z" />
    <glyph glyph-name="d" unicode="d" horiz-adv-x="520" 
d="M65 200v110c0 148 89 214 192 214c53 0 102 -22 132 -42v250h66v-532c0 -139 -90 -213 -194 -213c-105 0 -196 74 -196 213zM131 205c0 -108 58 -157 130 -157s128 49 128 157v214c-42 27 -83 44 -127 44c-71 0 -131 -40 -131 -158v-100z" />
    <glyph glyph-name="e" unicode="e" horiz-adv-x="506" 
d="M65 195v125c0 133 86 204 190 204c106 0 191 -75 191 -185v-102h-315v-42c0 -102 53 -147 134 -147c47 0 91 10 137 23l13 -60c-50 -16 -99 -24 -150 -24c-116 0 -200 71 -200 208zM131 295h249v44c0 74 -52 124 -125 124c-72 0 -124 -45 -124 -143v-25z" />
    <glyph glyph-name="f" unicode="f" horiz-adv-x="309" 
d="M98 0v459h-69v52h69v85c0 96 73 149 151 149c24 0 46 -3 65 -9l-12 -59c-15 4 -36 7 -52 7c-44 0 -86 -30 -86 -88v-85h137l-20 -52h-117v-459h-66z" />
    <glyph glyph-name="g" unicode="g" horiz-adv-x="469" 
d="M57 -121c58 -24 113 -42 173 -42c95 0 135 39 135 81c0 104 -261 45 -261 168c0 21 13 41 31 55c-51 28 -83 80 -83 148v63c0 103 74 172 176 172c26 0 50 -5 71 -13l145 10l-4 -53l-76 -5c24 -29 38 -67 38 -111v-63c0 -103 -72 -171 -174 -171c-14 0 -27 1 -40 3
c-11 -9 -18 -18 -18 -28c0 -57 263 -22 263 -171c0 -75 -65 -146 -203 -146c-74 0 -149 24 -195 45zM228 179c76 0 109 46 109 110v63c0 65 -33 111 -109 111c-77 0 -111 -48 -111 -111v-63c0 -64 34 -110 111 -110z" />
    <glyph glyph-name="h" unicode="h" horiz-adv-x="546" 
d="M85 0v732h66v-250c30 20 80 42 133 42c103 0 182 -55 182 -203v-321h-66v316c0 115 -51 147 -121 147c-44 0 -87 -17 -128 -44v-419h-66z" />
    <glyph glyph-name="i" unicode="i" horiz-adv-x="236" 
d="M118 608c-26 0 -47 21 -47 46s21 45 47 45c25 0 47 -20 47 -45s-22 -46 -47 -46zM85 0v511h66v-511h-66z" />
    <glyph glyph-name="j" unicode="j" horiz-adv-x="236" 
d="M118 608c-27 0 -48 21 -48 46s21 45 48 45c24 0 47 -20 47 -45s-23 -46 -47 -46zM85 -222v733h66v-713z" />
    <glyph glyph-name="k" unicode="k" horiz-adv-x="471" 
d="M85 0v732h66v-455l113 41c33 12 47 30 57 67l34 126h66l-37 -134c-14 -51 -30 -91 -82 -110l139 -267h-70l-127 246l-93 -35v-211h-66z" />
    <glyph glyph-name="l" unicode="l" horiz-adv-x="236" 
d="M85 0v725l66 20v-745h-66z" />
    <glyph glyph-name="m" unicode="m" horiz-adv-x="817" 
d="M80 0v326c0 132 82 198 180 198c70 0 123 -43 148 -113c26 70 79 113 148 113c101 0 181 -66 181 -198v-326h-66v316c0 98 -47 147 -115 147s-115 -56 -115 -164v-299h-65v299c0 108 -48 164 -116 164s-114 -49 -114 -147v-316h-66z" />
    <glyph glyph-name="n" unicode="n" horiz-adv-x="540" 
d="M80 0v321c0 132 87 203 191 203c106 0 189 -71 189 -203v-321h-66v316c0 98 -52 147 -123 147c-72 0 -125 -49 -125 -147v-316h-66z" />
    <glyph glyph-name="o" unicode="o" horiz-adv-x="533" 
d="M65 212v88c0 156 86 224 201 224c116 0 202 -69 202 -225v-87c0 -155 -86 -225 -202 -225c-115 0 -201 70 -201 225zM131 217c0 -128 58 -169 135 -169c76 0 136 41 136 169v77c0 129 -58 169 -136 169c-75 0 -135 -40 -135 -169v-77z" />
    <glyph glyph-name="p" unicode="p" horiz-adv-x="521" 
d="M131 29v-240h-66v522c0 139 91 213 195 213c105 0 196 -74 196 -213v-110c0 -148 -89 -214 -192 -214c-53 0 -102 22 -133 42zM131 92c42 -27 84 -44 128 -44c70 0 131 40 131 158v100c0 108 -59 157 -130 157c-72 0 -129 -49 -129 -157v-214z" />
    <glyph glyph-name="q" unicode="q" horiz-adv-x="521" 
d="M65 201v110c0 139 91 213 196 213c104 0 195 -74 195 -213v-515l-66 -20v253c-31 -20 -80 -42 -133 -42c-103 0 -192 66 -192 214zM131 206c0 -118 61 -158 131 -158c44 0 86 17 128 44v214c0 108 -56 157 -129 157c-71 0 -130 -49 -130 -157v-100z" />
    <glyph glyph-name="r" unicode="r" horiz-adv-x="347" 
d="M80 0v337c0 114 83 187 188 187c19 0 47 -4 59 -6l-12 -60c-6 1 -31 5 -46 5c-72 0 -123 -50 -123 -126v-337h-66z" />
    <glyph glyph-name="s" unicode="s" horiz-adv-x="416" 
d="M49 11l12 60c44 -12 87 -23 131 -23c65 0 107 35 107 83c0 132 -240 79 -240 255c0 79 60 138 162 138c44 0 86 -8 129 -22l-17 -59c-38 12 -73 20 -112 20c-63 0 -94 -32 -94 -77c0 -120 240 -70 240 -253c0 -71 -54 -146 -175 -146c-49 0 -95 7 -143 24z" />
    <glyph glyph-name="t" unicode="t" horiz-adv-x="293" 
d="M100 0v459h-66l-22 52h88v150l66 19v-169h109v-52h-109v-459h-66z" />
    <glyph glyph-name="u" unicode="u" horiz-adv-x="540" 
d="M80 190v321h66v-316c0 -98 52 -147 124 -147c71 0 124 49 124 147v316h66v-321c0 -132 -86 -203 -190 -203c-106 0 -190 71 -190 203z" />
    <glyph glyph-name="v" unicode="v" horiz-adv-x="487" 
d="M205 0l-175 511h68l121 -359c8 -23 16 -57 24 -87c8 31 17 64 25 87l121 359h68l-175 -511h-77z" />
    <glyph glyph-name="w" unicode="w" horiz-adv-x="772" 
d="M79 169l-24 342h66l22 -338c5 -73 42 -124 105 -124c62 0 105 51 105 126v298h65v-298c0 -75 43 -126 105 -126c63 0 101 51 106 124l22 338h66l-24 -343c-8 -112 -73 -181 -170 -181c-56 0 -106 28 -137 75c-31 -47 -82 -75 -138 -75c-96 0 -161 71 -169 182z" />
    <glyph glyph-name="x" unicode="x" horiz-adv-x="483" 
d="M30 0l173 264l-160 247h74l124 -194l127 194h71l-160 -245l174 -266h-74l-138 213l-140 -213h-71z" />
    <glyph glyph-name="y" unicode="y" horiz-adv-x="479" 
d="M81 176l-46 335h67l45 -326c10 -74 39 -123 111 -123h64l56 449h66l-91 -722h-66l27 211h-57c-108 0 -161 66 -176 176z" />
    <glyph glyph-name="z" unicode="z" horiz-adv-x="465" 
d="M60 0v60l261 391h-255v60h329v-60l-261 -391h271l-10 -60h-335z" />
    <glyph glyph-name="braceleft" unicode="{" horiz-adv-x="399" 
d="M379 -150v-61c-118 0 -204 58 -204 189v147c0 100 -45 131 -123 131v62c78 0 123 27 123 130v145c0 131 86 190 204 190v-62c-78 0 -139 -27 -139 -131v-142c0 -77 -30 -131 -78 -162c48 -30 78 -84 78 -161v-144c0 -103 61 -131 139 -131z" />
    <glyph glyph-name="bar" unicode="|" horiz-adv-x="245" 
d="M155 -200h-65v932h65v-932z" />
    <glyph glyph-name="braceright" unicode="}" horiz-adv-x="398" 
d="M20 -211v61c78 0 138 28 138 131v144c0 77 31 131 79 161c-48 31 -79 85 -79 162v142c0 104 -61 131 -138 131v62c117 0 203 -59 203 -190v-145c0 -103 46 -130 123 -130v-62c-77 0 -123 -31 -123 -131v-147c0 -131 -86 -189 -203 -189z" />
    <glyph glyph-name="asciitilde" unicode="~" horiz-adv-x="547" 
d="M429 318l43 -37c-19 -27 -59 -69 -112 -69c-78 0 -120 79 -173 79c-33 0 -52 -23 -69 -44l-43 37c19 27 59 69 112 69c77 0 121 -79 173 -79c33 0 52 23 69 44z" />
    <glyph glyph-name="uni00A0" unicode="&#xa0;" horiz-adv-x="250" 
 />
    <glyph glyph-name="exclamdown" unicode="&#xa1;" horiz-adv-x="242" 
d="M167 539c0 -26 -21 -45 -47 -45c-24 0 -45 19 -45 45c0 25 21 46 45 46c26 0 47 -21 47 -46zM158 -88l-77 -20l9 470h60z" />
    <glyph glyph-name="cent" unicode="&#xa2;" horiz-adv-x="479" 
d="M306 -124h-63v112c-107 11 -178 82 -178 223v90c0 140 71 211 178 222v112h63v-113c36 -3 72 -11 108 -21l-11 -59c-43 11 -86 21 -130 21c-95 0 -142 -53 -142 -169v-76c0 -116 47 -170 142 -170c43 0 86 8 130 20l11 -58c-36 -10 -72 -18 -108 -21v-113z" />
    <glyph glyph-name="sterling" unicode="&#xa3;" horiz-adv-x="480" 
d="M425 0h-358v59c21 27 71 96 71 186c0 10 -1 20 -2 30h-75v57h66c-13 55 -32 107 -32 165c0 128 80 192 190 192c50 0 96 -9 143 -28l-20 -58c-39 14 -78 23 -118 23c-87 0 -125 -54 -125 -135c0 -59 17 -108 29 -159h188v-57h-178c1 -10 2 -20 2 -30
c0 -83 -39 -149 -63 -183h282v-62z" />
    <glyph glyph-name="currency" unicode="&#xa4;" horiz-adv-x="554" 
d="M429 84l-57 56c-27 -18 -60 -29 -95 -29c-36 0 -69 11 -96 29l-56 -56l-44 44l56 56c-18 27 -28 60 -28 95s11 68 29 95l-57 58l44 44l57 -58c27 18 60 29 95 29s67 -11 94 -29l58 58l44 -44l-58 -58c19 -27 30 -60 30 -95s-11 -68 -29 -95l57 -56zM386 279
c0 60 -49 109 -109 109s-109 -49 -109 -109s49 -109 109 -109s109 49 109 109z" />
    <glyph glyph-name="yen" unicode="&#xa5;" horiz-adv-x="502" 
d="M425 120h-139v-120h-68v120h-139v57h139v72h-139v57h116l-186 370h77l166 -347l164 347h77l-185 -370h117v-57h-139v-72h139v-57z" />
    <glyph glyph-name="brokenbar" unicode="&#xa6;" horiz-adv-x="245" 
d="M155 387h-65v345h65v-345zM155 -200h-65v338h65v-338z" />
    <glyph glyph-name="section" unicode="&#xa7;" horiz-adv-x="547" 
d="M72 -92l11 62c48 -17 98 -30 159 -30c64 0 120 30 120 99c0 169 -276 96 -276 303c0 50 21 90 55 117c-9 20 -15 43 -15 73c0 95 74 157 181 157c50 0 98 -10 147 -30l-16 -60c-44 16 -86 27 -131 27c-72 0 -111 -34 -111 -92c0 -153 276 -84 276 -305
c0 -50 -21 -89 -54 -117c9 -20 14 -44 14 -73c0 -104 -88 -162 -190 -162c-69 0 -122 14 -170 31zM182 409c-17 -16 -26 -38 -26 -65c0 -111 144 -106 224 -178c14 16 22 37 22 63c0 120 -140 117 -220 180z" />
    <glyph glyph-name="dieresis" unicode="&#xa8;" horiz-adv-x="445" 
d="M360 654c0 -24 -21 -45 -47 -45c-24 0 -46 21 -46 45c0 26 22 47 46 47c26 0 47 -21 47 -47zM177 654c0 -24 -21 -45 -46 -45s-46 21 -46 45c0 26 21 47 46 47s46 -21 46 -47z" />
    <glyph glyph-name="copyright" unicode="&#xa9;" horiz-adv-x="764" 
d="M381 -13c-197 0 -311 149 -311 336c0 186 114 335 311 335c200 0 313 -149 313 -335c0 -187 -113 -336 -313 -336zM381 42c166 0 257 124 257 281c0 156 -91 280 -257 280c-164 0 -255 -124 -255 -280c0 -157 91 -281 255 -281zM469 202l9 -44c-38 -11 -61 -15 -100 -15
c-72 0 -131 47 -131 130v98c0 83 59 131 131 131c33 0 67 -5 100 -15l-9 -43c-30 8 -60 13 -90 13c-51 0 -83 -39 -83 -92v-89c0 -52 32 -88 83 -88c35 0 59 5 90 14z" />
    <glyph glyph-name="ordfeminine" unicode="&#xaa;" horiz-adv-x="361" 
d="M311 544v-130c0 -65 -58 -115 -129 -115c-75 0 -132 51 -132 115c0 69 52 109 129 109h75v21c0 53 -25 82 -74 82c-30 0 -64 -7 -94 -16l-11 48c32 10 68 18 105 18c79 0 131 -49 131 -132zM254 414v61h-75c-50 0 -72 -25 -72 -60c0 -36 29 -66 75 -66c42 0 72 29 72 65z
" />
    <glyph glyph-name="guillemotleft" unicode="&#xab;" horiz-adv-x="481" 
d="M416 152l-48 -39l-137 166l137 167l48 -40l-105 -127zM261 152l-48 -39l-138 166l138 167l48 -40l-106 -127z" />
    <glyph glyph-name="logicalnot" unicode="&#xac;" horiz-adv-x="560" 
d="M485 64h-61v185h-349v61h410v-246z" />
    <glyph glyph-name="uni00AD" unicode="&#xad;" horiz-adv-x="485" 
d="M395 248h-305v61h305v-61z" />
    <glyph glyph-name="registered" unicode="&#xae;" horiz-adv-x="764" 
d="M381 -13c-197 0 -311 149 -311 336c0 186 114 335 311 335c200 0 313 -149 313 -335c0 -187 -113 -336 -313 -336zM381 42c166 0 257 124 257 281c0 156 -91 280 -257 280c-164 0 -255 -124 -255 -280c0 -157 91 -281 255 -281zM500 148h-51l-67 139h-57v-139h-49v350
h111c70 0 109 -50 109 -105c0 -35 -18 -81 -67 -99zM325 331h62c40 0 60 28 60 62c0 33 -19 60 -60 60h-62v-122z" />
    <glyph glyph-name="macron" unicode="&#xaf;" horiz-adv-x="433" 
d="M343 628h-253v62h253v-62z" />
    <glyph glyph-name="degree" unicode="&#xb0;" horiz-adv-x="396" 
d="M198 497c-68 0 -123 55 -123 125c0 65 55 121 123 121c66 0 123 -57 123 -123c0 -69 -57 -123 -123 -123zM199 556c35 0 63 29 63 65c0 35 -28 63 -64 63c-35 0 -64 -28 -64 -63c0 -36 29 -65 65 -65z" />
    <glyph glyph-name="plusminus" unicode="&#xb1;" horiz-adv-x="532" 
d="M457 248h-161v-159h-60v159h-161v61h161v159h60v-159h161v-61zM457 -53h-382v58h382v-58z" />
    <glyph glyph-name="acute" unicode="&#xb4;" horiz-adv-x="382" 
d="M297 658l-193 -69l-19 50l186 81z" />
    <glyph glyph-name="mu" unicode="&#xb5;" horiz-adv-x="545" 
d="M151 -211h-66v722h66v-324c0 -93 54 -139 124 -139c71 0 124 49 124 147v316h66v-321c0 -132 -86 -203 -190 -203c-48 0 -91 14 -124 42v-240z" />
    <glyph glyph-name="paragraph" unicode="&#xb6;" horiz-adv-x="591" 
d="M516 -120h-64v734h-104v-734h-64v423h-45c-100 0 -174 84 -174 186s74 186 174 186h277v-795z" />
    <glyph glyph-name="periodcentered" unicode="&#xb7;" horiz-adv-x="277" 
d="M186 278c0 -24 -21 -45 -48 -45c-24 0 -46 21 -46 45c0 27 22 48 46 48c27 0 48 -21 48 -48z" />
    <glyph glyph-name="cedilla" unicode="&#xb8;" horiz-adv-x="291" 
d="M154 -98v98h62v-105c0 -81 -58 -106 -114 -106c-22 0 -42 2 -57 6l8 57c12 -3 30 -5 44 -5c40 0 57 18 57 55z" />
    <glyph glyph-name="ordmasculine" unicode="&#xba;" horiz-adv-x="389" 
d="M339 518v-61c0 -107 -62 -158 -145 -158c-82 0 -144 51 -144 158v62c0 107 62 157 144 157c83 0 145 -50 145 -158zM282 461v53c0 84 -35 112 -88 112c-50 0 -87 -28 -87 -112v-53c0 -83 35 -112 87 -112c51 0 88 29 88 112z" />
    <glyph glyph-name="guillemotright" unicode="&#xbb;" horiz-adv-x="481" 
d="M268 113l-48 40l106 127l-106 127l48 39l138 -166zM113 113l-48 40l105 127l-105 127l48 39l137 -166z" />
    <glyph glyph-name="questiondown" unicode="&#xbf;" horiz-adv-x="444" 
d="M269 538c0 -26 -21 -45 -47 -45c-24 0 -45 19 -45 45c0 25 21 46 45 46c26 0 47 -21 47 -46zM349 -11l30 -55c-42 -27 -93 -50 -149 -50c-88 0 -172 50 -172 162c0 117 132 172 132 272v90l65 -20v-68c0 -118 -131 -178 -131 -274c0 -61 38 -99 106 -99
c37 0 83 18 119 42z" />
    <glyph glyph-name="Agrave" unicode="&#xc0;" horiz-adv-x="590" 
d="M382 739l-193 69l26 62l186 -81zM35 0l221 676h78l221 -676h-70l-62 192h-257l-61 -192h-70zM185 252h219l-79 249c-9 27 -20 68 -30 104c-9 -36 -21 -76 -30 -104z" />
    <glyph glyph-name="Aacute" unicode="&#xc1;" horiz-adv-x="590" 
d="M401 808l-193 -69l-19 50l186 81zM35 0l221 676h78l221 -676h-70l-62 192h-257l-61 -192h-70zM185 252h219l-79 249c-9 27 -20 68 -30 104c-9 -36 -21 -76 -30 -104z" />
    <glyph glyph-name="Acircumflex" unicode="&#xc2;" horiz-adv-x="590" 
d="M394 739l-99 68l-99 -68l-31 52l130 79l130 -79zM35 0l221 676h78l221 -676h-70l-62 192h-257l-61 -192h-70zM185 252h219l-79 249c-9 27 -20 68 -30 104c-9 -36 -21 -76 -30 -104z" />
    <glyph glyph-name="Atilde" unicode="&#xc3;" horiz-adv-x="590" 
d="M401 839l32 -33c-8 -18 -35 -55 -78 -55c-54 0 -85 48 -119 48c-21 0 -38 -17 -47 -28l-32 33c8 18 34 55 79 55c53 0 85 -49 119 -49c20 0 37 17 46 29zM35 0l221 676h78l221 -676h-70l-62 192h-257l-61 -192h-70zM185 252h219l-79 249c-9 27 -20 68 -30 104
c-9 -36 -21 -76 -30 -104z" />
    <glyph glyph-name="Adieresis" unicode="&#xc4;" horiz-adv-x="590" 
d="M433 804c0 -24 -21 -45 -47 -45c-24 0 -46 21 -46 45c0 26 22 47 46 47c26 0 47 -21 47 -47zM250 804c0 -24 -21 -45 -46 -45s-46 21 -46 45c0 26 21 47 46 47s46 -21 46 -47zM35 0l221 676h78l221 -676h-70l-62 192h-257l-61 -192h-70zM185 252h219l-79 249
c-9 27 -20 68 -30 104c-9 -36 -21 -76 -30 -104z" />
    <glyph glyph-name="Aring" unicode="&#xc5;" horiz-adv-x="590" 
d="M296 739c-48 0 -87 39 -87 86c0 46 39 85 87 85c46 0 85 -39 85 -85c0 -47 -39 -86 -85 -86zM296 789c19 0 35 17 35 36c0 20 -16 36 -35 36c-20 0 -35 -16 -35 -36c0 -19 15 -36 35 -36zM35 0l221 676h78l221 -676h-70l-62 192h-257l-61 -192h-70zM185 252h219l-79 249
c-9 27 -20 68 -30 104c-9 -36 -21 -76 -30 -104z" />
    <glyph glyph-name="AE" unicode="&#xc6;" horiz-adv-x="898" 
d="M503 0l-14 192h-265l-113 -192h-78l407 676h357l3 -63h-271l17 -242h245l-16 -61h-226l18 -247h281l4 -63h-349zM462 596l-203 -344h226z" />
    <glyph glyph-name="Ccedilla" unicode="&#xc7;" horiz-adv-x="560" 
d="M303 -98v86c-135 8 -233 95 -233 267v166c0 181 108 268 254 268c72 0 124 -12 191 -32l-13 -61c-48 14 -105 30 -177 30c-110 0 -187 -66 -187 -208v-161c0 -146 77 -207 187 -207c72 0 129 15 177 29l13 -62c-53 -16 -97 -25 -150 -29v-93c0 -81 -58 -106 -114 -106
c-22 0 -42 2 -57 6l8 57c12 -3 30 -5 44 -5c40 0 57 18 57 55z" />
    <glyph glyph-name="Egrave" unicode="&#xc8;" horiz-adv-x="522" 
d="M354 739l-193 69l26 62l186 -81zM90 0v676h353v-63h-285v-242h244l-6 -61h-238v-247h294v-63h-362z" />
    <glyph glyph-name="Eacute" unicode="&#xc9;" horiz-adv-x="522" 
d="M367 808l-193 -69l-19 50l186 81zM90 0v676h353v-63h-285v-242h244l-6 -61h-238v-247h294v-63h-362z" />
    <glyph glyph-name="Ecircumflex" unicode="&#xca;" horiz-adv-x="522" 
d="M360 739l-99 68l-99 -68l-31 52l130 79l130 -79zM90 0v676h353v-63h-285v-242h244l-6 -61h-238v-247h294v-63h-362z" />
    <glyph glyph-name="Edieresis" unicode="&#xcb;" horiz-adv-x="522" 
d="M407 804c0 -24 -21 -45 -47 -45c-24 0 -46 21 -46 45c0 26 22 47 46 47c26 0 47 -21 47 -47zM224 804c0 -24 -21 -45 -46 -45s-46 21 -46 45c0 26 21 47 46 47s46 -21 46 -47zM90 0v676h353v-63h-285v-242h244l-6 -61h-238v-247h294v-63h-362z" />
    <glyph glyph-name="Igrave" unicode="&#xcc;" horiz-adv-x="248" 
d="M211 739l-193 69l26 62l186 -81zM90 0v676h68v-676h-68z" />
    <glyph glyph-name="Iacute" unicode="&#xcd;" horiz-adv-x="248" 
d="M230 808l-193 -69l-19 50l186 81zM90 0v676h68v-676h-68z" />
    <glyph glyph-name="Icircumflex" unicode="&#xce;" horiz-adv-x="248" 
d="M223 739l-99 68l-99 -68l-31 52l130 79l130 -79zM90 0v676h68v-676h-68z" />
    <glyph glyph-name="Idieresis" unicode="&#xcf;" horiz-adv-x="248" 
d="M262 804c0 -24 -21 -45 -47 -45c-24 0 -46 21 -46 45c0 26 22 47 46 47c26 0 47 -21 47 -47zM79 804c0 -24 -21 -45 -46 -45s-46 21 -46 45c0 26 21 47 46 47s46 -21 46 -47zM90 0v676h68v-676h-68z" />
    <glyph glyph-name="Eth" unicode="&#xd0;" horiz-adv-x="621" 
d="M321 0h-231v317h-63v52h63v269c58 21 145 51 231 51c125 0 230 -86 230 -243v-209c0 -157 -83 -237 -230 -237zM483 240v202c0 119 -67 184 -163 184c-57 0 -124 -18 -162 -31v-226h160v-52h-160v-254h163c107 0 162 53 162 177z" />
    <glyph glyph-name="Ntilde" unicode="&#xd1;" horiz-adv-x="624" 
d="M418 839l32 -33c-8 -18 -35 -55 -78 -55c-54 0 -85 48 -119 48c-21 0 -38 -17 -47 -28l-32 33c8 18 34 55 79 55c53 0 85 -49 119 -49c20 0 37 17 46 29zM90 0v676h53l325 -546c-2 35 -2 69 -2 95v451h68v-676h-58l-322 537c3 -35 4 -71 4 -96v-441h-68z" />
    <glyph glyph-name="Ograve" unicode="&#xd2;" horiz-adv-x="625" 
d="M399 739l-193 69l26 62l186 -81zM70 255v164c0 181 109 270 243 270c133 0 242 -89 242 -270v-164c0 -181 -109 -268 -242 -268c-134 0 -243 87 -243 268zM138 416v-158c0 -141 74 -208 175 -208s174 67 174 208v158c0 143 -73 210 -174 210s-175 -67 -175 -210z" />
    <glyph glyph-name="Oacute" unicode="&#xd3;" horiz-adv-x="625" 
d="M418 808l-193 -69l-19 50l186 81zM70 255v164c0 181 109 270 243 270c133 0 242 -89 242 -270v-164c0 -181 -109 -268 -242 -268c-134 0 -243 87 -243 268zM138 416v-158c0 -141 74 -208 175 -208s174 67 174 208v158c0 143 -73 210 -174 210s-175 -67 -175 -210z" />
    <glyph glyph-name="Ocircumflex" unicode="&#xd4;" horiz-adv-x="625" 
d="M411 739l-99 68l-99 -68l-31 52l130 79l130 -79zM70 255v164c0 181 109 270 243 270c133 0 242 -89 242 -270v-164c0 -181 -109 -268 -242 -268c-134 0 -243 87 -243 268zM138 416v-158c0 -141 74 -208 175 -208s174 67 174 208v158c0 143 -73 210 -174 210
s-175 -67 -175 -210z" />
    <glyph glyph-name="Otilde" unicode="&#xd5;" horiz-adv-x="625" 
d="M418 839l32 -33c-8 -18 -35 -55 -78 -55c-54 0 -85 48 -119 48c-21 0 -38 -17 -47 -28l-32 33c8 18 34 55 79 55c53 0 85 -49 119 -49c20 0 37 17 46 29zM70 255v164c0 181 109 270 243 270c133 0 242 -89 242 -270v-164c0 -181 -109 -268 -242 -268
c-134 0 -243 87 -243 268zM138 416v-158c0 -141 74 -208 175 -208s174 67 174 208v158c0 143 -73 210 -174 210s-175 -67 -175 -210z" />
    <glyph glyph-name="Odieresis" unicode="&#xd6;" horiz-adv-x="625" 
d="M451 804c0 -24 -21 -45 -47 -45c-24 0 -46 21 -46 45c0 26 22 47 46 47c26 0 47 -21 47 -47zM268 804c0 -24 -21 -45 -46 -45s-46 21 -46 45c0 26 21 47 46 47s46 -21 46 -47zM70 255v164c0 181 109 270 243 270c133 0 242 -89 242 -270v-164c0 -181 -109 -268 -242 -268
c-134 0 -243 87 -243 268zM138 416v-158c0 -141 74 -208 175 -208s174 67 174 208v158c0 143 -73 210 -174 210s-175 -67 -175 -210z" />
    <glyph glyph-name="multiply" unicode="&#xd7;" horiz-adv-x="484" 
d="M366 113l-124 124l-124 -125l-43 43l125 124l-124 125l42 42l124 -125l124 126l43 -43l-125 -125l124 -124z" />
    <glyph glyph-name="Oslash" unicode="&#xd8;" horiz-adv-x="625" 
d="M149 -58l-55 26l43 89c-41 44 -67 110 -67 198v164c0 181 109 270 243 270c43 0 84 -10 119 -29l36 74l55 -26l-41 -84c45 -45 73 -113 73 -205v-164c0 -181 -109 -268 -242 -268c-46 0 -90 11 -127 31zM170 124l234 479c-26 15 -57 23 -91 23c-101 0 -175 -67 -175 -210
v-158c0 -56 12 -101 32 -134zM487 258v158c0 61 -13 109 -37 143l-235 -482c27 -19 61 -27 98 -27c101 0 174 67 174 208z" />
    <glyph glyph-name="Ugrave" unicode="&#xd9;" horiz-adv-x="627" 
d="M400 739l-193 69l26 62l186 -81zM85 213v463h68v-460c0 -96 67 -166 162 -166c94 0 160 70 160 166v460h67v-463c0 -134 -102 -226 -227 -226c-127 0 -230 92 -230 226z" />
    <glyph glyph-name="Uacute" unicode="&#xda;" horiz-adv-x="627" 
d="M419 808l-193 -69l-19 50l186 81zM85 213v463h68v-460c0 -96 67 -166 162 -166c94 0 160 70 160 166v460h67v-463c0 -134 -102 -226 -227 -226c-127 0 -230 92 -230 226z" />
    <glyph glyph-name="Ucircumflex" unicode="&#xdb;" horiz-adv-x="627" 
d="M412 739l-99 68l-99 -68l-31 52l130 79l130 -79zM85 213v463h68v-460c0 -96 67 -166 162 -166c94 0 160 70 160 166v460h67v-463c0 -134 -102 -226 -227 -226c-127 0 -230 92 -230 226z" />
    <glyph glyph-name="Udieresis" unicode="&#xdc;" horiz-adv-x="627" 
d="M452 804c0 -24 -21 -45 -47 -45c-24 0 -46 21 -46 45c0 26 22 47 46 47c26 0 47 -21 47 -47zM269 804c0 -24 -21 -45 -46 -45s-46 21 -46 45c0 26 21 47 46 47s46 -21 46 -47zM85 213v463h68v-460c0 -96 67 -166 162 -166c94 0 160 70 160 166v460h67v-463
c0 -134 -102 -226 -227 -226c-127 0 -230 92 -230 226z" />
    <glyph glyph-name="Yacute" unicode="&#xdd;" horiz-adv-x="552" 
d="M382 808l-193 -69l-19 50l186 81zM242 0v260l-212 416h71l175 -348l175 348h71l-212 -416v-260h-68z" />
    <glyph glyph-name="Thorn" unicode="&#xde;" horiz-adv-x="547" 
d="M307 143h-149v-143h-68v676h68v-133h149c117 0 195 -90 195 -200c0 -108 -78 -200 -195 -200zM158 206h149c81 0 125 58 125 137c0 80 -44 137 -125 137h-149v-274z" />
    <glyph glyph-name="germandbls" unicode="&#xdf;" horiz-adv-x="585" 
d="M163 582v-582h-66v459h-68v52h68v71c0 115 85 163 162 163s163 -49 163 -157c0 -102 -122 -137 -122 -207c0 -120 236 -65 236 -248c0 -71 -53 -146 -171 -146c-48 0 -94 7 -141 24l12 60c42 -12 84 -23 129 -23c63 0 103 35 103 83c0 132 -234 74 -234 250
c0 110 122 132 122 206c0 70 -54 97 -97 97s-96 -26 -96 -102z" />
    <glyph glyph-name="agrave" unicode="&#xe0;" horiz-adv-x="478" 
d="M318 589l-193 69l26 62l186 -81zM50 147c0 97 72 154 179 154h118v35c0 81 -39 127 -116 127c-42 0 -90 -10 -131 -22l-14 58c45 15 95 25 145 25c111 0 182 -68 182 -188v-189c0 -89 -80 -160 -180 -160c-104 0 -183 72 -183 160zM118 149c0 -55 46 -101 115 -101
c67 0 114 44 114 99v96h-118c-76 0 -111 -40 -111 -94z" />
    <glyph glyph-name="aacute" unicode="&#xe1;" horiz-adv-x="478" 
d="M330 658l-193 -69l-19 50l186 81zM50 147c0 97 72 154 179 154h118v35c0 81 -39 127 -116 127c-42 0 -90 -10 -131 -22l-14 58c45 15 95 25 145 25c111 0 182 -68 182 -188v-189c0 -89 -80 -160 -180 -160c-104 0 -183 72 -183 160zM118 149c0 -55 46 -101 115 -101
c67 0 114 44 114 99v96h-118c-76 0 -111 -40 -111 -94z" />
    <glyph glyph-name="acircumflex" unicode="&#xe2;" horiz-adv-x="478" 
d="M327 589l-99 68l-99 -68l-31 52l130 79l130 -79zM50 147c0 97 72 154 179 154h118v35c0 81 -39 127 -116 127c-42 0 -90 -10 -131 -22l-14 58c45 15 95 25 145 25c111 0 182 -68 182 -188v-189c0 -89 -80 -160 -180 -160c-104 0 -183 72 -183 160zM118 149
c0 -55 46 -101 115 -101c67 0 114 44 114 99v96h-118c-76 0 -111 -40 -111 -94z" />
    <glyph glyph-name="atilde" unicode="&#xe3;" horiz-adv-x="478" 
d="M334 689l32 -33c-8 -18 -35 -55 -78 -55c-54 0 -85 48 -119 48c-21 0 -38 -17 -47 -28l-32 33c8 18 34 55 79 55c53 0 85 -49 119 -49c20 0 37 17 46 29zM50 147c0 97 72 154 179 154h118v35c0 81 -39 127 -116 127c-42 0 -90 -10 -131 -22l-14 58c45 15 95 25 145 25
c111 0 182 -68 182 -188v-189c0 -89 -80 -160 -180 -160c-104 0 -183 72 -183 160zM118 149c0 -55 46 -101 115 -101c67 0 114 44 114 99v96h-118c-76 0 -111 -40 -111 -94z" />
    <glyph glyph-name="adieresis" unicode="&#xe4;" horiz-adv-x="478" 
d="M361 654c0 -24 -21 -45 -47 -45c-24 0 -46 21 -46 45c0 26 22 47 46 47c26 0 47 -21 47 -47zM178 654c0 -24 -21 -45 -46 -45s-46 21 -46 45c0 26 21 47 46 47s46 -21 46 -47zM50 147c0 97 72 154 179 154h118v35c0 81 -39 127 -116 127c-42 0 -90 -10 -131 -22l-14 58
c45 15 95 25 145 25c111 0 182 -68 182 -188v-189c0 -89 -80 -160 -180 -160c-104 0 -183 72 -183 160zM118 149c0 -55 46 -101 115 -101c67 0 114 44 114 99v96h-118c-76 0 -111 -40 -111 -94z" />
    <glyph glyph-name="aring" unicode="&#xe5;" horiz-adv-x="478" 
d="M231 589c-48 0 -87 39 -87 86c0 46 39 85 87 85c46 0 85 -39 85 -85c0 -47 -39 -86 -85 -86zM231 639c19 0 35 17 35 36c0 20 -16 36 -35 36c-20 0 -35 -16 -35 -36c0 -19 15 -36 35 -36zM50 147c0 97 72 154 179 154h118v35c0 81 -39 127 -116 127
c-42 0 -90 -10 -131 -22l-14 58c45 15 95 25 145 25c111 0 182 -68 182 -188v-189c0 -89 -80 -160 -180 -160c-104 0 -183 72 -183 160zM118 149c0 -55 46 -101 115 -101c67 0 114 44 114 99v96h-118c-76 0 -111 -40 -111 -94z" />
    <glyph glyph-name="ae" unicode="&#xe6;" horiz-adv-x="788" 
d="M681 71l13 -60c-42 -13 -87 -24 -150 -24c-67 0 -122 23 -157 69c-34 -41 -82 -69 -154 -69c-104 0 -183 72 -183 160c0 97 72 152 179 152h118v37c0 81 -39 127 -116 127c-42 0 -90 -10 -131 -22l-14 58c45 15 95 25 145 25c69 0 121 -27 151 -76c34 50 89 76 152 76
c106 0 191 -75 191 -185v-102h-315v-42c0 -102 53 -147 134 -147c48 0 99 12 137 23zM659 295v44c0 74 -52 124 -125 124c-72 0 -124 -45 -124 -143v-25h249zM347 195v46h-118c-76 0 -111 -38 -111 -92c0 -55 46 -101 115 -101c57 0 91 17 126 64c-8 24 -12 52 -12 83z" />
    <glyph glyph-name="ccedilla" unicode="&#xe7;" horiz-adv-x="469" 
d="M242 -98v87c-107 11 -177 82 -177 222v90c0 153 84 223 207 223c48 0 95 -9 142 -23l-11 -59c-43 11 -86 21 -130 21c-95 0 -142 -53 -142 -169v-76c0 -116 47 -170 142 -170c43 0 86 8 130 20l11 -58c-37 -11 -73 -19 -110 -22v-93c0 -81 -58 -106 -114 -106
c-22 0 -42 2 -57 6l8 57c12 -3 30 -5 44 -5c40 0 57 18 57 55z" />
    <glyph glyph-name="egrave" unicode="&#xe8;" horiz-adv-x="506" 
d="M340 589l-193 69l26 62l186 -81zM65 195v125c0 133 86 204 190 204c106 0 191 -75 191 -185v-102h-315v-42c0 -102 53 -147 134 -147c47 0 91 10 137 23l13 -60c-50 -16 -99 -24 -150 -24c-116 0 -200 71 -200 208zM131 295h249v44c0 74 -52 124 -125 124
c-72 0 -124 -45 -124 -143v-25z" />
    <glyph glyph-name="eacute" unicode="&#xe9;" horiz-adv-x="506" 
d="M359 658l-193 -69l-19 50l186 81zM65 195v125c0 133 86 204 190 204c106 0 191 -75 191 -185v-102h-315v-42c0 -102 53 -147 134 -147c47 0 91 10 137 23l13 -60c-50 -16 -99 -24 -150 -24c-116 0 -200 71 -200 208zM131 295h249v44c0 74 -52 124 -125 124
c-72 0 -124 -45 -124 -143v-25z" />
    <glyph glyph-name="ecircumflex" unicode="&#xea;" horiz-adv-x="506" 
d="M352 589l-99 68l-99 -68l-31 52l130 79l130 -79zM65 195v125c0 133 86 204 190 204c106 0 191 -75 191 -185v-102h-315v-42c0 -102 53 -147 134 -147c47 0 91 10 137 23l13 -60c-50 -16 -99 -24 -150 -24c-116 0 -200 71 -200 208zM131 295h249v44c0 74 -52 124 -125 124
c-72 0 -124 -45 -124 -143v-25z" />
    <glyph glyph-name="edieresis" unicode="&#xeb;" horiz-adv-x="506" 
d="M390 654c0 -24 -21 -45 -47 -45c-24 0 -46 21 -46 45c0 26 22 47 46 47c26 0 47 -21 47 -47zM207 654c0 -24 -21 -45 -46 -45s-46 21 -46 45c0 26 21 47 46 47s46 -21 46 -47zM65 195v125c0 133 86 204 190 204c106 0 191 -75 191 -185v-102h-315v-42
c0 -102 53 -147 134 -147c47 0 91 10 137 23l13 -60c-50 -16 -99 -24 -150 -24c-116 0 -200 71 -200 208zM131 295h249v44c0 74 -52 124 -125 124c-72 0 -124 -45 -124 -143v-25z" />
    <glyph glyph-name="igrave" unicode="&#xec;" horiz-adv-x="236" 
d="M205 589l-193 69l26 62l186 -81zM151 0h-66v511h66v-511z" />
    <glyph glyph-name="iacute" unicode="&#xed;" horiz-adv-x="236" 
d="M224 658l-193 -69l-19 50l186 81zM151 0h-66v511h66v-511z" />
    <glyph glyph-name="icircumflex" unicode="&#xee;" horiz-adv-x="236" 
d="M217 589l-99 68l-99 -68l-31 52l130 79l130 -79zM151 0h-66v511h66v-511z" />
    <glyph glyph-name="idieresis" unicode="&#xef;" horiz-adv-x="236" 
d="M255 654c0 -24 -21 -45 -47 -45c-24 0 -46 21 -46 45c0 26 22 47 46 47c26 0 47 -21 47 -47zM72 654c0 -24 -21 -45 -46 -45s-46 21 -46 45c0 26 21 47 46 47s46 -21 46 -47zM151 0h-66v511h66v-511z" />
    <glyph glyph-name="eth" unicode="&#xf0;" horiz-adv-x="533" 
d="M65 212v61c0 156 86 224 201 224c59 0 105 -20 139 -44v65c0 95 -35 153 -110 162l-39 -106l-49 19l32 88c-40 -3 -75 -11 -111 -22l-11 55c47 14 89 25 143 26l34 92l49 -19l-28 -77c92 -17 153 -84 153 -213v-311c0 -155 -86 -225 -202 -225c-115 0 -201 70 -201 225z
M131 267v-50c0 -128 58 -169 135 -169c76 0 136 41 136 169v171c-33 26 -87 48 -136 48c-75 0 -135 -40 -135 -169z" />
    <glyph glyph-name="ntilde" unicode="&#xf1;" horiz-adv-x="540" 
d="M376 689l32 -33c-8 -18 -35 -55 -78 -55c-54 0 -85 48 -119 48c-21 0 -38 -17 -47 -28l-32 33c8 18 34 55 79 55c53 0 85 -49 119 -49c20 0 37 17 46 29zM80 0v321c0 132 87 203 191 203c106 0 189 -71 189 -203v-321h-66v316c0 98 -52 147 -123 147
c-72 0 -125 -49 -125 -147v-316h-66z" />
    <glyph glyph-name="ograve" unicode="&#xf2;" horiz-adv-x="533" 
d="M353 589l-193 69l26 62l186 -81zM65 212v88c0 156 86 224 201 224c116 0 202 -69 202 -225v-87c0 -155 -86 -225 -202 -225c-115 0 -201 70 -201 225zM131 217c0 -128 58 -169 135 -169c76 0 136 41 136 169v77c0 129 -58 169 -136 169c-75 0 -135 -40 -135 -169v-77z
" />
    <glyph glyph-name="oacute" unicode="&#xf3;" horiz-adv-x="533" 
d="M372 658l-193 -69l-19 50l186 81zM65 212v88c0 156 86 224 201 224c116 0 202 -69 202 -225v-87c0 -155 -86 -225 -202 -225c-115 0 -201 70 -201 225zM131 217c0 -128 58 -169 135 -169c76 0 136 41 136 169v77c0 129 -58 169 -136 169c-75 0 -135 -40 -135 -169v-77z
" />
    <glyph glyph-name="ocircumflex" unicode="&#xf4;" horiz-adv-x="533" 
d="M365 589l-99 68l-99 -68l-31 52l130 79l130 -79zM65 212v88c0 156 86 224 201 224c116 0 202 -69 202 -225v-87c0 -155 -86 -225 -202 -225c-115 0 -201 70 -201 225zM131 217c0 -128 58 -169 135 -169c76 0 136 41 136 169v77c0 129 -58 169 -136 169
c-75 0 -135 -40 -135 -169v-77z" />
    <glyph glyph-name="otilde" unicode="&#xf5;" horiz-adv-x="533" 
d="M372 689l32 -33c-8 -18 -35 -55 -78 -55c-54 0 -85 48 -119 48c-21 0 -38 -17 -47 -28l-32 33c8 18 34 55 79 55c53 0 85 -49 119 -49c20 0 37 17 46 29zM65 212v88c0 156 86 224 201 224c116 0 202 -69 202 -225v-87c0 -155 -86 -225 -202 -225c-115 0 -201 70 -201 225
zM131 217c0 -128 58 -169 135 -169c76 0 136 41 136 169v77c0 129 -58 169 -136 169c-75 0 -135 -40 -135 -169v-77z" />
    <glyph glyph-name="odieresis" unicode="&#xf6;" horiz-adv-x="533" 
d="M404 654c0 -24 -21 -45 -47 -45c-24 0 -46 21 -46 45c0 26 22 47 46 47c26 0 47 -21 47 -47zM221 654c0 -24 -21 -45 -46 -45s-46 21 -46 45c0 26 21 47 46 47s46 -21 46 -47zM65 212v88c0 156 86 224 201 224c116 0 202 -69 202 -225v-87c0 -155 -86 -225 -202 -225
c-115 0 -201 70 -201 225zM131 217c0 -128 58 -169 135 -169c76 0 136 41 136 169v77c0 129 -58 169 -136 169c-75 0 -135 -40 -135 -169v-77z" />
    <glyph glyph-name="oslash" unicode="&#xf8;" horiz-adv-x="534" 
d="M143 -64l-51 25l36 75c-39 37 -62 95 -62 176v88c0 156 86 224 201 224c33 0 63 -6 90 -17l34 68l51 -25l-36 -75c39 -36 63 -94 63 -176v-87c0 -155 -86 -225 -202 -225c-33 0 -64 6 -91 17zM159 99l171 352c-18 8 -40 12 -63 12c-75 0 -135 -40 -135 -169v-77
c0 -53 10 -91 27 -118zM403 217v77c0 54 -10 92 -28 118l-171 -352c18 -8 40 -12 63 -12c76 0 136 41 136 169z" />
    <glyph glyph-name="ugrave" unicode="&#xf9;" horiz-adv-x="540" 
d="M357 589l-193 69l26 62l186 -81zM80 190v321h66v-316c0 -98 52 -147 124 -147c71 0 124 49 124 147v316h66v-321c0 -132 -86 -203 -190 -203c-106 0 -190 71 -190 203z" />
    <glyph glyph-name="uacute" unicode="&#xfa;" horiz-adv-x="540" 
d="M376 658l-193 -69l-19 50l186 81zM80 190v321h66v-316c0 -98 52 -147 124 -147c71 0 124 49 124 147v316h66v-321c0 -132 -86 -203 -190 -203c-106 0 -190 71 -190 203z" />
    <glyph glyph-name="ucircumflex" unicode="&#xfb;" horiz-adv-x="540" 
d="M369 589l-99 68l-99 -68l-31 52l130 79l130 -79zM80 190v321h66v-316c0 -98 52 -147 124 -147c71 0 124 49 124 147v316h66v-321c0 -132 -86 -203 -190 -203c-106 0 -190 71 -190 203z" />
    <glyph glyph-name="udieresis" unicode="&#xfc;" horiz-adv-x="540" 
d="M407 654c0 -24 -21 -45 -47 -45c-24 0 -46 21 -46 45c0 26 22 47 46 47c26 0 47 -21 47 -47zM224 654c0 -24 -21 -45 -46 -45s-46 21 -46 45c0 26 21 47 46 47s46 -21 46 -47zM80 190v321h66v-316c0 -98 52 -147 124 -147c71 0 124 49 124 147v316h66v-321
c0 -132 -86 -203 -190 -203c-106 0 -190 71 -190 203z" />
    <glyph glyph-name="yacute" unicode="&#xfd;" horiz-adv-x="479" 
d="M345 658l-193 -69l-19 50l186 81zM81 176l-46 335h67l45 -326c10 -74 39 -123 111 -123h64l56 449h66l-91 -722h-66l27 211h-57c-108 0 -161 66 -176 176z" />
    <glyph glyph-name="thorn" unicode="&#xfe;" horiz-adv-x="541" 
d="M151 -211h-66v943h66v-255c35 31 80 47 129 47c105 0 196 -74 196 -213v-110c0 -148 -89 -214 -192 -214c-53 0 -102 22 -133 42v-240zM410 206v100c0 108 -59 157 -130 157c-70 0 -129 -47 -129 -149v-222c42 -27 84 -44 128 -44c70 0 131 40 131 158z" />
    <glyph glyph-name="ydieresis" unicode="&#xff;" horiz-adv-x="479" 
d="M377 654c0 -24 -21 -45 -47 -45c-24 0 -46 21 -46 45c0 26 22 47 46 47c26 0 47 -21 47 -47zM194 654c0 -24 -21 -45 -46 -45s-46 21 -46 45c0 26 21 47 46 47s46 -21 46 -47zM81 176l-46 335h67l45 -326c10 -74 39 -123 111 -123h64l56 449h66l-91 -722h-66l27 211h-57
c-108 0 -161 66 -176 176z" />
    <glyph glyph-name="Amacron" unicode="&#x100;" horiz-adv-x="590" 
d="M421 778h-253v62h253v-62zM35 0l221 676h78l221 -676h-70l-62 192h-257l-61 -192h-70zM185 252h219l-79 249c-9 27 -20 68 -30 104c-9 -36 -21 -76 -30 -104z" />
    <glyph glyph-name="amacron" unicode="&#x101;" horiz-adv-x="478" 
d="M353 628h-253v62h253v-62zM50 147c0 97 72 154 179 154h118v35c0 81 -39 127 -116 127c-42 0 -90 -10 -131 -22l-14 58c45 15 95 25 145 25c111 0 182 -68 182 -188v-189c0 -89 -80 -160 -180 -160c-104 0 -183 72 -183 160zM118 149c0 -55 46 -101 115 -101
c67 0 114 44 114 99v96h-118c-76 0 -111 -40 -111 -94z" />
    <glyph glyph-name="Abreve" unicode="&#x102;" horiz-adv-x="590" 
d="M348 863h58c0 -68 -48 -115 -111 -115c-64 0 -112 47 -112 115h58c0 -34 23 -60 54 -60c29 0 53 26 53 60zM35 0l221 676h78l221 -676h-70l-62 192h-257l-61 -192h-70zM185 252h219l-79 249c-9 27 -20 68 -30 104c-9 -36 -21 -76 -30 -104z" />
    <glyph glyph-name="abreve" unicode="&#x103;" horiz-adv-x="478" 
d="M276 713h58c0 -68 -48 -115 -111 -115c-64 0 -112 47 -112 115h58c0 -34 23 -60 54 -60c29 0 53 26 53 60zM50 147c0 97 72 154 179 154h118v35c0 81 -39 127 -116 127c-42 0 -90 -10 -131 -22l-14 58c45 15 95 25 145 25c111 0 182 -68 182 -188v-189
c0 -89 -80 -160 -180 -160c-104 0 -183 72 -183 160zM118 149c0 -55 46 -101 115 -101c67 0 114 44 114 99v96h-118c-76 0 -111 -40 -111 -94z" />
    <glyph glyph-name="Aogonek" unicode="&#x104;" horiz-adv-x="590" 
d="M35 0l221 676h78l221 -676c-47 -36 -91 -75 -91 -128c0 -28 18 -42 42 -42c12 0 25 1 37 6l12 -50c-16 -6 -32 -9 -48 -9c-59 0 -98 36 -98 91s42 103 82 132h-6l-62 192h-257l-61 -192h-70zM185 252h219l-79 249c-9 27 -20 68 -30 104c-9 -36 -21 -76 -30 -104z" />
    <glyph glyph-name="aogonek" unicode="&#x105;" horiz-adv-x="478" 
d="M285 -164l12 -50c-16 -6 -32 -9 -48 -9c-59 0 -98 36 -98 91c0 48 31 90 66 120c-96 7 -167 75 -167 159c0 97 72 154 179 154h118v35c0 81 -39 127 -116 127c-42 0 -90 -10 -131 -22l-14 58c45 15 95 25 145 25c111 0 182 -68 182 -188v-189c0 -71 -51 -131 -123 -152
c-44 -34 -84 -72 -84 -123c0 -28 18 -42 42 -42c12 0 25 1 37 6zM118 149c0 -55 46 -101 115 -101c67 0 114 44 114 99v96h-118c-76 0 -111 -40 -111 -94z" />
    <glyph glyph-name="Cacute" unicode="&#x106;" horiz-adv-x="560" 
d="M416 808l-193 -69l-19 50l186 81zM502 79l13 -62c-65 -19 -117 -30 -191 -30c-146 0 -254 87 -254 268v166c0 181 108 268 254 268c72 0 124 -12 191 -32l-13 -61c-48 14 -105 30 -177 30c-110 0 -187 -66 -187 -208v-161c0 -146 77 -207 187 -207c72 0 129 15 177 29z
" />
    <glyph glyph-name="cacute" unicode="&#x107;" horiz-adv-x="469" 
d="M355 658l-193 -69l-19 50l186 81zM65 211v90c0 153 84 223 207 223c48 0 95 -9 142 -23l-11 -59c-43 11 -86 21 -130 21c-95 0 -142 -53 -142 -169v-76c0 -116 47 -170 142 -170c43 0 86 8 130 20l11 -58c-47 -14 -94 -23 -142 -23c-123 0 -207 71 -207 224z" />
    <glyph glyph-name="Ccircumflex" unicode="&#x108;" horiz-adv-x="560" 
d="M413 739l-99 68l-99 -68l-31 52l130 79l130 -79zM502 79l13 -62c-65 -19 -117 -30 -191 -30c-146 0 -254 87 -254 268v166c0 181 108 268 254 268c72 0 124 -12 191 -32l-13 -61c-48 14 -105 30 -177 30c-110 0 -187 -66 -187 -208v-161c0 -146 77 -207 187 -207
c72 0 129 15 177 29z" />
    <glyph glyph-name="ccircumflex" unicode="&#x109;" horiz-adv-x="469" 
d="M351 589l-99 68l-99 -68l-31 52l130 79l130 -79zM65 211v90c0 153 84 223 207 223c48 0 95 -9 142 -23l-11 -59c-43 11 -86 21 -130 21c-95 0 -142 -53 -142 -169v-76c0 -116 47 -170 142 -170c43 0 86 8 130 20l11 -58c-47 -14 -94 -23 -142 -23
c-123 0 -207 71 -207 224z" />
    <glyph glyph-name="Cdotaccent" unicode="&#x10a;" horiz-adv-x="560" 
d="M354 804c0 -24 -21 -45 -47 -45c-24 0 -46 21 -46 45c0 26 22 47 46 47c26 0 47 -21 47 -47zM502 79l13 -62c-65 -19 -117 -30 -191 -30c-146 0 -254 87 -254 268v166c0 181 108 268 254 268c72 0 124 -12 191 -32l-13 -61c-48 14 -105 30 -177 30
c-110 0 -187 -66 -187 -208v-161c0 -146 77 -207 187 -207c72 0 129 15 177 29z" />
    <glyph glyph-name="cdotaccent" unicode="&#x10b;" horiz-adv-x="469" 
d="M299 654c0 -24 -21 -45 -47 -45c-24 0 -46 21 -46 45c0 26 22 47 46 47c26 0 47 -21 47 -47zM65 211v90c0 153 84 223 207 223c48 0 95 -9 142 -23l-11 -59c-43 11 -86 21 -130 21c-95 0 -142 -53 -142 -169v-76c0 -116 47 -170 142 -170c43 0 86 8 130 20l11 -58
c-47 -14 -94 -23 -142 -23c-123 0 -207 71 -207 224z" />
    <glyph glyph-name="Ccaron" unicode="&#x10c;" horiz-adv-x="560" 
d="M443 818l-130 -80l-130 80l31 52l99 -69l99 69zM502 79l13 -62c-65 -19 -117 -30 -191 -30c-146 0 -254 87 -254 268v166c0 181 108 268 254 268c72 0 124 -12 191 -32l-13 -61c-48 14 -105 30 -177 30c-110 0 -187 -66 -187 -208v-161c0 -146 77 -207 187 -207
c72 0 129 15 177 29z" />
    <glyph glyph-name="ccaron" unicode="&#x10d;" horiz-adv-x="469" 
d="M384 668l-130 -80l-130 80l31 52l99 -69l99 69zM65 211v90c0 153 84 223 207 223c48 0 95 -9 142 -23l-11 -59c-43 11 -86 21 -130 21c-95 0 -142 -53 -142 -169v-76c0 -116 47 -170 142 -170c43 0 86 8 130 20l11 -58c-47 -14 -94 -23 -142 -23c-123 0 -207 71 -207 224
z" />
    <glyph glyph-name="Dcaron" unicode="&#x10e;" horiz-adv-x="621" 
d="M440 818l-130 -80l-130 80l31 52l99 -69l99 69zM321 0h-231v638c58 21 145 51 231 51c125 0 230 -86 230 -243v-209c0 -157 -83 -237 -230 -237zM483 240v202c0 119 -67 184 -163 184c-57 0 -124 -18 -162 -31v-532h163c107 0 162 53 162 177z" />
    <glyph glyph-name="dcaron" unicode="&#x10f;" horiz-adv-x="520" 
d="M569 551h-49v181l72 10zM65 200v110c0 148 89 214 192 214c53 0 102 -22 132 -42v250h66v-532c0 -139 -90 -213 -194 -213c-105 0 -196 74 -196 213zM131 305v-100c0 -108 58 -157 130 -157s128 49 128 157v214c-42 27 -83 44 -127 44c-71 0 -131 -40 -131 -158z" />
    <glyph glyph-name="Dcroat" unicode="&#x110;" horiz-adv-x="621" 
d="M321 0h-231v317h-63v52h63v269c58 21 145 51 231 51c125 0 230 -86 230 -243v-209c0 -157 -83 -237 -230 -237zM483 240v202c0 119 -67 184 -163 184c-57 0 -124 -18 -162 -31v-226h160v-52h-160v-254h163c107 0 162 53 162 177z" />
    <glyph glyph-name="dcroat" unicode="&#x111;" horiz-adv-x="520" 
d="M65 200v110c0 148 89 214 192 214c53 0 102 -22 132 -42v129h-118v52h118v69h66v-69h43v-52h-43v-411c0 -139 -90 -213 -194 -213c-105 0 -196 74 -196 213zM131 305v-100c0 -108 58 -157 130 -157s128 49 128 157v214c-42 27 -83 44 -127 44c-71 0 -131 -40 -131 -158z
" />
    <glyph glyph-name="Emacron" unicode="&#x112;" horiz-adv-x="522" 
d="M392 778h-253v62h253v-62zM90 0v676h353v-63h-285v-242h244l-6 -61h-238v-247h294v-63h-362z" />
    <glyph glyph-name="emacron" unicode="&#x113;" horiz-adv-x="506" 
d="M379 628h-253v62h253v-62zM65 195v125c0 133 86 204 190 204c106 0 191 -75 191 -185v-102h-315v-42c0 -102 53 -147 134 -147c47 0 91 10 137 23l13 -60c-50 -16 -99 -24 -150 -24c-116 0 -200 71 -200 208zM131 295h249v44c0 74 -52 124 -125 124
c-72 0 -124 -45 -124 -143v-25z" />
    <glyph glyph-name="Ebreve" unicode="&#x114;" horiz-adv-x="522" 
d="M314 863h58c0 -68 -48 -115 -111 -115c-64 0 -112 47 -112 115h58c0 -34 23 -60 54 -60c29 0 53 26 53 60zM90 0v676h353v-63h-285v-242h244l-6 -61h-238v-247h294v-63h-362z" />
    <glyph glyph-name="ebreve" unicode="&#x115;" horiz-adv-x="506" 
d="M306 713h58c0 -68 -48 -115 -111 -115c-64 0 -112 47 -112 115h58c0 -34 23 -60 54 -60c29 0 53 26 53 60zM65 195v125c0 133 86 204 190 204c106 0 191 -75 191 -185v-102h-315v-42c0 -102 53 -147 134 -147c47 0 91 10 137 23l13 -60c-50 -16 -99 -24 -150 -24
c-116 0 -200 71 -200 208zM131 295h249v44c0 74 -52 124 -125 124c-72 0 -124 -45 -124 -143v-25z" />
    <glyph glyph-name="Edotaccent" unicode="&#x116;" horiz-adv-x="522" 
d="M320 804c0 -24 -21 -45 -47 -45c-24 0 -46 21 -46 45c0 26 22 47 46 47c26 0 47 -21 47 -47zM90 0v676h353v-63h-285v-242h244l-6 -61h-238v-247h294v-63h-362z" />
    <glyph glyph-name="edotaccent" unicode="&#x117;" horiz-adv-x="506" 
d="M299 654c0 -24 -21 -45 -47 -45c-24 0 -46 21 -46 45c0 26 22 47 46 47c26 0 47 -21 47 -47zM65 195v125c0 133 86 204 190 204c106 0 191 -75 191 -185v-102h-315v-42c0 -102 53 -147 134 -147c47 0 91 10 137 23l13 -60c-50 -16 -99 -24 -150 -24
c-116 0 -200 71 -200 208zM131 295h249v44c0 74 -52 124 -125 124c-72 0 -124 -45 -124 -143v-25z" />
    <glyph glyph-name="Eogonek" unicode="&#x118;" horiz-adv-x="522" 
d="M90 0v676h353v-63h-285v-242h244l-6 -61h-238v-247h294v-63c-47 -36 -91 -75 -91 -128c0 -28 18 -42 42 -42c12 0 25 1 37 6l12 -50c-16 -6 -32 -9 -48 -9c-59 0 -98 36 -98 91s42 103 82 132h-298z" />
    <glyph glyph-name="eogonek" unicode="&#x119;" horiz-adv-x="506" 
d="M403 -164l12 -50c-16 -6 -32 -9 -48 -9c-59 0 -98 36 -98 91c0 44 28 92 60 123c-19 -2 -40 -4 -64 -4c-116 0 -200 71 -200 208v125c0 133 86 204 190 204c106 0 191 -75 191 -185v-102h-315v-42c0 -102 53 -147 134 -147c48 0 99 12 137 23l13 -60
c-47 -36 -91 -86 -91 -139c0 -28 18 -42 42 -42c12 0 25 1 37 6zM380 295v44c0 74 -52 124 -125 124c-72 0 -124 -45 -124 -143v-25h249z" />
    <glyph glyph-name="Ecaron" unicode="&#x11a;" horiz-adv-x="522" 
d="M404 818l-130 -80l-130 80l31 52l99 -69l99 69zM90 0v676h353v-63h-285v-242h244l-6 -61h-238v-247h294v-63h-362z" />
    <glyph glyph-name="ecaron" unicode="&#x11b;" horiz-adv-x="506" 
d="M383 668l-130 -80l-130 80l31 52l99 -69l99 69zM65 195v125c0 133 86 204 190 204c106 0 191 -75 191 -185v-102h-315v-42c0 -102 53 -147 134 -147c47 0 91 10 137 23l13 -60c-50 -16 -99 -24 -150 -24c-116 0 -200 71 -200 208zM131 295h249v44c0 74 -52 124 -125 124
c-72 0 -124 -45 -124 -143v-25z" />
    <glyph glyph-name="Gcircumflex" unicode="&#x11c;" horiz-adv-x="602" 
d="M411 739l-99 68l-99 -68l-31 52l130 79l130 -79zM70 255v166c0 181 108 268 254 268c72 0 122 -12 188 -31l-15 -61c-47 15 -103 29 -172 29c-110 0 -187 -66 -187 -207v-162c0 -141 77 -207 187 -207c55 0 95 10 136 20v227h-76v59h142v-333c-59 -20 -129 -36 -203 -36
c-146 0 -254 87 -254 268z" />
    <glyph glyph-name="gcircumflex" unicode="&#x11d;" horiz-adv-x="469" 
d="M324 589l-99 68l-99 -68l-31 52l130 79l130 -79zM57 -121c58 -24 113 -42 173 -42c95 0 135 39 135 81c0 104 -261 45 -261 168c0 21 13 41 31 55c-51 28 -83 80 -83 148v63c0 103 74 172 176 172c26 0 50 -5 71 -13l145 10l-4 -53l-76 -5c24 -29 38 -67 38 -111v-63
c0 -103 -72 -171 -174 -171c-14 0 -27 1 -40 3c-11 -9 -18 -18 -18 -28c0 -57 263 -22 263 -171c0 -75 -65 -146 -203 -146c-74 0 -149 24 -195 45zM228 179c76 0 109 46 109 110v63c0 65 -33 111 -109 111c-77 0 -111 -48 -111 -111v-63c0 -64 34 -110 111 -110z" />
    <glyph glyph-name="Gbreve" unicode="&#x11e;" horiz-adv-x="602" 
d="M366 863h58c0 -68 -48 -115 -111 -115c-64 0 -112 47 -112 115h58c0 -34 23 -60 54 -60c29 0 53 26 53 60zM70 255v166c0 181 108 268 254 268c72 0 122 -12 188 -31l-15 -61c-47 15 -103 29 -172 29c-110 0 -187 -66 -187 -207v-162c0 -141 77 -207 187 -207
c55 0 95 10 136 20v227h-76v59h142v-333c-59 -20 -129 -36 -203 -36c-146 0 -254 87 -254 268z" />
    <glyph glyph-name="gbreve" unicode="&#x11f;" horiz-adv-x="469" 
d="M276 713h58c0 -68 -48 -115 -111 -115c-64 0 -112 47 -112 115h58c0 -34 23 -60 54 -60c29 0 53 26 53 60zM57 -121c58 -24 113 -42 173 -42c95 0 135 39 135 81c0 104 -261 45 -261 168c0 21 13 41 31 55c-51 28 -83 80 -83 148v63c0 103 74 172 176 172
c26 0 50 -5 71 -13l145 10l-4 -53l-76 -5c24 -29 38 -67 38 -111v-63c0 -103 -72 -171 -174 -171c-14 0 -27 1 -40 3c-11 -9 -18 -18 -18 -28c0 -57 263 -22 263 -171c0 -75 -65 -146 -203 -146c-74 0 -149 24 -195 45zM228 179c76 0 109 46 109 110v63
c0 65 -33 111 -109 111c-77 0 -111 -48 -111 -111v-63c0 -64 34 -110 111 -110z" />
    <glyph glyph-name="Gdotaccent" unicode="&#x120;" horiz-adv-x="602" 
d="M354 804c0 -24 -21 -45 -47 -45c-24 0 -46 21 -46 45c0 26 22 47 46 47c26 0 47 -21 47 -47zM70 255v166c0 181 108 268 254 268c72 0 122 -12 188 -31l-15 -61c-47 15 -103 29 -172 29c-110 0 -187 -66 -187 -207v-162c0 -141 77 -207 187 -207c55 0 95 10 136 20v227
h-76v59h142v-333c-59 -20 -129 -36 -203 -36c-146 0 -254 87 -254 268z" />
    <glyph glyph-name="gdotaccent" unicode="&#x121;" horiz-adv-x="469" 
d="M266 654c0 -24 -21 -45 -47 -45c-24 0 -46 21 -46 45c0 26 22 47 46 47c26 0 47 -21 47 -47zM57 -121c58 -24 113 -42 173 -42c95 0 135 39 135 81c0 104 -261 45 -261 168c0 21 13 41 31 55c-51 28 -83 80 -83 148v63c0 103 74 172 176 172c26 0 50 -5 71 -13l145 10
l-4 -53l-76 -5c24 -29 38 -67 38 -111v-63c0 -103 -72 -171 -174 -171c-14 0 -27 1 -40 3c-11 -9 -18 -18 -18 -28c0 -57 263 -22 263 -171c0 -75 -65 -146 -203 -146c-74 0 -149 24 -195 45zM228 179c76 0 109 46 109 110v63c0 65 -33 111 -109 111
c-77 0 -111 -48 -111 -111v-63c0 -64 34 -110 111 -110z" />
    <glyph glyph-name="Gcommaaccent" unicode="&#x122;" horiz-adv-x="602" 
d="M70 255v166c0 181 108 268 254 268c72 0 122 -12 188 -31l-15 -61c-47 15 -103 29 -172 29c-110 0 -187 -66 -187 -207v-162c0 -141 77 -207 187 -207c55 0 95 10 136 20v227h-76v59h142v-333c-59 -20 -129 -36 -203 -36c-146 0 -254 87 -254 268zM298 -224h-49l31 159
h69z" />
    <glyph glyph-name="gcommaaccent" unicode="&#x123;" horiz-adv-x="469" 
d="M248 582h-49l31 159h69zM57 -121c58 -24 113 -42 173 -42c95 0 135 39 135 81c0 104 -261 45 -261 168c0 21 13 41 31 55c-51 28 -83 80 -83 148v63c0 103 74 172 176 172c26 0 50 -5 71 -13l145 10l-4 -53l-76 -5c24 -29 38 -67 38 -111v-63c0 -103 -72 -171 -174 -171
c-14 0 -27 1 -40 3c-11 -9 -18 -18 -18 -28c0 -57 263 -22 263 -171c0 -75 -65 -146 -203 -146c-74 0 -149 24 -195 45zM228 179c76 0 109 46 109 110v63c0 65 -33 111 -109 111c-77 0 -111 -48 -111 -111v-63c0 -64 34 -110 111 -110z" />
    <glyph glyph-name="Hcircumflex" unicode="&#x124;" horiz-adv-x="631" 
d="M414 739l-99 68l-99 -68l-31 52l130 79l130 -79zM90 0v676h68v-300h315v300h68v-676h-68v313h-315v-313h-68z" />
    <glyph glyph-name="hcircumflex" unicode="&#x125;" horiz-adv-x="546" 
d="M215 732l-99 68l-99 -68l-31 52l130 79l130 -79zM466 0h-66v316c0 115 -51 147 -121 147c-44 0 -87 -17 -128 -44v-419h-66v732h66v-250c30 20 80 42 133 42c103 0 182 -55 182 -203v-321z" />
    <glyph glyph-name="Hbar" unicode="&#x126;" horiz-adv-x="631" 
d="M541 0h-68v313h-315v-313h-68v495h-40v52h40v129h68v-129h315v129h68v-129h40v-52h-40v-495zM473 376v119h-315v-119h315z" />
    <glyph glyph-name="hbar" unicode="&#x127;" horiz-adv-x="546" 
d="M466 0h-66v316c0 115 -51 147 -121 147c-44 0 -87 -17 -128 -44v-419h-66v611h-41v52h41v69h66v-69h120v-52h-120v-129c30 20 80 42 133 42c103 0 182 -55 182 -203v-321z" />
    <glyph glyph-name="Itilde" unicode="&#x128;" horiz-adv-x="248" 
d="M230 839l32 -33c-8 -18 -35 -55 -78 -55c-54 0 -85 48 -119 48c-21 0 -38 -17 -47 -28l-32 33c8 18 34 55 79 55c53 0 85 -49 119 -49c20 0 37 17 46 29zM90 0v676h68v-676h-68z" />
    <glyph glyph-name="itilde" unicode="&#x129;" horiz-adv-x="236" 
d="M224 689l32 -33c-8 -18 -35 -55 -78 -55c-54 0 -85 48 -119 48c-21 0 -38 -17 -47 -28l-32 33c8 18 34 55 79 55c53 0 85 -49 119 -49c20 0 37 17 46 29zM151 0h-66v511h66v-511z" />
    <glyph glyph-name="Imacron" unicode="&#x12a;" horiz-adv-x="248" 
d="M251 778h-253v62h253v-62zM90 0v676h68v-676h-68z" />
    <glyph glyph-name="imacron" unicode="&#x12b;" horiz-adv-x="236" 
d="M244 628h-253v62h253v-62zM151 0h-66v511h66v-511z" />
    <glyph glyph-name="Ibreve" unicode="&#x12c;" horiz-adv-x="248" 
d="M178 877h58c0 -68 -48 -115 -111 -115c-64 0 -112 47 -112 115h58c0 -34 23 -60 54 -60c29 0 53 26 53 60zM90 0v676h68v-676h-68z" />
    <glyph glyph-name="ibreve" unicode="&#x12d;" horiz-adv-x="236" 
d="M171 713h58c0 -68 -48 -115 -111 -115c-64 0 -112 47 -112 115h58c0 -34 23 -60 54 -60c29 0 53 26 53 60zM151 0h-66v511h66v-511z" />
    <glyph glyph-name="Iogonek" unicode="&#x12e;" horiz-adv-x="248" 
d="M90 0v676h68v-676c-47 -36 -91 -75 -91 -128c0 -28 18 -42 42 -42c12 0 25 1 37 6l12 -50c-16 -6 -32 -9 -48 -9c-59 0 -98 36 -98 91s42 103 82 132h-4z" />
    <glyph glyph-name="iogonek" unicode="&#x12f;" horiz-adv-x="236" 
d="M118 608c-26 0 -47 21 -47 46s21 45 47 45c25 0 47 -20 47 -45s-22 -46 -47 -46zM85 0v511h66v-511c-47 -36 -91 -75 -91 -128c0 -28 18 -42 42 -42c12 0 25 1 37 6l12 -50c-16 -6 -32 -9 -48 -9c-59 0 -98 36 -98 91s42 103 80 132z" />
    <glyph glyph-name="Idotaccent" unicode="&#x130;" horiz-adv-x="248" 
d="M171 804c0 -24 -21 -45 -47 -45c-24 0 -46 21 -46 45c0 26 22 47 46 47c26 0 47 -21 47 -47zM90 0v676h68v-676h-68z" />
    <glyph glyph-name="dotlessi" unicode="&#x131;" horiz-adv-x="236" 
d="M151 0h-66v511h66v-511z" />
    <glyph glyph-name="IJ" unicode="&#x132;" horiz-adv-x="720" 
d="M572 215v461l68 -7v-457c0 -140 -78 -225 -202 -225c-52 0 -104 10 -155 29l15 60c37 -13 89 -26 137 -26c97 0 137 72 137 165zM158 0h-68v676h68v-676z" />
    <glyph glyph-name="ij" unicode="&#x133;" horiz-adv-x="471" 
d="M400 654c0 -25 -23 -46 -47 -46c-27 0 -48 21 -48 46s21 45 48 45c24 0 47 -20 47 -45zM165 654c0 -25 -22 -46 -47 -46c-26 0 -47 21 -47 46s21 45 47 45c25 0 47 -20 47 -45zM386 -202l-66 -20v733h66v-713zM151 0h-66v511h66v-511z" />
    <glyph glyph-name="Jcircumflex" unicode="&#x134;" horiz-adv-x="472" 
d="M453 739l-99 68l-99 -68l-31 52l130 79l130 -79zM35 16l15 60c37 -13 89 -26 137 -26c97 0 137 72 137 165v461l68 -7v-457c0 -140 -78 -225 -202 -225c-52 0 -104 10 -155 29z" />
    <glyph glyph-name="jcircumflex" unicode="&#x135;" horiz-adv-x="236" 
d="M218 589l-99 68l-99 -68l-31 52l130 79l130 -79zM151 -202l-66 -20v733h66v-713z" />
    <glyph glyph-name="Kcommaaccent" unicode="&#x136;" horiz-adv-x="579" 
d="M90 0v676h68v-379l276 379h75l-218 -306l253 -370h-79l-215 313l-92 -130v-183h-68zM287 -224h-49l31 159h69z" />
    <glyph glyph-name="kcommaaccent" unicode="&#x137;" horiz-adv-x="471" 
d="M85 0v732h66v-455l113 41c33 12 47 30 57 67l34 126h66l-37 -134c-14 -51 -30 -91 -82 -110l139 -267h-70l-127 246l-93 -35v-211h-66zM233 -224h-49l31 159h69z" />
    <glyph glyph-name="Lacute" unicode="&#x139;" horiz-adv-x="503" 
d="M232 808l-193 -69l-19 50l186 81zM90 0v676h68v-613h300l-7 -63h-361z" />
    <glyph glyph-name="lacute" unicode="&#x13a;" horiz-adv-x="236" 
d="M223 818l-193 -69l-19 50l186 81zM151 0h-66v725l66 20v-745z" />
    <glyph glyph-name="Lcommaaccent" unicode="&#x13b;" horiz-adv-x="503" 
d="M90 0v676h68v-613h300l-7 -63h-361zM263 -224h-49l31 159h69z" />
    <glyph glyph-name="lcommaaccent" unicode="&#x13c;" horiz-adv-x="236" 
d="M85 0v725l66 20v-745h-66zM101 -224h-49l31 159h69z" />
    <glyph glyph-name="Lcaron" unicode="&#x13d;" horiz-adv-x="503" 
d="M344 495h-49v181l72 10zM451 0h-361v676h68v-613h300z" />
    <glyph glyph-name="lcaron" unicode="&#x13e;" horiz-adv-x="236" 
d="M85 0v725l66 20v-745h-66zM265 551h-49v181l72 10z" />
    <glyph glyph-name="Ldot" unicode="&#x13f;" horiz-adv-x="503" 
d="M451 0h-361v676h68v-613h300zM362 278c0 -24 -21 -45 -48 -45c-24 0 -46 21 -46 45c0 27 22 48 46 48c27 0 48 -21 48 -48z" />
    <glyph glyph-name="ldot" unicode="&#x140;" horiz-adv-x="289" 
d="M151 0h-66v725l66 20v-745zM305 278c0 -24 -21 -45 -48 -45c-24 0 -46 21 -46 45c0 27 22 48 46 48c27 0 48 -21 48 -48z" />
    <glyph glyph-name="Lslash" unicode="&#x141;" horiz-adv-x="503" 
d="M451 0h-361v291l-61 -22l-17 47l78 28v332h68v-307l104 38l17 -47l-121 -44v-253h300z" />
    <glyph glyph-name="lslash" unicode="&#x142;" horiz-adv-x="236" 
d="M151 0h-66v299l-65 -23l-17 47l82 29v373l66 20v-369l66 24l17 -47l-83 -30v-323z" />
    <glyph glyph-name="Nacute" unicode="&#x143;" horiz-adv-x="624" 
d="M418 808l-193 -69l-19 50l186 81zM90 0v676h53l325 -546c-2 35 -2 69 -2 95v451h68v-676h-58l-322 537c3 -35 4 -71 4 -96v-441h-68z" />
    <glyph glyph-name="nacute" unicode="&#x144;" horiz-adv-x="540" 
d="M376 658l-193 -69l-19 50l186 81zM80 0v321c0 132 87 203 191 203c106 0 189 -71 189 -203v-321h-66v316c0 98 -52 147 -123 147c-72 0 -125 -49 -125 -147v-316h-66z" />
    <glyph glyph-name="Ncommaaccent" unicode="&#x145;" horiz-adv-x="624" 
d="M90 0v676h53l325 -546c-2 35 -2 69 -2 95v451h68v-676h-58l-322 537c3 -35 4 -71 4 -96v-441h-68zM309 -224h-49l31 159h69z" />
    <glyph glyph-name="ncommaaccent" unicode="&#x146;" horiz-adv-x="540" 
d="M80 0v321c0 132 87 203 191 203c106 0 189 -71 189 -203v-321h-66v316c0 98 -52 147 -123 147c-72 0 -125 -49 -125 -147v-316h-66zM267 -224h-49l31 159h69z" />
    <glyph glyph-name="Ncaron" unicode="&#x147;" horiz-adv-x="624" 
d="M442 818l-130 -80l-130 80l31 52l99 -69l99 69zM90 0v676h53l325 -546c-2 35 -2 69 -2 95v451h68v-676h-58l-322 537c3 -35 4 -71 4 -96v-441h-68z" />
    <glyph glyph-name="ncaron" unicode="&#x148;" horiz-adv-x="540" 
d="M400 668l-130 -80l-130 80l31 52l99 -69l99 69zM80 0v321c0 132 87 203 191 203c106 0 189 -71 189 -203v-321h-66v316c0 98 -52 147 -123 147c-72 0 -125 -49 -125 -147v-316h-66z" />
    <glyph glyph-name="Eng" unicode="&#x14a;" horiz-adv-x="624" 
d="M534 -202l-66 -20v235l-314 524c3 -35 4 -71 4 -96v-441h-68v676h53l325 -546c-2 35 -2 69 -2 95v451h68v-878z" />
    <glyph glyph-name="eng" unicode="&#x14b;" horiz-adv-x="540" 
d="M460 -199l-66 -20v533c0 98 -52 147 -123 147c-72 0 -125 -49 -125 -147v-314h-66v319c0 132 87 203 191 203c106 0 189 -71 189 -203v-518z" />
    <glyph glyph-name="Omacron" unicode="&#x14c;" horiz-adv-x="625" 
d="M439 778h-253v62h253v-62zM70 255v164c0 181 109 270 243 270c133 0 242 -89 242 -270v-164c0 -181 -109 -268 -242 -268c-134 0 -243 87 -243 268zM138 416v-158c0 -141 74 -208 175 -208s174 67 174 208v158c0 143 -73 210 -174 210s-175 -67 -175 -210z" />
    <glyph glyph-name="omacron" unicode="&#x14d;" horiz-adv-x="533" 
d="M393 628h-253v62h253v-62zM65 212v88c0 156 86 224 201 224c116 0 202 -69 202 -225v-87c0 -155 -86 -225 -202 -225c-115 0 -201 70 -201 225zM131 217c0 -128 58 -169 135 -169c76 0 136 41 136 169v77c0 129 -58 169 -136 169c-75 0 -135 -40 -135 -169v-77z" />
    <glyph glyph-name="Obreve" unicode="&#x14e;" horiz-adv-x="625" 
d="M366 863h58c0 -68 -48 -115 -111 -115c-64 0 -112 47 -112 115h58c0 -34 23 -60 54 -60c29 0 53 26 53 60zM70 255v164c0 181 109 270 243 270c133 0 242 -89 242 -270v-164c0 -181 -109 -268 -242 -268c-134 0 -243 87 -243 268zM138 416v-158c0 -141 74 -208 175 -208
s174 67 174 208v158c0 143 -73 210 -174 210s-175 -67 -175 -210z" />
    <glyph glyph-name="obreve" unicode="&#x14f;" horiz-adv-x="533" 
d="M320 713h58c0 -68 -48 -115 -111 -115c-64 0 -112 47 -112 115h58c0 -34 23 -60 54 -60c29 0 53 26 53 60zM65 212v88c0 156 86 224 201 224c116 0 202 -69 202 -225v-87c0 -155 -86 -225 -202 -225c-115 0 -201 70 -201 225zM131 217c0 -128 58 -169 135 -169
c76 0 136 41 136 169v77c0 129 -58 169 -136 169c-75 0 -135 -40 -135 -169v-77z" />
    <glyph glyph-name="Ohungarumlaut" unicode="&#x150;" horiz-adv-x="625" 
d="M543 825l-162 -92l-28 46l156 103zM347 824l-162 -92l-28 46l156 103zM70 255v164c0 181 109 270 243 270c133 0 242 -89 242 -270v-164c0 -181 -109 -268 -242 -268c-134 0 -243 87 -243 268zM138 416v-158c0 -141 74 -208 175 -208s174 67 174 208v158
c0 143 -73 210 -174 210s-175 -67 -175 -210z" />
    <glyph glyph-name="ohungarumlaut" unicode="&#x151;" horiz-adv-x="533" 
d="M490 675l-162 -92l-28 46l156 103zM294 674l-162 -92l-28 46l156 103zM65 212v88c0 156 86 224 201 224c116 0 202 -69 202 -225v-87c0 -155 -86 -225 -202 -225c-115 0 -201 70 -201 225zM131 217c0 -128 58 -169 135 -169c76 0 136 41 136 169v77
c0 129 -58 169 -136 169c-75 0 -135 -40 -135 -169v-77z" />
    <glyph glyph-name="OE" unicode="&#x152;" horiz-adv-x="890" 
d="M820 0h-424c-26 -8 -54 -13 -83 -13c-134 0 -243 87 -243 268v164c0 181 109 270 243 270c29 0 57 -5 83 -13h415v-63h-319c39 -45 63 -109 63 -194v-48h215l-6 -61h-209v-55c0 -84 -24 -148 -62 -192h327v-63zM487 258v158c0 143 -73 210 -174 210s-175 -67 -175 -210
v-158c0 -141 74 -208 175 -208s174 67 174 208z" />
    <glyph glyph-name="oe" unicode="&#x153;" horiz-adv-x="843" 
d="M739 71l13 -60c-42 -13 -87 -24 -150 -24c-75 0 -135 29 -169 86c-35 -59 -95 -86 -167 -86c-115 0 -201 70 -201 225v88c0 156 86 224 201 224c72 0 132 -27 167 -86c34 56 92 86 159 86c106 0 191 -75 191 -185v-102h-315v-42c0 -102 53 -147 134 -147
c48 0 99 12 137 23zM717 295v44c0 74 -52 124 -125 124c-72 0 -124 -45 -124 -143v-25h249zM402 217v77c0 129 -58 169 -136 169c-75 0 -135 -40 -135 -169v-77c0 -128 58 -169 135 -169c76 0 136 41 136 169z" />
    <glyph glyph-name="Racute" unicode="&#x154;" horiz-adv-x="552" 
d="M382 808l-193 -69l-19 50l186 81zM90 0v676h218c117 0 194 -90 194 -200c0 -90 -54 -166 -139 -188l136 -288h-76l-129 281h-136v-281h-68zM158 339h150c80 0 125 58 125 137c0 80 -45 137 -125 137h-150v-274z" />
    <glyph glyph-name="racute" unicode="&#x155;" horiz-adv-x="347" 
d="M301 658l-193 -69l-19 50l186 81zM80 0v337c0 114 83 187 188 187c19 0 47 -4 59 -6l-12 -60c-6 1 -31 5 -46 5c-72 0 -123 -50 -123 -126v-337h-66z" />
    <glyph glyph-name="Rcommaaccent" unicode="&#x156;" horiz-adv-x="552" 
d="M90 0v676h218c117 0 194 -90 194 -200c0 -90 -54 -166 -139 -188l136 -288h-76l-129 281h-136v-281h-68zM158 339h150c80 0 125 58 125 137c0 80 -45 137 -125 137h-150v-274zM273 -224h-49l31 159h69z" />
    <glyph glyph-name="rcommaaccent" unicode="&#x157;" horiz-adv-x="347" 
d="M80 0v337c0 114 83 187 188 187c19 0 47 -4 59 -6l-12 -60c-6 1 -31 5 -46 5c-72 0 -123 -50 -123 -126v-337h-66zM93 -224h-49l31 159h69z" />
    <glyph glyph-name="Rcaron" unicode="&#x158;" horiz-adv-x="552" 
d="M406 818l-130 -80l-130 80l31 52l99 -69l99 69zM90 0v676h218c117 0 194 -90 194 -200c0 -90 -54 -166 -139 -188l136 -288h-76l-129 281h-136v-281h-68zM158 339h150c80 0 125 58 125 137c0 80 -45 137 -125 137h-150v-274z" />
    <glyph glyph-name="rcaron" unicode="&#x159;" horiz-adv-x="347" 
d="M318 668l-130 -80l-130 80l31 52l99 -69l99 69zM80 0v337c0 114 83 187 188 187c19 0 47 -4 59 -6l-12 -60c-6 1 -31 5 -46 5c-72 0 -123 -50 -123 -126v-337h-66z" />
    <glyph glyph-name="Sacute" unicode="&#x15a;" horiz-adv-x="497" 
d="M354 808l-193 -69l-19 50l186 81zM50 21l12 62c51 -17 114 -33 177 -33c71 0 138 40 138 121c0 184 -315 122 -315 347c0 103 83 171 201 171c57 0 111 -11 167 -32l-17 -60c-50 16 -99 29 -150 29c-80 0 -131 -37 -131 -106c0 -171 315 -111 315 -347
c0 -122 -95 -186 -208 -186c-77 0 -141 18 -189 34z" />
    <glyph glyph-name="sacute" unicode="&#x15b;" horiz-adv-x="416" 
d="M314 658l-193 -69l-19 50l186 81zM49 11l12 60c44 -12 87 -23 131 -23c65 0 107 35 107 83c0 132 -240 79 -240 255c0 79 60 138 162 138c44 0 86 -8 129 -22l-17 -59c-38 12 -73 20 -112 20c-63 0 -94 -32 -94 -77c0 -120 240 -70 240 -253c0 -71 -54 -146 -175 -146
c-49 0 -95 7 -143 24z" />
    <glyph glyph-name="Scircumflex" unicode="&#x15c;" horiz-adv-x="497" 
d="M347 739l-99 68l-99 -68l-31 52l130 79l130 -79zM50 21l12 62c51 -17 114 -33 177 -33c71 0 138 40 138 121c0 184 -315 122 -315 347c0 103 83 171 201 171c57 0 111 -11 167 -32l-17 -60c-50 16 -99 29 -150 29c-80 0 -131 -37 -131 -106c0 -171 315 -111 315 -347
c0 -122 -95 -186 -208 -186c-77 0 -141 18 -189 34z" />
    <glyph glyph-name="scircumflex" unicode="&#x15d;" horiz-adv-x="416" 
d="M307 589l-99 68l-99 -68l-31 52l130 79l130 -79zM49 11l12 60c44 -12 87 -23 131 -23c65 0 107 35 107 83c0 132 -240 79 -240 255c0 79 60 138 162 138c44 0 86 -8 129 -22l-17 -59c-38 12 -73 20 -112 20c-63 0 -94 -32 -94 -77c0 -120 240 -70 240 -253
c0 -71 -54 -146 -175 -146c-49 0 -95 7 -143 24z" />
    <glyph glyph-name="Scedilla" unicode="&#x15e;" horiz-adv-x="497" 
d="M218 -98v86c-68 3 -125 18 -168 33l12 62c51 -17 114 -33 177 -33c71 0 138 40 138 121c0 184 -315 122 -315 347c0 103 83 171 201 171c57 0 111 -11 167 -32l-17 -60c-50 16 -99 29 -150 29c-80 0 -131 -37 -131 -106c0 -171 315 -111 315 -347
c0 -107 -73 -169 -167 -183v-95c0 -81 -58 -106 -114 -106c-22 0 -42 2 -57 6l8 57c12 -3 30 -5 44 -5c40 0 57 18 57 55z" />
    <glyph glyph-name="scedilla" unicode="&#x15f;" horiz-adv-x="416" 
d="M184 -98v85c-46 1 -90 8 -135 24l12 60c44 -12 87 -23 131 -23c65 0 107 35 107 83c0 132 -240 79 -240 255c0 79 60 138 162 138c44 0 86 -8 129 -22l-17 -59c-38 12 -73 20 -112 20c-63 0 -94 -32 -94 -77c0 -120 240 -70 240 -253c0 -60 -38 -122 -121 -140v-98
c0 -81 -58 -106 -114 -106c-22 0 -42 2 -57 6l8 57c12 -3 30 -5 44 -5c40 0 57 18 57 55z" />
    <glyph glyph-name="Scaron" unicode="&#x160;" horiz-adv-x="497" 
d="M378 818l-130 -80l-130 80l31 52l99 -69l99 69zM50 21l12 62c51 -17 114 -33 177 -33c71 0 138 40 138 121c0 184 -315 122 -315 347c0 103 83 171 201 171c57 0 111 -11 167 -32l-17 -60c-50 16 -99 29 -150 29c-80 0 -131 -37 -131 -106c0 -171 315 -111 315 -347
c0 -122 -95 -186 -208 -186c-77 0 -141 18 -189 34z" />
    <glyph glyph-name="scaron" unicode="&#x161;" horiz-adv-x="416" 
d="M338 668l-130 -80l-130 80l31 52l99 -69l99 69zM49 11l12 60c44 -12 87 -23 131 -23c65 0 107 35 107 83c0 132 -240 79 -240 255c0 79 60 138 162 138c44 0 86 -8 129 -22l-17 -59c-38 12 -73 20 -112 20c-63 0 -94 -32 -94 -77c0 -120 240 -70 240 -253
c0 -71 -54 -146 -175 -146c-49 0 -95 7 -143 24z" />
    <glyph glyph-name="Tcommaaccent" unicode="&#x162;" horiz-adv-x="518" 
d="M225 0v613h-190v63h448v-63h-190v-613h-68zM242 -224h-49l31 159h69z" />
    <glyph glyph-name="tcommaaccent" unicode="&#x163;" horiz-adv-x="293" 
d="M100 0v459h-66l-22 52h88v150l66 19v-169h109v-52h-109v-459h-66zM115 -224h-49l31 159h69z" />
    <glyph glyph-name="Tcaron" unicode="&#x164;" horiz-adv-x="518" 
d="M389 818l-130 -80l-130 80l31 52l99 -69l99 69zM225 0v613h-190v63h448v-63h-190v-613h-68z" />
    <glyph glyph-name="tcaron" unicode="&#x165;" horiz-adv-x="291" 
d="M297 571h-49v181l72 10zM164 0h-64v455h-66l-20 56h86v150l64 19v-169h108v-56h-108v-455z" />
    <glyph glyph-name="Tbar" unicode="&#x166;" horiz-adv-x="518" 
d="M293 0h-68v327h-110v52h110v234h-190v63h448v-63h-190v-234h116v-52h-116v-327z" />
    <glyph glyph-name="tbar" unicode="&#x167;" horiz-adv-x="293" 
d="M166 0h-66v256h-65v52h65v151h-66l-22 52h88v150l66 19v-169h109v-52h-109v-151h107v-52h-107v-256z" />
    <glyph glyph-name="Utilde" unicode="&#x168;" horiz-adv-x="627" 
d="M419 839l32 -33c-8 -18 -35 -55 -78 -55c-54 0 -85 48 -119 48c-21 0 -38 -17 -47 -28l-32 33c8 18 34 55 79 55c53 0 85 -49 119 -49c20 0 37 17 46 29zM85 213v463h68v-460c0 -96 67 -166 162 -166c94 0 160 70 160 166v460h67v-463c0 -134 -102 -226 -227 -226
c-127 0 -230 92 -230 226z" />
    <glyph glyph-name="utilde" unicode="&#x169;" horiz-adv-x="540" 
d="M376 689l32 -33c-8 -18 -35 -55 -78 -55c-54 0 -85 48 -119 48c-21 0 -38 -17 -47 -28l-32 33c8 18 34 55 79 55c53 0 85 -49 119 -49c20 0 37 17 46 29zM80 190v321h66v-316c0 -98 52 -147 124 -147c71 0 124 49 124 147v316h66v-321c0 -132 -86 -203 -190 -203
c-106 0 -190 71 -190 203z" />
    <glyph glyph-name="Umacron" unicode="&#x16a;" horiz-adv-x="627" 
d="M440 778h-253v62h253v-62zM85 213v463h68v-460c0 -96 67 -166 162 -166c94 0 160 70 160 166v460h67v-463c0 -134 -102 -226 -227 -226c-127 0 -230 92 -230 226z" />
    <glyph glyph-name="umacron" unicode="&#x16b;" horiz-adv-x="540" 
d="M396 628h-253v62h253v-62zM80 190v321h66v-316c0 -98 52 -147 124 -147c71 0 124 49 124 147v316h66v-321c0 -132 -86 -203 -190 -203c-106 0 -190 71 -190 203z" />
    <glyph glyph-name="Ubreve" unicode="&#x16c;" horiz-adv-x="627" 
d="M367 863h58c0 -68 -48 -115 -111 -115c-64 0 -112 47 -112 115h58c0 -34 23 -60 54 -60c29 0 53 26 53 60zM85 213v463h68v-460c0 -96 67 -166 162 -166c94 0 160 70 160 166v460h67v-463c0 -134 -102 -226 -227 -226c-127 0 -230 92 -230 226z" />
    <glyph glyph-name="ubreve" unicode="&#x16d;" horiz-adv-x="540" 
d="M323 713h58c0 -68 -48 -115 -111 -115c-64 0 -112 47 -112 115h58c0 -34 23 -60 54 -60c29 0 53 26 53 60zM80 190v321h66v-316c0 -98 52 -147 124 -147c71 0 124 49 124 147v316h66v-321c0 -132 -86 -203 -190 -203c-106 0 -190 71 -190 203z" />
    <glyph glyph-name="Uring" unicode="&#x16e;" horiz-adv-x="627" 
d="M315 739c-48 0 -87 39 -87 86c0 46 39 85 87 85c46 0 85 -39 85 -85c0 -47 -39 -86 -85 -86zM315 789c19 0 35 17 35 36c0 20 -16 36 -35 36c-20 0 -35 -16 -35 -36c0 -19 15 -36 35 -36zM85 213v463h68v-460c0 -96 67 -166 162 -166c94 0 160 70 160 166v460h67v-463
c0 -134 -102 -226 -227 -226c-127 0 -230 92 -230 226z" />
    <glyph glyph-name="uring" unicode="&#x16f;" horiz-adv-x="540" 
d="M271 589c-48 0 -87 39 -87 86c0 46 39 85 87 85c46 0 85 -39 85 -85c0 -47 -39 -86 -85 -86zM271 639c19 0 35 17 35 36c0 20 -16 36 -35 36c-20 0 -35 -16 -35 -36c0 -19 15 -36 35 -36zM80 190v321h66v-316c0 -98 52 -147 124 -147c71 0 124 49 124 147v316h66v-321
c0 -132 -86 -203 -190 -203c-106 0 -190 71 -190 203z" />
    <glyph glyph-name="Uhungarumlaut" unicode="&#x170;" horiz-adv-x="627" 
d="M561 825l-162 -92l-28 46l156 103zM365 824l-162 -92l-28 46l156 103zM85 213v463h68v-460c0 -96 67 -166 162 -166c94 0 160 70 160 166v460h67v-463c0 -134 -102 -226 -227 -226c-127 0 -230 92 -230 226z" />
    <glyph glyph-name="uhungarumlaut" unicode="&#x171;" horiz-adv-x="540" 
d="M512 675l-162 -92l-28 46l156 103zM316 674l-162 -92l-28 46l156 103zM80 190v321h66v-316c0 -98 52 -147 124 -147c71 0 124 49 124 147v316h66v-321c0 -132 -86 -203 -190 -203c-106 0 -190 71 -190 203z" />
    <glyph glyph-name="Uogonek" unicode="&#x172;" horiz-adv-x="627" 
d="M354 -164l12 -50c-16 -6 -32 -9 -48 -9c-59 0 -98 36 -98 91c0 48 32 91 67 121c-114 12 -202 100 -202 224v463h68v-460c0 -96 67 -166 162 -166c94 0 160 70 160 166v460h67v-463c0 -120 -83 -207 -190 -223c-41 -33 -77 -70 -77 -118c0 -28 18 -42 42 -42
c12 0 25 1 37 6z" />
    <glyph glyph-name="uogonek" unicode="&#x173;" horiz-adv-x="540" 
d="M315 -164l12 -50c-16 -6 -32 -9 -48 -9c-59 0 -98 36 -98 91c0 48 32 91 66 120c-95 10 -167 79 -167 202v321h66v-316c0 -98 52 -147 124 -147c71 0 124 49 124 147v316h66v-321c0 -112 -62 -179 -143 -197c-43 -34 -81 -72 -81 -121c0 -28 18 -42 42 -42
c12 0 25 1 37 6z" />
    <glyph glyph-name="Wcircumflex" unicode="&#x174;" horiz-adv-x="813" 
d="M505 739l-99 68l-99 -68l-31 52l130 79l130 -79zM169 0l-124 676h68l90 -511c4 -25 8 -61 11 -93c9 33 18 68 26 93l125 407h83l125 -407c7 -25 17 -61 25 -93c3 33 7 68 12 93l90 511h68l-124 -676h-81l-133 423c-7 23 -17 57 -24 87c-7 -30 -16 -63 -23 -87l-133 -423
h-81z" />
    <glyph glyph-name="wcircumflex" unicode="&#x175;" horiz-adv-x="772" 
d="M485 589l-99 68l-99 -68l-31 52l130 79l130 -79zM79 169l-24 342h66l22 -338c5 -73 42 -124 105 -124c62 0 105 51 105 126v298h65v-298c0 -75 43 -126 105 -126c63 0 101 51 106 124l22 338h66l-24 -343c-8 -112 -73 -181 -170 -181c-56 0 -106 28 -137 75
c-31 -47 -82 -75 -138 -75c-96 0 -161 71 -169 182z" />
    <glyph glyph-name="Ycircumflex" unicode="&#x176;" horiz-adv-x="552" 
d="M375 739l-99 68l-99 -68l-31 52l130 79l130 -79zM242 0v260l-212 416h71l175 -348l175 348h71l-212 -416v-260h-68z" />
    <glyph glyph-name="ycircumflex" unicode="&#x177;" horiz-adv-x="479" 
d="M338 589l-99 68l-99 -68l-31 52l130 79l130 -79zM81 176l-46 335h67l45 -326c10 -74 39 -123 111 -123h64l56 449h66l-91 -722h-66l27 211h-57c-108 0 -161 66 -176 176z" />
    <glyph glyph-name="Ydieresis" unicode="&#x178;" horiz-adv-x="552" 
d="M413 804c0 -24 -21 -45 -47 -45c-24 0 -46 21 -46 45c0 26 22 47 46 47c26 0 47 -21 47 -47zM230 804c0 -24 -21 -45 -46 -45s-46 21 -46 45c0 26 21 47 46 47s46 -21 46 -47zM242 0v260l-212 416h71l175 -348l175 348h71l-212 -416v-260h-68z" />
    <glyph glyph-name="Zacute" unicode="&#x179;" horiz-adv-x="542" 
d="M372 808l-193 -69l-19 50l186 81zM50 0v57l339 558h-334v61h418v-54l-340 -561h359l-9 -61h-433z" />
    <glyph glyph-name="zacute" unicode="&#x17a;" horiz-adv-x="465" 
d="M338 658l-193 -69l-19 50l186 81zM395 0h-335v60l261 391h-255v60h329v-60l-261 -391h271z" />
    <glyph glyph-name="Zdotaccent" unicode="&#x17b;" horiz-adv-x="542" 
d="M317 804c0 -24 -21 -45 -47 -45c-24 0 -46 21 -46 45c0 26 22 47 46 47c26 0 47 -21 47 -47zM50 0v57l339 558h-334v61h418v-54l-340 -561h359l-9 -61h-433z" />
    <glyph glyph-name="zdotaccent" unicode="&#x17c;" horiz-adv-x="465" 
d="M279 654c0 -24 -21 -45 -47 -45c-24 0 -46 21 -46 45c0 26 22 47 46 47c26 0 47 -21 47 -47zM395 0h-335v60l261 391h-255v60h329v-60l-261 -391h271z" />
    <glyph glyph-name="Zcaron" unicode="&#x17d;" horiz-adv-x="542" 
d="M401 818l-130 -80l-130 80l31 52l99 -69l99 69zM50 0v57l339 558h-334v61h418v-54l-340 -561h359l-9 -61h-433z" />
    <glyph glyph-name="zcaron" unicode="&#x17e;" horiz-adv-x="465" 
d="M362 668l-130 -80l-130 80l31 52l99 -69l99 69zM395 0h-335v60l261 391h-255v60h329v-60l-261 -391h271z" />
    <glyph glyph-name="florin" unicode="&#x192;" horiz-adv-x="464" 
d="M126 -73l65 468h-90v52h98l21 149c14 97 81 144 156 144c24 0 53 -4 71 -10l-16 -59c-16 4 -34 7 -54 7c-42 0 -85 -24 -93 -84l-21 -147h132l-20 -52h-119l-66 -470c-14 -97 -81 -144 -156 -144c-24 0 -53 4 -71 10l16 59c16 -4 34 -7 54 -7c42 0 85 24 93 84z" />
    <glyph glyph-name="Scommaaccent" unicode="&#x218;" horiz-adv-x="497" 
d="M50 21l12 62c51 -17 114 -33 177 -33c71 0 138 40 138 121c0 184 -315 122 -315 347c0 103 83 171 201 171c57 0 111 -11 167 -32l-17 -60c-50 16 -99 29 -150 29c-80 0 -131 -37 -131 -106c0 -171 315 -111 315 -347c0 -122 -95 -186 -208 -186c-77 0 -141 18 -189 34z
M240 -224h-49l31 159h69z" />
    <glyph glyph-name="scommaaccent" unicode="&#x219;" horiz-adv-x="416" 
d="M49 11l12 60c44 -12 87 -23 131 -23c65 0 107 35 107 83c0 132 -240 79 -240 255c0 79 60 138 162 138c44 0 86 -8 129 -22l-17 -59c-38 12 -73 20 -112 20c-63 0 -94 -32 -94 -77c0 -120 240 -70 240 -253c0 -71 -54 -146 -175 -146c-49 0 -95 7 -143 24zM190 -224h-49
l31 159h69z" />
    <glyph glyph-name="circumflex" unicode="&#x2c6;" horiz-adv-x="460" 
d="M329 589l-99 68l-99 -68l-31 52l130 79l130 -79z" />
    <glyph glyph-name="caron" unicode="&#x2c7;" horiz-adv-x="460" 
d="M360 668l-130 -80l-130 80l31 52l99 -69l99 69z" />
    <glyph glyph-name="breve" unicode="&#x2d8;" horiz-adv-x="401" 
d="M254 713h58c0 -68 -48 -115 -111 -115c-64 0 -112 47 -112 115h58c0 -34 23 -60 54 -60c29 0 53 26 53 60z" />
    <glyph glyph-name="dotaccent" unicode="&#x2d9;" horiz-adv-x="263" 
d="M178 654c0 -24 -21 -45 -47 -45c-24 0 -46 21 -46 45c0 26 22 47 46 47c26 0 47 -21 47 -47z" />
    <glyph glyph-name="ring" unicode="&#x2da;" horiz-adv-x="342" 
d="M172 589c-48 0 -87 39 -87 86c0 46 39 85 87 85c46 0 85 -39 85 -85c0 -47 -39 -86 -85 -86zM172 639c19 0 35 17 35 36c0 20 -16 36 -35 36c-20 0 -35 -16 -35 -36c0 -19 15 -36 35 -36z" />
    <glyph glyph-name="ogonek" unicode="&#x2db;" horiz-adv-x="312" 
d="M214 -164l12 -50c-16 -6 -32 -9 -48 -9c-59 0 -98 36 -98 91s42 103 82 132h64c-47 -36 -91 -75 -91 -128c0 -28 18 -42 42 -42c12 0 25 1 37 6z" />
    <glyph glyph-name="tilde" unicode="&#x2dc;" horiz-adv-x="446" 
d="M329 689l32 -33c-8 -18 -35 -55 -78 -55c-54 0 -85 48 -119 48c-21 0 -38 -17 -47 -28l-32 33c8 18 34 55 79 55c53 0 85 -49 119 -49c20 0 37 17 46 29z" />
    <glyph glyph-name="hungarumlaut" unicode="&#x2dd;" horiz-adv-x="556" 
d="M471 675l-162 -92l-28 46l156 103zM275 674l-162 -92l-28 46l156 103z" />
    <glyph glyph-name="Omega" unicode="&#x3a9;" horiz-adv-x="701" 
d="M636 0h-210v185c97 33 145 122 145 194v63c0 91 -68 216 -221 216c-155 0 -220 -125 -220 -216v-63c0 -72 46 -162 145 -195v-184h-210v61h146v77c-95 46 -146 136 -146 238v69c0 150 106 274 285 274c180 0 286 -130 286 -274v-69c0 -105 -51 -194 -145 -239v-76h145
v-61z" />
    <glyph glyph-name="pi" unicode="&#x3c0;" horiz-adv-x="734" 
d="M577 0h-65v449h-291v-449h-64v449h-82v62h584v-62h-82v-449z" />
    <glyph glyph-name="afii10023" unicode="&#x401;" horiz-adv-x="522" 
d="M90 0v676h353v-63h-285v-242h244l-6 -61h-238v-247h294v-63h-362zM407 804c0 -24 -21 -45 -47 -45c-24 0 -46 21 -46 45c0 26 22 47 46 47c26 0 47 -21 47 -47zM224 804c0 -24 -21 -45 -46 -45s-46 21 -46 45c0 26 21 47 46 47s46 -21 46 -47z" />
    <glyph glyph-name="afii10051" unicode="&#x402;" horiz-adv-x="706" 
d="M481 -11c-36 0 -69 4 -97 11v62c24 -6 52 -10 86 -10c65 0 118 33 118 112v52c0 79 -53 114 -118 114c-81 0 -125 -20 -177 -45v-285h-68v613h-190v63h448v-63h-190v-265c52 23 107 45 188 45c92 0 175 -50 175 -184v-38c0 -134 -83 -182 -175 -182z" />
    <glyph glyph-name="afii10052" unicode="&#x403;" horiz-adv-x="460" 
d="M90 0v676h340v-63h-272v-613h-68zM376 808l-193 -69l-19 50l186 81z" />
    <glyph glyph-name="afii10053" unicode="&#x404;" horiz-adv-x="550" 
d="M324 -13c-146 0 -254 87 -254 268v166c0 181 108 268 254 268c72 0 124 -12 191 -32l-13 -61c-48 14 -105 30 -177 30c-110 0 -187 -66 -187 -208v-42h252l-6 -63h-246v-56c0 -146 77 -207 187 -207c72 0 129 15 177 29l13 -62c-65 -19 -117 -30 -191 -30z" />
    <glyph glyph-name="afii10054" unicode="&#x405;" horiz-adv-x="497" 
d="M239 -13c-77 0 -141 18 -189 34l12 62c51 -17 114 -33 177 -33c71 0 138 40 138 121c0 184 -315 122 -315 347c0 103 83 171 201 171c57 0 111 -11 167 -32l-17 -60c-50 16 -99 29 -150 29c-80 0 -131 -37 -131 -106c0 -171 315 -111 315 -347c0 -122 -95 -186 -208 -186
z" />
    <glyph glyph-name="afii10055" unicode="&#x406;" horiz-adv-x="248" 
d="M90 0v676h68v-676h-68z" />
    <glyph glyph-name="afii10056" unicode="&#x407;" horiz-adv-x="248" 
d="M90 0v676h68v-676h-68zM262 804c0 -24 -21 -45 -47 -45c-24 0 -46 21 -46 45c0 26 22 47 46 47c26 0 47 -21 47 -47zM79 804c0 -24 -21 -45 -46 -45s-46 21 -46 45c0 26 21 47 46 47s46 -21 46 -47z" />
    <glyph glyph-name="afii10057" unicode="&#x408;" horiz-adv-x="472" 
d="M190 -13c-52 0 -104 10 -155 29l15 60c37 -13 89 -26 137 -26c97 0 137 72 137 165v461l68 -7v-457c0 -140 -78 -225 -202 -225z" />
    <glyph glyph-name="afii10058" unicode="&#x409;" horiz-adv-x="962" 
d="M21 -8l-1 71c107 15 184 32 184 613h369v-286h159c117 0 195 -87 195 -195c0 -110 -78 -195 -195 -195h-227v613h-235c0 -543 -82 -604 -249 -621zM573 63h159c81 0 125 52 125 132c0 79 -44 132 -125 132h-159v-264z" />
    <glyph glyph-name="afii10059" unicode="&#x40a;" horiz-adv-x="930" 
d="M90 0v676h68v-286h315v286h68v-286h159c117 0 195 -87 195 -195c0 -110 -78 -195 -195 -195h-227v327h-315v-327h-68zM541 63h159c81 0 125 52 125 132c0 79 -44 132 -125 132h-159v-264z" />
    <glyph glyph-name="afii10060" unicode="&#x40b;" horiz-adv-x="716" 
d="M225 0v613h-190v63h448v-63h-190v-265c52 23 107 45 188 45c92 0 165 -50 165 -184v-209h-68v216c0 79 -43 114 -108 114c-81 0 -125 -20 -177 -45v-285h-68z" />
    <glyph glyph-name="afii10061" unicode="&#x40c;" horiz-adv-x="579" 
d="M90 0v676h68v-326l168 62c49 18 71 48 85 99l44 165h65l-45 -169c-18 -67 -44 -121 -115 -147l187 -360h-72l-175 338l-142 -54v-284h-68zM415 808l-193 -69l-19 50l186 81z" />
    <glyph glyph-name="afii10062" unicode="&#x40e;" horiz-adv-x="566" 
d="M164 0l-8 62h95c60 0 85 23 96 86l14 79h-83c-108 0 -158 67 -176 176l-46 273h69l45 -264c12 -73 37 -122 109 -122h93l70 386h68l-98 -540c-16 -87 -52 -136 -139 -136h-109zM292 803c35 0 56 27 62 62l58 -11c-10 -64 -58 -107 -120 -107c-61 0 -109 43 -119 107
l58 11c6 -35 27 -62 61 -62z" />
    <glyph glyph-name="afii10145" unicode="&#x40f;" horiz-adv-x="631" 
d="M288 -155v155h-198v676h68v-613h315v613h68v-676h-187v-142z" />
    <glyph glyph-name="afii10017" unicode="&#x410;" horiz-adv-x="590" 
d="M35 0l221 676h78l221 -676h-70l-62 192h-257l-61 -192h-70zM185 252h219l-79 249c-9 27 -20 68 -30 104c-9 -36 -21 -76 -30 -104z" />
    <glyph glyph-name="afii10018" unicode="&#x411;" horiz-adv-x="557" 
d="M90 0v676h370v-63h-302v-223h159c117 0 195 -87 195 -195c0 -110 -78 -195 -195 -195h-227zM158 63h159c81 0 125 52 125 132c0 79 -44 132 -125 132h-159v-264z" />
    <glyph glyph-name="afii10019" unicode="&#x412;" horiz-adv-x="562" 
d="M90 0v676h199c129 0 203 -74 203 -172c0 -62 -33 -116 -90 -148c86 -33 115 -105 115 -166c0 -83 -61 -190 -234 -190h-193zM158 63h124c111 0 165 51 165 127c0 75 -46 127 -157 127h-132v-254zM158 378h122c88 0 142 45 142 118s-47 117 -135 117h-129v-235z" />
    <glyph glyph-name="afii10020" unicode="&#x413;" horiz-adv-x="460" 
d="M90 0v676h340v-63h-272v-613h-68z" />
    <glyph glyph-name="afii10021" unicode="&#x414;" horiz-adv-x="681" 
d="M10 -155v218h75c76 122 125 364 125 613h361v-613h88v-205l-66 -13v155h-517v-142zM164 63h339v550h-227c-8 -293 -62 -455 -112 -550z" />
    <glyph glyph-name="afii10022" unicode="&#x415;" horiz-adv-x="522" 
d="M90 0v676h353v-63h-285v-242h244l-6 -61h-238v-247h294v-63h-362z" />
    <glyph glyph-name="afii10024" unicode="&#x416;" horiz-adv-x="840" 
d="M32 0l166 357c-67 34 -85 70 -99 142l-35 177h65l34 -173c10 -52 34 -85 95 -107l128 -47v327h68v-327l128 47c61 22 85 55 95 107l34 173h65l-35 -177c-14 -72 -32 -108 -100 -142l167 -357h-72l-157 331l-125 -47v-284h-68v284l-126 47l-156 -331h-72z" />
    <glyph glyph-name="afii10025" unicode="&#x417;" horiz-adv-x="511" 
d="M234 -13c-77 0 -141 20 -189 36l12 62c51 -17 114 -35 177 -35c87 0 152 54 152 135c0 75 -36 132 -147 132h-52l-6 61h48c88 0 148 62 148 135c0 69 -64 113 -144 113c-51 0 -104 -15 -154 -31l-17 60c56 21 114 34 181 34c128 0 201 -74 201 -177
c0 -62 -36 -124 -93 -156c86 -33 105 -108 105 -169c0 -122 -91 -200 -222 -200z" />
    <glyph glyph-name="afii10026" unicode="&#x418;" horiz-adv-x="640" 
d="M90 0v676h68v-456c0 -26 0 -60 -2 -95l341 551h53v-676h-68v446c0 25 1 61 4 96l-338 -542h-58z" />
    <glyph glyph-name="afii10027" unicode="&#x419;" horiz-adv-x="640" 
d="M90 0v676h68v-456c0 -26 0 -60 -2 -95l341 551h53v-676h-68v446c0 25 1 61 4 96l-338 -542h-58zM319 803c35 0 56 27 62 62l58 -11c-10 -64 -58 -107 -120 -107c-61 0 -109 43 -119 107l58 11c6 -35 27 -62 61 -62z" />
    <glyph glyph-name="afii10028" unicode="&#x41a;" horiz-adv-x="579" 
d="M90 0v676h68v-326l168 62c49 18 71 48 85 99l44 165h65l-45 -169c-18 -67 -44 -121 -115 -147l187 -360h-72l-175 338l-142 -54v-284h-68z" />
    <glyph glyph-name="afii10029" unicode="&#x41b;" horiz-adv-x="663" 
d="M21 -8l-1 71c107 15 184 32 184 613h369v-676h-68v613h-235c0 -543 -82 -604 -249 -621z" />
    <glyph glyph-name="afii10030" unicode="&#x41c;" horiz-adv-x="809" 
d="M55 0l84 676h83l154 -395c9 -23 20 -57 28 -87c9 30 19 63 29 87l154 395h83l84 -676h-67l-64 511c-3 22 -6 54 -7 84c-10 -30 -20 -61 -29 -84l-143 -376h-79l-143 376c-9 22 -20 52 -30 81c-2 -29 -3 -59 -6 -81l-64 -511h-67z" />
    <glyph glyph-name="afii10031" unicode="&#x41d;" horiz-adv-x="631" 
d="M90 0v676h68v-300h315v300h68v-676h-68v313h-315v-313h-68z" />
    <glyph glyph-name="afii10032" unicode="&#x41e;" horiz-adv-x="625" 
d="M313 -13c-134 0 -243 87 -243 268v164c0 181 109 270 243 270c133 0 242 -89 242 -270v-164c0 -181 -109 -268 -242 -268zM313 50c101 0 174 67 174 208v158c0 143 -73 210 -174 210s-175 -67 -175 -210v-158c0 -141 74 -208 175 -208z" />
    <glyph glyph-name="afii10033" unicode="&#x41f;" horiz-adv-x="631" 
d="M90 0v676h451v-676h-68v613h-315v-613h-68z" />
    <glyph glyph-name="afii10034" unicode="&#x420;" horiz-adv-x="547" 
d="M90 0v676h217c117 0 195 -90 195 -200c0 -108 -78 -200 -195 -200h-149v-276h-68zM158 339h149c81 0 125 58 125 137c0 80 -44 137 -125 137h-149v-274z" />
    <glyph glyph-name="afii10035" unicode="&#x421;" horiz-adv-x="560" 
d="M324 -13c-146 0 -254 87 -254 268v166c0 181 108 268 254 268c72 0 124 -12 191 -32l-13 -61c-48 14 -105 30 -177 30c-110 0 -187 -66 -187 -208v-161c0 -146 77 -207 187 -207c72 0 129 15 177 29l13 -62c-65 -19 -117 -30 -191 -30z" />
    <glyph glyph-name="afii10036" unicode="&#x422;" horiz-adv-x="518" 
d="M225 0v613h-190v63h448v-63h-190v-613h-68z" />
    <glyph glyph-name="afii10037" unicode="&#x423;" horiz-adv-x="566" 
d="M164 0l-8 62h95c60 0 85 23 96 86l14 79h-83c-108 0 -158 67 -176 176l-46 273h69l45 -264c12 -73 37 -122 109 -122h93l70 386h68l-98 -540c-16 -87 -52 -136 -139 -136h-109z" />
    <glyph glyph-name="afii10038" unicode="&#x424;" horiz-adv-x="731" 
d="M332 -13v87c-189 7 -282 122 -282 278s97 267 282 274v63h68v-63c185 -7 281 -118 281 -274s-92 -271 -281 -278v-87h-68zM332 136v428c-153 -4 -214 -89 -214 -211c0 -121 66 -214 214 -217zM400 136c147 3 213 96 213 217c0 102 -61 207 -213 211v-428z" />
    <glyph glyph-name="afii10039" unicode="&#x425;" horiz-adv-x="577" 
d="M35 0l214 357l-189 319h75l154 -260l156 260h70l-189 -315l216 -361h-76l-179 302l-181 -302h-71z" />
    <glyph glyph-name="afii10040" unicode="&#x426;" horiz-adv-x="651" 
d="M563 -155v155h-473v676h68v-613h315v613h68v-613h88v-205z" />
    <glyph glyph-name="afii10041" unicode="&#x427;" horiz-adv-x="580" 
d="M422 0v328c-52 -23 -107 -45 -188 -45c-92 0 -165 50 -165 184v209h68v-216c0 -79 43 -114 108 -114c81 0 125 20 177 45v285h68v-676h-68z" />
    <glyph glyph-name="afii10042" unicode="&#x428;" horiz-adv-x="914" 
d="M90 0v676h68v-613h265v613h68v-613h265v613h68v-676h-734z" />
    <glyph glyph-name="afii10043" unicode="&#x429;" horiz-adv-x="934" 
d="M846 -155v155h-756v676h68v-613h265v613h68v-613h265v613h68v-613h88v-205z" />
    <glyph glyph-name="afii10044" unicode="&#x42a;" horiz-adv-x="630" 
d="M173 0v613h-143v63h211v-286h159c117 0 195 -87 195 -195c0 -110 -78 -195 -195 -195h-227zM241 63h159c81 0 125 52 125 132c0 79 -44 132 -125 132h-159v-264z" />
    <glyph glyph-name="afii10045" unicode="&#x42b;" horiz-adv-x="758" 
d="M90 0v676h68v-286h159c117 0 195 -87 195 -195c0 -110 -78 -195 -195 -195h-227zM158 63h159c81 0 125 52 125 132c0 79 -44 132 -125 132h-159v-264zM600 0v676h68v-676h-68z" />
    <glyph glyph-name="afii10046" unicode="&#x42c;" horiz-adv-x="547" 
d="M90 0v676h68v-286h159c117 0 195 -87 195 -195c0 -110 -78 -195 -195 -195h-227zM158 63h159c81 0 125 52 125 132c0 79 -44 132 -125 132h-159v-264z" />
    <glyph glyph-name="afii10047" unicode="&#x42d;" horiz-adv-x="560" 
d="M236 -13c-74 0 -126 11 -191 30l13 62c48 -14 105 -29 177 -29c110 0 187 61 187 207v56h-246l-6 63h252v42c0 142 -77 208 -187 208c-72 0 -129 -16 -177 -30l-13 61c67 20 119 32 191 32c146 0 254 -87 254 -268v-166c0 -181 -108 -268 -254 -268z" />
    <glyph glyph-name="afii10048" unicode="&#x42e;" horiz-adv-x="825" 
d="M528 -13c-124 0 -228 87 -228 268v58h-142v-313h-68v676h68v-300h142v43c0 181 104 270 228 270c123 0 227 -89 227 -270v-164c0 -181 -104 -268 -227 -268zM528 50c91 0 159 67 159 208v158c0 143 -68 210 -159 210s-160 -67 -160 -210v-158c0 -141 69 -208 160 -208z
" />
    <glyph glyph-name="afii10049" unicode="&#x42f;" horiz-adv-x="557" 
d="M53 0l134 284c-85 22 -137 102 -137 192c0 110 77 200 194 200h223v-676h-68v277h-143l-127 -277h-76zM244 339h155v274h-155c-80 0 -125 -57 -125 -137c0 -79 45 -137 125 -137z" />
    <glyph glyph-name="afii10065" unicode="&#x430;" horiz-adv-x="478" 
d="M224 -13c-98 0 -174 48 -174 160c0 97 72 154 179 154h118v35c0 81 -39 127 -116 127c-42 0 -90 -10 -131 -22l-14 58c45 15 95 25 145 25c111 0 182 -68 182 -188v-336h-53l-10 37c-25 -24 -71 -50 -126 -50zM233 48c67 0 114 37 114 88v107h-118
c-76 0 -111 -40 -111 -94c0 -70 46 -101 115 -101z" />
    <glyph glyph-name="afii10066" unicode="&#x431;" horiz-adv-x="542" 
d="M278 -13c-115 0 -198 70 -198 225v236c0 187 85 241 200 260l195 32v-63l-203 -35c-79 -14 -126 -58 -126 -190c19 27 58 64 154 64c94 0 177 -69 177 -225v-79c0 -155 -83 -225 -199 -225zM278 48c76 0 133 41 133 169v69c0 129 -55 169 -133 169
c-75 0 -132 -40 -132 -169v-69c0 -128 55 -169 132 -169z" />
    <glyph glyph-name="afii10067" unicode="&#x432;" horiz-adv-x="503" 
d="M85 0v511h190c98 0 154 -56 154 -130c0 -47 -25 -88 -68 -112c65 -25 87 -79 87 -125c0 -63 -46 -144 -177 -144h-186zM151 58h111c79 0 118 31 118 86c0 53 -33 90 -113 90h-116v-176zM151 292h109c63 0 101 31 101 83s-34 78 -96 78h-114v-161z" />
    <glyph glyph-name="afii10068" unicode="&#x433;" horiz-adv-x="400" 
d="M85 0v511h295v-59h-229v-452h-66z" />
    <glyph glyph-name="afii10069" unicode="&#x434;" horiz-adv-x="560" 
d="M15 -144v203h72l57 276c22 109 73 176 181 176h135v-452h78v-192l-61 -11v144h-401v-133zM154 59h240v393h-68c-72 0 -101 -53 -116 -126z" />
    <glyph glyph-name="afii10070" unicode="&#x435;" horiz-adv-x="506" 
d="M265 -13c-116 0 -200 71 -200 208v125c0 133 86 204 190 204c106 0 191 -75 191 -185v-102h-315v-42c0 -102 53 -147 134 -147c47 0 91 10 137 23l13 -60c-50 -16 -99 -24 -150 -24zM131 295h249v44c0 74 -52 124 -125 124c-72 0 -124 -45 -124 -143v-25z" />
    <glyph glyph-name="afii10072" unicode="&#x436;" horiz-adv-x="724" 
d="M35 0l130 268c-38 17 -59 38 -78 109l-37 134h66l34 -126c10 -37 24 -58 57 -69l122 -41v236h66v-236l122 41c33 11 47 32 57 69l34 126h66l-37 -134c-20 -71 -41 -92 -78 -109l130 -268h-70l-118 247l-106 -38v-209h-66v209l-107 38l-117 -247h-70z" />
    <glyph glyph-name="afii10073" unicode="&#x437;" horiz-adv-x="429" 
d="M195 -13c-59 0 -118 17 -155 30l18 56c36 -12 86 -27 131 -27c67 0 113 34 113 92c0 54 -26 95 -105 95h-40l-7 58h41c63 0 106 46 106 97c0 50 -36 77 -108 77c-37 0 -83 -14 -119 -25l-12 56c43 16 92 28 143 28c98 0 159 -57 159 -135c0 -48 -27 -95 -71 -120
c66 -25 80 -82 80 -129c0 -93 -74 -153 -174 -153z" />
    <glyph glyph-name="afii10074" unicode="&#x438;" horiz-adv-x="550" 
d="M85 0v511h66v-305c0 -19 0 -65 -2 -91l261 396h55v-511h-66v298c0 18 1 66 3 93l-259 -391h-58z" />
    <glyph glyph-name="afii10075" unicode="&#x439;" horiz-adv-x="550" 
d="M85 0v511h66v-305c0 -19 0 -65 -2 -91l261 396h55v-511h-66v298c0 18 1 66 3 93l-259 -391h-58zM275 653c33 0 53 26 59 60l55 -11c-10 -62 -55 -104 -114 -104s-104 42 -114 104l55 11c6 -34 26 -60 59 -60z" />
    <glyph glyph-name="afii10076" unicode="&#x43a;" horiz-adv-x="500" 
d="M85 0v511h66v-239l137 50c33 12 47 28 57 65l34 124h66l-37 -132c-21 -75 -43 -91 -85 -107l142 -272h-70l-129 250l-115 -44v-206h-66z" />
    <glyph glyph-name="afii10077" unicode="&#x43b;" horiz-adv-x="503" 
d="M35 0l69 335c22 109 73 176 181 176h133v-511h-66v452h-66c-72 0 -101 -53 -116 -126l-68 -326h-67z" />
    <glyph glyph-name="afii10078" unicode="&#x43c;" horiz-adv-x="658" 
d="M50 0l63 511h91l125 -347l125 347h91l63 -511h-65l-53 440l-121 -338h-80l-121 337l-52 -439h-66z" />
    <glyph glyph-name="afii10079" unicode="&#x43d;" horiz-adv-x="544" 
d="M85 0v511h66v-217h242v217h66v-511h-66v234h-242v-234h-66z" />
    <glyph glyph-name="afii10080" unicode="&#x43e;" horiz-adv-x="533" 
d="M266 -13c-115 0 -201 70 -201 225v88c0 156 86 224 201 224c116 0 202 -69 202 -225v-87c0 -155 -86 -225 -202 -225zM266 48c76 0 136 41 136 169v77c0 129 -58 169 -136 169c-75 0 -135 -40 -135 -169v-77c0 -128 58 -169 135 -169z" />
    <glyph glyph-name="afii10081" unicode="&#x43f;" horiz-adv-x="540" 
d="M85 0v511h370v-511h-66v452h-238v-452h-66z" />
    <glyph glyph-name="afii10082" unicode="&#x440;" horiz-adv-x="541" 
d="M85 -211v722h53l10 -44c25 31 77 57 141 57c96 0 187 -74 187 -213v-110c0 -148 -89 -214 -192 -214c-53 0 -102 22 -133 42v-240h-66zM279 48c70 0 131 40 131 158v100c0 108 -54 157 -129 157c-72 0 -130 -37 -130 -121v-250c42 -27 84 -44 128 -44z" />
    <glyph glyph-name="afii10083" unicode="&#x441;" horiz-adv-x="469" 
d="M272 -13c-123 0 -207 71 -207 224v90c0 153 84 223 207 223c48 0 95 -9 142 -23l-11 -59c-43 11 -86 21 -130 21c-95 0 -142 -53 -142 -169v-76c0 -116 47 -170 142 -170c43 0 86 8 130 20l11 -58c-47 -14 -94 -23 -142 -23z" />
    <glyph glyph-name="afii10084" unicode="&#x442;" horiz-adv-x="404" 
d="M179 0v452h-159v59h384v-59h-159v-452h-66z" />
    <glyph glyph-name="afii10085" unicode="&#x443;" horiz-adv-x="480" 
d="M288 -211l27 211h-57c-108 0 -161 66 -176 176l-46 335h67l45 -326c10 -74 39 -123 111 -123h64l56 449h66l-91 -722h-66z" />
    <glyph glyph-name="afii10086" unicode="&#x444;" horiz-adv-x="776" 
d="M355 -211v240c-31 -20 -65 -42 -118 -42c-103 0 -172 66 -172 214v110c0 148 69 213 172 213c53 0 90 -26 118 -46v247l66 20v-267c28 20 65 46 118 46c103 0 172 -65 172 -213v-110c0 -148 -69 -214 -172 -214c-53 0 -87 22 -118 42v-240h-66zM242 48c44 0 71 17 113 44
v327c-42 27 -69 44 -113 44c-70 0 -111 -39 -111 -157v-100c0 -118 41 -158 111 -158zM534 48c70 0 111 40 111 158v100c0 118 -41 157 -111 157c-44 0 -71 -17 -113 -44v-327c42 -27 69 -44 113 -44z" />
    <glyph glyph-name="afii10087" unicode="&#x445;" horiz-adv-x="483" 
d="M30 0l173 264l-160 247h74l124 -194l127 194h71l-160 -245l174 -266h-74l-138 213l-140 -213h-71z" />
    <glyph glyph-name="afii10088" unicode="&#x446;" horiz-adv-x="555" 
d="M472 -144v144h-387v511h66v-452h238v452h66v-452h78v-192z" />
    <glyph glyph-name="afii10089" unicode="&#x447;" horiz-adv-x="500" 
d="M349 0v238c-39 -17 -97 -34 -158 -34c-70 0 -130 38 -130 139v168h66v-161c0 -60 33 -86 82 -86c61 0 101 16 140 35v212h66v-511h-66z" />
    <glyph glyph-name="afii10090" unicode="&#x448;" horiz-adv-x="784" 
d="M85 0v511h66v-452h208v452h66v-452h208v452h66v-511h-614z" />
    <glyph glyph-name="afii10091" unicode="&#x449;" horiz-adv-x="799" 
d="M716 -144v144h-631v511h66v-452h208v452h66v-452h208v452h66v-452h78v-192z" />
    <glyph glyph-name="afii10092" unicode="&#x44a;" horiz-adv-x="550" 
d="M145 0v452h-125v59h191v-210h147c88 0 147 -69 147 -151c0 -83 -59 -150 -147 -150h-213zM211 59h143c54 0 83 38 83 91s-29 92 -83 92h-143v-183z" />
    <glyph glyph-name="afii10093" unicode="&#x44b;" horiz-adv-x="674" 
d="M85 0v511h66v-210h147c88 0 147 -69 147 -151c0 -83 -59 -150 -147 -150h-213zM151 59h143c54 0 83 38 83 91s-29 92 -83 92h-143v-183zM523 0v511h66v-511h-66z" />
    <glyph glyph-name="afii10094" unicode="&#x44c;" horiz-adv-x="490" 
d="M85 0v511h66v-210h147c88 0 147 -69 147 -151c0 -83 -59 -150 -147 -150h-213zM151 59h143c54 0 83 38 83 91s-29 92 -83 92h-143v-183z" />
    <glyph glyph-name="afii10095" unicode="&#x44d;" horiz-adv-x="469" 
d="M197 -13c-48 0 -95 9 -142 23l11 57c44 -12 87 -20 130 -20c102 0 142 55 142 188h-182l-5 58h187c0 117 -47 171 -142 171c-44 0 -87 -10 -130 -21l-11 58c47 14 94 23 142 23c123 0 207 -70 207 -223v-90c0 -153 -84 -224 -207 -224z" />
    <glyph glyph-name="afii10096" unicode="&#x44e;" horiz-adv-x="709" 
d="M449 -13c-110 0 -194 70 -194 225v22h-104v-234h-66v511h66v-217h104c0 162 84 230 194 230c112 0 195 -69 195 -225v-87c0 -155 -84 -225 -195 -225zM449 48c71 0 129 41 129 169v77c0 129 -56 169 -129 169c-70 0 -128 -40 -128 -169v-77c0 -128 56 -169 128 -169z" />
    <glyph glyph-name="afii10097" unicode="&#x44f;" horiz-adv-x="490" 
d="M52 0l102 211c-65 16 -104 79 -104 147c0 83 58 153 147 153h208v-511h-66v205h-118l-93 -205h-76zM202 263h137v189h-137c-54 0 -85 -40 -85 -94s31 -95 85 -95z" />
    <glyph glyph-name="afii10071" unicode="&#x451;" horiz-adv-x="506" 
d="M265 -13c-116 0 -200 71 -200 208v125c0 133 86 204 190 204c106 0 191 -75 191 -185v-102h-315v-42c0 -102 53 -147 134 -147c47 0 91 10 137 23l13 -60c-50 -16 -99 -24 -150 -24zM131 295h249v44c0 74 -52 124 -125 124c-72 0 -124 -45 -124 -143v-25zM394 654
c0 -24 -21 -45 -47 -45c-24 0 -46 21 -46 45c0 26 22 47 46 47c26 0 47 -21 47 -47zM211 654c0 -24 -21 -45 -46 -45s-46 21 -46 45c0 26 21 47 46 47s46 -21 46 -47z" />
    <glyph glyph-name="afii10099" unicode="&#x452;" horiz-adv-x="546" 
d="M400 -222v538c0 115 -51 147 -121 147c-44 0 -87 -17 -128 -44v-419h-66v611h-41v52h41v69h66v-69h120v-52h-120v-129c30 20 80 42 133 42c103 0 182 -55 182 -203v-523z" />
    <glyph glyph-name="afii10100" unicode="&#x453;" horiz-adv-x="400" 
d="M85 0v511h295v-59h-229v-452h-66zM346 658l-193 -69l-19 50l186 81z" />
    <glyph glyph-name="afii10101" unicode="&#x454;" horiz-adv-x="469" 
d="M272 -13c-123 0 -207 71 -207 224v90c0 153 84 223 207 223c48 0 95 -9 142 -23l-11 -58c-43 11 -86 21 -130 21c-95 0 -142 -54 -142 -171h187l-5 -58h-182c0 -133 40 -188 142 -188c43 0 86 8 130 20l11 -57c-47 -14 -94 -23 -142 -23z" />
    <glyph glyph-name="afii10102" unicode="&#x455;" horiz-adv-x="416" 
d="M192 -13c-49 0 -95 7 -143 24l12 60c44 -12 87 -23 131 -23c65 0 107 35 107 83c0 132 -240 79 -240 255c0 79 60 138 162 138c44 0 86 -8 129 -22l-17 -59c-38 12 -73 20 -112 20c-63 0 -94 -32 -94 -77c0 -120 240 -70 240 -253c0 -71 -54 -146 -175 -146z" />
    <glyph glyph-name="afii10103" unicode="&#x456;" horiz-adv-x="236" 
d="M85 0v511h66v-511h-66zM118 608c-26 0 -47 21 -47 46s21 45 47 45c25 0 47 -20 47 -45s-22 -46 -47 -46z" />
    <glyph glyph-name="afii10104" unicode="&#x457;" horiz-adv-x="236" 
d="M256 654c0 -24 -21 -45 -47 -45c-24 0 -46 21 -46 45c0 26 22 47 46 47c26 0 47 -21 47 -47zM73 654c0 -24 -21 -45 -46 -45s-46 21 -46 45c0 26 21 47 46 47s46 -21 46 -47zM151 0h-66v511h66v-511z" />
    <glyph glyph-name="afii10105" unicode="&#x458;" horiz-adv-x="236" 
d="M85 -222v733h66v-713zM118 608c-27 0 -48 21 -48 46s21 45 48 45c24 0 47 -20 47 -45s-23 -46 -47 -46z" />
    <glyph glyph-name="afii10106" unicode="&#x459;" horiz-adv-x="757" 
d="M35 0l69 335c22 109 73 176 181 176h133v-210h147c88 0 147 -69 147 -151c0 -83 -59 -150 -147 -150h-213v452h-66c-72 0 -101 -53 -116 -126l-68 -326h-67zM418 59h143c54 0 83 38 83 91s-29 92 -83 92h-143v-183z" />
    <glyph glyph-name="afii10107" unicode="&#x45a;" horiz-adv-x="798" 
d="M85 0v511h66v-210h242v210h66v-210h147c88 0 147 -69 147 -151c0 -83 -59 -150 -147 -150h-213v241h-242v-241h-66zM459 59h143c54 0 83 38 83 91s-29 92 -83 92h-143v-183z" />
    <glyph glyph-name="afii10108" unicode="&#x45b;" horiz-adv-x="546" 
d="M85 0v611h-41v52h41v69h66v-69h120v-52h-120v-129c30 20 80 42 133 42c103 0 182 -55 182 -203v-321h-66v316c0 115 -51 147 -121 147c-44 0 -87 -17 -128 -44v-419h-66z" />
    <glyph glyph-name="afii10109" unicode="&#x45c;" horiz-adv-x="500" 
d="M85 0v511h66v-239l137 50c33 12 47 28 57 65l34 124h66l-37 -132c-21 -75 -43 -91 -85 -107l142 -272h-70l-129 250l-115 -44v-206h-66zM376 658l-193 -69l-19 50l186 81z" />
    <glyph glyph-name="afii10110" unicode="&#x45e;" horiz-adv-x="480" 
d="M288 -211l27 211h-57c-108 0 -161 66 -176 176l-46 335h67l45 -326c10 -74 39 -123 111 -123h64l56 449h66l-91 -722h-66zM251 653c33 0 53 26 59 60l55 -11c-10 -62 -55 -104 -114 -104s-104 42 -114 104l55 11c6 -34 26 -60 59 -60z" />
    <glyph glyph-name="afii10193" unicode="&#x45f;" horiz-adv-x="540" 
d="M246 -144v144h-161v511h66v-452h238v452h66v-511h-148v-133z" />
    <glyph glyph-name="afii10050" unicode="&#x490;" horiz-adv-x="460" 
d="M90 0v676h274v99l66 13v-175h-272v-613h-68z" />
    <glyph glyph-name="afii10098" unicode="&#x491;" horiz-adv-x="400" 
d="M85 0v511h234v94l61 11v-164h-229v-452h-66z" />
    <glyph glyph-name="Wgrave" unicode="&#x1e80;" horiz-adv-x="813" 
d="M493 739l-193 69l26 62l186 -81zM169 0l-124 676h68l90 -511c4 -25 8 -61 11 -93c9 33 18 68 26 93l125 407h83l125 -407c7 -25 17 -61 25 -93c3 33 7 68 12 93l90 511h68l-124 -676h-81l-133 423c-7 23 -17 57 -24 87c-7 -30 -16 -63 -23 -87l-133 -423h-81z" />
    <glyph glyph-name="wgrave" unicode="&#x1e81;" horiz-adv-x="772" 
d="M473 589l-193 69l26 62l186 -81zM79 169l-24 342h66l22 -338c5 -73 42 -124 105 -124c62 0 105 51 105 126v298h65v-298c0 -75 43 -126 105 -126c63 0 101 51 106 124l22 338h66l-24 -343c-8 -112 -73 -181 -170 -181c-56 0 -106 28 -137 75c-31 -47 -82 -75 -138 -75
c-96 0 -161 71 -169 182z" />
    <glyph glyph-name="Wacute" unicode="&#x1e82;" horiz-adv-x="813" 
d="M512 808l-193 -69l-19 50l186 81zM169 0l-124 676h68l90 -511c4 -25 8 -61 11 -93c9 33 18 68 26 93l125 407h83l125 -407c7 -25 17 -61 25 -93c3 33 7 68 12 93l90 511h68l-124 -676h-81l-133 423c-7 23 -17 57 -24 87c-7 -30 -16 -63 -23 -87l-133 -423h-81z" />
    <glyph glyph-name="wacute" unicode="&#x1e83;" horiz-adv-x="772" 
d="M492 658l-193 -69l-19 50l186 81zM79 169l-24 342h66l22 -338c5 -73 42 -124 105 -124c62 0 105 51 105 126v298h65v-298c0 -75 43 -126 105 -126c63 0 101 51 106 124l22 338h66l-24 -343c-8 -112 -73 -181 -170 -181c-56 0 -106 28 -137 75c-31 -47 -82 -75 -138 -75
c-96 0 -161 71 -169 182z" />
    <glyph glyph-name="Wdieresis" unicode="&#x1e84;" horiz-adv-x="813" 
d="M544 804c0 -24 -21 -45 -47 -45c-24 0 -46 21 -46 45c0 26 22 47 46 47c26 0 47 -21 47 -47zM361 804c0 -24 -21 -45 -46 -45s-46 21 -46 45c0 26 21 47 46 47s46 -21 46 -47zM169 0l-124 676h68l90 -511c4 -25 8 -61 11 -93c9 33 18 68 26 93l125 407h83l125 -407
c7 -25 17 -61 25 -93c3 33 7 68 12 93l90 511h68l-124 -676h-81l-133 423c-7 23 -17 57 -24 87c-7 -30 -16 -63 -23 -87l-133 -423h-81z" />
    <glyph glyph-name="wdieresis" unicode="&#x1e85;" horiz-adv-x="772" 
d="M523 654c0 -24 -21 -45 -47 -45c-24 0 -46 21 -46 45c0 26 22 47 46 47c26 0 47 -21 47 -47zM340 654c0 -24 -21 -45 -46 -45s-46 21 -46 45c0 26 21 47 46 47s46 -21 46 -47zM79 169l-24 342h66l22 -338c5 -73 42 -124 105 -124c62 0 105 51 105 126v298h65v-298
c0 -75 43 -126 105 -126c63 0 101 51 106 124l22 338h66l-24 -343c-8 -112 -73 -181 -170 -181c-56 0 -106 28 -137 75c-31 -47 -82 -75 -138 -75c-96 0 -161 71 -169 182z" />
    <glyph glyph-name="Ygrave" unicode="&#x1ef2;" horiz-adv-x="552" 
d="M363 739l-193 69l26 62l186 -81zM242 0v260l-212 416h71l175 -348l175 348h71l-212 -416v-260h-68z" />
    <glyph glyph-name="ygrave" unicode="&#x1ef3;" horiz-adv-x="479" 
d="M326 589l-193 69l26 62l186 -81zM81 176l-46 335h67l45 -326c10 -74 39 -123 111 -123h64l56 449h66l-91 -722h-66l27 211h-57c-108 0 -161 66 -176 176z" />
    <glyph glyph-name="endash" unicode="&#x2013;" horiz-adv-x="500" 
d="M500 249h-500v61h500v-61z" />
    <glyph glyph-name="emdash" unicode="&#x2014;" horiz-adv-x="1000" 
d="M1000 249h-1000v61h1000v-61z" />
    <glyph glyph-name="quoteleft" unicode="&#x2018;" horiz-adv-x="228" 
d="M138 517h-71l62 215l48 -8z" />
    <glyph glyph-name="quoteright" unicode="&#x2019;" horiz-adv-x="228" 
d="M117 517l-48 8l39 207h71z" />
    <glyph glyph-name="quotesinglbase" unicode="&#x201a;" horiz-adv-x="248" 
d="M107 -140l-48 8l39 207h71z" />
    <glyph glyph-name="quotedblleft" unicode="&#x201c;" horiz-adv-x="357" 
d="M270 517h-71l62 215l48 -8zM141 517h-71l62 215l48 -8z" />
    <glyph glyph-name="quotedblright" unicode="&#x201d;" horiz-adv-x="357" 
d="M245 517l-48 8l39 207h71zM116 517l-48 8l39 207h71z" />
    <glyph glyph-name="quotedblbase" unicode="&#x201e;" horiz-adv-x="377" 
d="M236 -140l-48 8l39 207h71zM107 -140l-48 8l39 207h71z" />
    <glyph glyph-name="dagger" unicode="&#x2020;" horiz-adv-x="445" 
d="M255 0h-65v428h-115v56h115v172h65v-172h115v-56h-115v-428z" />
    <glyph glyph-name="daggerdbl" unicode="&#x2021;" horiz-adv-x="445" 
d="M255 0h-65v185h-115v55h115v175h-115v56h115v185h65v-185h115v-56h-115v-175h115v-55h-115v-185z" />
    <glyph glyph-name="bullet" unicode="&#x2022;" horiz-adv-x="495" 
d="M400 279c0 -84 -69 -152 -153 -152s-152 68 -152 152s68 153 152 153s153 -69 153 -153z" />
    <glyph glyph-name="ellipsis" unicode="&#x2026;" horiz-adv-x="802" 
d="M682 -11c-26 0 -47 21 -47 46c0 26 21 45 47 45c24 0 45 -19 45 -45c0 -25 -21 -46 -45 -46zM401 -11c-25 0 -47 21 -47 46c0 26 22 45 47 45s46 -19 46 -45c0 -25 -21 -46 -46 -46zM122 -11c-26 0 -47 21 -47 46c0 26 21 45 47 45c24 0 46 -19 46 -45
c0 -25 -22 -46 -46 -46z" />
    <glyph glyph-name="perthousand" unicode="&#x2030;" horiz-adv-x="1234" 
d="M368 537v-69c0 -95 -65 -152 -149 -152c-85 0 -148 57 -148 152v69c0 94 63 152 148 152c84 0 149 -58 149 -152zM300 0h-65l323 676h65zM309 470v65c0 71 -37 100 -90 100s-90 -29 -90 -100v-65c0 -71 37 -101 90 -101s90 30 90 101zM1163 208v-68
c0 -95 -65 -153 -149 -153c-85 0 -148 58 -148 153v68c0 95 63 153 148 153c84 0 149 -58 149 -153zM796 208v-68c0 -95 -65 -153 -149 -153c-85 0 -148 58 -148 153v68c0 95 63 153 148 153c84 0 149 -58 149 -153zM1104 142v64c0 72 -37 101 -90 101s-90 -29 -90 -101v-64
c0 -72 37 -101 90 -101s90 29 90 101zM737 142v64c0 72 -37 101 -90 101s-90 -29 -90 -101v-64c0 -72 37 -101 90 -101s90 29 90 101z" />
    <glyph glyph-name="guilsinglleft" unicode="&#x2039;" horiz-adv-x="323" 
d="M253 152l-48 -39l-138 166l138 167l48 -40l-106 -127z" />
    <glyph glyph-name="guilsinglright" unicode="&#x203a;" horiz-adv-x="326" 
d="M118 113l-48 40l106 127l-106 127l48 39l138 -166z" />
    <glyph glyph-name="Euro" unicode="&#x20ac;" horiz-adv-x="522" 
d="M476 65l11 -62c-43 -9 -91 -16 -137 -16c-133 0 -226 88 -228 241h-85v59h85v102h-85v59h85c2 153 95 241 228 241c46 0 94 -7 137 -16l-11 -62c-39 9 -82 15 -125 15c-97 0 -159 -67 -161 -178h213l-12 -59h-201v-102h185l-12 -59h-173c2 -111 64 -178 161 -178
c43 0 86 6 125 15z" />
    <glyph glyph-name="afii61352" unicode="&#x2116;" horiz-adv-x="931" 
d="M90 0v676h53l325 -546c-2 35 -2 69 -2 95v451h68v-676h-58l-322 537c3 -35 4 -71 4 -96v-441h-68zM629 142v52h222v-52h-222zM740 233c-75 0 -131 50 -131 134v61c0 83 56 134 131 134c74 0 131 -51 131 -134v-61c0 -84 -57 -134 -131 -134zM740 287c44 0 74 24 74 84v53
c0 59 -30 83 -74 83s-74 -24 -74 -83v-53c0 -60 30 -84 74 -84z" />
    <glyph glyph-name="trademark" unicode="&#x2122;" horiz-adv-x="766" 
d="M676 377h-51l-26 211l-64 -167h-54l-64 167l-26 -211h-51l37 298h61l70 -184l70 184h61zM232 377h-55v250h-87v48h231l-7 -48h-82v-250z" />
    <glyph glyph-name="Delta" unicode="&#x2206;" horiz-adv-x="751" 
d="M706 0h-661l289 707h85zM612 61l-236 577l-236 -577h472z" />
    <glyph glyph-name="product" unicode="&#x220f;" horiz-adv-x="790" 
d="M633 -132h-65v746h-346v-746h-65v746h-82v61h640v-61h-82v-746z" />
    <glyph glyph-name="summation" unicode="&#x2211;" horiz-adv-x="688" 
d="M613 -131h-538v64l276 339l-276 340v63h538v-61h-456l277 -342l-277 -342h456v-61z" />
    <glyph glyph-name="radical" unicode="&#x221a;" horiz-adv-x="587" 
d="M325 0h-76l-157 459h-60l-22 52h133l120 -359c7 -21 15 -49 23 -76c8 27 17 55 24 76l198 580h69z" />
    <glyph glyph-name="integral" unicode="&#x222b;" horiz-adv-x="389" 
d="M163 -74v669c0 96 71 145 148 145c20 0 47 -5 63 -10l-12 -60c-18 5 -36 8 -50 8c-44 0 -85 -25 -85 -83v-669c0 -97 -72 -145 -149 -145c-20 0 -48 5 -63 9l12 60c17 -5 36 -7 50 -7c44 0 86 24 86 83z" />
    <glyph glyph-name="approxequal" unicode="&#x2248;" horiz-adv-x="547" 
d="M429 438l43 -37c-19 -27 -59 -69 -112 -69c-78 0 -120 79 -173 79c-33 0 -52 -23 -69 -44l-43 37c19 27 59 69 112 69c77 0 121 -79 173 -79c33 0 52 23 69 44zM429 218l43 -37c-19 -27 -59 -69 -112 -69c-78 0 -120 79 -173 79c-33 0 -52 -23 -69 -44l-43 37
c19 27 59 69 112 69c77 0 121 -79 173 -79c33 0 52 23 69 44z" />
    <glyph glyph-name="notequal" unicode="&#x2260;" horiz-adv-x="560" 
d="M485 146h-222l-41 -115l-53 19l35 96h-129v60h151l53 146h-204v60h226l39 107l52 -19l-32 -88h125v-60h-147l-53 -146h200v-60z" />
    <glyph glyph-name="lessequal" unicode="&#x2264;" horiz-adv-x="512" 
d="M409 70l-334 184v50l334 184l28 -51l-287 -158l287 -158zM433 -38h-356v57h356v-57z" />
    <glyph glyph-name="greaterequal" unicode="&#x2265;" horiz-adv-x="512" 
d="M437 254l-334 -184l-28 51l287 158l-287 158l28 51l334 -184v-50zM435 -38h-356v57h356v-57z" />
    <glyph glyph-name="lozenge" unicode="&#x25ca;" horiz-adv-x="695" 
d="M344 -2l-299 327l298 327l299 -328zM132 325l212 -233l212 232l-213 234z" />
    <glyph glyph-name="apple" unicode="&#xf8ff;" horiz-adv-x="0" 
 />
    <glyph glyph-name="four.onum" horiz-adv-x="544" 
d="M395 -114l-66 -10v169h-268l-10 60l141 456h65l-135 -454h207v225l66 10v-235h98v-62h-98v-159z" />
    <glyph glyph-name="five.onum" horiz-adv-x="502" 
d="M38 -99l12 58c54 -17 107 -26 160 -26c72 0 166 45 166 163c0 84 -36 144 -169 144h-133l12 321h337l-20 -60h-254l-7 -201h76c145 0 226 -69 226 -202c0 -152 -121 -226 -234 -226c-58 0 -115 9 -172 29z" />
    <glyph glyph-name="six.onum" horiz-adv-x="545" 
d="M65 206v237c0 135 75 246 224 246c49 0 95 -9 143 -23l-14 -61c-42 13 -85 23 -129 23c-109 0 -158 -84 -158 -185v-41c49 27 97 40 148 40c116 0 213 -79 213 -227c0 -150 -98 -228 -214 -228c-117 0 -213 78 -213 219zM131 342v-137c0 -83 49 -157 146 -157
s147 76 147 167c0 97 -54 167 -147 167c-50 0 -98 -13 -146 -40z" />
    <glyph glyph-name="eight.onum" horiz-adv-x="559" 
d="M352 357c78 -36 148 -84 148 -189c0 -112 -99 -181 -221 -181c-114 0 -220 67 -220 180c0 100 71 148 149 185c-69 35 -128 82 -128 170c0 91 73 167 199 167c117 0 202 -70 202 -167c0 -86 -59 -130 -129 -165zM285 386c70 31 128 66 128 136c0 66 -55 106 -134 106
c-78 0 -131 -40 -131 -106c0 -73 64 -105 137 -136zM274 321c-78 -35 -147 -72 -147 -153c0 -74 67 -120 152 -120c81 0 153 43 153 120c0 81 -77 117 -158 153z" />
    <glyph glyph-name="nine.onum" horiz-adv-x="547" 
d="M416 118v41c-49 -27 -97 -40 -148 -40c-117 0 -213 79 -213 227c0 150 97 228 214 228c116 0 213 -78 213 -219v-237c0 -135 -76 -246 -224 -246c-49 0 -95 9 -143 23l13 61c43 -13 86 -23 130 -23c109 0 158 84 158 185zM416 219v137c0 83 -49 157 -146 157
s-147 -76 -147 -167c0 -97 54 -167 147 -167c50 0 98 13 146 40z" />
    <glyph glyph-name="dollar.onum" horiz-adv-x="498" 
d="M276 -124h-63v112c-67 3 -124 18 -167 33l12 62c51 -17 114 -33 177 -33c71 0 138 40 138 121c0 184 -315 102 -315 327c0 93 67 157 167 169v113h63v-112c46 -3 91 -14 138 -31l-17 -60c-50 16 -99 29 -150 29c-80 0 -131 -37 -131 -106c0 -171 315 -91 315 -327
c0 -107 -73 -169 -167 -183v-114z" />
    <glyph glyph-name="idieresis.smcp" horiz-adv-x="236" 
d="M256 704c0 -24 -21 -45 -47 -45c-24 0 -46 21 -46 45c0 26 22 47 46 47c26 0 47 -21 47 -47zM73 704c0 -24 -21 -45 -46 -45s-46 21 -46 45c0 26 21 47 46 47s46 -21 46 -47zM151 0h-66v561h66v-561z" />
    <glyph glyph-name="sterling.onum" horiz-adv-x="480" 
d="M425 0h-358v59c21 27 71 96 71 186c0 10 -1 20 -2 30h-75v57h66c-13 55 -32 107 -32 165c0 128 80 192 190 192c58 0 104 -12 143 -28l-20 -58c-31 12 -76 23 -118 23c-87 0 -125 -54 -125 -135c0 -59 17 -108 29 -159h188v-57h-178c1 -10 2 -20 2 -30
c0 -83 -39 -149 -63 -183h282v-62z" />
    <glyph glyph-name="Euro.onum" horiz-adv-x="522" 
d="M476 65l11 -62c-43 -9 -91 -16 -137 -16c-133 0 -226 88 -228 241h-85v59h85v102h-85v59h85c2 153 95 241 228 241c46 0 94 -7 137 -16l-11 -62c-39 9 -82 15 -125 15c-97 0 -159 -67 -161 -178h213l-12 -59h-201v-102h185l-12 -59h-173c2 -111 64 -178 161 -178
c43 0 86 6 125 15z" />
    <glyph glyph-name="yen.onum" horiz-adv-x="502" 
d="M425 120h-139v-120h-68v120h-139v57h139v72h-139v57h116l-186 370h77l166 -347l164 347h77l-185 -370h117v-57h-139v-72h139v-57z" />
    <glyph glyph-name="numbersign.onum" horiz-adv-x="544" 
d="M382 0h-61l20 204h-166l-20 -204h-61l20 204h-71v61h77l17 179h-70v61h76l20 204h61l-20 -204h166l20 204h61l-20 -204h70v-61h-76l-17 -179h70v-61h-76zM347 265l17 179h-166l-17 -179h166z" />
    <glyph glyph-name="iogonek.smcp" horiz-adv-x="236" 
d="M139 -164l12 -50c-16 -6 -32 -9 -48 -9c-59 0 -98 36 -98 91s42 103 80 132v561h66v-561c-47 -36 -91 -75 -91 -128c0 -28 18 -42 42 -42c12 0 25 1 37 6z" />
    <glyph glyph-name="lacute.smcp" horiz-adv-x="454" 
d="M216 708l-193 -69l-19 50l186 81zM403 0h-318v561h66v-501h258z" />
    <glyph glyph-name="one.tnum" 
d="M399 0h-66v613l-162 -32v63l228 42v-686z" />
    <glyph glyph-name="CR" horiz-adv-x="240" 
 />
    <glyph glyph-name="two.tnum" 
d="M479 0h-388v56c0 269 321 280 321 442c0 67 -43 130 -133 130c-67 0 -112 -19 -154 -39l-24 56c46 22 91 44 178 44c118 0 201 -72 201 -188c0 -199 -323 -215 -323 -440h322v-61z" />
    <glyph glyph-name="four.tnum" 
d="M408 1l-66 -10v169h-268l-10 60l141 456h65l-135 -454h207v225l66 10v-235h98v-62h-98v-159z" />
    <glyph glyph-name="five.tnum" 
d="M82 16l12 58c54 -17 107 -26 160 -26c72 0 166 45 166 163c0 84 -36 144 -169 144h-133l12 321h337l-20 -60h-254l-7 -201h76c145 0 226 -69 226 -202c0 -152 -121 -226 -234 -226c-58 0 -115 9 -172 29z" />
    <glyph glyph-name="six.tnum" 
d="M80 206v237c0 135 75 246 224 246c49 0 95 -9 143 -23l-14 -61c-42 13 -85 23 -129 23c-109 0 -158 -84 -158 -185v-41c49 27 97 40 148 40c116 0 213 -79 213 -227c0 -150 -98 -228 -214 -228c-117 0 -213 78 -213 219zM146 342v-137c0 -83 49 -157 146 -157
s147 76 147 167c0 97 -54 167 -147 167c-50 0 -98 -13 -146 -40z" />
    <glyph glyph-name="ncommaaccent.smcp" horiz-adv-x="560" 
d="M475 0h-56l-272 428c4 -29 4 -64 4 -86v-342h-66v561h51l275 -435c-2 30 -2 63 -2 85v350h66v-561zM270 -224h-49l31 159h69z" />
    <glyph glyph-name="eight.tnum" 
d="M358 357c78 -36 148 -84 148 -189c0 -112 -99 -181 -221 -181c-114 0 -220 67 -220 180c0 100 71 148 149 185c-69 35 -128 82 -128 170c0 91 73 167 199 167c117 0 202 -70 202 -167c0 -86 -59 -130 -129 -165zM291 386c70 31 128 66 128 136c0 66 -55 106 -134 106
c-78 0 -131 -40 -131 -106c0 -73 64 -105 137 -136zM280 321c-78 -35 -147 -72 -147 -153c0 -74 67 -120 152 -120c81 0 153 43 153 120c0 81 -77 117 -158 153z" />
    <glyph glyph-name="nine.tnum" 
d="M433 233v41c-49 -27 -97 -40 -148 -40c-117 0 -213 79 -213 227c0 150 97 228 214 228c116 0 213 -78 213 -219v-237c0 -135 -76 -246 -224 -246c-49 0 -95 9 -143 23l13 61c43 -13 86 -23 130 -23c109 0 158 84 158 185zM433 334v137c0 83 -49 157 -146 157
s-147 -76 -147 -167c0 -97 54 -167 147 -167c50 0 98 13 146 40z" />
    <glyph glyph-name="ocircumflex.smcp" horiz-adv-x="561" 
d="M379 639l-99 68l-99 -68l-31 52l130 79l130 -79zM494 347v-135c0 -152 -96 -225 -213 -225c-118 0 -214 73 -214 225v135c0 152 96 227 214 227c117 0 213 -75 213 -227zM428 216v128c0 116 -61 169 -147 169s-148 -53 -148 -169v-128c0 -115 62 -168 148 -168
s147 53 147 168z" />
    <glyph glyph-name="dollar.tnum" 
d="M317 -124h-63v112c-67 3 -124 18 -167 33l12 62c51 -17 114 -33 177 -33c71 0 138 40 138 121c0 184 -315 102 -315 327c0 93 67 157 167 169v113h63v-112c46 -3 91 -14 138 -31l-17 -60c-50 16 -99 29 -150 29c-80 0 -131 -37 -131 -106c0 -171 315 -91 315 -327
c0 -107 -73 -169 -167 -183v-114z" />
    <glyph glyph-name="cent.tnum" 
d="M352 -124h-63v112c-107 11 -178 82 -178 223v90c0 140 71 211 178 222v112h63v-113c36 -3 72 -11 108 -21l-11 -59c-43 11 -86 21 -130 21c-95 0 -142 -53 -142 -169v-76c0 -116 47 -170 142 -170c43 0 86 8 130 20l11 -58c-36 -10 -72 -18 -108 -21v-113z" />
    <glyph glyph-name="omacron.smcp" horiz-adv-x="561" 
d="M407 678h-253v62h253v-62zM494 347v-135c0 -152 -96 -225 -213 -225c-118 0 -214 73 -214 225v135c0 152 96 227 214 227c117 0 213 -75 213 -227zM428 216v128c0 116 -61 169 -147 169s-148 -53 -148 -169v-128c0 -115 62 -168 148 -168s147 53 147 168z" />
    <glyph glyph-name="Euro.tnum" 
d="M499 65l11 -62c-43 -9 -91 -16 -137 -16c-133 0 -226 88 -228 241h-85v59h85v102h-85v59h85c2 153 95 241 228 241c46 0 94 -7 137 -16l-11 -62c-39 9 -82 15 -125 15c-97 0 -159 -67 -161 -178h213l-12 -59h-201v-102h185l-12 -59h-173c2 -111 64 -178 161 -178
c43 0 86 6 125 15z" />
    <glyph glyph-name="yen.tnum" 
d="M459 120h-139v-120h-68v120h-139v57h139v72h-139v57h116l-186 370h77l166 -347l164 347h77l-185 -370h117v-57h-139v-72h139v-57z" />
    <glyph glyph-name="numbersign.tnum" 
d="M395 0h-61l20 204h-166l-20 -204h-61l20 204h-71v61h77l17 179h-70v61h76l20 204h61l-20 -204h166l20 204h61l-20 -204h70v-61h-76l-17 -179h70v-61h-76zM360 265l17 179h-166l-17 -179h166z" />
    <glyph glyph-name="oneonum.tnum" 
d="M387 0h-66v501l-158 -32v63l224 42v-574z" />
    <glyph glyph-name="twoonum.tnum" 
d="M458 0h-353v37c0 243 288 215 288 370c0 58 -43 106 -117 106c-47 0 -91 -12 -138 -34l-24 55c54 26 106 40 162 40c100 0 185 -62 185 -167c0 -182 -285 -190 -285 -347h290z" />
    <glyph glyph-name="threeonum.tnum" 
d="M87 -101l19 59c46 -16 92 -25 139 -25c95 0 171 55 171 154c0 78 -47 139 -162 139h-67l-12 60l194 215h-268l-8 60h349l11 -60l-198 -215c129 0 229 -68 229 -199c0 -134 -109 -215 -239 -215c-54 0 -105 9 -158 27z" />
    <glyph glyph-name="fouronum.tnum" 
d="M408 -114l-66 -10v169h-268l-10 60l141 456h65l-135 -454h207v225l66 10v-235h98v-62h-98v-159z" />
    <glyph glyph-name="fiveonum.tnum" 
d="M72 -99l12 58c54 -17 107 -26 160 -26c72 0 166 45 166 163c0 84 -36 144 -169 144h-133l12 321h337l-20 -60h-254l-7 -201h76c145 0 226 -69 226 -202c0 -152 -121 -226 -234 -226c-58 0 -115 9 -172 29z" />
    <glyph glyph-name="sixonum.tnum" 
d="M72 206v237c0 135 75 246 224 246c49 0 95 -9 143 -23l-14 -61c-42 13 -85 23 -129 23c-109 0 -158 -84 -158 -185v-41c49 27 97 40 148 40c116 0 213 -79 213 -227c0 -150 -98 -228 -214 -228c-117 0 -213 78 -213 219zM138 342v-137c0 -83 49 -157 146 -157
s147 76 147 167c0 97 -54 167 -147 167c-50 0 -98 -13 -146 -40z" />
    <glyph glyph-name="sevenonum.tnum" 
d="M293 -115h-69c0 303 90 478 200 616h-347l-4 60h425v-58c-121 -155 -205 -286 -205 -618z" />
    <glyph glyph-name="scommaaccent.smcp" horiz-adv-x="450" 
d="M50 16l12 60c46 -15 100 -28 155 -28c60 0 115 32 115 95c0 147 -271 98 -271 286c0 88 74 145 177 145c51 0 98 -10 148 -28l-17 -57c-44 14 -86 24 -131 24c-67 0 -109 -30 -109 -82c0 -137 271 -90 271 -287c0 -103 -84 -157 -183 -157c-67 0 -123 15 -167 29z
M219 -224h-49l31 159h69z" />
    <glyph glyph-name="eightonum.tnum" 
d="M358 357c78 -36 148 -84 148 -189c0 -112 -99 -181 -221 -181c-114 0 -220 67 -220 180c0 100 71 148 149 185c-69 35 -128 82 -128 170c0 91 73 167 199 167c117 0 202 -70 202 -167c0 -86 -59 -130 -129 -165zM291 386c70 31 128 66 128 136c0 66 -55 106 -134 106
c-78 0 -131 -40 -131 -106c0 -73 64 -105 137 -136zM280 321c-78 -35 -147 -72 -147 -153c0 -74 67 -120 152 -120c81 0 153 43 153 120c0 81 -77 117 -158 153z" />
    <glyph glyph-name="nineonum.tnum" 
d="M433 118v41c-49 -27 -97 -40 -148 -40c-117 0 -213 79 -213 227c0 150 97 228 214 228c116 0 213 -78 213 -219v-237c0 -135 -76 -246 -224 -246c-49 0 -95 9 -143 23l13 61c43 -13 86 -23 130 -23c109 0 158 84 158 185zM433 219v137c0 83 -49 157 -146 157
s-147 -76 -147 -167c0 -97 54 -167 147 -167c50 0 98 13 146 40z" />
    <glyph glyph-name="dollaronum.tnum" 
d="M317 -124h-63v112c-67 3 -124 18 -167 33l12 62c51 -17 114 -33 177 -33c71 0 138 40 138 121c0 184 -315 102 -315 327c0 93 67 157 167 169v113h63v-112c46 -3 91 -14 138 -31l-17 -60c-50 16 -99 29 -150 29c-80 0 -131 -37 -131 -106c0 -171 315 -91 315 -327
c0 -107 -73 -169 -167 -183v-114z" />
    <glyph glyph-name="centonum.tnum" 
d="M352 -124h-63v112c-107 11 -178 82 -178 223v90c0 140 71 211 178 222v112h63v-113c36 -3 72 -11 108 -21l-11 -59c-43 11 -86 21 -130 21c-95 0 -142 -53 -142 -169v-76c0 -116 47 -170 142 -170c43 0 86 8 130 20l11 -58c-36 -10 -72 -18 -108 -21v-113z" />
    <glyph glyph-name="sterlingonum.tnum" 
d="M466 0h-358v59c21 27 71 96 71 186c0 10 -1 20 -2 30h-75v57h66c-13 55 -32 107 -32 165c0 128 80 192 190 192c58 0 104 -12 143 -28l-20 -58c-31 12 -76 23 -118 23c-87 0 -125 -54 -125 -135c0 -59 17 -108 29 -159h188v-57h-178c1 -10 2 -20 2 -30
c0 -83 -39 -149 -63 -183h282v-62z" />
    <glyph glyph-name="yenonum.tnum" 
d="M459 120h-139v-120h-68v120h-139v57h139v72h-139v57h116l-186 370h77l166 -347l164 347h77l-185 -370h117v-57h-139v-72h139v-57z" />
    <glyph glyph-name="numbersignonum.tnum" 
d="M395 0h-61l20 204h-166l-20 -204h-61l20 204h-71v61h77l17 179h-70v61h76l20 204h61l-20 -204h166l20 204h61l-20 -204h70v-61h-76l-17 -179h70v-61h-76zM360 265l17 179h-166l-17 -179h166z" />
    <glyph glyph-name="gbreve.smcp" horiz-adv-x="540" 
d="M325 763h58c0 -68 -48 -115 -111 -115c-64 0 -112 47 -112 115h58c0 -34 23 -60 54 -60c29 0 53 26 53 60zM406 63v180h-66v55h129v-280c-52 -17 -114 -31 -179 -31c-128 0 -223 73 -223 225v137c0 152 95 225 223 225c63 0 108 -11 166 -27l-14 -58
c-42 13 -91 24 -151 24c-94 0 -158 -52 -158 -167v-131c0 -115 64 -167 158 -167c46 0 80 7 115 15z" />
    <glyph glyph-name="a.smcp" horiz-adv-x="531" 
d="M37 0l191 561h75l191 -561h-68l-52 156h-217l-52 -156h-68zM176 213h179l-64 192c-8 23 -18 58 -26 89c-8 -32 -17 -66 -25 -89z" />
    <glyph glyph-name="seven.onum" horiz-adv-x="475" 
d="M245 -115h-69c0 303 90 478 200 616h-347l-4 60h425v-58c-121 -155 -205 -286 -205 -618z" />
    <glyph glyph-name="umacron.smcp" horiz-adv-x="562" 
d="M408 678h-253v62h253v-62zM417 180v381h65v-384c0 -113 -90 -190 -200 -190c-111 0 -202 77 -202 190v384h66v-381c0 -77 56 -132 136 -132s135 55 135 132z" />
    <glyph glyph-name="wgrave.smcp" horiz-adv-x="726" 
d="M450 639l-193 69l26 62l186 -81zM153 0l-107 561h66l75 -406c4 -23 7 -55 9 -84c8 30 16 61 23 83l105 320h78l105 -320c7 -22 15 -53 22 -82c3 29 7 60 11 83l74 406h66l-107 -561h-77l-113 340c-6 20 -14 48 -20 73c-6 -25 -14 -53 -20 -73l-113 -340h-77z" />
    <glyph glyph-name="b.smcp" horiz-adv-x="507" 
d="M255 0h-170v561h175c113 0 179 -62 179 -145c0 -51 -29 -95 -78 -121c73 -26 100 -83 100 -135c0 -73 -57 -160 -206 -160zM151 317h101c74 0 119 36 119 93c0 56 -39 91 -113 91h-107v-184zM151 60h103c93 0 139 41 139 100s-39 100 -132 100h-110v-200z" />
    <glyph glyph-name="c.smcp" horiz-adv-x="504" 
d="M444 72l13 -60c-57 -16 -103 -25 -167 -25c-128 0 -223 73 -223 225v137c0 152 95 225 223 225c62 0 109 -10 167 -27l-13 -58c-42 11 -92 24 -153 24c-94 0 -158 -52 -158 -168v-130c0 -118 64 -167 158 -167c61 0 111 11 153 24z" />
    <glyph glyph-name="d.smcp" horiz-adv-x="557" 
d="M288 0h-203v531c53 18 129 43 203 43c110 0 202 -72 202 -204v-171c0 -132 -73 -199 -202 -199zM424 202v164c0 96 -56 147 -137 147c-48 0 -103 -13 -136 -24v-429h137c90 0 136 42 136 142z" />
    <glyph glyph-name="e.smcp" horiz-adv-x="471" 
d="M404 0h-319v561h311v-60h-245v-190h209l-5 -57h-204v-194h253v-60z" />
    <glyph glyph-name="cent.onum" horiz-adv-x="479" 
d="M306 -124h-63v112c-107 11 -178 82 -178 223v90c0 140 71 211 178 222v112h63v-113c36 -3 72 -11 108 -21l-11 -59c-43 11 -86 21 -130 21c-95 0 -142 -53 -142 -169v-76c0 -116 47 -170 142 -170c43 0 86 8 130 20l11 -58c-36 -10 -72 -18 -108 -21v-113z" />
    <glyph glyph-name="f.smcp" horiz-adv-x="454" 
d="M151 0h-66v561h310v-60h-244v-190h203l-7 -57h-196v-254z" />
    <glyph glyph-name="g.smcp" horiz-adv-x="540" 
d="M406 63v180h-66v55h129v-280c-52 -17 -114 -31 -179 -31c-128 0 -223 73 -223 225v137c0 152 95 225 223 225c63 0 108 -11 166 -27l-14 -58c-42 13 -91 24 -151 24c-94 0 -158 -52 -158 -167v-131c0 -115 64 -167 158 -167c46 0 80 7 115 15z" />
    <glyph glyph-name="h.smcp" horiz-adv-x="566" 
d="M481 0h-66v256h-264v-256h-66v561h66v-246h264v246h66v-561z" />
    <glyph glyph-name="j.smcp" horiz-adv-x="428" 
d="M286 179v382l66 -6v-378c0 -118 -68 -190 -178 -190c-46 0 -91 9 -137 25l15 58c33 -12 77 -22 119 -22c82 0 115 57 115 131z" />
    <glyph glyph-name="k.smcp" horiz-adv-x="523" 
d="M486 0h-77l-183 254l-75 -100v-154h-66v561h66v-300l231 300h74l-190 -253z" />
    <glyph glyph-name="l.smcp" horiz-adv-x="454" 
d="M403 0h-318v561h66v-501h258z" />
    <glyph glyph-name="zero.tnum" 
d="M510 420v-163c0 -190 -102 -270 -224 -270c-123 0 -225 80 -225 270v163c0 190 101 269 225 269c123 0 224 -79 224 -269zM444 257v163c0 150 -66 208 -158 208s-159 -58 -159 -208v-163c0 -150 66 -209 159 -209s158 59 158 209z" />
    <glyph glyph-name="n.smcp" horiz-adv-x="560" 
d="M475 0h-56l-272 428c4 -29 4 -64 4 -86v-342h-66v561h51l275 -435c-2 30 -2 63 -2 85v350h66v-561z" />
    <glyph glyph-name="three.tnum" 
d="M87 14l19 59c46 -16 92 -25 139 -25c95 0 171 55 171 154c0 78 -47 139 -162 139h-67l-12 60l194 215h-268l-8 60h349l11 -60l-198 -215c129 0 229 -68 229 -199c0 -134 -109 -215 -239 -215c-54 0 -105 9 -158 27z" />
    <glyph glyph-name="o.smcp" horiz-adv-x="561" 
d="M494 347v-135c0 -152 -96 -225 -213 -225c-118 0 -214 73 -214 225v135c0 152 96 227 214 227c117 0 213 -75 213 -227zM428 216v128c0 116 -61 169 -147 169s-148 -53 -148 -169v-128c0 -115 62 -168 148 -168s147 53 147 168z" />
    <glyph glyph-name="p.smcp" horiz-adv-x="492" 
d="M151 0h-66v561h190c104 0 172 -76 172 -168c0 -90 -68 -167 -172 -167h-124v-226zM151 285h124c67 0 105 45 105 108c0 62 -38 107 -105 107h-124v-215z" />
    <glyph glyph-name="q.smcp" horiz-adv-x="561" 
d="M405 -105l-55 -37l-51 130c-6 -1 -12 -1 -18 -1c-118 0 -214 73 -214 225v135c0 152 96 227 214 227c117 0 213 -75 213 -227v-135c0 -115 -55 -184 -132 -212zM428 216v128c0 116 -61 169 -147 169s-148 -53 -148 -169v-128c0 -115 62 -168 148 -168s147 53 147 168z
" />
    <glyph glyph-name="r.smcp" horiz-adv-x="497" 
d="M446 0h-74l-111 230h-110v-230h-66v561h191c104 0 171 -76 171 -168c0 -66 -39 -134 -119 -156zM151 285h125c66 0 104 45 104 108c0 62 -38 107 -104 107h-125v-215z" />
    <glyph glyph-name="s.smcp" horiz-adv-x="450" 
d="M50 16l12 60c46 -15 100 -28 155 -28c60 0 115 32 115 95c0 147 -271 98 -271 286c0 88 74 145 177 145c51 0 98 -10 148 -28l-17 -57c-44 14 -86 24 -131 24c-67 0 -109 -30 -109 -82c0 -137 271 -90 271 -287c0 -103 -84 -157 -183 -157c-67 0 -123 15 -167 29z" />
    <glyph glyph-name="t.smcp" horiz-adv-x="468" 
d="M267 0h-66v500h-163v61h392v-61h-163v-500z" />
    <glyph glyph-name="seven.tnum" 
d="M293 0h-69c0 303 90 478 200 616h-347l-4 60h425v-58c-121 -155 -205 -286 -205 -618z" />
    <glyph glyph-name="v.smcp" horiz-adv-x="531" 
d="M228 0l-191 561h68l135 -405c8 -23 17 -58 25 -89c8 31 18 65 26 89l135 405h68l-191 -561h-75z" />
    <glyph glyph-name="w.smcp" horiz-adv-x="726" 
d="M153 0l-107 561h66l75 -406c4 -23 7 -55 9 -84c8 30 16 61 23 83l105 320h78l105 -320c7 -22 15 -53 22 -82c3 29 7 60 11 83l74 406h66l-107 -561h-77l-113 340c-6 20 -14 48 -20 73c-6 -25 -14 -53 -20 -73l-113 -340h-77z" />
    <glyph glyph-name="x.smcp" horiz-adv-x="520" 
d="M58 561h74l129 -210l131 210h70l-164 -263l185 -298h-75l-149 242l-151 -242h-71l185 295z" />
    <glyph glyph-name="z.smcp" horiz-adv-x="490" 
d="M51 0v52l293 448h-289v61h367v-50l-295 -451h312l-8 -60h-380z" />
    <glyph glyph-name="ampersand.smcp" horiz-adv-x="519" 
d="M478 265h-53v-115c0 -90 -65 -163 -180 -163c-116 0 -182 73 -182 163c0 43 18 110 86 143c-64 29 -79 89 -79 128c0 87 68 153 178 153c42 0 80 -8 122 -22l-19 -58c-34 12 -67 19 -101 19c-71 0 -112 -38 -112 -92c0 -58 37 -98 109 -98h42v-58h-46
c-71 0 -112 -52 -112 -115c0 -60 44 -102 115 -102s116 42 116 102v173h116v-58z" />
    <glyph glyph-name="question.smcp" horiz-adv-x="403" 
d="M228 143l-66 17v54c0 95 110 144 110 220c0 47 -30 79 -84 79c-32 0 -71 -15 -103 -35l-28 53c37 24 82 43 131 43c77 0 152 -42 152 -132c0 -100 -112 -146 -112 -227v-72zM238 29c0 -23 -20 -42 -43 -42c-24 0 -44 19 -44 42c0 25 20 42 44 42c23 0 43 -18 43 -42z" />
    <glyph glyph-name="sterling.tnum" 
d="M466 0h-358v59c21 27 71 96 71 186c0 10 -1 20 -2 30h-75v57h66c-13 55 -32 107 -32 165c0 128 80 192 190 192c58 0 104 -12 143 -28l-20 -58c-31 12 -76 23 -118 23c-87 0 -125 -54 -125 -135c0 -59 17 -108 29 -159h188v-57h-178c1 -10 2 -20 2 -30
c0 -83 -39 -149 -63 -183h282v-62z" />
    <glyph glyph-name="questiondown.smcp" horiz-adv-x="403" 
d="M246 442c0 -25 -20 -42 -44 -42c-23 0 -43 18 -43 42c0 23 20 42 43 42c24 0 44 -19 44 -42zM312 -7l28 -53c-37 -24 -82 -43 -131 -43c-77 0 -152 42 -152 132c0 100 112 146 112 227v72l66 -17v-54c0 -95 -110 -144 -110 -220c0 -47 30 -79 84 -79c32 0 71 15 103 35z
" />
    <glyph glyph-name="zeroonum.tnum" 
d="M506 325v-88c0 -165 -99 -250 -220 -250c-120 0 -221 85 -221 250v88c0 164 99 249 220 249s221 -85 221 -249zM440 237v88c0 124 -64 188 -155 188c-90 0 -154 -64 -154 -188v-88c0 -125 64 -189 155 -189c90 0 154 64 154 189z" />
    <glyph glyph-name="exclamdown.smcp" horiz-adv-x="229" 
d="M158 441c0 -24 -20 -42 -44 -42c-23 0 -43 18 -43 42c0 23 20 43 43 43c24 0 44 -20 44 -43zM150 -81l-73 -17l7 391h59z" />
    <glyph glyph-name="at.smcp" horiz-adv-x="781" 
d="M554 -29l24 -43c-60 -42 -121 -68 -217 -68c-185 0 -292 129 -292 294c0 201 138 374 357 374c177 0 290 -132 290 -302c0 -13 -2 -32 -4 -45h-187l-9 -65c-8 -64 -71 -116 -150 -116c-74 0 -125 45 -125 104c0 80 64 123 150 123h83l3 23c6 44 -15 84 -71 84
c-31 0 -68 -7 -100 -16l-6 48c36 11 75 19 113 19c86 0 130 -55 120 -135l-3 -23h131c0 135 -92 252 -239 252c-192 0 -300 -162 -300 -322c0 -139 89 -248 243 -248c66 0 140 26 189 62zM460 116l8 65h-82c-49 0 -87 -22 -87 -70c0 -34 28 -60 73 -60c47 0 83 30 88 65z
" />
    <glyph glyph-name="zerosmcp.tnum" horiz-adv-x="498" 
d="M447 348v-134c0 -159 -90 -227 -198 -227s-198 68 -198 227v134c0 159 89 226 198 226s198 -67 198 -226zM381 214v134c0 119 -55 165 -132 165c-76 0 -132 -46 -132 -165v-134c0 -120 55 -166 132 -166c78 0 132 46 132 166z" />
    <glyph glyph-name="onesmcp.tnum" horiz-adv-x="498" 
d="M351 0h-66v499l-139 -26v62l205 35v-570z" />
    <glyph glyph-name="twosmcp.tnum" horiz-adv-x="498" 
d="M420 0h-344v50c0 221 277 233 277 363c0 52 -36 100 -111 100c-57 0 -96 -15 -133 -32l-24 55c42 20 84 38 158 38c104 0 178 -61 178 -159c0 -164 -277 -185 -277 -356h276v-59z" />
    <glyph glyph-name="threesmcp.tnum" horiz-adv-x="498" 
d="M72 11l18 58c41 -14 82 -21 123 -21c80 0 143 43 143 119c0 61 -38 109 -134 109h-60l-12 57l166 170h-231l-8 58h311l9 -58l-168 -170c109 -1 195 -59 195 -166c0 -112 -97 -180 -211 -180c-47 0 -93 8 -141 24z" />
    <glyph glyph-name="sacute.smcp" horiz-adv-x="450" 
d="M331 708l-193 -69l-19 50l186 81zM50 16l12 60c46 -15 100 -28 155 -28c60 0 115 32 115 95c0 147 -271 98 -271 286c0 88 74 145 177 145c51 0 98 -10 148 -28l-17 -57c-44 14 -86 24 -131 24c-67 0 -109 -30 -109 -82c0 -137 271 -90 271 -287
c0 -103 -84 -157 -183 -157c-67 0 -123 15 -167 29z" />
    <glyph glyph-name="fivesmcp.tnum" horiz-adv-x="498" 
d="M69 12l12 58c47 -14 94 -22 140 -22c61 0 139 36 139 127c0 68 -33 114 -143 114h-117l11 272h299l-18 -58h-219l-6 -156h60c127 0 201 -58 201 -170c0 -128 -107 -190 -206 -190c-52 0 -103 8 -153 25z" />
    <glyph glyph-name="sixsmcp.tnum" horiz-adv-x="498" 
d="M66 172v195c0 113 67 207 198 207c44 0 84 -8 128 -20l-15 -59c-37 11 -74 18 -113 18c-89 0 -131 -65 -131 -144v-31c41 23 82 33 125 33c102 0 186 -67 186 -192c0 -126 -87 -192 -189 -192c-103 0 -189 66 -189 185zM132 281v-110c0 -65 41 -123 122 -123
s122 60 122 131c0 79 -44 135 -122 135c-42 0 -82 -10 -122 -33z" />
    <glyph glyph-name="sevensmcp.tnum" horiz-adv-x="498" 
d="M262 0h-68c0 244 75 390 169 503h-297l-4 58h374v-57c-106 -128 -174 -240 -174 -504z" />
    <glyph glyph-name="ninesmcp.tnum" horiz-adv-x="498" 
d="M372 192v31c-42 -23 -82 -33 -126 -33c-103 0 -186 67 -186 192c0 126 86 192 190 192c102 0 188 -66 188 -185v-195c0 -113 -68 -207 -198 -207c-43 0 -84 8 -127 20l13 60c38 -11 76 -19 114 -19c89 0 132 65 132 144zM372 280v110c0 64 -41 123 -122 123
c-80 0 -122 -61 -122 -131c0 -78 44 -135 122 -135c42 0 82 10 122 33z" />
    <glyph glyph-name="dollarsmcp.tnum" horiz-adv-x="498" 
d="M278 -103h-58v93c-54 3 -112 16 -147 28l12 59c46 -15 101 -28 156 -28c60 0 115 32 115 95c0 145 -272 81 -272 267c0 70 52 131 146 142v94h58v-93c44 -4 86 -15 121 -26l-16 -57c-44 14 -86 25 -131 25c-68 0 -110 -29 -110 -83c0 -135 272 -72 272 -268
c0 -79 -54 -141 -146 -153v-95z" />
    <glyph glyph-name="centsmcp.tnum" horiz-adv-x="498" 
d="M301 -103h-58v93c-102 10 -154 77 -154 184v77c0 106 52 174 154 184v93h58v-93c31 -3 63 -10 94 -18l-11 -56c-37 10 -74 18 -112 18c-79 0 -119 -41 -119 -133v-67c0 -92 40 -133 119 -133c38 0 75 8 112 18l11 -56c-31 -8 -63 -15 -94 -18v-93z" />
    <glyph glyph-name="tbar.smcp" horiz-adv-x="468" 
d="M267 0h-66v269h-93v48h93v183h-163v61h392v-61h-163v-183h97v-48h-97v-269z" />
    <glyph glyph-name="Eurosmcp.tnum" horiz-adv-x="498" 
d="M435 60l11 -59c-39 -8 -80 -14 -121 -14c-117 0 -200 74 -201 202h-73v50h73v83h-73v51h73c1 127 84 201 201 201c41 0 82 -6 121 -14l-11 -58c-35 7 -72 13 -110 13c-81 0 -134 -54 -135 -142h182l-10 -51h-172v-83h158l-11 -50h-147c1 -89 54 -142 135 -142
c38 0 75 5 110 13z" />
    <glyph glyph-name="Euroonum.tnum" 
d="M499 65l11 -62c-43 -9 -91 -16 -137 -16c-133 0 -226 88 -228 241h-85v59h85v102h-85v59h85c2 153 95 241 228 241c46 0 94 -7 137 -16l-11 -62c-39 9 -82 15 -125 15c-97 0 -159 -67 -161 -178h213l-12 -59h-201v-102h185l-12 -59h-173c2 -111 64 -178 161 -178
c43 0 86 6 125 15z" />
    <glyph glyph-name="yensmcp.tnum" horiz-adv-x="498" 
d="M402 98h-120v-98h-66v98h-119v50h119v56h-119v51h99l-161 306h74l140 -281l140 281h73l-160 -306h100v-51h-120v-56h120v-50z" />
    <glyph glyph-name="numbersignsmcp.tnum" horiz-adv-x="498" 
d="M346 0h-58l17 167h-138l-17 -167h-59l17 167h-61v57h67l14 140h-61v58h67l17 166h59l-17 -166h138l17 166h59l-17 -166h60v-58h-66l-14 -140h60v-57h-66zM311 224l14 140h-138l-14 -140h138z" />
    <glyph glyph-name="zero.smcp" horiz-adv-x="522" 
d="M459 348v-134c0 -159 -90 -227 -198 -227s-198 68 -198 227v134c0 159 89 226 198 226s198 -67 198 -226zM393 214v134c0 119 -55 165 -132 165c-76 0 -132 -46 -132 -165v-134c0 -120 55 -166 132 -166c78 0 132 46 132 166z" />
    <glyph glyph-name="one.smcp" horiz-adv-x="344" 
d="M256 0h-66v499l-139 -26v62l205 35v-570z" />
    <glyph glyph-name="two.smcp" horiz-adv-x="475" 
d="M402 0h-344v50c0 221 277 233 277 363c0 52 -36 100 -111 100c-57 0 -96 -15 -133 -32l-24 55c42 20 84 38 158 38c104 0 178 -61 178 -159c0 -164 -277 -185 -277 -356h276v-59z" />
    <glyph glyph-name="three.smcp" horiz-adv-x="450" 
d="M42 11l18 58c41 -14 82 -21 123 -21c80 0 143 43 143 119c0 61 -38 109 -134 109h-60l-12 57l166 170h-231l-8 58h311l9 -58l-168 -170c109 -1 195 -59 195 -166c0 -112 -97 -180 -211 -180c-47 0 -93 8 -141 24z" />
    <glyph glyph-name="five.smcp" horiz-adv-x="456" 
d="M40 12l12 58c47 -14 94 -22 140 -22c61 0 139 36 139 127c0 68 -33 114 -143 114h-117l11 272h299l-18 -58h-219l-6 -156h60c127 0 201 -58 201 -170c0 -128 -107 -190 -206 -190c-52 0 -103 8 -153 25z" />
    <glyph glyph-name="six.smcp" horiz-adv-x="494" 
d="M63 172v195c0 113 67 207 198 207c44 0 84 -8 128 -20l-15 -59c-37 11 -74 18 -113 18c-89 0 -131 -65 -131 -144v-31c41 23 82 33 125 33c102 0 186 -67 186 -192c0 -126 -87 -192 -189 -192c-103 0 -189 66 -189 185zM129 281v-110c0 -65 41 -123 122 -123
s122 60 122 131c0 79 -44 135 -122 135c-42 0 -82 -10 -122 -33z" />
    <glyph glyph-name="seven.smcp" horiz-adv-x="434" 
d="M229 0h-68c0 244 75 390 169 503h-297l-4 58h374v-57c-106 -128 -174 -240 -174 -504z" />
    <glyph glyph-name="nine.smcp" horiz-adv-x="487" 
d="M358 192v31c-42 -23 -82 -33 -126 -33c-103 0 -186 67 -186 192c0 126 86 192 190 192c102 0 188 -66 188 -185v-195c0 -113 -68 -207 -198 -207c-43 0 -84 8 -127 20l13 60c38 -11 76 -19 114 -19c89 0 132 65 132 144zM358 280v110c0 64 -41 123 -122 123
c-80 0 -122 -61 -122 -131c0 -78 44 -135 122 -135c42 0 82 10 122 33z" />
    <glyph glyph-name="dollar.smcp" horiz-adv-x="452" 
d="M251 -103h-58v93c-54 3 -112 16 -147 28l12 59c46 -15 101 -28 156 -28c60 0 115 32 115 95c0 145 -272 81 -272 267c0 70 52 131 146 142v94h58v-93c44 -4 86 -15 121 -26l-16 -57c-44 14 -86 25 -131 25c-68 0 -110 -29 -110 -83c0 -135 272 -72 272 -268
c0 -79 -54 -141 -146 -153v-95z" />
    <glyph glyph-name="cent.smcp" horiz-adv-x="432" 
d="M275 -103h-58v93c-102 10 -154 77 -154 184v77c0 106 52 174 154 184v93h58v-93c31 -3 63 -10 94 -18l-11 -56c-37 10 -74 18 -112 18c-79 0 -119 -41 -119 -133v-67c0 -92 40 -133 119 -133c38 0 75 8 112 18l11 -56c-31 -8 -63 -15 -94 -18v-93z" />
    <glyph glyph-name="ygrave.smcp" horiz-adv-x="499" 
d="M336 639l-193 69l26 62l186 -81zM216 0v215l-183 346h70l146 -281l146 281h71l-184 -346v-215h-66z" />
    <glyph glyph-name="Euro.smcp" horiz-adv-x="472" 
d="M424 60l11 -59c-39 -8 -80 -14 -121 -14c-117 0 -200 74 -201 202h-73v50h73v83h-73v51h73c1 127 84 201 201 201c41 0 82 -6 121 -14l-11 -58c-35 7 -72 13 -110 13c-81 0 -134 -54 -135 -142h182l-10 -51h-172v-83h158l-11 -50h-147c1 -89 54 -142 135 -142
c38 0 75 5 110 13z" />
    <glyph glyph-name="yen.smcp" horiz-adv-x="457" 
d="M382 98h-120v-98h-66v98h-119v50h119v56h-119v51h99l-161 306h74l140 -281l140 281h73l-160 -306h100v-51h-120v-56h120v-50z" />
    <glyph glyph-name="numbersign.smcp" horiz-adv-x="493" 
d="M344 0h-58l17 167h-138l-17 -167h-59l17 167h-61v57h67l14 140h-61v58h67l17 166h59l-17 -166h138l17 166h59l-17 -166h60v-58h-66l-14 -140h60v-57h-66zM309 224l14 140h-138l-14 -140h138z" />
    <glyph glyph-name="grave.smcp" horiz-adv-x="382" 
d="M278 639l-193 69l26 62l186 -81z" />
    <glyph glyph-name="acute.smcp" horiz-adv-x="382" 
d="M297 708l-193 -69l-19 50l186 81z" />
    <glyph glyph-name="dieresis.smcp" horiz-adv-x="445" 
d="M360 704c0 -24 -21 -45 -47 -45c-24 0 -46 21 -46 45c0 26 22 47 46 47c26 0 47 -21 47 -47zM177 704c0 -24 -21 -45 -46 -45s-46 21 -46 45c0 26 21 47 46 47s46 -21 46 -47z" />
    <glyph glyph-name="circumflex.smcp" horiz-adv-x="460" 
d="M329 639l-99 68l-99 -68l-31 52l130 79l130 -79z" />
    <glyph glyph-name="i.smcp" horiz-adv-x="236" 
d="M151 0h-66v561h66v-561z" />
    <glyph glyph-name="m.smcp" horiz-adv-x="721" 
d="M54 0l72 561h79l131 -321c8 -19 17 -47 24 -72c8 25 17 53 25 72l131 321h79l72 -561h-65l-52 407c-3 19 -6 48 -6 74c-9 -26 -18 -54 -26 -74l-120 -297h-75l-119 297c-8 19 -18 46 -27 72c-2 -26 -3 -53 -5 -72l-53 -407h-65z" />
    <glyph glyph-name="macron.smcp" horiz-adv-x="433" 
d="M343 678h-253v62h253v-62z" />
    <glyph glyph-name="breve.smcp" horiz-adv-x="401" 
d="M254 763h58c0 -68 -48 -115 -111 -115c-64 0 -112 47 -112 115h58c0 -34 23 -60 54 -60c29 0 53 26 53 60z" />
    <glyph glyph-name="dotaccent.smcp" horiz-adv-x="263" 
d="M178 704c0 -24 -21 -45 -47 -45c-24 0 -46 21 -46 45c0 26 22 47 46 47c26 0 47 -21 47 -47z" />
    <glyph glyph-name="cedilla.smcp" horiz-adv-x="291" 
d="M154 -98v98h62v-105c0 -81 -58 -106 -114 -106c-22 0 -42 2 -57 6l8 57c12 -3 30 -5 44 -5c40 0 57 18 57 55z" />
    <glyph glyph-name="hungarumlaut.smcp" horiz-adv-x="556" 
d="M471 725l-162 -92l-28 46l156 103zM275 724l-162 -92l-28 46l156 103z" />
    <glyph glyph-name="ogonek.smcp" horiz-adv-x="312" 
d="M214 -164l12 -50c-16 -6 -32 -9 -48 -9c-59 0 -98 36 -98 91s42 103 82 132h64c-47 -36 -91 -75 -91 -128c0 -28 18 -42 42 -42c12 0 25 1 37 6z" />
    <glyph glyph-name="u.smcp" horiz-adv-x="562" 
d="M417 180v381h65v-384c0 -113 -90 -190 -200 -190c-111 0 -202 77 -202 190v384h66v-381c0 -77 56 -132 136 -132s135 55 135 132z" />
    <glyph glyph-name="commaaccent.smcp" horiz-adv-x="210" 
d="M106 -224h-49l31 159h69z" />
    <glyph glyph-name="y.smcp" horiz-adv-x="499" 
d="M216 0v215l-183 346h70l146 -281l146 281h71l-184 -346v-215h-66z" />
    <glyph glyph-name="aacute.smcp" horiz-adv-x="531" 
d="M371 708l-193 -69l-19 50l186 81zM37 0l191 561h75l191 -561h-68l-52 156h-217l-52 -156h-68zM176 213h179l-64 192c-8 23 -18 58 -26 89c-8 -32 -17 -66 -25 -89z" />
    <glyph glyph-name="agrave.smcp" horiz-adv-x="531" 
d="M352 639l-193 69l26 62l186 -81zM37 0l191 561h75l191 -561h-68l-52 156h-217l-52 -156h-68zM176 213h179l-64 192c-8 23 -18 58 -26 89c-8 -32 -17 -66 -25 -89z" />
    <glyph glyph-name="acircumflex.smcp" horiz-adv-x="531" 
d="M364 639l-99 68l-99 -68l-31 52l130 79l130 -79zM37 0l191 561h75l191 -561h-68l-52 156h-217l-52 -156h-68zM176 213h179l-64 192c-8 23 -18 58 -26 89c-8 -32 -17 -66 -25 -89z" />
    <glyph glyph-name="adieresis.smcp" horiz-adv-x="531" 
d="M403 704c0 -24 -21 -45 -47 -45c-24 0 -46 21 -46 45c0 26 22 47 46 47c26 0 47 -21 47 -47zM220 704c0 -24 -21 -45 -46 -45s-46 21 -46 45c0 26 21 47 46 47s46 -21 46 -47zM37 0l191 561h75l191 -561h-68l-52 156h-217l-52 -156h-68zM176 213h179l-64 192
c-8 23 -18 58 -26 89c-8 -32 -17 -66 -25 -89z" />
    <glyph glyph-name="atilde.smcp" horiz-adv-x="531" 
d="M371 739l32 -33c-8 -18 -35 -55 -78 -55c-54 0 -85 48 -119 48c-21 0 -38 -17 -47 -28l-32 33c8 18 34 55 79 55c53 0 85 -49 119 -49c20 0 37 17 46 29zM37 0l191 561h75l191 -561h-68l-52 156h-217l-52 -156h-68zM176 213h179l-64 192c-8 23 -18 58 -26 89
c-8 -32 -17 -66 -25 -89z" />
    <glyph glyph-name="aring.smcp" horiz-adv-x="531" 
d="M266 639c-48 0 -87 39 -87 86c0 46 39 85 87 85c46 0 85 -39 85 -85c0 -47 -39 -86 -85 -86zM266 689c19 0 35 17 35 36c0 20 -16 36 -35 36c-20 0 -35 -16 -35 -36c0 -19 15 -36 35 -36zM37 0l191 561h75l191 -561h-68l-52 156h-217l-52 -156h-68zM176 213h179l-64 192
c-8 23 -18 58 -26 89c-8 -32 -17 -66 -25 -89z" />
    <glyph glyph-name="exclam.smcp" horiz-adv-x="229" 
d="M145 178h-59l-7 374l73 17zM115 -13c-24 0 -44 20 -44 43c0 24 20 42 44 42c23 0 43 -18 43 -42c0 -23 -20 -43 -43 -43z" />
    <glyph glyph-name="abreve.smcp" horiz-adv-x="531" 
d="M319 763h58c0 -68 -48 -115 -111 -115c-64 0 -112 47 -112 115h58c0 -34 23 -60 54 -60c29 0 53 26 53 60zM37 0l191 561h75l191 -561h-68l-52 156h-217l-52 -156h-68zM176 213h179l-64 192c-8 23 -18 58 -26 89c-8 -32 -17 -66 -25 -89z" />
    <glyph glyph-name="aogonek.smcp" horiz-adv-x="531" 
d="M37 0l191 561h75l191 -561c-47 -36 -91 -75 -91 -128c0 -28 18 -42 42 -42c12 0 25 1 37 6l12 -50c-16 -6 -32 -9 -48 -9c-59 0 -98 36 -98 91s42 103 82 132h-4l-52 156h-217l-52 -156h-68zM176 213h179l-64 192c-8 23 -18 58 -26 89c-8 -32 -17 -66 -25 -89z" />
    <glyph glyph-name="ae.smcp" horiz-adv-x="781" 
d="M435 0l-12 156h-224l-96 -156h-76l352 561h317l3 -60h-235l15 -190h212l-14 -57h-195l15 -194h243l3 -60h-308zM400 482l-166 -269h185z" />
    <glyph glyph-name="ccircumflex.smcp" horiz-adv-x="504" 
d="M374 639l-99 68l-99 -68l-31 52l130 79l130 -79zM444 72l13 -60c-57 -16 -103 -25 -167 -25c-128 0 -223 73 -223 225v137c0 152 95 225 223 225c62 0 109 -10 167 -27l-13 -58c-42 11 -92 24 -153 24c-94 0 -158 -52 -158 -168v-130c0 -118 64 -167 158 -167
c61 0 111 11 153 24z" />
    <glyph glyph-name="ccaron.smcp" horiz-adv-x="504" 
d="M410 718l-130 -80l-130 80l31 52l99 -69l99 69zM444 72l13 -60c-57 -16 -103 -25 -167 -25c-128 0 -223 73 -223 225v137c0 152 95 225 223 225c62 0 109 -10 167 -27l-13 -58c-42 11 -92 24 -153 24c-94 0 -158 -52 -158 -168v-130c0 -118 64 -167 158 -167
c61 0 111 11 153 24z" />
    <glyph glyph-name="ccedilla.smcp" horiz-adv-x="504" 
d="M265 -98v86c-115 9 -198 82 -198 224v137c0 152 95 225 223 225c62 0 109 -10 167 -27l-13 -58c-42 11 -92 24 -153 24c-94 0 -158 -52 -158 -168v-130c0 -118 64 -167 158 -167c61 0 111 11 153 24l13 -60c-46 -13 -84 -21 -130 -24v-93c0 -81 -58 -106 -114 -106
c-22 0 -42 2 -57 6l8 57c12 -3 30 -5 44 -5c40 0 57 18 57 55z" />
    <glyph glyph-name="dcaron.smcp" horiz-adv-x="557" 
d="M406 718l-130 -80l-130 80l31 52l99 -69l99 69zM288 0h-203v531c53 18 129 43 203 43c110 0 202 -72 202 -204v-171c0 -132 -73 -199 -202 -199zM424 202v164c0 96 -56 147 -137 147c-48 0 -103 -13 -136 -24v-429h137c90 0 136 42 136 142z" />
    <glyph glyph-name="dcroat.smcp" horiz-adv-x="557" 
d="M288 0h-203v259h-55v48h55v224c53 18 129 43 203 43c110 0 202 -72 202 -204v-171c0 -132 -73 -199 -202 -199zM424 202v164c0 96 -56 147 -137 147c-48 0 -103 -13 -136 -24v-182h135v-48h-135v-199h137c90 0 136 42 136 142z" />
    <glyph glyph-name="eth.smcp" horiz-adv-x="557" 
d="M288 0h-203v259h-55v48h55v224c53 18 129 43 203 43c110 0 202 -72 202 -204v-171c0 -132 -73 -199 -202 -199zM424 202v164c0 96 -56 147 -137 147c-48 0 -103 -13 -136 -24v-182h135v-48h-135v-199h137c90 0 136 42 136 142z" />
    <glyph glyph-name="eacute.smcp" horiz-adv-x="471" 
d="M344 708l-193 -69l-19 50l186 81zM404 0h-319v561h311v-60h-245v-190h209l-5 -57h-204v-194h253v-60z" />
    <glyph glyph-name="egrave.smcp" horiz-adv-x="471" 
d="M335 639l-193 69l26 62l186 -81zM404 0h-319v561h311v-60h-245v-190h209l-5 -57h-204v-194h253v-60z" />
    <glyph glyph-name="foursmcp.tnum" horiz-adv-x="498" 
d="M359 1l-65 -8v136h-231l-9 57l121 375h64l-116 -373h171v184l65 11v-195h85v-59h-85v-128z" />
    <glyph glyph-name="eightsmcp.tnum" horiz-adv-x="498" 
d="M319 297c66 -31 124 -72 124 -156c0 -96 -90 -154 -194 -154c-100 0 -195 56 -195 153c0 80 59 120 125 151c-58 30 -106 70 -106 140c0 77 64 143 176 143c101 0 178 -59 178 -143c0 -68 -49 -105 -108 -134zM255 324c57 26 104 54 104 108c0 51 -45 83 -110 83
s-109 -32 -109 -83c0 -56 53 -82 115 -108zM242 262c-64 -29 -120 -60 -120 -121c0 -58 56 -94 127 -94c67 0 127 34 127 94c0 61 -65 90 -134 121z" />
    <glyph glyph-name="sterlingsmcp.tnum" horiz-adv-x="498" 
d="M408 0h-316v54c40 53 60 90 61 165h-66v50h59c-10 40 -30 81 -30 144c0 107 71 161 168 161c50 0 91 -11 127 -25l-20 -56c-27 11 -66 20 -102 20c-73 0 -105 -43 -105 -105c0 -50 18 -99 28 -139h157v-50h-150c-1 -62 -12 -99 -54 -162h243v-57z" />
    <glyph glyph-name="edieresis.smcp" horiz-adv-x="471" 
d="M376 704c0 -24 -21 -45 -47 -45c-24 0 -46 21 -46 45c0 26 22 47 46 47c26 0 47 -21 47 -47zM193 704c0 -24 -21 -45 -46 -45s-46 21 -46 45c0 26 21 47 46 47s46 -21 46 -47zM404 0h-319v561h311v-60h-245v-190h209l-5 -57h-204v-194h253v-60z" />
    <glyph glyph-name="ecaron.smcp" horiz-adv-x="471" 
d="M365 718l-130 -80l-130 80l31 52l99 -69l99 69zM404 0h-319v561h311v-60h-245v-190h209l-5 -57h-204v-194h253v-60z" />
    <glyph glyph-name="emacron.smcp" horiz-adv-x="471" 
d="M361 678h-253v62h253v-62zM404 0h-319v561h311v-60h-245v-190h209l-5 -57h-204v-194h253v-60z" />
    <glyph glyph-name="eogonek.smcp" horiz-adv-x="471" 
d="M392 -164l12 -50c-16 -6 -32 -9 -48 -9c-59 0 -98 36 -98 91s42 103 82 132h-255v561h311v-60h-245v-190h209l-5 -57h-204v-194h253v-60c-47 -36 -91 -75 -91 -128c0 -28 18 -42 42 -42c12 0 25 1 37 6z" />
    <glyph glyph-name="edotaccent.smcp" horiz-adv-x="471" 
d="M290 704c0 -24 -21 -45 -47 -45c-24 0 -46 21 -46 45c0 26 22 47 46 47c26 0 47 -21 47 -47zM404 0h-319v561h311v-60h-245v-190h209l-5 -57h-204v-194h253v-60z" />
    <glyph glyph-name="gcircumflex.smcp" horiz-adv-x="540" 
d="M370 639l-99 68l-99 -68l-31 52l130 79l130 -79zM406 63v180h-66v55h129v-280c-52 -17 -114 -31 -179 -31c-128 0 -223 73 -223 225v137c0 152 95 225 223 225c63 0 108 -11 166 -27l-14 -58c-42 13 -91 24 -151 24c-94 0 -158 -52 -158 -167v-131
c0 -115 64 -167 158 -167c46 0 80 7 115 15z" />
    <glyph glyph-name="gdotaccent.smcp" horiz-adv-x="540" 
d="M325 704c0 -24 -21 -45 -47 -45c-24 0 -46 21 -46 45c0 26 22 47 46 47c26 0 47 -21 47 -47zM406 63v180h-66v55h129v-280c-52 -17 -114 -31 -179 -31c-128 0 -223 73 -223 225v137c0 152 95 225 223 225c63 0 108 -11 166 -27l-14 -58c-42 13 -91 24 -151 24
c-94 0 -158 -52 -158 -167v-131c0 -115 64 -167 158 -167c46 0 80 7 115 15z" />
    <glyph glyph-name="gcommaaccent.smcp" horiz-adv-x="540" 
d="M406 63v180h-66v55h129v-280c-52 -17 -114 -31 -179 -31c-128 0 -223 73 -223 225v137c0 152 95 225 223 225c63 0 108 -11 166 -27l-14 -58c-42 13 -91 24 -151 24c-94 0 -158 -52 -158 -167v-131c0 -115 64 -167 158 -167c46 0 80 7 115 15zM267 -224h-49l31 159h69z
" />
    <glyph glyph-name="hcircumflex.smcp" horiz-adv-x="566" 
d="M382 639l-99 68l-99 -68l-31 52l130 79l130 -79zM481 0h-66v256h-264v-256h-66v561h66v-246h264v246h66v-561z" />
    <glyph glyph-name="hbar.smcp" horiz-adv-x="566" 
d="M481 0h-66v256h-264v-256h-66v408h-35v49h35v104h66v-104h264v104h66v-104h35v-49h-35v-408zM415 315v93h-264v-93h264z" />
    <glyph glyph-name="iacute.smcp" horiz-adv-x="236" 
d="M224 708l-193 -69l-19 50l186 81zM151 0h-66v561h66v-561z" />
    <glyph glyph-name="four.smcp" horiz-adv-x="491" 
d="M356 1l-65 -8v136h-231l-9 57l121 375h64l-116 -373h171v184l65 11v-195h85v-59h-85v-128z" />
    <glyph glyph-name="eight.smcp" horiz-adv-x="505" 
d="M323 297c66 -31 124 -72 124 -156c0 -96 -90 -154 -194 -154c-100 0 -195 56 -195 153c0 80 59 120 125 151c-58 30 -106 70 -106 140c0 77 64 143 176 143c101 0 178 -59 178 -143c0 -68 -49 -105 -108 -134zM259 324c57 26 104 54 104 108c0 51 -45 83 -110 83
s-109 -32 -109 -83c0 -56 53 -82 115 -108zM246 262c-64 -29 -120 -60 -120 -121c0 -58 56 -94 127 -94c67 0 127 34 127 94c0 61 -65 90 -134 121z" />
    <glyph glyph-name="igrave.smcp" horiz-adv-x="236" 
d="M205 639l-193 69l26 62l186 -81zM151 0h-66v561h66v-561z" />
    <glyph glyph-name="icircumflex.smcp" horiz-adv-x="236" 
d="M217 639l-99 68l-99 -68l-31 52l130 79l130 -79zM151 0h-66v561h66v-561z" />
    <glyph glyph-name="sterling.smcp" horiz-adv-x="437" 
d="M382 0h-316v54c40 53 60 90 61 165h-66v50h59c-10 40 -30 81 -30 144c0 107 71 161 168 161c50 0 91 -11 127 -25l-20 -56c-27 11 -66 20 -102 20c-73 0 -105 -43 -105 -105c0 -50 18 -99 28 -139h157v-50h-150c-1 -62 -12 -99 -54 -162h243v-57z" />
    <glyph glyph-name="itilde.smcp" horiz-adv-x="236" 
d="M224 739l32 -33c-8 -18 -35 -55 -78 -55c-54 0 -85 48 -119 48c-21 0 -38 -17 -47 -28l-32 33c8 18 34 55 79 55c53 0 85 -49 119 -49c20 0 37 17 46 29zM151 0h-66v561h66v-561z" />
    <glyph glyph-name="imacron.smcp" horiz-adv-x="236" 
d="M245 678h-253v62h253v-62zM151 0h-66v561h66v-561z" />
    <glyph glyph-name="ibreve.smcp" horiz-adv-x="236" 
d="M172 763h58c0 -68 -48 -115 -111 -115c-64 0 -112 47 -112 115h58c0 -34 23 -60 54 -60c29 0 53 26 53 60zM151 0h-66v561h66v-561z" />
    <glyph glyph-name="ij.smcp" horiz-adv-x="647" 
d="M505 181v380l66 -6v-377c0 -117 -68 -189 -178 -189c-46 0 -91 9 -137 25l15 56c33 -11 78 -21 119 -21c82 0 115 57 115 132zM151 0h-66v561h66v-561z" />
    <glyph glyph-name="jcircumflex.smcp" horiz-adv-x="428" 
d="M416 639l-99 68l-99 -68l-31 52l130 79l130 -79zM286 179v382l66 -6v-378c0 -118 -68 -190 -178 -190c-46 0 -91 9 -137 25l15 58c33 -12 77 -22 119 -22c82 0 115 57 115 131z" />
    <glyph glyph-name="kcommaaccent.smcp" horiz-adv-x="523" 
d="M486 0h-77l-183 254l-75 -100v-154h-66v561h66v-300l231 300h74l-190 -253zM264 -224h-49l31 159h69z" />
    <glyph glyph-name="tilde.smcp" horiz-adv-x="446" 
d="M329 739l32 -33c-8 -18 -35 -55 -78 -55c-54 0 -85 48 -119 48c-21 0 -38 -17 -47 -28l-32 33c8 18 34 55 79 55c53 0 85 -49 119 -49c20 0 37 17 46 29z" />
    <glyph glyph-name="lcaron.smcp" horiz-adv-x="454" 
d="M344 380h-49v181l72 10zM403 0h-318v561h66v-501h258z" />
    <glyph glyph-name="lcommaaccent.smcp" horiz-adv-x="454" 
d="M403 0h-318v561h66v-501h258zM232 -224h-49l31 159h69z" />
    <glyph glyph-name="ldot.smcp" horiz-adv-x="454" 
d="M403 0h-318v561h66v-501h258zM352 268c0 -24 -21 -45 -48 -45c-24 0 -46 21 -46 45c0 27 22 48 46 48c27 0 48 -21 48 -48z" />
    <glyph glyph-name="lslash.smcp" horiz-adv-x="454" 
d="M403 0h-318v239l-52 -18l-15 42l67 23v275h66v-252l87 31l16 -42l-103 -36v-202h258z" />
    <glyph glyph-name="ring.smcp" horiz-adv-x="342" 
d="M172 639c-48 0 -87 39 -87 86c0 46 39 85 87 85c46 0 85 -39 85 -85c0 -47 -39 -86 -85 -86zM172 689c19 0 35 17 35 36c0 20 -16 36 -35 36c-20 0 -35 -16 -35 -36c0 -19 15 -36 35 -36z" />
    <glyph glyph-name="nacute.smcp" horiz-adv-x="560" 
d="M384 708l-193 -69l-19 50l186 81zM475 0h-56l-272 428c4 -29 4 -64 4 -86v-342h-66v561h51l275 -435c-2 30 -2 63 -2 85v350h66v-561z" />
    <glyph glyph-name="ntilde.smcp" horiz-adv-x="560" 
d="M386 739l32 -33c-8 -18 -35 -55 -78 -55c-54 0 -85 48 -119 48c-21 0 -38 -17 -47 -28l-32 33c8 18 34 55 79 55c53 0 85 -49 119 -49c20 0 37 17 46 29zM475 0h-56l-272 428c4 -29 4 -64 4 -86v-342h-66v561h51l275 -435c-2 30 -2 63 -2 85v350h66v-561z" />
    <glyph glyph-name="ncaron.smcp" horiz-adv-x="560" 
d="M410 718l-130 -80l-130 80l31 52l99 -69l99 69zM475 0h-56l-272 428c4 -29 4 -64 4 -86v-342h-66v561h51l275 -435c-2 30 -2 63 -2 85v350h66v-561z" />
    <glyph glyph-name="eng.smcp" horiz-adv-x="560" 
d="M475 -168l-64 -16v196l-264 416c4 -29 4 -64 4 -86v-342h-66v561h51l275 -435c-2 30 -2 63 -2 85v350h66v-729z" />
    <glyph glyph-name="caron.smcp" horiz-adv-x="460" 
d="M360 718l-130 -80l-130 80l31 52l99 -69l99 69z" />
    <glyph glyph-name="oacute.smcp" horiz-adv-x="561" 
d="M386 708l-193 -69l-19 50l186 81zM494 347v-135c0 -152 -96 -225 -213 -225c-118 0 -214 73 -214 225v135c0 152 96 227 214 227c117 0 213 -75 213 -227zM428 216v128c0 116 -61 169 -147 169s-148 -53 -148 -169v-128c0 -115 62 -168 148 -168s147 53 147 168z" />
    <glyph glyph-name="ograve.smcp" horiz-adv-x="561" 
d="M367 639l-193 69l26 62l186 -81zM494 347v-135c0 -152 -96 -225 -213 -225c-118 0 -214 73 -214 225v135c0 152 96 227 214 227c117 0 213 -75 213 -227zM428 216v128c0 116 -61 169 -147 169s-148 -53 -148 -169v-128c0 -115 62 -168 148 -168s147 53 147 168z" />
    <glyph glyph-name="odieresis.smcp" horiz-adv-x="561" 
d="M418 704c0 -24 -21 -45 -47 -45c-24 0 -46 21 -46 45c0 26 22 47 46 47c26 0 47 -21 47 -47zM235 704c0 -24 -21 -45 -46 -45s-46 21 -46 45c0 26 21 47 46 47s46 -21 46 -47zM494 347v-135c0 -152 -96 -225 -213 -225c-118 0 -214 73 -214 225v135c0 152 96 227 214 227
c117 0 213 -75 213 -227zM428 216v128c0 116 -61 169 -147 169s-148 -53 -148 -169v-128c0 -115 62 -168 148 -168s147 53 147 168z" />
    <glyph glyph-name="otilde.smcp" horiz-adv-x="561" 
d="M386 739l32 -33c-8 -18 -35 -55 -78 -55c-54 0 -85 48 -119 48c-21 0 -38 -17 -47 -28l-32 33c8 18 34 55 79 55c53 0 85 -49 119 -49c20 0 37 17 46 29zM494 347v-135c0 -152 -96 -225 -213 -225c-118 0 -214 73 -214 225v135c0 152 96 227 214 227
c117 0 213 -75 213 -227zM428 216v128c0 116 -61 169 -147 169s-148 -53 -148 -169v-128c0 -115 62 -168 148 -168s147 53 147 168z" />
    <glyph glyph-name="obreve.smcp" horiz-adv-x="561" 
d="M334 763h58c0 -68 -48 -115 -111 -115c-64 0 -112 47 -112 115h58c0 -34 23 -60 54 -60c29 0 53 26 53 60zM494 347v-135c0 -152 -96 -225 -213 -225c-118 0 -214 73 -214 225v135c0 152 96 227 214 227c117 0 213 -75 213 -227zM428 216v128c0 116 -61 169 -147 169
s-148 -53 -148 -169v-128c0 -115 62 -168 148 -168s147 53 147 168z" />
    <glyph glyph-name="ohungarumlaut.smcp" horiz-adv-x="561" 
d="M513 725l-162 -92l-28 46l156 103zM317 724l-162 -92l-28 46l156 103zM494 347v-135c0 -152 -96 -225 -213 -225c-118 0 -214 73 -214 225v135c0 152 96 227 214 227c117 0 213 -75 213 -227zM428 216v128c0 116 -61 169 -147 169s-148 -53 -148 -169v-128
c0 -115 62 -168 148 -168s147 53 147 168z" />
    <glyph glyph-name="oslash.smcp" horiz-adv-x="561" 
d="M140 -51l-50 23l37 73c-37 37 -60 93 -60 167v135c0 152 96 227 214 227c37 0 72 -8 103 -23l31 61l50 -23l-36 -70c40 -37 65 -95 65 -172v-135c0 -152 -96 -225 -213 -225c-40 0 -77 8 -109 25zM159 109l197 386c-22 12 -47 18 -75 18c-86 0 -148 -53 -148 -169v-128
c0 -45 10 -81 26 -107zM428 216v128c0 49 -11 86 -30 113l-198 -389c23 -13 50 -20 81 -20c86 0 147 53 147 168z" />
    <glyph glyph-name="oe.smcp" horiz-adv-x="791" 
d="M724 0h-363c-25 -8 -52 -13 -80 -13c-118 0 -214 73 -214 225v135c0 152 96 227 214 227c28 0 55 -5 79 -13h356v-60h-270c30 -37 48 -88 48 -154v-36h186l-5 -57h-181v-42c0 -65 -18 -116 -47 -152h277v-60zM428 216v128c0 116 -61 169 -147 169s-148 -53 -148 -169
v-128c0 -115 62 -168 148 -168s147 53 147 168z" />
    <glyph glyph-name="amacron.smcp" horiz-adv-x="531" 
d="M392 678h-253v62h253v-62zM37 0l191 561h75l191 -561h-68l-52 156h-217l-52 -156h-68zM176 213h179l-64 192c-8 23 -18 58 -26 89c-8 -32 -17 -66 -25 -89z" />
    <glyph glyph-name="cacute.smcp" horiz-adv-x="504" 
d="M378 708l-193 -69l-19 50l186 81zM444 72l13 -60c-57 -16 -103 -25 -167 -25c-128 0 -223 73 -223 225v137c0 152 95 225 223 225c62 0 109 -10 167 -27l-13 -58c-42 11 -92 24 -153 24c-94 0 -158 -52 -158 -168v-130c0 -118 64 -167 158 -167c61 0 111 11 153 24z" />
    <glyph glyph-name="thorn.smcp" horiz-adv-x="492" 
d="M275 115h-124v-115h-66v561h66v-110h124c104 0 172 -76 172 -168c0 -90 -68 -168 -172 -168zM151 175h124c67 0 105 45 105 108s-38 108 -105 108h-124v-216z" />
    <glyph glyph-name="racute.smcp" horiz-adv-x="497" 
d="M354 708l-193 -69l-19 50l186 81zM446 0h-74l-111 230h-110v-230h-66v561h191c104 0 171 -76 171 -168c0 -66 -39 -134 -119 -156zM151 285h125c66 0 104 45 104 108c0 62 -38 107 -104 107h-125v-215z" />
    <glyph glyph-name="rcaron.smcp" horiz-adv-x="497" 
d="M378 718l-130 -80l-130 80l31 52l99 -69l99 69zM446 0h-74l-111 230h-110v-230h-66v561h191c104 0 171 -76 171 -168c0 -66 -39 -134 -119 -156zM151 285h125c66 0 104 45 104 108c0 62 -38 107 -104 107h-125v-215z" />
    <glyph glyph-name="rcommaaccent.smcp" horiz-adv-x="497" 
d="M446 0h-74l-111 230h-110v-230h-66v561h191c104 0 171 -76 171 -168c0 -66 -39 -134 -119 -156zM151 285h125c66 0 104 45 104 108c0 62 -38 107 -104 107h-125v-215zM246 -224h-49l31 159h69z" />
    <glyph glyph-name="scircumflex.smcp" horiz-adv-x="450" 
d="M324 639l-99 68l-99 -68l-31 52l130 79l130 -79zM50 16l12 60c46 -15 100 -28 155 -28c60 0 115 32 115 95c0 147 -271 98 -271 286c0 88 74 145 177 145c51 0 98 -10 148 -28l-17 -57c-44 14 -86 24 -131 24c-67 0 -109 -30 -109 -82c0 -137 271 -90 271 -287
c0 -103 -84 -157 -183 -157c-67 0 -123 15 -167 29z" />
    <glyph glyph-name="scaron.smcp" horiz-adv-x="450" 
d="M355 718l-130 -80l-130 80l31 52l99 -69l99 69zM50 16l12 60c46 -15 100 -28 155 -28c60 0 115 32 115 95c0 147 -271 98 -271 286c0 88 74 145 177 145c51 0 98 -10 148 -28l-17 -57c-44 14 -86 24 -131 24c-67 0 -109 -30 -109 -82c0 -137 271 -90 271 -287
c0 -103 -84 -157 -183 -157c-67 0 -123 15 -167 29z" />
    <glyph glyph-name="scedilla.smcp" horiz-adv-x="450" 
d="M200 -98v85c-60 2 -110 16 -150 29l12 60c46 -15 100 -28 155 -28c60 0 115 32 115 95c0 147 -271 98 -271 286c0 88 74 145 177 145c51 0 98 -10 148 -28l-17 -57c-44 14 -86 24 -131 24c-67 0 -109 -30 -109 -82c0 -137 271 -90 271 -287c0 -87 -60 -139 -138 -153v-96
c0 -81 -58 -106 -114 -106c-22 0 -42 2 -57 6l8 57c12 -3 30 -5 44 -5c40 0 57 18 57 55z" />
    <glyph glyph-name="germandbls.smcp" horiz-adv-x="870" 
d="M470 16l12 60c46 -15 100 -28 155 -28c60 0 115 32 115 95c0 147 -271 98 -271 286c0 88 74 145 177 145c51 0 98 -10 148 -28l-17 -57c-44 14 -86 24 -131 24c-67 0 -109 -30 -109 -82c0 -137 271 -90 271 -287c0 -103 -84 -157 -183 -157c-67 0 -123 15 -167 29zM50 16
l12 60c46 -15 100 -28 155 -28c60 0 115 32 115 95c0 147 -271 98 -271 286c0 88 74 145 177 145c51 0 98 -10 148 -28l-17 -57c-44 14 -86 24 -131 24c-67 0 -109 -30 -109 -82c0 -137 271 -90 271 -287c0 -103 -84 -157 -183 -157c-67 0 -123 15 -167 29z" />
    <glyph glyph-name="tcaron.smcp" horiz-adv-x="468" 
d="M364 718l-130 -80l-130 80l31 52l99 -69l99 69zM267 0h-66v500h-163v61h392v-61h-163v-500z" />
    <glyph glyph-name="tcommaaccent.smcp" horiz-adv-x="468" 
d="M267 0h-66v500h-163v61h392v-61h-163v-500zM217 -224h-49l31 159h69z" />
    <glyph glyph-name="uacute.smcp" horiz-adv-x="562" 
d="M387 708l-193 -69l-19 50l186 81zM417 180v381h65v-384c0 -113 -90 -190 -200 -190c-111 0 -202 77 -202 190v384h66v-381c0 -77 56 -132 136 -132s135 55 135 132z" />
    <glyph glyph-name="ugrave.smcp" horiz-adv-x="562" 
d="M368 639l-193 69l26 62l186 -81zM417 180v381h65v-384c0 -113 -90 -190 -200 -190c-111 0 -202 77 -202 190v384h66v-381c0 -77 56 -132 136 -132s135 55 135 132z" />
    <glyph glyph-name="ucircumflex.smcp" horiz-adv-x="562" 
d="M380 639l-99 68l-99 -68l-31 52l130 79l130 -79zM417 180v381h65v-384c0 -113 -90 -190 -200 -190c-111 0 -202 77 -202 190v384h66v-381c0 -77 56 -132 136 -132s135 55 135 132z" />
    <glyph glyph-name="udieresis.smcp" horiz-adv-x="562" 
d="M419 704c0 -24 -21 -45 -47 -45c-24 0 -46 21 -46 45c0 26 22 47 46 47c26 0 47 -21 47 -47zM236 704c0 -24 -21 -45 -46 -45s-46 21 -46 45c0 26 21 47 46 47s46 -21 46 -47zM417 180v381h65v-384c0 -113 -90 -190 -200 -190c-111 0 -202 77 -202 190v384h66v-381
c0 -77 56 -132 136 -132s135 55 135 132z" />
    <glyph glyph-name="utilde.smcp" horiz-adv-x="562" 
d="M387 739l32 -33c-8 -18 -35 -55 -78 -55c-54 0 -85 48 -119 48c-21 0 -38 -17 -47 -28l-32 33c8 18 34 55 79 55c53 0 85 -49 119 -49c20 0 37 17 46 29zM417 180v381h65v-384c0 -113 -90 -190 -200 -190c-111 0 -202 77 -202 190v384h66v-381c0 -77 56 -132 136 -132
s135 55 135 132z" />
    <glyph glyph-name="uring.smcp" horiz-adv-x="562" 
d="M282 639c-48 0 -87 39 -87 86c0 46 39 85 87 85c46 0 85 -39 85 -85c0 -47 -39 -86 -85 -86zM282 689c19 0 35 17 35 36c0 20 -16 36 -35 36c-20 0 -35 -16 -35 -36c0 -19 15 -36 35 -36zM417 180v381h65v-384c0 -113 -90 -190 -200 -190c-111 0 -202 77 -202 190v384h66
v-381c0 -77 56 -132 136 -132s135 55 135 132z" />
    <glyph glyph-name="ubreve.smcp" horiz-adv-x="562" 
d="M335 763h58c0 -68 -48 -115 -111 -115c-64 0 -112 47 -112 115h58c0 -34 23 -60 54 -60c29 0 53 26 53 60zM417 180v381h65v-384c0 -113 -90 -190 -200 -190c-111 0 -202 77 -202 190v384h66v-381c0 -77 56 -132 136 -132s135 55 135 132z" />
    <glyph glyph-name="uhungarumlaut.smcp" horiz-adv-x="562" 
d="M503 725l-162 -92l-28 46l156 103zM307 724l-162 -92l-28 46l156 103zM417 180v381h65v-384c0 -113 -90 -190 -200 -190c-111 0 -202 77 -202 190v384h66v-381c0 -77 56 -132 136 -132s135 55 135 132z" />
    <glyph glyph-name="uogonek.smcp" horiz-adv-x="562" 
d="M318 -164l12 -50c-16 -6 -32 -9 -48 -9c-59 0 -98 36 -98 91c0 49 33 92 68 121c-97 12 -172 85 -172 188v384h66v-381c0 -77 56 -132 136 -132s135 55 135 132v381h65v-384c0 -101 -72 -173 -166 -187c-41 -33 -77 -70 -77 -118c0 -28 18 -42 42 -42c12 0 25 1 37 6z
" />
    <glyph glyph-name="wacute.smcp" horiz-adv-x="726" 
d="M469 708l-193 -69l-19 50l186 81zM153 0l-107 561h66l75 -406c4 -23 7 -55 9 -84c8 30 16 61 23 83l105 320h78l105 -320c7 -22 15 -53 22 -82c3 29 7 60 11 83l74 406h66l-107 -561h-77l-113 340c-6 20 -14 48 -20 73c-6 -25 -14 -53 -20 -73l-113 -340h-77z" />
    <glyph glyph-name="wcircumflex.smcp" horiz-adv-x="726" 
d="M462 639l-99 68l-99 -68l-31 52l130 79l130 -79zM153 0l-107 561h66l75 -406c4 -23 7 -55 9 -84c8 30 16 61 23 83l105 320h78l105 -320c7 -22 15 -53 22 -82c3 29 7 60 11 83l74 406h66l-107 -561h-77l-113 340c-6 20 -14 48 -20 73c-6 -25 -14 -53 -20 -73l-113 -340
h-77z" />
    <glyph glyph-name="wdieresis.smcp" horiz-adv-x="726" 
d="M501 704c0 -24 -21 -45 -47 -45c-24 0 -46 21 -46 45c0 26 22 47 46 47c26 0 47 -21 47 -47zM318 704c0 -24 -21 -45 -46 -45s-46 21 -46 45c0 26 21 47 46 47s46 -21 46 -47zM153 0l-107 561h66l75 -406c4 -23 7 -55 9 -84c8 30 16 61 23 83l105 320h78l105 -320
c7 -22 15 -53 22 -82c3 29 7 60 11 83l74 406h66l-107 -561h-77l-113 340c-6 20 -14 48 -20 73c-6 -25 -14 -53 -20 -73l-113 -340h-77z" />
    <glyph glyph-name="yacute.smcp" horiz-adv-x="499" 
d="M355 708l-193 -69l-19 50l186 81zM216 0v215l-183 346h70l146 -281l146 281h71l-184 -346v-215h-66z" />
    <glyph glyph-name="ycircumflex.smcp" horiz-adv-x="499" 
d="M348 639l-99 68l-99 -68l-31 52l130 79l130 -79zM216 0v215l-183 346h70l146 -281l146 281h71l-184 -346v-215h-66z" />
    <glyph glyph-name="ydieresis.smcp" horiz-adv-x="499" 
d="M387 704c0 -24 -21 -45 -47 -45c-24 0 -46 21 -46 45c0 26 22 47 46 47c26 0 47 -21 47 -47zM204 704c0 -24 -21 -45 -46 -45s-46 21 -46 45c0 26 21 47 46 47s46 -21 46 -47zM216 0v215l-183 346h70l146 -281l146 281h71l-184 -346v-215h-66z" />
    <glyph glyph-name="zacute.smcp" horiz-adv-x="490" 
d="M351 708l-193 -69l-19 50l186 81zM431 0h-380v52l293 448h-289v61h367v-50l-295 -450h312z" />
    <glyph glyph-name="zcaron.smcp" horiz-adv-x="490" 
d="M375 718l-130 -80l-130 80l31 52l99 -69l99 69zM431 0h-380v52l293 448h-289v61h367v-50l-295 -450h312z" />
    <glyph glyph-name="zdotaccent.smcp" horiz-adv-x="490" 
d="M292 704c0 -24 -21 -45 -47 -45c-24 0 -46 21 -46 45c0 26 22 47 46 47c26 0 47 -21 47 -47zM431 0h-380v52l293 448h-289v61h367v-50l-295 -450h312z" />
    <glyph glyph-name="cdotaccent.smcp" horiz-adv-x="504" 
d="M324 704c0 -24 -21 -45 -47 -45c-24 0 -46 21 -46 45c0 26 22 47 46 47c26 0 47 -21 47 -47zM444 72l13 -60c-57 -16 -103 -25 -167 -25c-128 0 -223 73 -223 225v137c0 152 95 225 223 225c62 0 109 -10 167 -27l-13 -58c-42 11 -92 24 -153 24
c-94 0 -158 -52 -158 -168v-130c0 -118 64 -167 158 -167c61 0 111 11 153 24z" />
    <glyph glyph-name="cyrbreve" horiz-adv-x="401" 
d="M201 653c33 0 53 26 59 60l55 -11c-10 -62 -55 -104 -114 -104s-104 42 -114 104l55 11c6 -34 26 -60 59 -60z" />
    <glyph glyph-name="cyrBreve" horiz-adv-x="401" 
d="M200 803c35 0 56 27 62 62l58 -11c-10 -64 -58 -107 -120 -107c-61 0 -109 43 -119 107l58 11c6 -35 27 -62 61 -62z" />
    <glyph glyph-name="commaaccent" horiz-adv-x="210" 
d="M106 -224h-49l31 159h69z" />
    <glyph glyph-name="ecircumflex.smcp" horiz-adv-x="471" 
d="M337 639l-99 68l-99 -68l-31 52l130 79l130 -79zM404 0h-319v561h311v-60h-245v-190h209l-5 -57h-204v-194h253v-60z" />
    <glyph glyph-name="ebreve.smcp" horiz-adv-x="471" 
d="M293 763h58c0 -68 -48 -115 -111 -115c-64 0 -112 47 -112 115h58c0 -34 23 -60 54 -60c29 0 53 26 53 60zM404 0h-319v561h311v-60h-245v-190h209l-5 -57h-204v-194h253v-60z" />
    <glyph glyph-name="zero.onum" 
d="M506 325v-88c0 -165 -99 -250 -220 -250c-120 0 -221 85 -221 250v88c0 164 99 249 220 249s221 -85 221 -249zM440 237v88c0 124 -64 188 -155 188c-90 0 -154 -64 -154 -188v-88c0 -125 64 -189 155 -189c90 0 154 64 154 189z" />
    <glyph glyph-name="one.onum" horiz-adv-x="377" 
d="M282 0h-66v499l-158 -32v63l224 42v-572z" />
    <glyph glyph-name="two.onum" horiz-adv-x="482" 
d="M410 0h-353v37c0 243 288 215 288 370c0 58 -43 106 -117 106c-47 0 -91 -12 -138 -34l-24 55c54 26 106 40 162 40c100 0 185 -62 185 -167c0 -182 -285 -190 -285 -347h290z" />
    <glyph glyph-name="three.onum" horiz-adv-x="465" 
d="M20 -101l19 59c46 -16 92 -25 139 -25c95 0 171 55 171 154c0 78 -47 139 -162 139h-67l-12 60l194 215h-268l-8 60h349l11 -60l-198 -215c129 0 229 -68 229 -199c0 -134 -109 -215 -239 -215c-54 0 -105 9 -158 27z" />
    </font>
</defs>
</svg>
